#define roach240_width 48
#define roach240_height 48

static char roach240_bits[] = {
 0x00, 0x00, 0x00, 0x00, 0x00, 0x00, 0x00, 0x00, 0x00, 0x00, 0x00,
 0x00, 0x00, 0x00, 0x00, 0x00, 0x00, 0x00, 0x00, 0x00, 0x00, 0x00, 0x00,
 0x00, 0x00, 0x00, 0x80, 0x00, 0x00, 0x00, 0x00, 0x00, 0x80, 0x00, 0x01,
 0x00, 0x00, 0x00, 0x80, 0xc1, 0x03, 0x00, 0x00, 0x00, 0x80, 0xf1, 0x11,
 0x00, 0x00, 0x00, 0x80, 0xf8, 0x18, 0x00, 0x00, 0x00, 0x80, 0xf8, 0x3c,
 0x00, 0x00, 0x00, 0x40, 0x7c, 0x3c, 0x00, 0x00, 0x00, 0x40, 0x7e, 0x3e,
 0x00, 0x00, 0x00, 0x20, 0x3f, 0x1e, 0x00, 0x00, 0x00, 0xa0, 0x3f, 0x1f,
 0x00, 0x00, 0x00, 0xe0, 0x9f, 0x1f, 0x3e, 0x00, 0x00, 0xc0, 0x9f, 0x0f,
 0x07, 0x00, 0x00, 0xc0, 0xcf, 0x8f, 0x00, 0x00, 0x00, 0xe6, 0xe7, 0xcf,
 0x00, 0x00, 0xc0, 0xf9, 0xe7, 0x47, 0x00, 0x00, 0x00, 0xf0, 0xf3, 0x67,
 0x00, 0x00, 0x00, 0xf8, 0xf3, 0x37, 0x00, 0x00, 0x00, 0xf8, 0xf9, 0x1f,
 0x00, 0x00, 0x00, 0xff, 0xfd, 0x07, 0x00, 0x00, 0xc0, 0x03, 0xfc, 0x01,
 0x00, 0x00, 0x60, 0x00, 0xfe, 0x01, 0x00, 0x00, 0x30, 0xfc, 0xfc, 0x03,
 0x00, 0x00, 0x30, 0xfe, 0xfb, 0x06, 0x00, 0x00, 0x30, 0xfe, 0x77, 0x06,
 0x00, 0x00, 0x1c, 0xfc, 0x37, 0x06, 0x00, 0x00, 0x02, 0xfc, 0x2f, 0x06,
 0x00, 0x00, 0x00, 0xf8, 0x7f, 0x04, 0x00, 0x00, 0x00, 0xe5, 0x6f, 0x0c,
 0x00, 0x00, 0x00, 0x8e, 0x6f, 0x00, 0x00, 0x00, 0x00, 0x7e, 0x60, 0x00,
 0x00, 0x00, 0x00, 0x3e, 0x20, 0x00, 0x00, 0x00, 0x80, 0xf0, 0x30, 0x00,
 0x00, 0x00, 0x40, 0x10, 0x30, 0x00, 0x00, 0x00, 0x00, 0x10, 0x18, 0x00,
 0x00, 0x00, 0x10, 0x00, 0x08, 0x00, 0x00, 0x00, 0x00, 0x00, 0x08, 0x00,
 0x00, 0x00, 0x00, 0x00, 0x08, 0x00, 0x00, 0x00, 0x00, 0x00, 0x08, 0x00,
 0x00, 0x00, 0x00, 0x08, 0x00, 0x00, 0x00, 0x00, 0x00, 0x00, 0x00, 0x00,
 0x00, 0x00, 0x00, 0x00, 0x00, 0x00, 0x00, 0x00, 0x00, 0x00, 0x00, 0x00,
 0x00, 0x00, 0x00, 0x00, 0x00, 0x00, 0x00, 0x00, 0x00, 0x00, 0x00, 0x00,
 0x00};

