#define roach255_width 48
#define roach255_height 48

static char roach255_bits[] = {
 0x00, 0x00, 0x00, 0x00, 0x00, 0x00, 0x00, 0x00, 0x00, 0x00, 0x00,
 0x00, 0x00, 0x00, 0x00, 0x00, 0x00, 0x00, 0x00, 0x00, 0x00, 0x00, 0x00,
 0x00, 0x00, 0x00, 0x02, 0x18, 0x00, 0x00, 0x00, 0x00, 0x06, 0x9c, 0x01,
 0x00, 0x00, 0x00, 0x0c, 0x9e, 0x03, 0x00, 0x00, 0x00, 0x18, 0x8f, 0x03,
 0x00, 0x00, 0x00, 0x18, 0xcf, 0x03, 0x00, 0x00, 0x00, 0x98, 0xcf, 0x03,
 0x00, 0x00, 0x00, 0x88, 0xcf, 0x83, 0x01, 0x00, 0x00, 0xc8, 0xc7, 0xe3,
 0x00, 0x00, 0x00, 0xc8, 0xe7, 0x63, 0x00, 0x00, 0x00, 0xec, 0xe7, 0x33,
 0x00, 0x00, 0x00, 0xec, 0xe7, 0x33, 0x00, 0x00, 0x00, 0xf8, 0xe3, 0x13,
 0x00, 0x00, 0x00, 0xf8, 0xf3, 0x1b, 0x00, 0x00, 0x00, 0xf0, 0xf3, 0x1b,
 0x00, 0x00, 0x00, 0xf0, 0xf3, 0x09, 0x00, 0x00, 0x80, 0xff, 0xf9, 0x07,
 0x00, 0x00, 0xc0, 0xf8, 0xf9, 0x01, 0x00, 0x00, 0xe0, 0xf8, 0xf9, 0x01,
 0x00, 0x00, 0x10, 0xfc, 0xf9, 0x01, 0x00, 0x00, 0x00, 0xfc, 0xfc, 0x07,
 0x00, 0x00, 0x00, 0x02, 0xfc, 0x0c, 0x00, 0x00, 0x00, 0x01, 0xf8, 0x0c,
 0x00, 0x00, 0x80, 0xf8, 0x63, 0x18, 0x00, 0x00, 0xc0, 0xfc, 0x6f, 0x18,
 0x00, 0x00, 0x60, 0xfc, 0x9f, 0x30, 0x00, 0x00, 0x60, 0xfc, 0x3f, 0x01,
 0x00, 0x00, 0x60, 0xf8, 0x3f, 0x01, 0x00, 0x00, 0x20, 0xe0, 0x3f, 0x01,
 0x00, 0x00, 0x38, 0xb0, 0x8f, 0x01, 0x00, 0x00, 0x08, 0xf4, 0x83, 0x01,
 0x00, 0x00, 0x00, 0xf0, 0x81, 0x01, 0x00, 0x00, 0x00, 0xf0, 0x85, 0x00,
 0x00, 0x00, 0x00, 0x08, 0xc1, 0x00, 0x00, 0x00, 0x00, 0x00, 0x81, 0x00,
 0x00, 0x00, 0x00, 0x00, 0x81, 0x01, 0x00, 0x00, 0x00, 0x00, 0x01, 0x01,
 0x00, 0x00, 0x00, 0x00, 0x01, 0x00, 0x00, 0x00, 0x00, 0x00, 0x00, 0x00,
 0x00, 0x00, 0x00, 0x00, 0x01, 0x00, 0x00, 0x00, 0x00, 0x00, 0x01, 0x00,
 0x00, 0x00, 0x00, 0x00, 0x00, 0x00, 0x00, 0x00, 0x00, 0x00, 0x00, 0x00,
 0x00, 0x00, 0x00, 0x00, 0x00, 0x00, 0x00, 0x00, 0x00, 0x00, 0x00, 0x00,
 0x00};

