#define roach105_width 48
#define roach105_height 48

static char roach105_bits[] = {
 0x00, 0x00, 0x00, 0x00, 0x00, 0x00, 0x00, 0x00, 0x00, 0x00, 0x00,
 0x00, 0x00, 0x00, 0x00, 0x00, 0x00, 0x00, 0x00, 0x00, 0x00, 0x00, 0x00,
 0x00, 0x00, 0x00, 0x00, 0x00, 0x00, 0x00, 0x00, 0x00, 0x00, 0x00, 0x00,
 0x00, 0x00, 0x00, 0x00, 0x00, 0x00, 0x00, 0x00, 0x00, 0x00, 0x80, 0x00,
 0x00, 0x00, 0x00, 0x01, 0x80, 0x00, 0x00, 0x00, 0x00, 0x00, 0xc0, 0x00,
 0x00, 0x00, 0x00, 0x00, 0xc0, 0x00, 0x00, 0x00, 0x00, 0xfc, 0xc1, 0x00,
 0x00, 0x00, 0x06, 0xf8, 0xc0, 0x00, 0x00, 0x00, 0x1c, 0xfa, 0xc1, 0x00,
 0x00, 0x00, 0x18, 0x88, 0x83, 0x00, 0x00, 0x00, 0x10, 0xe0, 0x9f, 0x00,
 0x00, 0x00, 0x30, 0xf8, 0x9f, 0x00, 0x00, 0x00, 0x20, 0xfc, 0x9f, 0x10,
 0x00, 0x00, 0x60, 0xfe, 0x5f, 0x18, 0x00, 0x00, 0x60, 0xfe, 0x4f, 0x0c,
 0x00, 0x00, 0x60, 0xfc, 0x27, 0x0c, 0x00, 0x00, 0xc0, 0x78, 0x3c, 0x0e,
 0x00, 0x00, 0x80, 0x07, 0x7c, 0x06, 0x00, 0x00, 0x00, 0xfc, 0xfe, 0x03,
 0x00, 0x00, 0x08, 0xfc, 0xfe, 0x00, 0x00, 0x00, 0x78, 0xfc, 0xfd, 0x00,
 0x00, 0x00, 0xe0, 0xfc, 0xfd, 0x00, 0x00, 0x00, 0xc0, 0xff, 0xfd, 0x07,
 0x00, 0x00, 0x00, 0xf8, 0xfd, 0x05, 0x00, 0x00, 0x00, 0xf8, 0xfb, 0x05,
 0x00, 0x00, 0x00, 0xf8, 0xfb, 0x09, 0x00, 0x00, 0x00, 0xfc, 0xfb, 0x19,
 0x00, 0x00, 0x00, 0xfc, 0xf3, 0x19, 0x00, 0x00, 0x00, 0xe4, 0xf7, 0x31,
 0x00, 0x00, 0x00, 0xe4, 0xf7, 0x31, 0x00, 0x00, 0x00, 0xe4, 0xf7, 0xc1,
 0x00, 0x00, 0x00, 0xc4, 0xe7, 0x03, 0x01, 0x00, 0x00, 0xcc, 0xef, 0x03,
 0x00, 0x00, 0x00, 0x8c, 0xef, 0x03, 0x00, 0x00, 0x00, 0x8c, 0xef, 0x01,
 0x00, 0x00, 0x00, 0x0c, 0xcf, 0x01, 0x00, 0x00, 0x00, 0x0c, 0xde, 0x01,
 0x00, 0x00, 0x00, 0x06, 0x1e, 0x00, 0x00, 0x00, 0x00, 0x00, 0x00, 0x00,
 0x00, 0x00, 0x00, 0x00, 0x00, 0x00, 0x00, 0x00, 0x00, 0x00, 0x00, 0x00,
 0x00, 0x00, 0x00, 0x00, 0x00, 0x00, 0x00, 0x00, 0x00, 0x00, 0x00, 0x00,
 0x00};

