#define roach330_width 48
#define roach330_height 48

static char roach330_bits[] = {
 0x00, 0x00, 0x00, 0x00, 0x00, 0x00, 0x00, 0x00, 0x00, 0x00, 0x00,
 0x00, 0x00, 0x00, 0x00, 0x00, 0x00, 0x00, 0x00, 0x00, 0x00, 0x00, 0x00,
 0x00, 0x00, 0x00, 0x01, 0x00, 0x00, 0x00, 0x00, 0x00, 0x01, 0x00, 0x00,
 0x00, 0x00, 0x00, 0x03, 0x00, 0x00, 0x00, 0x00, 0x00, 0x03, 0x00, 0x00,
 0x00, 0x00, 0x00, 0x03, 0x00, 0x00, 0x00, 0x00, 0x00, 0x0c, 0x00, 0x00,
 0x00, 0x00, 0x00, 0x18, 0x00, 0x00, 0x00, 0x00, 0x3e, 0x60, 0x00, 0x00,
 0x00, 0x00, 0xfe, 0xc1, 0x00, 0x00, 0x00, 0x00, 0xfe, 0x8f, 0xf0, 0x01,
 0x00, 0x00, 0xf8, 0xff, 0x38, 0x00, 0x00, 0x80, 0xe0, 0xff, 0x0f, 0x00,
 0x00, 0x80, 0xc3, 0xff, 0x07, 0x00, 0x00, 0x80, 0x0f, 0xff, 0x1f, 0x03,
 0x00, 0x80, 0x3f, 0xfc, 0xff, 0x1f, 0x00, 0x00, 0xff, 0xf0, 0x7f, 0x38,
 0x00, 0x00, 0xfe, 0xe3, 0x8f, 0xe1, 0x07, 0x00, 0xf8, 0x8f, 0xc7, 0xc3,
 0x00, 0x00, 0xf0, 0x3f, 0xe6, 0x07, 0x00, 0x00, 0xe1, 0xff, 0xf0, 0x07,
 0x00, 0xc0, 0xc7, 0xff, 0xf9, 0x07, 0x00, 0x30, 0xbc, 0xff, 0xf9, 0x07,
 0x00, 0x00, 0xf0, 0xfd, 0xfd, 0x1f, 0x00, 0x00, 0x00, 0xf8, 0xfd, 0x7f,
 0x00, 0x00, 0x00, 0xf0, 0xfc, 0x1d, 0x08, 0x00, 0x00, 0xc8, 0xfd, 0x1e,
 0x00, 0x00, 0x00, 0x0c, 0x7d, 0x06, 0x00, 0x00, 0x00, 0x08, 0x19, 0x02,
 0x00, 0x00, 0x00, 0x08, 0x01, 0x00, 0x00, 0x00, 0x00, 0x18, 0x01, 0x00,
 0x00, 0x00, 0x00, 0x10, 0x0f, 0x00, 0x00, 0x00, 0x00, 0x10, 0x38, 0x00,
 0x00, 0x00, 0x00, 0x00, 0x70, 0x00, 0x00, 0x00, 0x00, 0x00, 0x40, 0x00,
 0x00, 0x00, 0x00, 0x00, 0x40, 0x00, 0x00, 0x00, 0x00, 0x00, 0x80, 0x00,
 0x00, 0x00, 0x00, 0x00, 0x00, 0x00, 0x00, 0x00, 0x00, 0x00, 0x00, 0x00,
 0x00, 0x00, 0x00, 0x00, 0x00, 0x00, 0x00, 0x00, 0x00, 0x00, 0x00, 0x00,
 0x00, 0x00, 0x00, 0x00, 0x00, 0x00, 0x00, 0x00, 0x00, 0x00, 0x00, 0x00,
 0x00, 0x00, 0x00, 0x00, 0x00, 0x00, 0x00, 0x00, 0x00, 0x00, 0x00, 0x00,
 0x00};

