#define roach045_width 48
#define roach045_height 48

static char roach045_bits[] = {
 0x00, 0x00, 0x00, 0x00, 0x00, 0x00, 0x00, 0x00, 0x00, 0x00, 0x00,
 0x00, 0x00, 0x00, 0x00, 0x00, 0x00, 0x00, 0x00, 0x00, 0x00, 0x00, 0x00,
 0x00, 0x00, 0x00, 0x00, 0x00, 0x00, 0x00, 0x00, 0x00, 0x00, 0x04, 0x00,
 0x00, 0x00, 0x00, 0x00, 0x04, 0x00, 0x00, 0x00, 0x00, 0x00, 0x04, 0x00,
 0x00, 0x00, 0x00, 0x00, 0x0c, 0x00, 0x00, 0x00, 0x00, 0x00, 0x07, 0x00,
 0x00, 0x00, 0x00, 0x80, 0x03, 0x00, 0x00, 0x00, 0x00, 0x80, 0x01, 0x01,
 0x00, 0x00, 0x00, 0xc0, 0xa0, 0x00, 0x00, 0x00, 0x00, 0x62, 0xc0, 0x43,
 0x00, 0x00, 0x00, 0x62, 0xfe, 0x13, 0x00, 0x00, 0x00, 0x23, 0xff, 0x07,
 0x00, 0x00, 0x00, 0x23, 0xff, 0x07, 0x00, 0x00, 0x00, 0x63, 0xff, 0x0b,
 0x00, 0x00, 0x00, 0x73, 0xff, 0x01, 0x00, 0x00, 0x00, 0x7e, 0xfe, 0x01,
 0x00, 0x00, 0x00, 0xfc, 0xfc, 0x03, 0x00, 0x00, 0x40, 0xfe, 0xf9, 0x03,
 0x07, 0x00, 0xf0, 0xff, 0xf1, 0xc3, 0x00, 0x00, 0x18, 0xff, 0xc0, 0xe3,
 0x00, 0x00, 0x8e, 0x7f, 0x1e, 0x70, 0x00, 0x00, 0xc7, 0x3f, 0xff, 0x1f,
 0x00, 0xfc, 0xe3, 0x9f, 0x7f, 0x07, 0x00, 0xe0, 0xe1, 0xcf, 0x3f, 0x00,
 0x00, 0x00, 0xf0, 0xe7, 0x3f, 0x00, 0x00, 0x00, 0xf8, 0xf1, 0x1f, 0x00,
 0x00, 0x00, 0xfc, 0xfc, 0xe7, 0x0f, 0x00, 0x00, 0x7e, 0xfe, 0x03, 0x00,
 0x00, 0x00, 0x3e, 0xff, 0x03, 0x00, 0x00, 0x00, 0x9f, 0xff, 0x02, 0x00,
 0x00, 0x00, 0xcf, 0x7f, 0x03, 0x00, 0x00, 0x00, 0xe7, 0x1f, 0x03, 0x00,
 0x00, 0x00, 0xf2, 0x8f, 0x03, 0x00, 0x00, 0x00, 0xf8, 0x83, 0x01, 0x00,
 0x00, 0x00, 0xf8, 0x61, 0x00, 0x00, 0x00, 0x00, 0x00, 0x60, 0x00, 0x00,
 0x00, 0x00, 0x00, 0x30, 0x00, 0x00, 0x00, 0x00, 0x00, 0x30, 0x00, 0x00,
 0x00, 0x00, 0x00, 0x20, 0x00, 0x00, 0x00, 0x00, 0x00, 0x20, 0x00, 0x00,
 0x00, 0x00, 0x00, 0x20, 0x00, 0x00, 0x00, 0x00, 0x00, 0x00, 0x00, 0x00,
 0x00, 0x00, 0x00, 0x00, 0x00, 0x00, 0x00, 0x00, 0x00, 0x00, 0x00, 0x00,
 0x00};

