#define roach315_width 48
#define roach315_height 48

static char roach315_bits[] = {
 0x00, 0x00, 0x00, 0x00, 0x00, 0x00, 0x00, 0x00, 0x00, 0x00, 0x00,
 0x00, 0x00, 0x00, 0x20, 0x00, 0x00, 0x00, 0x00, 0x00, 0x20, 0x00, 0x00,
 0x00, 0x00, 0x00, 0x20, 0x00, 0x00, 0x00, 0x00, 0x00, 0x20, 0x00, 0x00,
 0x00, 0x00, 0x00, 0x20, 0x00, 0x00, 0x00, 0x00, 0x60, 0x20, 0x00, 0x00,
 0x00, 0x00, 0xf0, 0xe1, 0x00, 0x00, 0x00, 0x00, 0xf0, 0xc7, 0x01, 0x00,
 0x00, 0x00, 0xe0, 0x9f, 0x01, 0x00, 0x00, 0x00, 0xc6, 0x3f, 0x02, 0x00,
 0x00, 0x00, 0x8e, 0x7f, 0x06, 0x00, 0x00, 0x00, 0x1e, 0xff, 0x06, 0x00,
 0x00, 0x00, 0x3e, 0xfe, 0xc3, 0x00, 0x00, 0x00, 0x7c, 0xfc, 0xe7, 0x1f,
 0x00, 0x00, 0xfc, 0xf8, 0x3f, 0x00, 0x00, 0x00, 0xf8, 0xf1, 0x1f, 0x00,
 0x00, 0x00, 0xf8, 0xe7, 0x3f, 0x00, 0x00, 0x80, 0xf1, 0xcf, 0x3f, 0x02,
 0x00, 0x00, 0xe6, 0x9f, 0xff, 0x07, 0x00, 0x00, 0xcc, 0x3f, 0x1f, 0x08,
 0x00, 0x00, 0x9c, 0x7f, 0xce, 0x31, 0x00, 0x00, 0xf0, 0xff, 0xe0, 0x63,
 0x00, 0x00, 0xc0, 0xfe, 0xf1, 0xe7, 0x03, 0x00, 0x00, 0xfc, 0xf9, 0xc7,
 0x00, 0x00, 0x00, 0xf8, 0xf8, 0x07, 0x00, 0x00, 0x00, 0xfe, 0xfc, 0x03,
 0x00, 0x00, 0x00, 0x62, 0xfe, 0x05, 0x00, 0x00, 0x00, 0x42, 0xfe, 0x0e,
 0x00, 0x00, 0x00, 0x42, 0xfe, 0x0f, 0x00, 0x00, 0x00, 0x46, 0xfe, 0x47,
 0x00, 0x00, 0x00, 0x66, 0x84, 0x03, 0x00, 0x00, 0x00, 0xc2, 0x40, 0x00,
 0x04, 0x00, 0x00, 0x80, 0x00, 0x02, 0x00, 0x00, 0x00, 0x80, 0x01, 0x00,
 0x00, 0x00, 0x00, 0x00, 0x07, 0x00, 0x00, 0x00, 0x00, 0x00, 0x06, 0x00,
 0x00, 0x00, 0x00, 0x00, 0x04, 0x08, 0x00, 0x00, 0x00, 0x00, 0x04, 0x10,
 0x00, 0x00, 0x00, 0x00, 0x00, 0x00, 0x00, 0x00, 0x00, 0x00, 0x00, 0x00,
 0x00, 0x00, 0x00, 0x00, 0x00, 0x00, 0x00, 0x00, 0x00, 0x00, 0x00, 0x00,
 0x00, 0x00, 0x00, 0x00, 0x00, 0x00, 0x00, 0x00, 0x00, 0x00, 0x00, 0x00,
 0x00, 0x00, 0x00, 0x00, 0x00, 0x00, 0x00, 0x00, 0x00, 0x00, 0x00, 0x00,
 0x00};

