#define roach345_width 48
#define roach345_height 48

static char roach345_bits[] = {
 0x00, 0x00, 0x00, 0x00, 0x00, 0x00, 0x00, 0x00, 0x00, 0x00, 0x00,
 0x00, 0x00, 0x00, 0x00, 0x00, 0x00, 0x00, 0x00, 0x00, 0x00, 0x00, 0x00,
 0x00, 0x00, 0x00, 0x00, 0x00, 0x00, 0x00, 0x00, 0x00, 0x00, 0x00, 0x00,
 0x00, 0x00, 0x00, 0x00, 0x00, 0x00, 0x00, 0x00, 0x08, 0x00, 0x00, 0x00,
 0x00, 0x00, 0x10, 0x00, 0x00, 0x00, 0x00, 0x00, 0x30, 0x00, 0x00, 0x00,
 0x00, 0x00, 0x70, 0x00, 0x00, 0x00, 0x00, 0x00, 0xe0, 0x03, 0x40, 0x00,
 0x00, 0x00, 0x00, 0x0e, 0x3c, 0x00, 0x00, 0x00, 0x00, 0x10, 0x0e, 0x00,
 0x00, 0x00, 0xff, 0x23, 0x03, 0x00, 0x00, 0x80, 0xff, 0xff, 0x83, 0x03,
 0x00, 0xc0, 0xff, 0xff, 0xe3, 0xff, 0x03, 0x80, 0xff, 0xff, 0x3f, 0x70,
 0x00, 0x00, 0xf0, 0xff, 0x1f, 0x00, 0x00, 0x40, 0x00, 0xff, 0xcf, 0x03,
 0x00, 0xe0, 0x0f, 0xf0, 0xef, 0x03, 0x00, 0xc0, 0x7f, 0x00, 0xf7, 0x07,
 0x00, 0xc0, 0xff, 0x07, 0xf0, 0x07, 0x00, 0x00, 0xff, 0x7f, 0xf0, 0xff,
 0x13, 0x00, 0xfe, 0xff, 0xf1, 0x3f, 0x00, 0x00, 0xf0, 0xff, 0xf9, 0x3b,
 0x00, 0x00, 0xc0, 0xff, 0xf9, 0x1f, 0x00, 0x00, 0x82, 0xff, 0xfb, 0x1f,
 0x00, 0x00, 0xff, 0xfb, 0xfb, 0x03, 0x00, 0x80, 0xe1, 0xe1, 0xf3, 0x81,
 0x00, 0x40, 0x00, 0x30, 0x62, 0x00, 0x02, 0x00, 0x00, 0x30, 0x04, 0x00,
 0x04, 0x00, 0x00, 0x60, 0x0c, 0x00, 0x00, 0x00, 0x00, 0xe0, 0x78, 0x00,
 0x00, 0x00, 0x00, 0xc0, 0xc0, 0x03, 0x00, 0x00, 0x00, 0x80, 0x00, 0x06,
 0x00, 0x00, 0x00, 0x00, 0x00, 0x04, 0x00, 0x00, 0x00, 0x00, 0x00, 0x00,
 0x00, 0x00, 0x00, 0x00, 0x00, 0x00, 0x00, 0x00, 0x00, 0x00, 0x00, 0x00,
 0x00, 0x00, 0x00, 0x00, 0x00, 0x00, 0x00, 0x00, 0x00, 0x00, 0x00, 0x00,
 0x00, 0x00, 0x00, 0x00, 0x00, 0x00, 0x00, 0x00, 0x00, 0x00, 0x00, 0x00,
 0x00, 0x00, 0x00, 0x00, 0x00, 0x00, 0x00, 0x00, 0x00, 0x00, 0x00, 0x00,
 0x00, 0x00, 0x00, 0x00, 0x00, 0x00, 0x00, 0x00, 0x00, 0x00, 0x00, 0x00,
 0x00};

