#define roach210_width 48
#define roach210_height 48

static char roach210_bits[] = {
 0x00, 0x00, 0x00, 0x00, 0x00, 0x00, 0x00, 0x00, 0x00, 0x00, 0x00,
 0x00, 0x00, 0x00, 0x00, 0x00, 0x00, 0x00, 0x00, 0x00, 0x00, 0x00, 0x00,
 0x00, 0x00, 0x00, 0x00, 0x00, 0x00, 0x00, 0x00, 0x00, 0x00, 0x00, 0x00,
 0x00, 0x00, 0x00, 0x00, 0x00, 0x01, 0x00, 0x00, 0x00, 0x00, 0x00, 0x01,
 0x00, 0x00, 0x00, 0x00, 0x00, 0x01, 0x00, 0x00, 0x00, 0x00, 0x00, 0x01,
 0x00, 0x00, 0x00, 0x00, 0xc0, 0x00, 0x00, 0x00, 0x00, 0x00, 0x20, 0xf0,
 0x00, 0x00, 0x00, 0x00, 0x18, 0xff, 0x01, 0x00, 0x00, 0x03, 0x8c, 0xff,
 0x01, 0x00, 0x00, 0x3e, 0xfc, 0x7f, 0x00, 0x00, 0x00, 0x60, 0xfc, 0x1f,
 0x04, 0x00, 0x00, 0xc0, 0xff, 0x0f, 0x0f, 0x00, 0x00, 0xc0, 0xff, 0xc3,
 0x0f, 0x00, 0x80, 0xe7, 0xff, 0xf0, 0x07, 0x00, 0xf0, 0xf8, 0x3f, 0xfc,
 0x03, 0x00, 0x7f, 0xf0, 0x1f, 0xff, 0x01, 0x00, 0x0e, 0xcc, 0xc7, 0xff,
 0x00, 0x00, 0x00, 0x9e, 0xf1, 0x7f, 0x00, 0x00, 0x00, 0x3f, 0xfc, 0x3f,
 0x00, 0x00, 0x00, 0x7f, 0xfe, 0x0f, 0x0f, 0x00, 0x00, 0xff, 0xfe, 0x87,
 0x33, 0x00, 0xa0, 0xff, 0xfe, 0xff, 0x00, 0x00, 0xe0, 0xff, 0xfd, 0x1c,
 0x00, 0x00, 0xf0, 0xff, 0x7d, 0x00, 0x00, 0x00, 0xe3, 0xfd, 0xfd, 0x00,
 0x00, 0x00, 0xe0, 0xf9, 0x85, 0x00, 0x00, 0x00, 0xc0, 0xf1, 0xc7, 0x00,
 0x00, 0x00, 0x40, 0xc2, 0xc2, 0x00, 0x00, 0x00, 0x00, 0x00, 0xc3, 0x00,
 0x00, 0x00, 0x20, 0x80, 0x63, 0x00, 0x00, 0x00, 0x00, 0xe0, 0x20, 0x00,
 0x00, 0x00, 0x08, 0x70, 0x20, 0x00, 0x00, 0x00, 0x00, 0x38, 0x00, 0x00,
 0x00, 0x00, 0x00, 0x0c, 0x00, 0x00, 0x00, 0x00, 0x00, 0x0c, 0x00, 0x00,
 0x00, 0x00, 0x00, 0x04, 0x00, 0x00, 0x00, 0x00, 0x00, 0x00, 0x00, 0x00,
 0x00, 0x00, 0x00, 0x00, 0x00, 0x00, 0x00, 0x00, 0x00, 0x00, 0x00, 0x00,
 0x00, 0x00, 0x00, 0x00, 0x00, 0x00, 0x00, 0x00, 0x00, 0x00, 0x00, 0x00,
 0x00, 0x00, 0x00, 0x00, 0x00, 0x00, 0x00, 0x00, 0x00, 0x00, 0x00, 0x00,
 0x00};

