#define roach060_width 48
#define roach060_height 48

static char roach060_bits[] = {
 0x00, 0x00, 0x00, 0x00, 0x00, 0x00, 0x00, 0x00, 0x00, 0x00, 0x00,
 0x00, 0x00, 0x00, 0x00, 0x00, 0x00, 0x00, 0x00, 0x00, 0x00, 0x00, 0x00,
 0x00, 0x00, 0x00, 0x00, 0x40, 0x00, 0x00, 0x00, 0x00, 0x40, 0x00, 0x00,
 0x00, 0x00, 0x00, 0x40, 0x00, 0x00, 0x00, 0x00, 0x00, 0x40, 0x00, 0x00,
 0x00, 0x00, 0x00, 0x40, 0x00, 0x00, 0x00, 0x00, 0x00, 0x40, 0x20, 0x10,
 0x00, 0x00, 0x00, 0x60, 0x00, 0x08, 0x00, 0x00, 0x00, 0x30, 0x74, 0x04,
 0x00, 0x00, 0x00, 0x30, 0xf8, 0x00, 0x00, 0x00, 0x00, 0x18, 0xfc, 0x01,
 0x00, 0x00, 0x00, 0x88, 0xff, 0x00, 0x00, 0x00, 0x40, 0xc8, 0xff, 0x02,
 0x00, 0x00, 0xc0, 0xd8, 0x7f, 0x00, 0x00, 0x00, 0xc0, 0xd8, 0xff, 0x80,
 0x01, 0x00, 0x80, 0x90, 0xff, 0xe1, 0x00, 0x00, 0x80, 0x18, 0xff, 0x61,
 0x00, 0x00, 0x80, 0x3f, 0xfe, 0x33, 0x00, 0x00, 0x00, 0x7f, 0xfc, 0x19,
 0x00, 0x00, 0x00, 0xfe, 0xf1, 0x18, 0x00, 0x00, 0x00, 0xfe, 0xfe, 0x0f,
 0x00, 0x00, 0xc0, 0xff, 0xff, 0x01, 0x00, 0x00, 0xe0, 0x7f, 0x7f, 0x00,
 0x00, 0x00, 0x90, 0xbf, 0x7f, 0x00, 0x00, 0x00, 0x98, 0xbf, 0x3f, 0x38,
 0x00, 0x00, 0xd8, 0xdf, 0x7f, 0x0f, 0x00, 0x00, 0xcc, 0xef, 0xdf, 0x01,
 0x00, 0x00, 0xe6, 0xef, 0x0f, 0x00, 0x00, 0xc0, 0xe3, 0xf7, 0x0f, 0x00,
 0x00, 0x00, 0xe0, 0xf7, 0x1f, 0x00, 0x00, 0x00, 0xf0, 0xfb, 0x1f, 0x00,
 0x00, 0x00, 0xf0, 0xf9, 0x1b, 0x00, 0x00, 0x00, 0xf0, 0xfd, 0x19, 0x00,
 0x00, 0x00, 0xf8, 0xfe, 0x08, 0x00, 0x00, 0x00, 0x78, 0x7e, 0x0c, 0x00,
 0x00, 0x00, 0x70, 0x3f, 0x04, 0x00, 0x00, 0x00, 0x30, 0x3f, 0x06, 0x00,
 0x00, 0x00, 0x80, 0x1f, 0x06, 0x00, 0x00, 0x00, 0x00, 0x07, 0x06, 0x00,
 0x00, 0x00, 0x00, 0x00, 0x04, 0x00, 0x00, 0x00, 0x00, 0x00, 0x04, 0x00,
 0x00, 0x00, 0x00, 0x00, 0x04, 0x00, 0x00, 0x00, 0x00, 0x00, 0x00, 0x00,
 0x00, 0x00, 0x00, 0x00, 0x00, 0x00, 0x00, 0x00, 0x00, 0x00, 0x00, 0x00,
 0x00};

