#define roach090_width 48
#define roach090_height 48

static char roach090_bits[] = {
 0x00, 0x00, 0x00, 0x00, 0x00, 0x00, 0x00, 0x00, 0x00, 0x00, 0x00,
 0x00, 0x00, 0x00, 0x00, 0x00, 0x00, 0x00, 0x00, 0x00, 0x00, 0x00, 0x00,
 0x00, 0x00, 0x00, 0x00, 0x10, 0x00, 0x00, 0x00, 0x00, 0x00, 0x00, 0x00,
 0x00, 0x00, 0x00, 0x00, 0x00, 0x00, 0x00, 0x00, 0x00, 0x00, 0x00, 0x00,
 0x00, 0x00, 0x00, 0x20, 0x00, 0x00, 0x00, 0x00, 0x20, 0x00, 0x04, 0x00,
 0x00, 0x00, 0xc0, 0xc0, 0x03, 0x0c, 0x00, 0x00, 0xc0, 0xd0, 0x07, 0x0c,
 0x00, 0x00, 0xc0, 0xc0, 0x07, 0x04, 0x00, 0x00, 0xc0, 0x60, 0x07, 0x06,
 0x00, 0x00, 0xc0, 0x80, 0x03, 0x06, 0x00, 0x00, 0xc0, 0xf0, 0x3f, 0x06,
 0x00, 0x00, 0x80, 0xf8, 0x7f, 0x06, 0x00, 0x00, 0x80, 0xf9, 0x7f, 0x06,
 0x00, 0x00, 0x80, 0xf9, 0x7f, 0x02, 0x00, 0x00, 0x00, 0xfb, 0x7f, 0x03,
 0x00, 0x00, 0x00, 0xf3, 0x9f, 0x61, 0x00, 0x00, 0x18, 0x1c, 0x70, 0x30,
 0x00, 0x00, 0x30, 0xfc, 0x7e, 0x18, 0x00, 0x00, 0x60, 0xfc, 0x7e, 0x0c,
 0x00, 0x00, 0xc0, 0xfc, 0x7e, 0x06, 0x00, 0x00, 0xc0, 0xff, 0xfe, 0x03,
 0x00, 0x00, 0x00, 0xfc, 0x7e, 0x00, 0x00, 0x00, 0x00, 0xfc, 0x7e, 0x00,
 0x00, 0x00, 0x00, 0xfe, 0xfe, 0x00, 0x00, 0x00, 0x00, 0xff, 0xfe, 0x01,
 0x00, 0x00, 0x00, 0xff, 0x7e, 0x01, 0x00, 0x00, 0x80, 0xfc, 0x7e, 0x03,
 0x00, 0x00, 0x80, 0xfc, 0x7e, 0x02, 0x00, 0x00, 0x80, 0xfc, 0x7e, 0x02,
 0x00, 0x00, 0x80, 0xf8, 0x3e, 0x06, 0x00, 0x00, 0xc0, 0xf8, 0x3e, 0x06,
 0x00, 0x00, 0xc0, 0xf8, 0x3e, 0x06, 0x00, 0x00, 0xc0, 0xf8, 0x3e, 0x04,
 0x00, 0x00, 0xc0, 0xf8, 0x3e, 0x0c, 0x00, 0x00, 0x60, 0xf8, 0x3e, 0x08,
 0x00, 0x00, 0x20, 0xf8, 0x3e, 0x00, 0x00, 0x00, 0x00, 0xf0, 0x1e, 0x00,
 0x00, 0x00, 0x00, 0xf0, 0x1e, 0x00, 0x00, 0x00, 0x00, 0x40, 0x00, 0x00,
 0x00, 0x00, 0x00, 0x00, 0x00, 0x00, 0x00, 0x00, 0x00, 0x00, 0x00, 0x00,
 0x00, 0x00, 0x00, 0x00, 0x00, 0x00, 0x00, 0x00, 0x00, 0x00, 0x00, 0x00,
 0x00};

