#define roach075_width 48
#define roach075_height 48

static char roach075_bits[] = {
 0x00, 0x00, 0x00, 0x00, 0x00, 0x00, 0x00, 0x00, 0x00, 0x00, 0x00,
 0x00, 0x00, 0x00, 0x00, 0x02, 0x00, 0x00, 0x00, 0x00, 0x00, 0x02, 0x00,
 0x00, 0x00, 0x00, 0x00, 0x00, 0x00, 0x00, 0x00, 0x00, 0x00, 0x02, 0x00,
 0x00, 0x00, 0x00, 0x00, 0x02, 0x00, 0x00, 0x00, 0x00, 0x02, 0x02, 0x00,
 0x00, 0x00, 0x00, 0x06, 0x80, 0x00, 0x00, 0x00, 0x00, 0x04, 0x02, 0x00,
 0x00, 0x00, 0x00, 0x84, 0x06, 0x00, 0x00, 0x00, 0x00, 0x86, 0x3e, 0x00,
 0x00, 0x00, 0x00, 0x06, 0x3f, 0x00, 0x00, 0x00, 0x00, 0x06, 0x1e, 0x60,
 0x00, 0x00, 0x00, 0xc6, 0x3f, 0x20, 0x00, 0x00, 0x00, 0xe6, 0x3f, 0x18,
 0x00, 0x00, 0x00, 0xf2, 0x7f, 0x18, 0x00, 0x00, 0x08, 0xf2, 0x7f, 0x18,
 0x00, 0x00, 0x30, 0xf6, 0xff, 0x0c, 0x00, 0x00, 0x20, 0xe4, 0xff, 0x0c,
 0x00, 0x00, 0x60, 0x98, 0xff, 0x0c, 0x00, 0x00, 0x40, 0x38, 0x38, 0x06,
 0x00, 0x00, 0xc0, 0xff, 0xe0, 0x01, 0x00, 0x00, 0x80, 0xff, 0xfe, 0x00,
 0x00, 0x00, 0x00, 0x7e, 0xfe, 0x78, 0x00, 0x00, 0x00, 0x7e, 0x7f, 0x1c,
 0x00, 0x00, 0x00, 0x7f, 0x7f, 0x0e, 0x00, 0x00, 0xc0, 0x7f, 0xff, 0x03,
 0x00, 0x00, 0xc0, 0x3e, 0x7f, 0x00, 0x00, 0x00, 0x20, 0xbf, 0x3f, 0x00,
 0x00, 0x00, 0x20, 0xbf, 0x3f, 0x00, 0x00, 0x00, 0x20, 0xbf, 0x7f, 0x00,
 0x00, 0x00, 0x10, 0x9f, 0x5f, 0x00, 0x00, 0x00, 0x10, 0xdf, 0x5f, 0x00,
 0x00, 0x00, 0x18, 0xdf, 0x4f, 0x00, 0x00, 0x00, 0x0c, 0xdf, 0x4f, 0x00,
 0x00, 0x00, 0x86, 0xcf, 0x47, 0x00, 0x00, 0x00, 0x80, 0xef, 0x47, 0x00,
 0x00, 0x00, 0x80, 0xef, 0x63, 0x00, 0x00, 0x00, 0x00, 0xef, 0x63, 0x00,
 0x00, 0x00, 0x00, 0xe7, 0x41, 0x00, 0x00, 0x00, 0x00, 0xf7, 0x81, 0x00,
 0x00, 0x00, 0x00, 0xf0, 0x00, 0x01, 0x00, 0x00, 0x00, 0x00, 0x00, 0x01,
 0x00, 0x00, 0x00, 0x00, 0x00, 0x00, 0x00, 0x00, 0x00, 0x00, 0x00, 0x00,
 0x00, 0x00, 0x00, 0x00, 0x00, 0x00, 0x00, 0x00, 0x00, 0x00, 0x00, 0x00,
 0x00};

