#define roach030_width 48
#define roach030_height 48

static char roach030_bits[] = {
 0x00, 0x00, 0x00, 0x00, 0x00, 0x00, 0x00, 0x00, 0x00, 0x00, 0x00,
 0x00, 0x00, 0x00, 0x00, 0x00, 0x00, 0x00, 0x00, 0x00, 0x00, 0x00, 0x00,
 0x00, 0x00, 0x00, 0x00, 0x00, 0x00, 0x00, 0x00, 0x00, 0x00, 0x00, 0x00,
 0x00, 0x00, 0x00, 0x00, 0x80, 0x00, 0x00, 0x00, 0x00, 0x00, 0xc0, 0x00,
 0x00, 0x00, 0x00, 0x00, 0xc0, 0x00, 0x00, 0x00, 0x00, 0x00, 0x70, 0x00,
 0x00, 0x00, 0x00, 0x00, 0x38, 0x40, 0x00, 0x00, 0x00, 0x10, 0x1e, 0x00,
 0x00, 0x00, 0x00, 0x18, 0x07, 0x00, 0x00, 0x00, 0x00, 0x98, 0x01, 0x09,
 0x00, 0x00, 0x00, 0x8c, 0x01, 0x04, 0x00, 0x00, 0x00, 0x8c, 0xb8, 0x07,
 0x00, 0x00, 0x00, 0x84, 0x7c, 0x0f, 0x00, 0x00, 0x00, 0xfc, 0xfc, 0x8e,
 0x00, 0x00, 0x00, 0xf8, 0xfc, 0x1f, 0x00, 0x00, 0xe0, 0xff, 0xfc, 0x05,
 0x00, 0x04, 0x1e, 0xff, 0xfd, 0x17, 0x00, 0xf8, 0x87, 0xff, 0xf9, 0x03,
 0x00, 0xe0, 0xc0, 0xff, 0xf9, 0x07, 0x00, 0x00, 0xf0, 0x7f, 0xf0, 0x07,
 0x00, 0x00, 0xf8, 0x1f, 0xe7, 0x03, 0x00, 0x00, 0xfe, 0xcf, 0xcf, 0xc1,
 0x03, 0x00, 0xff, 0xf3, 0x1f, 0xe0, 0x00, 0x80, 0xff, 0xfc, 0xff, 0x3f,
 0x00, 0x80, 0x3f, 0xfe, 0xbf, 0x07, 0x00, 0xc0, 0x9f, 0xff, 0x07, 0x00,
 0x00, 0xc0, 0xe7, 0xff, 0x0f, 0x00, 0x00, 0xc0, 0xf9, 0xff, 0x3c, 0x00,
 0x00, 0x00, 0xfe, 0xff, 0xf8, 0x01, 0x00, 0x00, 0xff, 0x8f, 0x00, 0x02,
 0x00, 0x00, 0xff, 0x61, 0x00, 0x00, 0x00, 0x00, 0x1f, 0x30, 0x00, 0x00,
 0x00, 0x00, 0x00, 0x1c, 0x00, 0x00, 0x00, 0x00, 0x00, 0x0e, 0x00, 0x00,
 0x00, 0x00, 0x00, 0x03, 0x00, 0x00, 0x00, 0x00, 0x00, 0x03, 0x00, 0x00,
 0x00, 0x00, 0x00, 0x01, 0x00, 0x00, 0x00, 0x00, 0x00, 0x01, 0x00, 0x00,
 0x00, 0x00, 0x00, 0x00, 0x00, 0x00, 0x00, 0x00, 0x00, 0x00, 0x00, 0x00,
 0x00, 0x00, 0x00, 0x00, 0x00, 0x00, 0x00, 0x00, 0x00, 0x00, 0x00, 0x00,
 0x00, 0x00, 0x00, 0x00, 0x00, 0x00, 0x00, 0x00, 0x00, 0x00, 0x00, 0x00,
 0x00};

