#define roach180_width 48
#define roach180_height 48

static char roach180_bits[] = {
 0x00, 0x00, 0x00, 0x00, 0x00, 0x00, 0x00, 0x00, 0x00, 0x00, 0x00,
 0x00, 0x00, 0x00, 0x00, 0x00, 0x00, 0x00, 0x00, 0x00, 0x00, 0x00, 0x00,
 0x00, 0x00, 0x00, 0x00, 0x00, 0x00, 0x00, 0x00, 0x00, 0x00, 0x00, 0x00,
 0x00, 0x00, 0x00, 0x00, 0x00, 0x00, 0x00, 0x00, 0x00, 0x00, 0x00, 0x00,
 0x00, 0x00, 0x00, 0x00, 0x00, 0x00, 0x00, 0x00, 0x00, 0x00, 0x00, 0x00,
 0x00, 0x00, 0x00, 0x40, 0x00, 0x00, 0x00, 0x00, 0x00, 0xc0, 0x00, 0x00,
 0x02, 0x00, 0x08, 0x80, 0x01, 0x00, 0x01, 0x00, 0xf8, 0x81, 0x03, 0x80,
 0x01, 0x00, 0xe0, 0x0f, 0x06, 0xfe, 0x00, 0x00, 0x00, 0x10, 0x84, 0x07,
 0x00, 0x00, 0x00, 0x20, 0x84, 0x01, 0x00, 0x00, 0x00, 0xc0, 0xff, 0x03,
 0x00, 0x00, 0x00, 0x8c, 0xff, 0xff, 0x01, 0x00, 0x00, 0x9c, 0xff, 0xff,
 0x07, 0x00, 0x20, 0xbe, 0xff, 0xff, 0x0f, 0x00, 0xe0, 0x7f, 0xff, 0xff,
 0x1f, 0x00, 0xf0, 0x7f, 0xff, 0xff, 0x0f, 0x00, 0x70, 0x7f, 0x00, 0x00,
 0x00, 0x00, 0x70, 0x7f, 0xff, 0xff, 0x0f, 0x00, 0x70, 0x7f, 0xff, 0xff,
 0x1f, 0x00, 0x48, 0x7f, 0xff, 0xff, 0x1f, 0x80, 0x20, 0x7f, 0xff, 0xff,
 0x0f, 0x00, 0x00, 0xbe, 0xff, 0xff, 0x07, 0x00, 0x00, 0x9c, 0xff, 0x1f,
 0x00, 0x00, 0x00, 0x48, 0x7c, 0x00, 0x00, 0x00, 0x00, 0x20, 0xc4, 0x00,
 0x00, 0x00, 0xf0, 0x1f, 0x8c, 0xff, 0x00, 0x00, 0xf8, 0x03, 0x07, 0x80,
 0x01, 0x00, 0x18, 0x80, 0x03, 0x00, 0x03, 0x00, 0x00, 0x80, 0x01, 0x00,
 0x02, 0x00, 0x00, 0x80, 0x00, 0x00, 0x04, 0x00, 0x00, 0x40, 0x00, 0x00,
 0x00, 0x00, 0x00, 0x00, 0x00, 0x00, 0x00, 0x00, 0x00, 0x00, 0x00, 0x00,
 0x00, 0x00, 0x00, 0x00, 0x00, 0x00, 0x00, 0x00, 0x00, 0x00, 0x00, 0x00,
 0x00, 0x00, 0x00, 0x00, 0x00, 0x00, 0x00, 0x00, 0x00, 0x00, 0x00, 0x00,
 0x00, 0x00, 0x00, 0x00, 0x00, 0x00, 0x00, 0x00, 0x00, 0x00, 0x00, 0x00,
 0x00, 0x00, 0x00, 0x00, 0x00, 0x00, 0x00, 0x00, 0x00, 0x00, 0x00, 0x00,
 0x00};

