#define roach150_width 48
#define roach150_height 48

static char roach150_bits[] = {
 0x00, 0x00, 0x00, 0x00, 0x00, 0x00, 0x00, 0x00, 0x00, 0x00, 0x00,
 0x00, 0x00, 0x00, 0x00, 0x00, 0x00, 0x00, 0x00, 0x00, 0x00, 0x00, 0x00,
 0x00, 0x00, 0x00, 0x00, 0x00, 0x00, 0x00, 0x00, 0x00, 0x00, 0x00, 0x00,
 0x00, 0x00, 0x00, 0x00, 0x00, 0x00, 0x00, 0x00, 0x00, 0x04, 0x00, 0x00,
 0x00, 0x00, 0x00, 0x0c, 0x00, 0x00, 0x00, 0x00, 0x00, 0x08, 0x00, 0x00,
 0x00, 0x00, 0x00, 0x38, 0x00, 0x00, 0x00, 0x00, 0x04, 0x70, 0x00, 0x00,
 0x00, 0x00, 0x00, 0xe0, 0x20, 0x00, 0x00, 0x00, 0x00, 0x80, 0x21, 0x00,
 0x00, 0x00, 0x00, 0x01, 0x63, 0x00, 0x00, 0x00, 0x00, 0x00, 0x62, 0x00,
 0x00, 0x00, 0xc0, 0x7b, 0x42, 0x00, 0x00, 0x00, 0xe0, 0xff, 0x42, 0x00,
 0x00, 0x00, 0xe1, 0xfd, 0x7f, 0x00, 0x00, 0x00, 0xf0, 0xfe, 0x3f, 0x04,
 0x00, 0x00, 0x60, 0xfe, 0xfe, 0x3f, 0x00, 0x00, 0x50, 0xff, 0xfe, 0x61,
 0x70, 0x00, 0x00, 0x7f, 0xfe, 0x87, 0x0f, 0x00, 0x00, 0x7f, 0xff, 0x0f,
 0x00, 0x00, 0x00, 0x3f, 0xfc, 0x3f, 0x00, 0x00, 0x07, 0xdf, 0xf3, 0x7f,
 0x00, 0x80, 0x1f, 0xee, 0xcf, 0xff, 0x00, 0x00, 0x38, 0xf0, 0x3f, 0xff,
 0x01, 0x00, 0xe0, 0xff, 0xff, 0xfc, 0x03, 0x00, 0x00, 0xe0, 0xff, 0xf3,
 0x07, 0x00, 0x00, 0xc0, 0xff, 0xcf, 0x07, 0x00, 0x00, 0xc0, 0xff, 0x3f,
 0x07, 0x00, 0x00, 0x7c, 0xfc, 0xff, 0x00, 0x00, 0x00, 0x3e, 0xfc, 0xff,
 0x01, 0x00, 0x00, 0x00, 0xec, 0xff, 0x03, 0x00, 0x00, 0x00, 0x18, 0xff,
 0x01, 0x00, 0x00, 0x00, 0x38, 0x00, 0x00, 0x00, 0x00, 0x00, 0xe0, 0x00,
 0x00, 0x00, 0x00, 0x00, 0xc0, 0x03, 0x00, 0x00, 0x00, 0x00, 0x00, 0x03,
 0x00, 0x00, 0x00, 0x00, 0x00, 0x03, 0x00, 0x00, 0x00, 0x00, 0x00, 0x02,
 0x00, 0x00, 0x00, 0x00, 0x00, 0x02, 0x00, 0x00, 0x00, 0x00, 0x00, 0x02,
 0x00, 0x00, 0x00, 0x00, 0x00, 0x00, 0x00, 0x00, 0x00, 0x00, 0x00, 0x00,
 0x00, 0x00, 0x00, 0x00, 0x00, 0x00, 0x00, 0x00, 0x00, 0x00, 0x00, 0x00,
 0x00};

