#define roach000_width 48
#define roach000_height 48

static char roach000_bits[] = {
 0x00, 0x00, 0x00, 0x00, 0x00, 0x00, 0x00, 0x00, 0x00, 0x00, 0x00,
 0x00, 0x00, 0x00, 0x00, 0x00, 0x00, 0x00, 0x00, 0x00, 0x00, 0x00, 0x00,
 0x00, 0x00, 0x00, 0x00, 0x00, 0x00, 0x00, 0x00, 0x00, 0x00, 0x00, 0x00,
 0x00, 0x00, 0x00, 0x00, 0x00, 0x00, 0x00, 0x00, 0x00, 0x00, 0x00, 0x00,
 0x00, 0x00, 0x00, 0x00, 0x00, 0x00, 0x00, 0x00, 0x00, 0x00, 0x08, 0x00,
 0x00, 0x80, 0x00, 0x00, 0x00, 0x00, 0x00, 0x80, 0x01, 0x00, 0x06, 0x80,
 0x00, 0x00, 0x03, 0x00, 0x03, 0x60, 0x00, 0x00, 0x7e, 0x80, 0xc1, 0x3f,
 0x00, 0x00, 0xc0, 0x83, 0xe0, 0x0f, 0x00, 0x00, 0x00, 0xc6, 0x30, 0x00,
 0x00, 0x00, 0x00, 0xf8, 0x1f, 0x00, 0x00, 0x00, 0xf0, 0xff, 0xef, 0x01,
 0x00, 0x00, 0xfe, 0xff, 0xe7, 0x11, 0x10, 0xc0, 0xff, 0xff, 0xf7, 0x03,
 0x02, 0xf0, 0xff, 0xff, 0xf3, 0x3f, 0x00, 0xf0, 0xff, 0xff, 0xf3, 0x3b,
 0x00, 0x00, 0x00, 0x00, 0xf0, 0x3f, 0x00, 0xe0, 0xff, 0xff, 0xf3, 0x3f,
 0x00, 0xe0, 0xff, 0xff, 0xf3, 0x3f, 0x00, 0xe0, 0xff, 0xff, 0xf3, 0x07,
 0x01, 0xe0, 0xff, 0xff, 0xf7, 0x13, 0x08, 0xc0, 0xff, 0xff, 0xf7, 0x03,
 0x00, 0x00, 0xfe, 0xff, 0xe7, 0x01, 0x00, 0x00, 0x00, 0xff, 0x0f, 0x00,
 0x00, 0x00, 0x00, 0x88, 0x18, 0x00, 0x00, 0x00, 0xf8, 0xc7, 0xf0, 0x03,
 0x00, 0x00, 0xfe, 0x81, 0xc1, 0x3f, 0x00, 0x00, 0x06, 0x00, 0x01, 0x30,
 0x00, 0x00, 0x03, 0x00, 0x02, 0x40, 0x00, 0x80, 0x01, 0x00, 0x04, 0x00,
 0x00, 0x00, 0x00, 0x00, 0x08, 0x00, 0x00, 0x00, 0x00, 0x00, 0x00, 0x00,
 0x00, 0x00, 0x00, 0x00, 0x00, 0x00, 0x00, 0x00, 0x00, 0x00, 0x00, 0x00,
 0x00, 0x00, 0x00, 0x00, 0x00, 0x00, 0x00, 0x00, 0x00, 0x00, 0x00, 0x00,
 0x00, 0x00, 0x00, 0x00, 0x00, 0x00, 0x00, 0x00, 0x00, 0x00, 0x00, 0x00,
 0x00, 0x00, 0x00, 0x00, 0x00, 0x00, 0x00, 0x00, 0x00, 0x00, 0x00, 0x00,
 0x00, 0x00, 0x00, 0x00, 0x00, 0x00, 0x00, 0x00, 0x00, 0x00, 0x00, 0x00,
 0x00};

