#define roach285_width 48
#define roach285_height 48

static char roach285_bits[] = {
 0x00, 0x00, 0x00, 0x00, 0x00, 0x00, 0x00, 0x00, 0x00, 0x00, 0x00,
 0x00, 0x00, 0x00, 0x00, 0x00, 0x00, 0x00, 0x00, 0x00, 0x00, 0x00, 0x00,
 0x00, 0x00, 0x00, 0x60, 0x00, 0x01, 0x00, 0x00, 0x00, 0xe6, 0x80, 0x00,
 0x00, 0x00, 0x00, 0xe6, 0xc1, 0x00, 0x00, 0x00, 0x00, 0xcf, 0x63, 0x00,
 0x00, 0x00, 0x00, 0xcf, 0x47, 0x00, 0x00, 0x00, 0x00, 0xcf, 0x47, 0x00,
 0x00, 0x00, 0x03, 0xdf, 0x4f, 0x00, 0x00, 0x00, 0x1c, 0x9f, 0xcf, 0x00,
 0x00, 0x00, 0x30, 0x9f, 0x9f, 0x00, 0x00, 0x00, 0x30, 0xbf, 0x9f, 0x00,
 0x00, 0x00, 0x20, 0xbf, 0xbf, 0x00, 0x00, 0x00, 0x40, 0x3e, 0xff, 0x00,
 0x00, 0x00, 0x40, 0x3e, 0x7f, 0x00, 0x00, 0x00, 0xc0, 0x7e, 0x7f, 0x00,
 0x00, 0x00, 0xc0, 0x7f, 0x7f, 0x03, 0x00, 0x00, 0x00, 0x7f, 0xfe, 0x07,
 0x00, 0x00, 0x00, 0xfe, 0xfe, 0x1c, 0x00, 0x00, 0x00, 0xfc, 0xfe, 0x18,
 0x00, 0x00, 0x00, 0xfc, 0xfe, 0x00, 0x00, 0x00, 0x00, 0xff, 0xfd, 0x00,
 0x00, 0x00, 0x00, 0xfd, 0x01, 0x07, 0x00, 0x00, 0x80, 0x7c, 0xf8, 0x0e,
 0x00, 0x00, 0xc0, 0xb8, 0xff, 0x0d, 0x00, 0x00, 0x40, 0xd8, 0xff, 0x09,
 0x00, 0x00, 0x00, 0xcc, 0xff, 0x19, 0x00, 0x00, 0x00, 0xee, 0xff, 0x19,
 0x00, 0x00, 0x00, 0xe6, 0xff, 0x18, 0x00, 0x00, 0x00, 0xc6, 0x7f, 0x30,
 0x00, 0x00, 0x00, 0x86, 0x7f, 0x60, 0x00, 0x00, 0x00, 0x06, 0x7e, 0xc1,
 0x00, 0x00, 0x00, 0x04, 0x7c, 0x00, 0x00, 0x00, 0x00, 0x0c, 0xbc, 0x00,
 0x00, 0x00, 0x00, 0x0c, 0x00, 0x00, 0x00, 0x00, 0x00, 0x04, 0x00, 0x01,
 0x00, 0x00, 0x00, 0x04, 0x00, 0x00, 0x00, 0x00, 0x00, 0x00, 0x00, 0x00,
 0x00, 0x00, 0x00, 0x00, 0x00, 0x04, 0x00, 0x00, 0x00, 0x00, 0x04, 0x00,
 0x00, 0x00, 0x00, 0x00, 0x04, 0x00, 0x00, 0x00, 0x00, 0x00, 0x00, 0x00,
 0x00, 0x00, 0x00, 0x00, 0x00, 0x00, 0x00, 0x00, 0x00, 0x00, 0x00, 0x00,
 0x00, 0x00, 0x00, 0x00, 0x00, 0x00, 0x00, 0x00, 0x00, 0x00, 0x00, 0x00,
 0x00};

