#define roach225_width 48
#define roach225_height 48

static char roach225_bits[] = {
 0x00, 0x00, 0x00, 0x00, 0x00, 0x00, 0x00, 0x00, 0x00, 0x00, 0x00,
 0x00, 0x00, 0x00, 0x00, 0x00, 0x00, 0x00, 0x00, 0x00, 0x00, 0x10, 0x00,
 0x00, 0x00, 0x00, 0x00, 0x10, 0x00, 0x00, 0x00, 0x00, 0x00, 0x10, 0x00,
 0x00, 0x00, 0x00, 0x00, 0x10, 0x00, 0x00, 0x00, 0x00, 0x00, 0x10, 0x00,
 0x00, 0x00, 0x00, 0x00, 0x18, 0x38, 0x00, 0x00, 0x00, 0x00, 0x0c, 0x3f,
 0x00, 0x00, 0x00, 0x00, 0xc6, 0x3f, 0x00, 0x00, 0x00, 0x00, 0xe3, 0x9f,
 0x01, 0x00, 0x00, 0x00, 0xf1, 0xcf, 0x01, 0x00, 0x00, 0x00, 0xf9, 0xe7,
 0x01, 0x00, 0x00, 0x00, 0xff, 0xf3, 0x01, 0x00, 0x00, 0x0f, 0xff, 0xf9,
 0x01, 0x00, 0xc0, 0x1f, 0xff, 0xfc, 0x00, 0x00, 0x00, 0xf0, 0x3f, 0x7e,
 0x00, 0x00, 0x00, 0xe0, 0x9f, 0x7f, 0x00, 0x00, 0x00, 0xf0, 0xcf, 0x3f,
 0x3e, 0x00, 0x80, 0xff, 0xe7, 0x1f, 0x07, 0x00, 0xc0, 0xf0, 0xf3, 0xdf,
 0x03, 0x00, 0x70, 0xe0, 0xf9, 0xcf, 0x00, 0x00, 0x38, 0x3c, 0xfc, 0x67,
 0x00, 0x00, 0x1e, 0x7e, 0xfe, 0x1f, 0x00, 0x80, 0x0f, 0xfe, 0xfc, 0x01,
 0x00, 0x00, 0x00, 0xfe, 0xfd, 0x01, 0x00, 0x00, 0x00, 0xfe, 0xfb, 0x01,
 0x00, 0x00, 0x00, 0xff, 0x7b, 0x03, 0x00, 0x00, 0x00, 0xfd, 0x0f, 0x03,
 0x00, 0x00, 0x80, 0xf9, 0x1f, 0x03, 0x00, 0x00, 0xc0, 0xe3, 0x1f, 0x03,
 0x00, 0x00, 0x80, 0x9f, 0x1b, 0x01, 0x00, 0x00, 0x00, 0x07, 0x18, 0x01,
 0x00, 0x00, 0x02, 0x08, 0x1c, 0x00, 0x00, 0x00, 0x00, 0x00, 0x06, 0x00,
 0x00, 0x00, 0x00, 0x00, 0x03, 0x00, 0x00, 0x00, 0x00, 0x80, 0x01, 0x00,
 0x00, 0x00, 0x00, 0x80, 0x00, 0x00, 0x00, 0x00, 0x00, 0x80, 0x00, 0x00,
 0x00, 0x00, 0x40, 0x80, 0x00, 0x00, 0x00, 0x00, 0x00, 0x00, 0x00, 0x00,
 0x00, 0x00, 0x00, 0x00, 0x00, 0x00, 0x00, 0x00, 0x00, 0x00, 0x00, 0x00,
 0x00, 0x00, 0x00, 0x00, 0x00, 0x00, 0x00, 0x00, 0x00, 0x00, 0x00, 0x00,
 0x00, 0x00, 0x00, 0x00, 0x00, 0x00, 0x00, 0x00, 0x00, 0x00, 0x00, 0x00,
 0x00};

