#define roach300_width 48
#define roach300_height 48

static char roach300_bits[] = {
 0x00, 0x00, 0x00, 0x00, 0x00, 0x00, 0x00, 0x00, 0x00, 0x00, 0x00,
 0x00, 0x00, 0x00, 0x00, 0x00, 0x00, 0x00, 0x00, 0x00, 0x00, 0x04, 0x00,
 0x00, 0x00, 0x00, 0x00, 0x04, 0x00, 0x00, 0x00, 0x00, 0x06, 0x06, 0x00,
 0x00, 0x00, 0x00, 0x1f, 0x06, 0x00, 0x00, 0x00, 0x00, 0x3e, 0x04, 0x00,
 0x00, 0x00, 0x60, 0x7c, 0x0c, 0x00, 0x00, 0x00, 0xe0, 0x7c, 0x0c, 0x00,
 0x00, 0x00, 0xf0, 0xf8, 0x08, 0x00, 0x00, 0x00, 0xe0, 0xf9, 0x11, 0x00,
 0x00, 0x00, 0xe0, 0xf3, 0x13, 0x00, 0x00, 0x00, 0xe0, 0xf3, 0x17, 0x00,
 0x00, 0x00, 0xc0, 0xe7, 0x1f, 0x00, 0x00, 0xc0, 0xc7, 0xc7, 0x1f, 0x00,
 0x00, 0x00, 0xcc, 0xcf, 0x9f, 0x00, 0x00, 0x00, 0x88, 0x9f, 0xff, 0x07,
 0x00, 0x00, 0x98, 0x9f, 0xff, 0x3c, 0x00, 0x00, 0xb0, 0x3f, 0x7f, 0x00,
 0x00, 0x00, 0x60, 0x7f, 0xff, 0x00, 0x00, 0x00, 0xe0, 0x7f, 0xfe, 0x00,
 0x00, 0x00, 0x00, 0xfe, 0x7e, 0x0f, 0x00, 0x00, 0x00, 0xfe, 0x00, 0x1c,
 0x00, 0x00, 0x00, 0xfc, 0xf1, 0x19, 0x00, 0x00, 0x00, 0x7e, 0xf8, 0x33,
 0x00, 0x00, 0x00, 0x79, 0xfc, 0x63, 0x00, 0x00, 0x80, 0x31, 0xfe, 0x63,
 0x00, 0x00, 0x80, 0x31, 0xff, 0xc3, 0x01, 0x00, 0x80, 0x91, 0xff, 0x01,
 0x03, 0x00, 0x80, 0x91, 0xff, 0x04, 0x00, 0x00, 0x80, 0x98, 0x7f, 0x01,
 0x00, 0x00, 0x00, 0x18, 0xff, 0x03, 0x00, 0x00, 0x00, 0x10, 0xf0, 0x05,
 0x00, 0x00, 0x00, 0x30, 0x60, 0x08, 0x00, 0x00, 0x00, 0x30, 0x00, 0x00,
 0x00, 0x00, 0x00, 0x60, 0x40, 0x00, 0x00, 0x00, 0x00, 0x40, 0x00, 0x00,
 0x00, 0x00, 0x00, 0x40, 0x00, 0x00, 0x00, 0x00, 0x00, 0x40, 0x00, 0x00,
 0x00, 0x00, 0x00, 0x40, 0x80, 0x00, 0x00, 0x00, 0x00, 0x00, 0x80, 0x00,
 0x00, 0x00, 0x00, 0x00, 0x00, 0x00, 0x00, 0x00, 0x00, 0x00, 0x00, 0x00,
 0x00, 0x00, 0x00, 0x00, 0x00, 0x00, 0x00, 0x00, 0x00, 0x00, 0x00, 0x00,
 0x00, 0x00, 0x00, 0x00, 0x00, 0x00, 0x00, 0x00, 0x00, 0x00, 0x00, 0x00,
 0x00};

