#define roach015_width 48
#define roach015_height 48

static char roach015_bits[] = {
 0x00, 0x00, 0x00, 0x00, 0x00, 0x00, 0x00, 0x00, 0x00, 0x00, 0x00,
 0x00, 0x00, 0x00, 0x00, 0x00, 0x00, 0x00, 0x00, 0x00, 0x00, 0x00, 0x00,
 0x00, 0x00, 0x00, 0x00, 0x00, 0x00, 0x00, 0x00, 0x00, 0x00, 0x00, 0x00,
 0x00, 0x00, 0x00, 0x00, 0x00, 0x00, 0x00, 0x00, 0x00, 0x00, 0x00, 0x00,
 0x00, 0x00, 0x00, 0x00, 0x00, 0x08, 0x00, 0x00, 0x00, 0x80, 0x00, 0x0c,
 0x00, 0x00, 0x00, 0x80, 0x00, 0x06, 0x00, 0x00, 0x00, 0xc0, 0xc0, 0x07,
 0x00, 0x00, 0x00, 0x40, 0xf8, 0x01, 0x00, 0x00, 0x00, 0x60, 0x3c, 0x00,
 0x00, 0x00, 0x00, 0x30, 0x0c, 0x00, 0x00, 0x10, 0x00, 0x10, 0x06, 0x00,
 0x00, 0x60, 0xfc, 0x30, 0x72, 0x04, 0x00, 0xc0, 0x9f, 0xe3, 0xf3, 0x1e,
 0x00, 0x00, 0x00, 0xfe, 0xfb, 0x1d, 0x00, 0x00, 0xc0, 0xff, 0xfb, 0x3d,
 0x00, 0x00, 0xf8, 0xff, 0xf9, 0x3f, 0x00, 0x00, 0xfe, 0xff, 0xfb, 0x3f,
 0x3c, 0x00, 0xff, 0xff, 0xfb, 0x07, 0x00, 0xc0, 0xff, 0x1f, 0xf8, 0x17,
 0x00, 0xe0, 0xff, 0xe1, 0xf7, 0x07, 0x00, 0xf0, 0x1f, 0xfe, 0xf7, 0x03,
 0x00, 0xf0, 0xe1, 0xff, 0xe7, 0x03, 0x00, 0x00, 0xfe, 0xff, 0xcf, 0x01,
 0x00, 0xc0, 0xff, 0xff, 0x1f, 0x00, 0x00, 0xe0, 0xff, 0xff, 0x7f, 0xfc,
 0x00, 0xc0, 0xff, 0x3f, 0xc3, 0x1f, 0x01, 0xc0, 0xff, 0x23, 0x03, 0x00,
 0x00, 0x00, 0x00, 0x18, 0x0e, 0x00, 0x00, 0x00, 0x00, 0x1e, 0x1c, 0x00,
 0x00, 0x00, 0x80, 0x07, 0x20, 0x00, 0x00, 0x00, 0xe0, 0x03, 0x40, 0x00,
 0x00, 0x00, 0x30, 0x00, 0x00, 0x00, 0x00, 0x00, 0x10, 0x00, 0x00, 0x00,
 0x00, 0x00, 0x10, 0x00, 0x00, 0x00, 0x00, 0x00, 0x18, 0x00, 0x00, 0x00,
 0x00, 0x00, 0x08, 0x00, 0x00, 0x00, 0x00, 0x00, 0x00, 0x00, 0x00, 0x00,
 0x00, 0x00, 0x00, 0x00, 0x00, 0x00, 0x00, 0x00, 0x00, 0x00, 0x00, 0x00,
 0x00, 0x00, 0x00, 0x00, 0x00, 0x00, 0x00, 0x00, 0x00, 0x00, 0x00, 0x00,
 0x00, 0x00, 0x00, 0x00, 0x00, 0x00, 0x00, 0x00, 0x00, 0x00, 0x00, 0x00,
 0x00};

