#define roach120_width 48
#define roach120_height 48

static char roach120_bits[] = {
 0x00, 0x00, 0x00, 0x00, 0x00, 0x00, 0x00, 0x00, 0x00, 0x00, 0x00,
 0x00, 0x00, 0x00, 0x00, 0x00, 0x00, 0x00, 0x00, 0x00, 0x00, 0x00, 0x00,
 0x00, 0x00, 0x00, 0x00, 0x00, 0x00, 0x00, 0x00, 0x00, 0x00, 0x00, 0x00,
 0x00, 0x00, 0x00, 0x04, 0x08, 0x00, 0x00, 0x00, 0x00, 0x00, 0x08, 0x00,
 0x00, 0x00, 0x00, 0x00, 0x0c, 0x00, 0x00, 0x00, 0x08, 0x00, 0x08, 0x00,
 0x00, 0x00, 0x10, 0x08, 0x18, 0x00, 0x00, 0x00, 0x00, 0x28, 0x18, 0x00,
 0x00, 0x00, 0x00, 0x1e, 0x38, 0x00, 0x00, 0x00, 0x80, 0x3f, 0x30, 0x00,
 0x00, 0x00, 0x00, 0x9f, 0x63, 0x00, 0x00, 0x00, 0x80, 0xe6, 0x67, 0x04,
 0x00, 0x80, 0x00, 0xfa, 0x27, 0x04, 0x00, 0x00, 0x07, 0xfc, 0x2f, 0x06,
 0x00, 0x00, 0x0c, 0xfc, 0x07, 0x06, 0x00, 0x00, 0x18, 0xfe, 0x37, 0x02,
 0x00, 0x00, 0x18, 0xff, 0x3b, 0x02, 0x00, 0x00, 0x30, 0xfe, 0xfc, 0x03,
 0x00, 0x00, 0x60, 0x3e, 0xfc, 0x00, 0x00, 0x00, 0x60, 0xc0, 0xfe, 0x00,
 0x00, 0x00, 0xc0, 0xff, 0xfd, 0x07, 0x00, 0x00, 0x00, 0xfc, 0xfd, 0x0f,
 0x00, 0x00, 0x00, 0xfc, 0xfb, 0x1b, 0x00, 0x00, 0x20, 0xf8, 0xf3, 0x37,
 0x00, 0x00, 0xf0, 0xf9, 0xf7, 0x67, 0x00, 0x00, 0xc0, 0xff, 0xef, 0xc7,
 0x00, 0x00, 0x00, 0xe0, 0xef, 0x8f, 0x01, 0x00, 0x00, 0xe0, 0xdf, 0x0f,
 0x0f, 0x00, 0x00, 0xe0, 0x9f, 0x0f, 0x00, 0x00, 0x00, 0xb0, 0xbf, 0x1f,
 0x00, 0x00, 0x00, 0x20, 0x3f, 0x1f, 0x00, 0x00, 0x00, 0x20, 0x7e, 0x1e,
 0x00, 0x00, 0x00, 0x20, 0xfe, 0x3e, 0x00, 0x00, 0x00, 0x60, 0xfc, 0x3c,
 0x00, 0x00, 0x00, 0x40, 0xf8, 0x3d, 0x00, 0x00, 0x00, 0xc0, 0xf8, 0x19,
 0x00, 0x00, 0x00, 0x80, 0xf1, 0x03, 0x00, 0x00, 0x00, 0x80, 0xc1, 0x03,
 0x00, 0x00, 0x00, 0x80, 0x00, 0x00, 0x00, 0x00, 0x00, 0xc0, 0x00, 0x00,
 0x00, 0x00, 0x00, 0x40, 0x00, 0x00, 0x00, 0x00, 0x00, 0x40, 0x00, 0x00,
 0x00, 0x00, 0x00, 0x00, 0x00, 0x00, 0x00, 0x00, 0x00, 0x00, 0x00, 0x00,
 0x00};

