#define roach270_width 48
#define roach270_height 48

static char roach270_bits[] = {
 0x00, 0x00, 0x00, 0x00, 0x00, 0x00, 0x00, 0x00, 0x00, 0x00, 0x00,
 0x00, 0x00, 0x00, 0x00, 0x00, 0x00, 0x00, 0x00, 0x00, 0x00, 0x00, 0x00,
 0x00, 0x00, 0x00, 0xc0, 0x0c, 0x00, 0x00, 0x00, 0x00, 0xe0, 0x1c, 0x00,
 0x00, 0x00, 0x00, 0xe0, 0x1c, 0x00, 0x00, 0x00, 0x20, 0xf0, 0x3c, 0x18,
 0x00, 0x00, 0xc0, 0xf0, 0x3c, 0x0c, 0x00, 0x00, 0x80, 0xf1, 0x3c, 0x06,
 0x00, 0x00, 0x00, 0xf9, 0x7c, 0x06, 0x00, 0x00, 0x00, 0xf9, 0x7c, 0x06,
 0x00, 0x00, 0x00, 0xf9, 0x7c, 0x06, 0x00, 0x00, 0x00, 0xf9, 0x7c, 0x06,
 0x00, 0x00, 0x00, 0xf9, 0x7c, 0x06, 0x00, 0x00, 0x00, 0xfb, 0x7c, 0x02,
 0x00, 0x00, 0x00, 0xff, 0xfc, 0x02, 0x00, 0x00, 0x00, 0xfe, 0xfc, 0x01,
 0x00, 0x00, 0x00, 0xfc, 0xfc, 0x00, 0x00, 0x00, 0x00, 0xf8, 0xfc, 0x00,
 0x00, 0x00, 0x00, 0xf8, 0xfc, 0x00, 0x00, 0x00, 0x00, 0xff, 0xfc, 0x07,
 0x00, 0x00, 0x80, 0xfc, 0xfc, 0x0c, 0x00, 0x00, 0xc0, 0xfc, 0xfc, 0x18,
 0x00, 0x00, 0x60, 0x78, 0xfc, 0x10, 0x00, 0x00, 0x30, 0x18, 0xc0, 0x20,
 0x00, 0x00, 0x00, 0xc6, 0x1f, 0x01, 0x00, 0x00, 0x00, 0xe3, 0x7f, 0x02,
 0x00, 0x00, 0x00, 0xf1, 0xff, 0x06, 0x00, 0x00, 0x80, 0xf1, 0xff, 0x06,
 0x00, 0x00, 0x80, 0xf1, 0xff, 0x06, 0x00, 0x00, 0x80, 0xe1, 0x7f, 0x06,
 0x00, 0x00, 0x80, 0x81, 0x1f, 0x06, 0x00, 0x00, 0x80, 0x81, 0x0f, 0x04,
 0x00, 0x00, 0x80, 0x81, 0x2f, 0x04, 0x00, 0x00, 0xc0, 0x80, 0x0f, 0x0c,
 0x00, 0x00, 0x40, 0x00, 0x00, 0x08, 0x00, 0x00, 0x00, 0x00, 0x00, 0x10,
 0x00, 0x00, 0x00, 0x00, 0x10, 0x00, 0x00, 0x00, 0x00, 0x00, 0x00, 0x00,
 0x00, 0x00, 0x00, 0x00, 0x00, 0x00, 0x00, 0x00, 0x00, 0x00, 0x00, 0x00,
 0x00, 0x00, 0x00, 0x20, 0x00, 0x00, 0x00, 0x00, 0x00, 0x00, 0x00, 0x00,
 0x00, 0x00, 0x00, 0x00, 0x00, 0x00, 0x00, 0x00, 0x00, 0x00, 0x00, 0x00,
 0x00, 0x00, 0x00, 0x00, 0x00, 0x00, 0x00, 0x00, 0x00, 0x00, 0x00, 0x00,
 0x00};

