#define roach135_width 48
#define roach135_height 48

static char roach135_bits[] = {
 0x00, 0x00, 0x00, 0x00, 0x00, 0x00, 0x00, 0x00, 0x00, 0x00, 0x00,
 0x00, 0x00, 0x00, 0x00, 0x00, 0x00, 0x00, 0x00, 0x00, 0x00, 0x00, 0x00,
 0x00, 0x00, 0x00, 0x00, 0x00, 0x00, 0x00, 0x00, 0x00, 0x00, 0x00, 0x00,
 0x00, 0x00, 0x00, 0x00, 0x00, 0x00, 0x00, 0x00, 0x00, 0x80, 0x00, 0x00,
 0x00, 0x00, 0x00, 0x80, 0x00, 0x00, 0x00, 0x00, 0x40, 0xc0, 0x00, 0x00,
 0x00, 0x00, 0x00, 0x80, 0x01, 0x00, 0x00, 0x00, 0x00, 0x00, 0x03, 0x00,
 0x00, 0x00, 0x00, 0x01, 0x06, 0x00, 0x00, 0x00, 0x01, 0x02, 0x0e, 0x00,
 0x00, 0x00, 0x04, 0x03, 0x88, 0x01, 0x00, 0x00, 0xd8, 0xef, 0x88, 0x01,
 0x00, 0x00, 0xc0, 0xff, 0x89, 0x01, 0x00, 0x00, 0x80, 0xfd, 0x8b, 0x01,
 0x00, 0x00, 0xa0, 0xfc, 0x9f, 0x01, 0x00, 0x00, 0x00, 0xfe, 0xff, 0x01,
 0x00, 0x00, 0x00, 0xfe, 0x7d, 0x00, 0x00, 0xc0, 0x01, 0xff, 0xfe, 0x00,
 0x00, 0x00, 0x06, 0x7f, 0xfe, 0x07, 0x00, 0x00, 0x0e, 0x3f, 0xfe, 0x1f,
 0x00, 0x00, 0x3c, 0xcf, 0xfd, 0x27, 0x00, 0x00, 0x70, 0xe0, 0xfb, 0xc7,
 0x00, 0x00, 0xe0, 0xff, 0xf7, 0x8f, 0x7f, 0x00, 0x00, 0xf8, 0xef, 0x1f,
 0x07, 0x00, 0x00, 0xf0, 0xdf, 0x3f, 0x00, 0x00, 0x00, 0xf0, 0xbf, 0x7f,
 0x00, 0x00, 0x80, 0xf7, 0x7f, 0x7e, 0x00, 0x00, 0xe0, 0xdf, 0xff, 0xfc,
 0x00, 0x00, 0x00, 0x80, 0xff, 0xf9, 0x01, 0x00, 0x00, 0x80, 0xfe, 0xf3,
 0x01, 0x00, 0x00, 0x80, 0xfd, 0xe7, 0x01, 0x00, 0x00, 0x00, 0xf1, 0xcf,
 0x01, 0x00, 0x00, 0x00, 0xe3, 0x1f, 0x00, 0x00, 0x00, 0x00, 0x86, 0x3f,
 0x00, 0x00, 0x00, 0x00, 0x04, 0x3f, 0x00, 0x00, 0x00, 0x00, 0x0c, 0x00,
 0x00, 0x00, 0x00, 0x00, 0x18, 0x00, 0x00, 0x00, 0x00, 0x00, 0x10, 0x00,
 0x00, 0x00, 0x00, 0x00, 0x10, 0x00, 0x00, 0x00, 0x00, 0x00, 0x10, 0x00,
 0x00, 0x00, 0x00, 0x00, 0x10, 0x00, 0x00, 0x00, 0x00, 0x00, 0x10, 0x00,
 0x00, 0x00, 0x00, 0x00, 0x00, 0x00, 0x00, 0x00, 0x00, 0x00, 0x00, 0x00,
 0x00};

