#define roach195_width 48
#define roach195_height 48

static char roach195_bits[] = {
 0x00, 0x00, 0x00, 0x00, 0x00, 0x00, 0x00, 0x00, 0x00, 0x00, 0x00,
 0x00, 0x00, 0x00, 0x00, 0x00, 0x00, 0x00, 0x00, 0x00, 0x00, 0x00, 0x00,
 0x00, 0x00, 0x00, 0x00, 0x00, 0x00, 0x00, 0x00, 0x00, 0x00, 0x00, 0x00,
 0x00, 0x00, 0x00, 0x00, 0x00, 0x00, 0x00, 0x00, 0x00, 0x00, 0x00, 0x20,
 0x00, 0x00, 0x00, 0x00, 0x00, 0x20, 0x00, 0x00, 0x00, 0x00, 0x00, 0x20,
 0x00, 0x00, 0x00, 0x00, 0x00, 0x10, 0x00, 0x00, 0x00, 0x08, 0x00, 0x1c,
 0x00, 0x00, 0x00, 0x38, 0x00, 0x07, 0x00, 0x00, 0x00, 0x70, 0xe0, 0x00,
 0x00, 0x00, 0x00, 0x80, 0x61, 0x00, 0x00, 0x00, 0x00, 0x00, 0xf1, 0xff,
 0x01, 0x00, 0xe7, 0x07, 0xff, 0xff, 0x07, 0x00, 0xfc, 0x1c, 0xff, 0xff,
 0x0f, 0x00, 0x00, 0xf0, 0xff, 0xff, 0x07, 0x00, 0x00, 0xe0, 0xff, 0x3f,
 0x08, 0x00, 0x00, 0xde, 0xff, 0xc3, 0x1f, 0x00, 0x00, 0xbe, 0x3f, 0xfc,
 0x1f, 0x00, 0x00, 0x7f, 0xc3, 0xff, 0x1f, 0x00, 0x20, 0x7f, 0xfc, 0xff,
 0x0f, 0x00, 0x60, 0x7f, 0xff, 0xff, 0x01, 0x00, 0x70, 0x7f, 0xff, 0x7f,
 0x00, 0x00, 0x70, 0xfe, 0xff, 0x3f, 0x00, 0x00, 0xf0, 0xfe, 0xff, 0x07,
 0x00, 0x00, 0xe0, 0xfe, 0xff, 0xc1, 0x03, 0x00, 0x10, 0xfd, 0x7f, 0xff,
 0x0f, 0x00, 0xc0, 0x78, 0x11, 0x00, 0x18, 0x00, 0x02, 0xb0, 0x20, 0x00,
 0x00, 0x00, 0x01, 0x80, 0x30, 0x00, 0x00, 0x00, 0x00, 0xf0, 0x38, 0x00,
 0x00, 0x00, 0x00, 0x7c, 0x1c, 0x00, 0x00, 0x00, 0x80, 0x0f, 0x0c, 0x00,
 0x00, 0x00, 0xc0, 0x01, 0x04, 0x00, 0x00, 0x00, 0xc0, 0x00, 0x04, 0x00,
 0x00, 0x00, 0x00, 0x00, 0x00, 0x00, 0x00, 0x00, 0x00, 0x00, 0x00, 0x00,
 0x00, 0x00, 0x00, 0x00, 0x00, 0x00, 0x00, 0x00, 0x00, 0x00, 0x00, 0x00,
 0x00, 0x00, 0x00, 0x00, 0x00, 0x00, 0x00, 0x00, 0x00, 0x00, 0x00, 0x00,
 0x00, 0x00, 0x00, 0x00, 0x00, 0x00, 0x00, 0x00, 0x00, 0x00, 0x00, 0x00,
 0x00, 0x00, 0x00, 0x00, 0x00, 0x00, 0x00, 0x00, 0x00, 0x00, 0x00, 0x00,
 0x00};

