#define roach165_width 48
#define roach165_height 48

static char roach165_bits[] = {
 0x00, 0x00, 0x00, 0x00, 0x00, 0x00, 0x00, 0x00, 0x00, 0x00, 0x00,
 0x00, 0x00, 0x00, 0x00, 0x00, 0x00, 0x00, 0x00, 0x00, 0x00, 0x00, 0x00,
 0x00, 0x00, 0x00, 0x00, 0x00, 0x00, 0x00, 0x00, 0x00, 0x00, 0x00, 0x00,
 0x00, 0x00, 0x00, 0x00, 0x00, 0x00, 0x00, 0x00, 0x00, 0x00, 0x00, 0x00,
 0x00, 0x00, 0x00, 0x00, 0x00, 0x00, 0x00, 0x00, 0x40, 0x00, 0x00, 0x00,
 0x00, 0x00, 0xc0, 0x00, 0x00, 0x00, 0x00, 0x00, 0x80, 0x03, 0x06, 0x00,
 0x00, 0x00, 0x80, 0x1f, 0x0c, 0x00, 0x00, 0x00, 0x00, 0x7c, 0x1c, 0x00,
 0x00, 0x00, 0x00, 0x40, 0x18, 0x00, 0x00, 0x80, 0x00, 0xc0, 0x10, 0x00,
 0x00, 0x00, 0x00, 0x80, 0x10, 0x00, 0x00, 0x00, 0x44, 0xf8, 0x1f, 0x3e,
 0x0e, 0x00, 0x30, 0x7c, 0xff, 0xe0, 0x07, 0x00, 0xe0, 0x7e, 0xff, 0x03,
 0x00, 0x00, 0xf0, 0x7e, 0xff, 0x07, 0x00, 0x00, 0x70, 0xff, 0xff, 0x3f,
 0x00, 0x00, 0x70, 0xff, 0xff, 0xff, 0x00, 0x00, 0x60, 0x7f, 0xff, 0xff,
 0x01, 0x00, 0x50, 0x7f, 0x80, 0xff, 0x0f, 0x00, 0x00, 0x3f, 0x1f, 0xf8,
 0x1f, 0x00, 0x00, 0xbf, 0xff, 0x01, 0x1f, 0x00, 0x00, 0xde, 0xff, 0x1f,
 0x00, 0x00, 0x00, 0xec, 0xff, 0xff, 0x01, 0x00, 0x3e, 0xf0, 0xff, 0xff,
 0x07, 0x00, 0xff, 0x8f, 0xff, 0xff, 0x0f, 0x00, 0x00, 0x07, 0xf9, 0xff,
 0x07, 0x00, 0x00, 0x80, 0x11, 0x00, 0x00, 0x00, 0x00, 0xf0, 0x30, 0x00,
 0x00, 0x00, 0x00, 0x70, 0xc0, 0x01, 0x00, 0x00, 0x00, 0x10, 0x00, 0x1f,
 0x00, 0x00, 0x00, 0x00, 0x00, 0x30, 0x00, 0x00, 0x00, 0x00, 0x00, 0x30,
 0x00, 0x00, 0x00, 0x00, 0x00, 0x20, 0x00, 0x00, 0x00, 0x00, 0x00, 0x60,
 0x00, 0x00, 0x00, 0x00, 0x00, 0x40, 0x00, 0x00, 0x00, 0x00, 0x00, 0x00,
 0x00, 0x00, 0x00, 0x00, 0x00, 0x00, 0x00, 0x00, 0x00, 0x00, 0x00, 0x00,
 0x00, 0x00, 0x00, 0x00, 0x00, 0x00, 0x00, 0x00, 0x00, 0x00, 0x00, 0x00,
 0x00, 0x00, 0x00, 0x00, 0x00, 0x00, 0x00, 0x00, 0x00, 0x00, 0x00, 0x00,
 0x00};

