STARTFONT 2.1
COMMENT $XConsortium: 8x13.bdf,v 1.13 92/04/02 14:25:48 gildea Exp $
COMMENT ""
COMMENT Characters above 127 designed and made by
COMMENT by Thomas Bagli (pyramid!pcsbst!tom@uunet.UU.NET)
COMMENT PCS Computer Systeme, West Germany
COMMENT ""
FONT -Misc-Fixed-Medium-R-Normal--13-120-75-75-C-80-ISO8859-1
SIZE 13 78 78
FONTBOUNDINGBOX 8 13 0 -2
STARTPROPERTIES 19
FONTNAME_REGISTRY ""
FOUNDRY "Misc"
FAMILY_NAME "Fixed"
WEIGHT_NAME "Medium"
SLANT "R"
SETWIDTH_NAME "Normal"
ADD_STYLE_NAME ""
PIXEL_SIZE 13
POINT_SIZE 120
RESOLUTION_X 75
RESOLUTION_Y 75
SPACING "C"
AVERAGE_WIDTH 80
CHARSET_REGISTRY "ISO8859"
CHARSET_ENCODING "1"
DEFAULT_CHAR 0
FONT_DESCENT 2
FONT_ASCENT 11
COPYRIGHT "Public domain font.  Share and enjoy."
ENDPROPERTIES
CHARS 224
STARTCHAR C000
ENCODING 0
SWIDTH 666 0
DWIDTH 8 0
BBX 8 13 0 -2
BITMAP
0000
0000
0000
0000
0000
0000
0000
0000
0000
0000
0000
0000
0000
ENDCHAR
STARTCHAR C001
ENCODING 1
SWIDTH 666 0
DWIDTH 8 0
BBX 8 13 0 -2
BITMAP
0000
0000
0000
1000
3800
7c00
fe00
7c00
3800
1000
0000
0000
0000
ENDCHAR
STARTCHAR C002
ENCODING 2
SWIDTH 666 0
DWIDTH 8 0
BBX 8 13 0 -2
BITMAP
0000
aa00
5500
aa00
5500
aa00
5500
aa00
5500
aa00
5500
aa00
5500
ENDCHAR
STARTCHAR C003
ENCODING 3
SWIDTH 666 0
DWIDTH 8 0
BBX 8 13 0 -2
BITMAP
0000
0000
0000
0000
8800
8800
f800
8800
8800
3e00
0800
0800
0800
ENDCHAR
STARTCHAR C004
ENCODING 4
SWIDTH 666 0
DWIDTH 8 0
BBX 8 13 0 -2
BITMAP
0000
0000
0000
0000
f000
8000
e000
8000
9e00
1000
1c00
1000
1000
ENDCHAR
STARTCHAR C005
ENCODING 5
SWIDTH 666 0
DWIDTH 8 0
BBX 8 13 0 -2
BITMAP
0000
0000
0000
0000
7800
8000
8000
7800
3c00
2200
3c00
2200
2200
ENDCHAR
STARTCHAR C006
ENCODING 6
SWIDTH 666 0
DWIDTH 8 0
BBX 8 13 0 -2
BITMAP
0000
0000
0000
0000
8000
8000
8000
f800
3e00
2000
3c00
2000
2000
ENDCHAR
STARTCHAR C007
ENCODING 7
SWIDTH 666 0
DWIDTH 8 0
BBX 8 13 0 -2
BITMAP
0000
0000
3800
4400
4400
3800
0000
0000
0000
0000
0000
0000
0000
ENDCHAR
STARTCHAR C010
ENCODING 8
SWIDTH 666 0
DWIDTH 8 0
BBX 8 13 0 -2
BITMAP
0000
0000
0000
0000
0000
1000
1000
fe00
1000
1000
fe00
0000
0000
ENDCHAR
STARTCHAR C011
ENCODING 9
SWIDTH 666 0
DWIDTH 8 0
BBX 8 13 0 -2
BITMAP
0000
0000
0000
0000
8800
c800
a800
9800
8800
2000
2000
2000
3e00
ENDCHAR
STARTCHAR C012
ENCODING 10
SWIDTH 666 0
DWIDTH 8 0
BBX 8 13 0 -2
BITMAP
0000
0000
0000
0000
8800
8800
5000
2000
3e00
0800
0800
0800
0800
ENDCHAR
STARTCHAR C013
ENCODING 11
SWIDTH 666 0
DWIDTH 8 0
BBX 8 13 0 -2
BITMAP
1000
1000
1000
1000
1000
1000
1000
f000
0000
0000
0000
0000
0000
ENDCHAR
STARTCHAR C014
ENCODING 12
SWIDTH 666 0
DWIDTH 8 0
BBX 8 13 0 -2
BITMAP
0000
0000
0000
0000
0000
0000
0000
f000
1000
1000
1000
1000
1000
ENDCHAR
STARTCHAR C015
ENCODING 13
SWIDTH 666 0
DWIDTH 8 0
BBX 8 13 0 -2
BITMAP
0000
0000
0000
0000
0000
0000
0000
1f00
1000
1000
1000
1000
1000
ENDCHAR
STARTCHAR C016
ENCODING 14
SWIDTH 666 0
DWIDTH 8 0
BBX 8 13 0 -2
BITMAP
1000
1000
1000
1000
1000
1000
1000
1f00
0000
0000
0000
0000
0000
ENDCHAR
STARTCHAR C017
ENCODING 15
SWIDTH 666 0
DWIDTH 8 0
BBX 8 13 0 -2
BITMAP
1000
1000
1000
1000
1000
1000
1000
ff00
1000
1000
1000
1000
1000
ENDCHAR
STARTCHAR C020
ENCODING 16
SWIDTH 666 0
DWIDTH 8 0
BBX 8 13 0 -2
BITMAP
0000
0000
0000
ff00
0000
0000
0000
0000
0000
0000
0000
0000
0000
ENDCHAR
STARTCHAR C021
ENCODING 17
SWIDTH 666 0
DWIDTH 8 0
BBX 8 13 0 -2
BITMAP
0000
0000
0000
0000
0000
ff00
0000
0000
0000
0000
0000
0000
0000
ENDCHAR
STARTCHAR C022
ENCODING 18
SWIDTH 666 0
DWIDTH 8 0
BBX 8 13 0 -2
BITMAP
0000
0000
0000
0000
0000
0000
0000
ff00
0000
0000
0000
0000
0000
ENDCHAR
STARTCHAR C023
ENCODING 19
SWIDTH 666 0
DWIDTH 8 0
BBX 8 13 0 -2
BITMAP
0000
0000
0000
0000
0000
0000
0000
0000
0000
ff00
0000
0000
0000
ENDCHAR
STARTCHAR C024
ENCODING 20
SWIDTH 666 0
DWIDTH 8 0
BBX 8 13 0 -2
BITMAP
0000
0000
0000
0000
0000
0000
0000
0000
0000
0000
0000
ff00
0000
ENDCHAR
STARTCHAR C025
ENCODING 21
SWIDTH 666 0
DWIDTH 8 0
BBX 8 13 0 -2
BITMAP
1000
1000
1000
1000
1000
1000
1000
1f00
1000
1000
1000
1000
1000
ENDCHAR
STARTCHAR C026
ENCODING 22
SWIDTH 666 0
DWIDTH 8 0
BBX 8 13 0 -2
BITMAP
1000
1000
1000
1000
1000
1000
1000
f000
1000
1000
1000
1000
1000
ENDCHAR
STARTCHAR C027
ENCODING 23
SWIDTH 666 0
DWIDTH 8 0
BBX 8 13 0 -2
BITMAP
1000
1000
1000
1000
1000
1000
1000
ff00
0000
0000
0000
0000
0000
ENDCHAR
STARTCHAR C030
ENCODING 24
SWIDTH 666 0
DWIDTH 8 0
BBX 8 13 0 -2
BITMAP
0000
0000
0000
0000
0000
0000
0000
ff00
1000
1000
1000
1000
1000
ENDCHAR
STARTCHAR C031
ENCODING 25
SWIDTH 666 0
DWIDTH 8 0
BBX 8 13 0 -2
BITMAP
1000
1000
1000
1000
1000
1000
1000
1000
1000
1000
1000
1000
1000
ENDCHAR
STARTCHAR C032
ENCODING 26
SWIDTH 666 0
DWIDTH 8 0
BBX 8 13 0 -2
BITMAP
0000
0000
0000
0200
0800
2000
8000
2000
0800
0200
fe00
0000
0000
ENDCHAR
STARTCHAR C033
ENCODING 27
SWIDTH 666 0
DWIDTH 8 0
BBX 8 13 0 -2
BITMAP
0000
0000
0000
8000
2000
0800
0200
0800
2000
8000
fe00
0000
0000
ENDCHAR
STARTCHAR C034
ENCODING 28
SWIDTH 666 0
DWIDTH 8 0
BBX 8 13 0 -2
BITMAP
0000
0000
0000
0000
0000
7e00
2400
2400
2400
2400
4400
0000
0000
ENDCHAR
STARTCHAR C035
ENCODING 29
SWIDTH 666 0
DWIDTH 8 0
BBX 8 13 0 -2
BITMAP
0000
0000
0000
0000
0200
0400
fe00
1000
fe00
4000
8000
0000
0000
ENDCHAR
STARTCHAR C036
ENCODING 30
SWIDTH 666 0
DWIDTH 8 0
BBX 8 13 0 -2
BITMAP
0000
0000
1c00
2200
2000
7000
2000
2000
2000
6200
dc00
0000
0000
ENDCHAR
STARTCHAR C037
ENCODING 31
SWIDTH 666 0
DWIDTH 8 0
BBX 8 13 0 -2
BITMAP
0000
0000
0000
0000
0000
0000
0000
1000
0000
0000
0000
0000
0000
ENDCHAR
STARTCHAR C040
ENCODING 32
SWIDTH 666 0
DWIDTH 8 0
BBX 8 13 0 -2
BITMAP
0000
0000
0000
0000
0000
0000
0000
0000
0000
0000
0000
0000
0000
ENDCHAR
STARTCHAR !
ENCODING 33
SWIDTH 666 0
DWIDTH 8 0
BBX 8 13 0 -2
BITMAP
0000
0000
1000
1000
1000
1000
1000
1000
1000
0000
1000
0000
0000
ENDCHAR
STARTCHAR "
ENCODING 34
SWIDTH 666 0
DWIDTH 8 0
BBX 8 13 0 -2
BITMAP
0000
0000
2400
2400
2400
0000
0000
0000
0000
0000
0000
0000
0000
ENDCHAR
STARTCHAR #
ENCODING 35
SWIDTH 666 0
DWIDTH 8 0
BBX 8 13 0 -2
BITMAP
0000
0000
0000
2400
2400
7e00
2400
7e00
2400
2400
0000
0000
0000
ENDCHAR
STARTCHAR $
ENCODING 36
SWIDTH 666 0
DWIDTH 8 0
BBX 8 13 0 -2
BITMAP
0000
0000
0000
1000
3c00
5000
3800
1400
7800
1000
0000
0000
0000
ENDCHAR
STARTCHAR %
ENCODING 37
SWIDTH 666 0
DWIDTH 8 0
BBX 8 13 0 -2
BITMAP
0000
0000
2200
5200
2400
0800
0800
1000
2400
2a00
4400
0000
0000
ENDCHAR
STARTCHAR &
ENCODING 38
SWIDTH 666 0
DWIDTH 8 0
BBX 8 13 0 -2
BITMAP
0000
0000
0000
0000
3000
4800
4800
3000
4a00
4400
3a00
0000
0000
ENDCHAR
STARTCHAR '
ENCODING 39
SWIDTH 666 0
DWIDTH 8 0
BBX 8 13 0 -2
BITMAP
0000
0000
3800
3000
4000
0000
0000
0000
0000
0000
0000
0000
0000
ENDCHAR
STARTCHAR (
ENCODING 40
SWIDTH 666 0
DWIDTH 8 0
BBX 8 13 0 -2
BITMAP
0000
0000
0400
0800
0800
1000
1000
1000
0800
0800
0400
0000
0000
ENDCHAR
STARTCHAR )
ENCODING 41
SWIDTH 666 0
DWIDTH 8 0
BBX 8 13 0 -2
BITMAP
0000
0000
2000
1000
1000
0800
0800
0800
1000
1000
2000
0000
0000
ENDCHAR
STARTCHAR *
ENCODING 42
SWIDTH 666 0
DWIDTH 8 0
BBX 8 13 0 -2
BITMAP
0000
0000
0000
0000
2400
1800
7e00
1800
2400
0000
0000
0000
0000
ENDCHAR
STARTCHAR +
ENCODING 43
SWIDTH 666 0
DWIDTH 8 0
BBX 8 13 0 -2
BITMAP
0000
0000
0000
0000
1000
1000
7c00
1000
1000
0000
0000
0000
0000
ENDCHAR
STARTCHAR ,
ENCODING 44
SWIDTH 666 0
DWIDTH 8 0
BBX 8 13 0 -2
BITMAP
0000
0000
0000
0000
0000
0000
0000
0000
0000
3800
3000
4000
0000
ENDCHAR
STARTCHAR -
ENCODING 45
SWIDTH 666 0
DWIDTH 8 0
BBX 8 13 0 -2
BITMAP
0000
0000
0000
0000
0000
0000
7e00
0000
0000
0000
0000
0000
0000
ENDCHAR
STARTCHAR .
ENCODING 46
SWIDTH 666 0
DWIDTH 8 0
BBX 8 13 0 -2
BITMAP
0000
0000
0000
0000
0000
0000
0000
0000
0000
1000
3800
1000
0000
ENDCHAR
STARTCHAR /
ENCODING 47
SWIDTH 666 0
DWIDTH 8 0
BBX 8 13 0 -2
BITMAP
0000
0000
0200
0200
0400
0800
1000
2000
4000
8000
8000
0000
0000
ENDCHAR
STARTCHAR 0
ENCODING 48
SWIDTH 666 0
DWIDTH 8 0
BBX 8 13 0 -2
BITMAP
0000
0000
1800
2400
4200
4200
4200
4200
4200
2400
1800
0000
0000
ENDCHAR
STARTCHAR 1
ENCODING 49
SWIDTH 666 0
DWIDTH 8 0
BBX 8 13 0 -2
BITMAP
0000
0000
1000
3000
5000
1000
1000
1000
1000
1000
7c00
0000
0000
ENDCHAR
STARTCHAR 2
ENCODING 50
SWIDTH 666 0
DWIDTH 8 0
BBX 8 13 0 -2
BITMAP
0000
0000
3c00
4200
4200
0200
0400
1800
2000
4000
7e00
0000
0000
ENDCHAR
STARTCHAR 3
ENCODING 51
SWIDTH 666 0
DWIDTH 8 0
BBX 8 13 0 -2
BITMAP
0000
0000
7e00
0200
0400
0800
1c00
0200
0200
4200
3c00
0000
0000
ENDCHAR
STARTCHAR 4
ENCODING 52
SWIDTH 666 0
DWIDTH 8 0
BBX 8 13 0 -2
BITMAP
0000
0000
0400
0c00
1400
2400
4400
4400
7e00
0400
0400
0000
0000
ENDCHAR
STARTCHAR 5
ENCODING 53
SWIDTH 666 0
DWIDTH 8 0
BBX 8 13 0 -2
BITMAP
0000
0000
7e00
4000
4000
5c00
6200
0200
0200
4200
3c00
0000
0000
ENDCHAR
STARTCHAR 6
ENCODING 54
SWIDTH 666 0
DWIDTH 8 0
BBX 8 13 0 -2
BITMAP
0000
0000
1c00
2000
4000
4000
5c00
6200
4200
4200
3c00
0000
0000
ENDCHAR
STARTCHAR 7
ENCODING 55
SWIDTH 666 0
DWIDTH 8 0
BBX 8 13 0 -2
BITMAP
0000
0000
7e00
0200
0400
0800
0800
1000
1000
2000
2000
0000
0000
ENDCHAR
STARTCHAR 8
ENCODING 56
SWIDTH 666 0
DWIDTH 8 0
BBX 8 13 0 -2
BITMAP
0000
0000
3c00
4200
4200
4200
3c00
4200
4200
4200
3c00
0000
0000
ENDCHAR
STARTCHAR 9
ENCODING 57
SWIDTH 666 0
DWIDTH 8 0
BBX 8 13 0 -2
BITMAP
0000
0000
3c00
4200
4200
4600
3a00
0200
0200
0400
3800
0000
0000
ENDCHAR
STARTCHAR :
ENCODING 58
SWIDTH 666 0
DWIDTH 8 0
BBX 8 13 0 -2
BITMAP
0000
0000
0000
0000
1000
3800
1000
0000
0000
1000
3800
1000
0000
ENDCHAR
STARTCHAR ;
ENCODING 59
SWIDTH 666 0
DWIDTH 8 0
BBX 8 13 0 -2
BITMAP
0000
0000
0000
0000
1000
3800
1000
0000
0000
3800
3000
4000
0000
ENDCHAR
STARTCHAR <
ENCODING 60
SWIDTH 666 0
DWIDTH 8 0
BBX 8 13 0 -2
BITMAP
0000
0000
0200
0400
0800
1000
2000
1000
0800
0400
0200
0000
0000
ENDCHAR
STARTCHAR =
ENCODING 61
SWIDTH 666 0
DWIDTH 8 0
BBX 8 13 0 -2
BITMAP
0000
0000
0000
0000
0000
7e00
0000
0000
7e00
0000
0000
0000
0000
ENDCHAR
STARTCHAR >
ENCODING 62
SWIDTH 666 0
DWIDTH 8 0
BBX 8 13 0 -2
BITMAP
0000
0000
4000
2000
1000
0800
0400
0800
1000
2000
4000
0000
0000
ENDCHAR
STARTCHAR ?
ENCODING 63
SWIDTH 666 0
DWIDTH 8 0
BBX 8 13 0 -2
BITMAP
0000
0000
3c00
4200
4200
0200
0400
0800
0800
0000
0800
0000
0000
ENDCHAR
STARTCHAR @
ENCODING 64
SWIDTH 666 0
DWIDTH 8 0
BBX 8 13 0 -2
BITMAP
0000
0000
3c00
4200
4200
4e00
5200
5600
4a00
4000
3c00
0000
0000
ENDCHAR
STARTCHAR A
ENCODING 65
SWIDTH 666 0
DWIDTH 8 0
BBX 8 13 0 -2
BITMAP
0000
0000
1800
2400
4200
4200
4200
7e00
4200
4200
4200
0000
0000
ENDCHAR
STARTCHAR B
ENCODING 66
SWIDTH 666 0
DWIDTH 8 0
BBX 8 13 0 -2
BITMAP
0000
0000
fc00
4200
4200
4200
7c00
4200
4200
4200
fc00
0000
0000
ENDCHAR
STARTCHAR C
ENCODING 67
SWIDTH 666 0
DWIDTH 8 0
BBX 8 13 0 -2
BITMAP
0000
0000
3c00
4200
4000
4000
4000
4000
4000
4200
3c00
0000
0000
ENDCHAR
STARTCHAR D
ENCODING 68
SWIDTH 666 0
DWIDTH 8 0
BBX 8 13 0 -2
BITMAP
0000
0000
fc00
4200
4200
4200
4200
4200
4200
4200
fc00
0000
0000
ENDCHAR
STARTCHAR E
ENCODING 69
SWIDTH 666 0
DWIDTH 8 0
BBX 8 13 0 -2
BITMAP
0000
0000
7e00
4000
4000
4000
7800
4000
4000
4000
7e00
0000
0000
ENDCHAR
STARTCHAR F
ENCODING 70
SWIDTH 666 0
DWIDTH 8 0
BBX 8 13 0 -2
BITMAP
0000
0000
7e00
4000
4000
4000
7800
4000
4000
4000
4000
0000
0000
ENDCHAR
STARTCHAR G
ENCODING 71
SWIDTH 666 0
DWIDTH 8 0
BBX 8 13 0 -2
BITMAP
0000
0000
3c00
4200
4000
4000
4000
4e00
4200
4600
3a00
0000
0000
ENDCHAR
STARTCHAR H
ENCODING 72
SWIDTH 666 0
DWIDTH 8 0
BBX 8 13 0 -2
BITMAP
0000
0000
4200
4200
4200
4200
7e00
4200
4200
4200
4200
0000
0000
ENDCHAR
STARTCHAR I
ENCODING 73
SWIDTH 666 0
DWIDTH 8 0
BBX 8 13 0 -2
BITMAP
0000
0000
7c00
1000
1000
1000
1000
1000
1000
1000
7c00
0000
0000
ENDCHAR
STARTCHAR J
ENCODING 74
SWIDTH 666 0
DWIDTH 8 0
BBX 8 13 0 -2
BITMAP
0000
0000
1e00
0400
0400
0400
0400
0400
0400
4400
3800
0000
0000
ENDCHAR
STARTCHAR K
ENCODING 75
SWIDTH 666 0
DWIDTH 8 0
BBX 8 13 0 -2
BITMAP
0000
0000
4200
4400
4800
5000
6000
5000
4800
4400
4200
0000
0000
ENDCHAR
STARTCHAR L
ENCODING 76
SWIDTH 666 0
DWIDTH 8 0
BBX 8 13 0 -2
BITMAP
0000
0000
4000
4000
4000
4000
4000
4000
4000
4000
7e00
0000
0000
ENDCHAR
STARTCHAR M
ENCODING 77
SWIDTH 666 0
DWIDTH 8 0
BBX 8 13 0 -2
BITMAP
0000
0000
8200
8200
c600
aa00
9200
9200
8200
8200
8200
0000
0000
ENDCHAR
STARTCHAR N
ENCODING 78
SWIDTH 666 0
DWIDTH 8 0
BBX 8 13 0 -2
BITMAP
0000
0000
4200
4200
6200
5200
4a00
4600
4200
4200
4200
0000
0000
ENDCHAR
STARTCHAR O
ENCODING 79
SWIDTH 666 0
DWIDTH 8 0
BBX 8 13 0 -2
BITMAP
0000
0000
3c00
4200
4200
4200
4200
4200
4200
4200
3c00
0000
0000
ENDCHAR
STARTCHAR P
ENCODING 80
SWIDTH 666 0
DWIDTH 8 0
BBX 8 13 0 -2
BITMAP
0000
0000
7c00
4200
4200
4200
7c00
4000
4000
4000
4000
0000
0000
ENDCHAR
STARTCHAR Q
ENCODING 81
SWIDTH 666 0
DWIDTH 8 0
BBX 8 13 0 -2
BITMAP
0000
0000
3c00
4200
4200
4200
4200
4200
5200
4a00
3c00
0200
0000
ENDCHAR
STARTCHAR R
ENCODING 82
SWIDTH 666 0
DWIDTH 8 0
BBX 8 13 0 -2
BITMAP
0000
0000
7c00
4200
4200
4200
7c00
5000
4800
4400
4200
0000
0000
ENDCHAR
STARTCHAR S
ENCODING 83
SWIDTH 666 0
DWIDTH 8 0
BBX 8 13 0 -2
BITMAP
0000
0000
3c00
4200
4000
4000
3c00
0200
0200
4200
3c00
0000
0000
ENDCHAR
STARTCHAR T
ENCODING 84
SWIDTH 666 0
DWIDTH 8 0
BBX 8 13 0 -2
BITMAP
0000
0000
fe00
1000
1000
1000
1000
1000
1000
1000
1000
0000
0000
ENDCHAR
STARTCHAR U
ENCODING 85
SWIDTH 666 0
DWIDTH 8 0
BBX 8 13 0 -2
BITMAP
0000
0000
4200
4200
4200
4200
4200
4200
4200
4200
3c00
0000
0000
ENDCHAR
STARTCHAR V
ENCODING 86
SWIDTH 666 0
DWIDTH 8 0
BBX 8 13 0 -2
BITMAP
0000
0000
8200
8200
4400
4400
4400
2800
2800
2800
1000
0000
0000
ENDCHAR
STARTCHAR W
ENCODING 87
SWIDTH 666 0
DWIDTH 8 0
BBX 8 13 0 -2
BITMAP
0000
0000
8200
8200
8200
8200
9200
9200
9200
aa00
4400
0000
0000
ENDCHAR
STARTCHAR X
ENCODING 88
SWIDTH 666 0
DWIDTH 8 0
BBX 8 13 0 -2
BITMAP
0000
0000
8200
8200
4400
2800
1000
2800
4400
8200
8200
0000
0000
ENDCHAR
STARTCHAR Y
ENCODING 89
SWIDTH 666 0
DWIDTH 8 0
BBX 8 13 0 -2
BITMAP
0000
0000
8200
8200
4400
2800
1000
1000
1000
1000
1000
0000
0000
ENDCHAR
STARTCHAR Z
ENCODING 90
SWIDTH 666 0
DWIDTH 8 0
BBX 8 13 0 -2
BITMAP
0000
0000
7e00
0200
0400
0800
1000
2000
4000
4000
7e00
0000
0000
ENDCHAR
STARTCHAR [
ENCODING 91
SWIDTH 666 0
DWIDTH 8 0
BBX 8 13 0 -2
BITMAP
0000
0000
3c00
2000
2000
2000
2000
2000
2000
2000
3c00
0000
0000
ENDCHAR
STARTCHAR \
ENCODING 92
SWIDTH 666 0
DWIDTH 8 0
BBX 8 13 0 -2
BITMAP
0000
0000
8000
8000
4000
2000
1000
0800
0400
0200
0200
0000
0000
ENDCHAR
STARTCHAR ]
ENCODING 93
SWIDTH 666 0
DWIDTH 8 0
BBX 8 13 0 -2
BITMAP
0000
0000
7800
0800
0800
0800
0800
0800
0800
0800
7800
0000
0000
ENDCHAR
STARTCHAR ^
ENCODING 94
SWIDTH 666 0
DWIDTH 8 0
BBX 8 13 0 -2
BITMAP
0000
0000
1000
2800
4400
0000
0000
0000
0000
0000
0000
0000
0000
ENDCHAR
STARTCHAR _
ENCODING 95
SWIDTH 666 0
DWIDTH 8 0
BBX 8 13 0 -2
BITMAP
0000
0000
0000
0000
0000
0000
0000
0000
0000
0000
0000
fe00
0000
ENDCHAR
STARTCHAR `
ENCODING 96
SWIDTH 666 0
DWIDTH 8 0
BBX 8 13 0 -2
BITMAP
0000
0000
3800
1800
0400
0000
0000
0000
0000
0000
0000
0000
0000
ENDCHAR
STARTCHAR a
ENCODING 97
SWIDTH 666 0
DWIDTH 8 0
BBX 8 13 0 -2
BITMAP
0000
0000
0000
0000
0000
3c00
0200
3e00
4200
4600
3a00
0000
0000
ENDCHAR
STARTCHAR b
ENCODING 98
SWIDTH 666 0
DWIDTH 8 0
BBX 8 13 0 -2
BITMAP
0000
0000
4000
4000
4000
5c00
6200
4200
4200
6200
5c00
0000
0000
ENDCHAR
STARTCHAR c
ENCODING 99
SWIDTH 666 0
DWIDTH 8 0
BBX 8 13 0 -2
BITMAP
0000
0000
0000
0000
0000
3c00
4200
4000
4000
4200
3c00
0000
0000
ENDCHAR
STARTCHAR d
ENCODING 100
SWIDTH 666 0
DWIDTH 8 0
BBX 8 13 0 -2
BITMAP
0000
0000
0200
0200
0200
3a00
4600
4200
4200
4600
3a00
0000
0000
ENDCHAR
STARTCHAR e
ENCODING 101
SWIDTH 666 0
DWIDTH 8 0
BBX 8 13 0 -2
BITMAP
0000
0000
0000
0000
0000
3c00
4200
7e00
4000
4200
3c00
0000
0000
ENDCHAR
STARTCHAR f
ENCODING 102
SWIDTH 666 0
DWIDTH 8 0
BBX 8 13 0 -2
BITMAP
0000
0000
1c00
2200
2000
2000
7c00
2000
2000
2000
2000
0000
0000
ENDCHAR
STARTCHAR g
ENCODING 103
SWIDTH 666 0
DWIDTH 8 0
BBX 8 13 0 -2
BITMAP
0000
0000
0000
0000
0000
3a00
4400
4400
3800
4000
3c00
4200
3c00
ENDCHAR
STARTCHAR h
ENCODING 104
SWIDTH 666 0
DWIDTH 8 0
BBX 8 13 0 -2
BITMAP
0000
0000
4000
4000
4000
5c00
6200
4200
4200
4200
4200
0000
0000
ENDCHAR
STARTCHAR i
ENCODING 105
SWIDTH 666 0
DWIDTH 8 0
BBX 8 13 0 -2
BITMAP
0000
0000
0000
1000
0000
3000
1000
1000
1000
1000
7c00
0000
0000
ENDCHAR
STARTCHAR j
ENCODING 106
SWIDTH 666 0
DWIDTH 8 0
BBX 8 13 0 -2
BITMAP
0000
0000
0000
0400
0000
0c00
0400
0400
0400
0400
4400
4400
3800
ENDCHAR
STARTCHAR k
ENCODING 107
SWIDTH 666 0
DWIDTH 8 0
BBX 8 13 0 -2
BITMAP
0000
0000
4000
4000
4000
4400
4800
7000
4800
4400
4200
0000
0000
ENDCHAR
STARTCHAR l
ENCODING 108
SWIDTH 666 0
DWIDTH 8 0
BBX 8 13 0 -2
BITMAP
0000
0000
3000
1000
1000
1000
1000
1000
1000
1000
7c00
0000
0000
ENDCHAR
STARTCHAR m
ENCODING 109
SWIDTH 666 0
DWIDTH 8 0
BBX 8 13 0 -2
BITMAP
0000
0000
0000
0000
0000
ec00
9200
9200
9200
9200
8200
0000
0000
ENDCHAR
STARTCHAR n
ENCODING 110
SWIDTH 666 0
DWIDTH 8 0
BBX 8 13 0 -2
BITMAP
0000
0000
0000
0000
0000
5c00
6200
4200
4200
4200
4200
0000
0000
ENDCHAR
STARTCHAR o
ENCODING 111
SWIDTH 666 0
DWIDTH 8 0
BBX 8 13 0 -2
BITMAP
0000
0000
0000
0000
0000
3c00
4200
4200
4200
4200
3c00
0000
0000
ENDCHAR
STARTCHAR p
ENCODING 112
SWIDTH 666 0
DWIDTH 8 0
BBX 8 13 0 -2
BITMAP
0000
0000
0000
0000
0000
5c00
6200
4200
6200
5c00
4000
4000
4000
ENDCHAR
STARTCHAR q
ENCODING 113
SWIDTH 666 0
DWIDTH 8 0
BBX 8 13 0 -2
BITMAP
0000
0000
0000
0000
0000
3a00
4600
4200
4600
3a00
0200
0200
0200
ENDCHAR
STARTCHAR r
ENCODING 114
SWIDTH 666 0
DWIDTH 8 0
BBX 8 13 0 -2
BITMAP
0000
0000
0000
0000
0000
5c00
2200
2000
2000
2000
2000
0000
0000
ENDCHAR
STARTCHAR s
ENCODING 115
SWIDTH 666 0
DWIDTH 8 0
BBX 8 13 0 -2
BITMAP
0000
0000
0000
0000
0000
3c00
4200
3000
0c00
4200
3c00
0000
0000
ENDCHAR
STARTCHAR t
ENCODING 116
SWIDTH 666 0
DWIDTH 8 0
BBX 8 13 0 -2
BITMAP
0000
0000
0000
2000
2000
7c00
2000
2000
2000
2200
1c00
0000
0000
ENDCHAR
STARTCHAR u
ENCODING 117
SWIDTH 666 0
DWIDTH 8 0
BBX 8 13 0 -2
BITMAP
0000
0000
0000
0000
0000
4400
4400
4400
4400
4400
3a00
0000
0000
ENDCHAR
STARTCHAR v
ENCODING 118
SWIDTH 666 0
DWIDTH 8 0
BBX 8 13 0 -2
BITMAP
0000
0000
0000
0000
0000
4400
4400
4400
2800
2800
1000
0000
0000
ENDCHAR
STARTCHAR w
ENCODING 119
SWIDTH 666 0
DWIDTH 8 0
BBX 8 13 0 -2
BITMAP
0000
0000
0000
0000
0000
8200
8200
9200
9200
aa00
4400
0000
0000
ENDCHAR
STARTCHAR x
ENCODING 120
SWIDTH 666 0
DWIDTH 8 0
BBX 8 13 0 -2
BITMAP
0000
0000
0000
0000
0000
4200
2400
1800
1800
2400
4200
0000
0000
ENDCHAR
STARTCHAR y
ENCODING 121
SWIDTH 666 0
DWIDTH 8 0
BBX 8 13 0 -2
BITMAP
0000
0000
0000
0000
0000
4200
4200
4200
4600
3a00
0200
4200
3c00
ENDCHAR
STARTCHAR z
ENCODING 122
SWIDTH 666 0
DWIDTH 8 0
BBX 8 13 0 -2
BITMAP
0000
0000
0000
0000
0000
7e00
0400
0800
1000
2000
7e00
0000
0000
ENDCHAR
STARTCHAR {
ENCODING 123
SWIDTH 666 0
DWIDTH 8 0
BBX 8 13 0 -2
BITMAP
0000
0000
0e00
1000
1000
0800
3000
0800
1000
1000
0e00
0000
0000
ENDCHAR
STARTCHAR |
ENCODING 124
SWIDTH 666 0
DWIDTH 8 0
BBX 8 13 0 -2
BITMAP
0000
0000
1000
1000
1000
1000
1000
1000
1000
1000
1000
0000
0000
ENDCHAR
STARTCHAR }
ENCODING 125
SWIDTH 666 0
DWIDTH 8 0
BBX 8 13 0 -2
BITMAP
0000
0000
7000
0800
0800
1000
0c00
1000
0800
0800
7000
0000
0000
ENDCHAR
STARTCHAR ~
ENCODING 126
SWIDTH 666 0
DWIDTH 8 0
BBX 8 13 0 -2
BITMAP
0000
0000
2400
5400
4800
0000
0000
0000
0000
0000
0000
0000
0000
ENDCHAR
STARTCHAR C177
ENCODING 127
SWIDTH 666 0
DWIDTH 8 0
BBX 8 13 0 -2
BITMAP
0000
0000
0000
0000
0000
0000
0000
0000
0000
0000
0000
0000
0000
ENDCHAR
STARTCHAR 00a0
ENCODING 160
SWIDTH 666 0
DWIDTH 8 0
BBX 8 13 0 -2
BITMAP
0000
0000
0000
0000
0000
0000
0000
0000
0000
0000
0000
0000
0000
ENDCHAR
STARTCHAR 00a1
ENCODING 161
SWIDTH 666 0
DWIDTH 8 0
BBX 8 13 0 -2
BITMAP
0000
0000
1000
0000
1000
1000
1000
1000
1000
1000
1000
0000
0000
ENDCHAR
STARTCHAR 00a2
ENCODING 162
SWIDTH 666 0
DWIDTH 8 0
BBX 8 13 0 -2
BITMAP
0000
0000
1000
3800
5400
5000
5000
5400
3800
1000
0000
0000
0000
ENDCHAR
STARTCHAR 00a3
ENCODING 163
SWIDTH 666 0
DWIDTH 8 0
BBX 8 13 0 -2
BITMAP
0000
0000
1c00
2200
2000
7000
2000
2000
2000
6200
dc00
0000
0000
ENDCHAR
STARTCHAR 00a4
ENCODING 164
SWIDTH 666 0
DWIDTH 8 0
BBX 8 13 0 -2
BITMAP
0000
0000
0000
0000
4200
3c00
2400
2400
3c00
4200
0000
0000
0000
ENDCHAR
STARTCHAR 00a5
ENCODING 165
SWIDTH 666 0
DWIDTH 8 0
BBX 8 13 0 -2
BITMAP
0000
0000
8200
8200
4400
2800
7c00
1000
7c00
1000
1000
0000
0000
ENDCHAR
STARTCHAR 00a6
ENCODING 166
SWIDTH 666 0
DWIDTH 8 0
BBX 8 13 0 -2
BITMAP
0000
0000
1000
1000
1000
1000
0000
1000
1000
1000
1000
0000
0000
ENDCHAR
STARTCHAR 00a7
ENCODING 167
SWIDTH 666 0
DWIDTH 8 0
BBX 8 13 0 -2
BITMAP
0000
1800
2400
2000
1800
2400
2400
1800
0400
2400
1800
0000
0000
ENDCHAR
STARTCHAR 00a8
ENCODING 168
SWIDTH 666 0
DWIDTH 8 0
BBX 8 13 0 -2
BITMAP
0000
0000
6c00
0000
0000
0000
0000
0000
0000
0000
0000
0000
0000
ENDCHAR
STARTCHAR 00a9
ENCODING 169
SWIDTH 666 0
DWIDTH 8 0
BBX 8 13 0 -2
BITMAP
0000
3800
4400
9200
aa00
a200
aa00
9200
4400
3800
0000
0000
0000
ENDCHAR
STARTCHAR 00aa
ENCODING 170
SWIDTH 666 0
DWIDTH 8 0
BBX 8 13 0 -2
BITMAP
0000
0000
3800
0400
3c00
4400
3c00
0000
7c00
0000
0000
0000
0000
ENDCHAR
STARTCHAR 00ab
ENCODING 171
SWIDTH 666 0
DWIDTH 8 0
BBX 8 13 0 -2
BITMAP
0000
0000
0000
1200
2400
4800
9000
4800
2400
1200
0000
0000
0000
ENDCHAR
STARTCHAR 00ac
ENCODING 172
SWIDTH 666 0
DWIDTH 8 0
BBX 8 13 0 -2
BITMAP
0000
0000
0000
0000
0000
0000
7e00
0200
0200
0200
0000
0000
0000
ENDCHAR
STARTCHAR 00ad
ENCODING 173
SWIDTH 666 0
DWIDTH 8 0
BBX 8 13 0 -2
BITMAP
0000
0000
0000
0000
0000
0000
7e00
0000
0000
0000
0000
0000
0000
ENDCHAR
STARTCHAR 00ae
ENCODING 174
SWIDTH 666 0
DWIDTH 8 0
BBX 8 13 0 -2
BITMAP
0000
3800
4400
9200
aa00
aa00
b200
aa00
4400
3800
0000
0000
0000
ENDCHAR
STARTCHAR 00af
ENCODING 175
SWIDTH 666 0
DWIDTH 8 0
BBX 8 13 0 -2
BITMAP
0000
0000
7e00
0000
0000
0000
0000
0000
0000
0000
0000
0000
0000
ENDCHAR
STARTCHAR 00b0
ENCODING 176
SWIDTH 666 0
DWIDTH 8 0
BBX 8 13 0 -2
BITMAP
0000
0000
1800
2400
2400
1800
0000
0000
0000
0000
0000
0000
0000
ENDCHAR
STARTCHAR 00b1
ENCODING 177
SWIDTH 666 0
DWIDTH 8 0
BBX 8 13 0 -2
BITMAP
0000
0000
0000
1000
1000
7c00
1000
1000
0000
7c00
0000
0000
0000
ENDCHAR
STARTCHAR 00b2
ENCODING 178
SWIDTH 666 0
DWIDTH 8 0
BBX 8 13 0 -2
BITMAP
0000
3000
4800
0800
3000
4000
7800
0000
0000
0000
0000
0000
0000
ENDCHAR
STARTCHAR 00b3
ENCODING 179
SWIDTH 666 0
DWIDTH 8 0
BBX 8 13 0 -2
BITMAP
0000
3000
4800
1000
0800
4800
3000
0000
0000
0000
0000
0000
0000
ENDCHAR
STARTCHAR 00b4
ENCODING 180
SWIDTH 666 0
DWIDTH 8 0
BBX 8 13 0 -2
BITMAP
0000
0800
1000
0000
0000
0000
0000
0000
0000
0000
0000
0000
0000
ENDCHAR
STARTCHAR 00b5
ENCODING 181
SWIDTH 666 0
DWIDTH 8 0
BBX 8 13 0 -2
BITMAP
0000
0000
0000
0000
0000
4200
4200
4200
4200
6600
5a00
4000
0000
ENDCHAR
STARTCHAR 00b6
ENCODING 182
SWIDTH 666 0
DWIDTH 8 0
BBX 8 13 0 -2
BITMAP
0000
0000
3e00
7400
7400
7400
3400
1400
1400
1400
1400
0000
0000
ENDCHAR
STARTCHAR 00b7
ENCODING 183
SWIDTH 666 0
DWIDTH 8 0
BBX 8 13 0 -2
BITMAP
0000
0000
0000
0000
0000
0000
1800
0000
0000
0000
0000
0000
0000
ENDCHAR
STARTCHAR 00b8
ENCODING 184
SWIDTH 666 0
DWIDTH 8 0
BBX 8 13 0 -2
BITMAP
0000
0000
0000
0000
0000
0000
0000
0000
0000
0000
0000
0800
1800
ENDCHAR
STARTCHAR 00b9
ENCODING 185
SWIDTH 666 0
DWIDTH 8 0
BBX 8 13 0 -2
BITMAP
0000
2000
6000
2000
2000
2000
7000
0000
0000
0000
0000
0000
0000
ENDCHAR
STARTCHAR 00ba
ENCODING 186
SWIDTH 666 0
DWIDTH 8 0
BBX 8 13 0 -2
BITMAP
0000
0000
3000
4800
4800
3000
0000
7800
0000
0000
0000
0000
0000
ENDCHAR
STARTCHAR 00bb
ENCODING 187
SWIDTH 666 0
DWIDTH 8 0
BBX 8 13 0 -2
BITMAP
0000
0000
0000
9000
4800
2400
1200
2400
4800
9000
0000
0000
0000
ENDCHAR
STARTCHAR 00bc
ENCODING 188
SWIDTH 666 0
DWIDTH 8 0
BBX 8 13 0 -2
BITMAP
0000
4000
c000
4000
4000
4200
e600
0a00
1200
1a00
0600
0000
0000
ENDCHAR
STARTCHAR 00bd
ENCODING 189
SWIDTH 666 0
DWIDTH 8 0
BBX 8 13 0 -2
BITMAP
0000
4000
c000
4000
4000
4c00
f200
0200
0c00
1000
1e00
0000
0000
ENDCHAR
STARTCHAR 00be
ENCODING 190
SWIDTH 666 0
DWIDTH 8 0
BBX 8 13 0 -2
BITMAP
0000
6000
9000
2000
1000
9200
6600
0a00
1200
1a00
0600
0000
0000
ENDCHAR
STARTCHAR 00bf
ENCODING 191
SWIDTH 666 0
DWIDTH 8 0
BBX 8 13 0 -2
BITMAP
0000
0000
1000
0000
1000
1000
2000
4000
4200
4200
3c00
0000
0000
ENDCHAR
STARTCHAR 00c0
ENCODING 192
SWIDTH 666 0
DWIDTH 8 0
BBX 8 13 0 -2
BITMAP
0000
1000
0800
0000
1800
2400
4200
4200
7e00
4200
4200
0000
0000
ENDCHAR
STARTCHAR 00c1
ENCODING 193
SWIDTH 666 0
DWIDTH 8 0
BBX 8 13 0 -2
BITMAP
0000
0800
1000
0000
1800
2400
4200
4200
7e00
4200
4200
0000
0000
ENDCHAR
STARTCHAR 00c2
ENCODING 194
SWIDTH 666 0
DWIDTH 8 0
BBX 8 13 0 -2
BITMAP
0000
1800
2400
0000
1800
2400
4200
4200
7e00
4200
4200
0000
0000
ENDCHAR
STARTCHAR 00c3
ENCODING 195
SWIDTH 666 0
DWIDTH 8 0
BBX 8 13 0 -2
BITMAP
0000
1400
2800
0000
1800
2400
4200
4200
7e00
4200
4200
0000
0000
ENDCHAR
STARTCHAR 00c4
ENCODING 196
SWIDTH 666 0
DWIDTH 8 0
BBX 8 13 0 -2
BITMAP
0000
2400
2400
0000
1800
2400
4200
4200
7e00
4200
4200
0000
0000
ENDCHAR
STARTCHAR 00c5
ENCODING 197
SWIDTH 666 0
DWIDTH 8 0
BBX 8 13 0 -2
BITMAP
0000
1800
2400
1800
1800
2400
4200
4200
7e00
4200
4200
0000
0000
ENDCHAR
STARTCHAR 00c6
ENCODING 198
SWIDTH 666 0
DWIDTH 8 0
BBX 8 13 0 -2
BITMAP
0000
0000
6e00
9000
9000
9000
9c00
f000
9000
9000
9e00
0000
0000
ENDCHAR
STARTCHAR 00c7
ENCODING 199
SWIDTH 666 0
DWIDTH 8 0
BBX 8 13 0 -2
BITMAP
0000
0000
3c00
4200
4000
4000
4000
4000
4000
4200
3c00
0800
1000
ENDCHAR
STARTCHAR 00c8
ENCODING 200
SWIDTH 666 0
DWIDTH 8 0
BBX 8 13 0 -2
BITMAP
0000
1000
0800
0000
7e00
4000
4000
7800
4000
4000
7e00
0000
0000
ENDCHAR
STARTCHAR 00c9
ENCODING 201
SWIDTH 666 0
DWIDTH 8 0
BBX 8 13 0 -2
BITMAP
0000
0800
1000
0000
7e00
4000
4000
7800
4000
4000
7e00
0000
0000
ENDCHAR
STARTCHAR 00ca
ENCODING 202
SWIDTH 666 0
DWIDTH 8 0
BBX 8 13 0 -2
BITMAP
0000
1800
2400
0000
7e00
4000
4000
7800
4000
4000
7e00
0000
0000
ENDCHAR
STARTCHAR 00cb
ENCODING 203
SWIDTH 666 0
DWIDTH 8 0
BBX 8 13 0 -2
BITMAP
0000
2400
2400
0000
7e00
4000
4000
7800
4000
4000
7e00
0000
0000
ENDCHAR
STARTCHAR 00cc
ENCODING 204
SWIDTH 666 0
DWIDTH 8 0
BBX 8 13 0 -2
BITMAP
0000
1000
0800
0000
7c00
1000
1000
1000
1000
1000
7c00
0000
0000
ENDCHAR
STARTCHAR 00cd
ENCODING 205
SWIDTH 666 0
DWIDTH 8 0
BBX 8 13 0 -2
BITMAP
0000
0800
1000
0000
7c00
1000
1000
1000
1000
1000
7c00
0000
0000
ENDCHAR
STARTCHAR 00ce
ENCODING 206
SWIDTH 666 0
DWIDTH 8 0
BBX 8 13 0 -2
BITMAP
0000
1800
2400
0000
7c00
1000
1000
1000
1000
1000
7c00
0000
0000
ENDCHAR
STARTCHAR 00cf
ENCODING 207
SWIDTH 666 0
DWIDTH 8 0
BBX 8 13 0 -2
BITMAP
0000
2800
2800
0000
7c00
1000
1000
1000
1000
1000
7c00
0000
0000
ENDCHAR
STARTCHAR 00d0
ENCODING 208
SWIDTH 666 0
DWIDTH 8 0
BBX 8 13 0 -2
BITMAP
0000
0000
fc00
4200
4200
4200
e200
4200
4200
4200
fc00
0000
0000
ENDCHAR
STARTCHAR 00d1
ENCODING 209
SWIDTH 666 0
DWIDTH 8 0
BBX 8 13 0 -2
BITMAP
0000
1400
2800
0000
8200
c200
a200
9200
8a00
8600
8200
0000
0000
ENDCHAR
STARTCHAR 00d2
ENCODING 210
SWIDTH 666 0
DWIDTH 8 0
BBX 8 13 0 -2
BITMAP
0000
1000
0800
0000
7c00
8200
8200
8200
8200
8200
7c00
0000
0000
ENDCHAR
STARTCHAR 00d3
ENCODING 211
SWIDTH 666 0
DWIDTH 8 0
BBX 8 13 0 -2
BITMAP
0000
0800
1000
0000
7c00
8200
8200
8200
8200
8200
7c00
0000
0000
ENDCHAR
STARTCHAR 00d4
ENCODING 212
SWIDTH 666 0
DWIDTH 8 0
BBX 8 13 0 -2
BITMAP
0000
1800
2400
0000
7c00
8200
8200
8200
8200
8200
7c00
0000
0000
ENDCHAR
STARTCHAR 00d5
ENCODING 213
SWIDTH 666 0
DWIDTH 8 0
BBX 8 13 0 -2
BITMAP
0000
1400
2800
0000
7c00
8200
8200
8200
8200
8200
7c00
0000
0000
ENDCHAR
STARTCHAR 00d6
ENCODING 214
SWIDTH 666 0
DWIDTH 8 0
BBX 8 13 0 -2
BITMAP
0000
2800
2800
0000
7c00
8200
8200
8200
8200
8200
7c00
0000
0000
ENDCHAR
STARTCHAR 00d7
ENCODING 215
SWIDTH 666 0
DWIDTH 8 0
BBX 8 13 0 -2
BITMAP
0000
0000
0000
0000
4200
2400
1800
1800
2400
4200
0000
0000
0000
ENDCHAR
STARTCHAR 00d8
ENCODING 216
SWIDTH 666 0
DWIDTH 8 0
BBX 8 13 0 -2
BITMAP
0000
0200
3c00
4600
4a00
4a00
5200
5200
5200
6200
3c00
4000
0000
ENDCHAR
STARTCHAR 00d9
ENCODING 217
SWIDTH 666 0
DWIDTH 8 0
BBX 8 13 0 -2
BITMAP
0000
1000
0800
0000
4200
4200
4200
4200
4200
4200
3c00
0000
0000
ENDCHAR
STARTCHAR 00da
ENCODING 218
SWIDTH 666 0
DWIDTH 8 0
BBX 8 13 0 -2
BITMAP
0000
0800
1000
0000
4200
4200
4200
4200
4200
4200
3c00
0000
0000
ENDCHAR
STARTCHAR 00db
ENCODING 219
SWIDTH 666 0
DWIDTH 8 0
BBX 8 13 0 -2
BITMAP
0000
1800
2400
0000
4200
4200
4200
4200
4200
4200
3c00
0000
0000
ENDCHAR
STARTCHAR 00dc
ENCODING 220
SWIDTH 666 0
DWIDTH 8 0
BBX 8 13 0 -2
BITMAP
0000
2400
2400
0000
4200
4200
4200
4200
4200
4200
3c00
0000
0000
ENDCHAR
STARTCHAR 00dd
ENCODING 221
SWIDTH 666 0
DWIDTH 8 0
BBX 8 13 0 -2
BITMAP
0000
0800
1000
0000
4400
4400
2800
1000
1000
1000
1000
0000
0000
ENDCHAR
STARTCHAR 00de
ENCODING 222
SWIDTH 666 0
DWIDTH 8 0
BBX 8 13 0 -2
BITMAP
0000
0000
4000
7c00
4200
4200
4200
7c00
4000
4000
4000
0000
0000
ENDCHAR
STARTCHAR 00df
ENCODING 223
SWIDTH 666 0
DWIDTH 8 0
BBX 8 13 0 -2
BITMAP
0000
0000
0000
3c00
4200
4200
7c00
4200
4200
6200
5c00
4000
0000
ENDCHAR
STARTCHAR 00e0
ENCODING 224
SWIDTH 666 0
DWIDTH 8 0
BBX 8 13 0 -2
BITMAP
0000
1000
0800
0000
0000
3c00
0200
3e00
4200
4600
3a00
0000
0000
ENDCHAR
STARTCHAR 00e1
ENCODING 225
SWIDTH 666 0
DWIDTH 8 0
BBX 8 13 0 -2
BITMAP
0000
0800
1000
0000
0000
3c00
0200
3e00
4200
4600
3a00
0000
0000
ENDCHAR
STARTCHAR 00e2
ENCODING 226
SWIDTH 666 0
DWIDTH 8 0
BBX 8 13 0 -2
BITMAP
0000
1800
2400
0000
0000
3c00
0200
3e00
4200
4600
3a00
0000
0000
ENDCHAR
STARTCHAR 00e3
ENCODING 227
SWIDTH 666 0
DWIDTH 8 0
BBX 8 13 0 -2
BITMAP
0000
1400
2800
0000
0000
3c00
0200
3e00
4200
4600
3a00
0000
0000
ENDCHAR
STARTCHAR 00e4
ENCODING 228
SWIDTH 666 0
DWIDTH 8 0
BBX 8 13 0 -2
BITMAP
0000
2400
2400
0000
0000
3c00
0200
3e00
4200
4600
3a00
0000
0000
ENDCHAR
STARTCHAR 00e5
ENCODING 229
SWIDTH 666 0
DWIDTH 8 0
BBX 8 13 0 -2
BITMAP
0000
1800
2400
1800
0000
3c00
0200
3e00
4200
4600
3a00
0000
0000
ENDCHAR
STARTCHAR 00e6
ENCODING 230
SWIDTH 666 0
DWIDTH 8 0
BBX 8 13 0 -2
BITMAP
0000
0000
0000
0000
0000
6c00
1200
7c00
9000
9200
6c00
0000
0000
ENDCHAR
STARTCHAR 00e7
ENCODING 231
SWIDTH 666 0
DWIDTH 8 0
BBX 8 13 0 -2
BITMAP
0000
0000
0000
0000
0000
3c00
4200
4000
4000
4200
3c00
0800
1000
ENDCHAR
STARTCHAR 00e8
ENCODING 232
SWIDTH 666 0
DWIDTH 8 0
BBX 8 13 0 -2
BITMAP
0000
1000
0800
0000
0000
3c00
4200
7e00
4000
4200
3c00
0000
0000
ENDCHAR
STARTCHAR 00e9
ENCODING 233
SWIDTH 666 0
DWIDTH 8 0
BBX 8 13 0 -2
BITMAP
0000
0800
1000
0000
0000
3c00
4200
7e00
4000
4200
3c00
0000
0000
ENDCHAR
STARTCHAR 00ea
ENCODING 234
SWIDTH 666 0
DWIDTH 8 0
BBX 8 13 0 -2
BITMAP
0000
1800
2400
0000
0000
3c00
4200
7e00
4000
4200
3c00
0000
0000
ENDCHAR
STARTCHAR 00eb
ENCODING 235
SWIDTH 666 0
DWIDTH 8 0
BBX 8 13 0 -2
BITMAP
0000
2400
2400
0000
0000
3c00
4200
7e00
4000
4200
3c00
0000
0000
ENDCHAR
STARTCHAR 00ec
ENCODING 236
SWIDTH 666 0
DWIDTH 8 0
BBX 8 13 0 -2
BITMAP
0000
2000
1000
0000
0000
3000
1000
1000
1000
1000
7c00
0000
0000
ENDCHAR
STARTCHAR 00ed
ENCODING 237
SWIDTH 666 0
DWIDTH 8 0
BBX 8 13 0 -2
BITMAP
0000
1000
2000
0000
0000
3000
1000
1000
1000
1000
7c00
0000
0000
ENDCHAR
STARTCHAR 00ee
ENCODING 238
SWIDTH 666 0
DWIDTH 8 0
BBX 8 13 0 -2
BITMAP
0000
3000
4800
0000
0000
3000
1000
1000
1000
1000
7c00
0000
0000
ENDCHAR
STARTCHAR 00ef
ENCODING 239
SWIDTH 666 0
DWIDTH 8 0
BBX 8 13 0 -2
BITMAP
0000
2800
2800
0000
0000
3000
1000
1000
1000
1000
7c00
0000
0000
ENDCHAR
STARTCHAR 00f0
ENCODING 240
SWIDTH 666 0
DWIDTH 8 0
BBX 8 13 0 -2
BITMAP
0000
2400
1800
2800
0400
3c00
4200
4200
4200
4200
3c00
0000
0000
ENDCHAR
STARTCHAR 00f1
ENCODING 241
SWIDTH 666 0
DWIDTH 8 0
BBX 8 13 0 -2
BITMAP
0000
1400
2800
0000
0000
5c00
6200
4200
4200
4200
4200
0000
0000
ENDCHAR
STARTCHAR 00f2
ENCODING 242
SWIDTH 666 0
DWIDTH 8 0
BBX 8 13 0 -2
BITMAP
0000
1000
0800
0000
0000
3c00
4200
4200
4200
4200
3c00
0000
0000
ENDCHAR
STARTCHAR 00f3
ENCODING 243
SWIDTH 666 0
DWIDTH 8 0
BBX 8 13 0 -2
BITMAP
0000
0800
1000
0000
0000
3c00
4200
4200
4200
4200
3c00
0000
0000
ENDCHAR
STARTCHAR 00f4
ENCODING 244
SWIDTH 666 0
DWIDTH 8 0
BBX 8 13 0 -2
BITMAP
0000
1800
2400
0000
0000
3c00
4200
4200
4200
4200
3c00
0000
0000
ENDCHAR
STARTCHAR 00f5
ENCODING 245
SWIDTH 666 0
DWIDTH 8 0
BBX 8 13 0 -2
BITMAP
0000
1400
2800
0000
0000
3c00
4200
4200
4200
4200
3c00
0000
0000
ENDCHAR
STARTCHAR 00f6
ENCODING 246
SWIDTH 666 0
DWIDTH 8 0
BBX 8 13 0 -2
BITMAP
0000
2400
2400
0000
0000
3c00
4200
4200
4200
4200
3c00
0000
0000
ENDCHAR
STARTCHAR 00f7
ENCODING 247
SWIDTH 666 0
DWIDTH 8 0
BBX 8 13 0 -2
BITMAP
0000
0000
0000
1000
1000
0000
7c00
0000
1000
1000
0000
0000
0000
ENDCHAR
STARTCHAR 00f8
ENCODING 248
SWIDTH 666 0
DWIDTH 8 0
BBX 8 13 0 -2
BITMAP
0000
0000
0000
0000
0200
3c00
4600
4a00
5200
6200
3c00
4000
0000
ENDCHAR
STARTCHAR 00f9
ENCODING 249
SWIDTH 666 0
DWIDTH 8 0
BBX 8 13 0 -2
BITMAP
0000
1000
0800
0000
0000
4400
4400
4400
4400
4400
3a00
0000
0000
ENDCHAR
STARTCHAR 00fa
ENCODING 250
SWIDTH 666 0
DWIDTH 8 0
BBX 8 13 0 -2
BITMAP
0000
0800
1000
0000
0000
4400
4400
4400
4400
4400
3a00
0000
0000
ENDCHAR
STARTCHAR 00fb
ENCODING 251
SWIDTH 666 0
DWIDTH 8 0
BBX 8 13 0 -2
BITMAP
0000
1800
2400
0000
0000
4400
4400
4400
4400
4400
3a00
0000
0000
ENDCHAR
STARTCHAR 00fc
ENCODING 252
SWIDTH 666 0
DWIDTH 8 0
BBX 8 13 0 -2
BITMAP
0000
2400
2400
0000
0000
4400
4400
4400
4400
4400
3a00
0000
0000
ENDCHAR
STARTCHAR 00fd
ENCODING 253
SWIDTH 666 0
DWIDTH 8 0
BBX 8 13 0 -2
BITMAP
0000
0800
1000
0000
0000
4200
4200
4200
4600
3a00
0200
4200
3c00
ENDCHAR
STARTCHAR 00fe
ENCODING 254
SWIDTH 666 0
DWIDTH 8 0
BBX 8 13 0 -2
BITMAP
0000
0000
0000
4000
4000
5c00
6200
4200
4200
6200
5c00
4000
4000
ENDCHAR
STARTCHAR 00ff
ENCODING 255
SWIDTH 666 0
DWIDTH 8 0
BBX 8 13 0 -2
BITMAP
0000
2400
2400
0000
0000
4200
4200
4200
4600
3a00
0200
4200
3c00
ENDCHAR
ENDFONT
