<?xml version="1.0" encoding="UTF-8" standalone="no"?>
<!-- Created with Inkscape (http://www.inkscape.org/) -->
<svg
   xmlns:dc="http://purl.org/dc/elements/1.1/"
   xmlns:cc="http://creativecommons.org/ns#"
   xmlns:rdf="http://www.w3.org/1999/02/22-rdf-syntax-ns#"
   xmlns:svg="http://www.w3.org/2000/svg"
   xmlns="http://www.w3.org/2000/svg"
   xmlns:sodipodi="http://sodipodi.sourceforge.net/DTD/sodipodi-0.dtd"
   xmlns:inkscape="http://www.inkscape.org/namespaces/inkscape"
   width="546"
   height="482.67157"
   id="svg2"
   sodipodi:version="0.32"
   inkscape:version="0.45.1+0.46pre1+devel"
   sodipodi:docname="Wireless Router.svg"
   inkscape:output_extension="org.inkscape.output.svg.inkscape"
   version="1.0"
   inkscape:export-filename="C:\Documents and Settings\Dan\Skrivbord\Clipart egna (InkScape)\Original\Kanske Upload\Wireless Router.png"
   inkscape:export-xdpi="310"
   inkscape:export-ydpi="310">
  <defs
     id="defs4">
    <inkscape:perspective
       sodipodi:type="inkscape:persp3d"
       inkscape:vp_x="-50 : 600 : 1"
       inkscape:vp_y="0 : 1000 : 0"
       inkscape:vp_z="700 : 600 : 1"
       inkscape:persp3d-origin="300 : 400 : 1"
       id="perspective148" />
    <inkscape:perspective
       sodipodi:type="inkscape:persp3d"
       inkscape:vp_x="-50 : 600 : 1"
       inkscape:vp_y="0 : 1000 : 0"
       inkscape:vp_z="700 : 600 : 1"
       inkscape:persp3d-origin="300 : 400 : 1"
       id="perspective138" />
    <inkscape:perspective
       sodipodi:type="inkscape:persp3d"
       inkscape:vp_x="-50 : 600 : 1"
       inkscape:vp_y="0 : 1000 : 0"
       inkscape:vp_z="700 : 600 : 1"
       inkscape:persp3d-origin="300 : 400 : 1"
       id="perspective10" />
    <inkscape:perspective
       id="perspective2395"
       inkscape:persp3d-origin="300 : 400 : 1"
       inkscape:vp_z="700 : 600 : 1"
       inkscape:vp_y="0 : 1000 : 0"
       inkscape:vp_x="-50 : 600 : 1"
       sodipodi:type="inkscape:persp3d" />
    <filter
       inkscape:collect="always"
       id="filter3304">
      <feGaussianBlur
         inkscape:collect="always"
         stdDeviation="0.27999283"
         id="feGaussianBlur3306" />
    </filter>
    <filter
       inkscape:collect="always"
       id="filter3336">
      <feGaussianBlur
         inkscape:collect="always"
         stdDeviation="0.5315371"
         id="feGaussianBlur3338" />
    </filter>
    <filter
       inkscape:collect="always"
       id="filter3368">
      <feGaussianBlur
         inkscape:collect="always"
         stdDeviation="0.26473573"
         id="feGaussianBlur3370" />
    </filter>
    <filter
       inkscape:collect="always"
       id="filter3564"
       x="-0.37202433"
       width="1.7440487"
       y="-0.43252525"
       height="1.8650506">
      <feGaussianBlur
         inkscape:collect="always"
         stdDeviation="1.1017616"
         id="feGaussianBlur3566" />
    </filter>
    <filter
       inkscape:collect="always"
       id="filter3748"
       x="-0.41952851"
       width="1.839057"
       y="-0.39121628"
       height="1.7824326">
      <feGaussianBlur
         inkscape:collect="always"
         stdDeviation="1.1235829"
         id="feGaussianBlur3750" />
    </filter>
    <filter
       inkscape:collect="always"
       id="filter3862"
       x="-0.33298156"
       width="1.6659631"
       y="-1.6699424"
       height="4.3398848">
      <feGaussianBlur
         inkscape:collect="always"
         stdDeviation="0.82006695"
         id="feGaussianBlur3864" />
    </filter>
    <filter
       inkscape:collect="always"
       id="filter3866"
       x="-0.33298156"
       width="1.6659631"
       y="-0.20756502"
       height="1.4151301">
      <feGaussianBlur
         inkscape:collect="always"
         stdDeviation="0.82006695"
         id="feGaussianBlur3868" />
    </filter>
    <filter
       inkscape:collect="always"
       id="filter3870"
       x="-0.33298156"
       width="1.6659631"
       y="-1.6699424"
       height="4.3398848">
      <feGaussianBlur
         inkscape:collect="always"
         stdDeviation="0.82006695"
         id="feGaussianBlur3872" />
    </filter>
    <filter
       inkscape:collect="always"
       id="filter3874"
       x="-0.3380883"
       width="1.6761765"
       y="-0.21154897"
       height="1.4230978">
      <feGaussianBlur
         inkscape:collect="always"
         stdDeviation="0.82006695"
         id="feGaussianBlur3876" />
    </filter>
    <filter
       inkscape:collect="always"
       id="filter3878"
       x="-0.33298156"
       width="1.6659631"
       y="-1.6699424"
       height="4.3398848">
      <feGaussianBlur
         inkscape:collect="always"
         stdDeviation="0.82006695"
         id="feGaussianBlur3880" />
    </filter>
    <filter
       inkscape:collect="always"
       id="filter3882"
       x="-0.36018598"
       width="1.720372"
       y="-0.20953795"
       height="1.4190758">
      <feGaussianBlur
         inkscape:collect="always"
         stdDeviation="0.82006695"
         id="feGaussianBlur3884" />
    </filter>
    <filter
       inkscape:collect="always"
       id="filter3886"
       x="-0.33298156"
       width="1.6659631"
       y="-1.6699424"
       height="4.3398848">
      <feGaussianBlur
         inkscape:collect="always"
         stdDeviation="0.82006695"
         id="feGaussianBlur3888" />
    </filter>
    <filter
       inkscape:collect="always"
       id="filter3890"
       x="-0.35439494"
       width="1.7087899"
       y="-0.20953795"
       height="1.4190758">
      <feGaussianBlur
         inkscape:collect="always"
         stdDeviation="0.82006695"
         id="feGaussianBlur3892" />
    </filter>
    <filter
       inkscape:collect="always"
       id="filter3894"
       x="-0.33298156"
       width="1.6659631"
       y="-1.6699424"
       height="4.3398848">
      <feGaussianBlur
         inkscape:collect="always"
         stdDeviation="0.82006695"
         id="feGaussianBlur3896" />
    </filter>
    <filter
       inkscape:collect="always"
       id="filter3898"
       x="-0.38537359"
       width="1.7707472"
       y="-0.20562869"
       height="1.4112574">
      <feGaussianBlur
         inkscape:collect="always"
         stdDeviation="0.82006695"
         id="feGaussianBlur3900" />
    </filter>
    <filter
       inkscape:collect="always"
       id="filter3902"
       x="-0.33298156"
       width="1.6659631"
       y="-1.6699424"
       height="4.3398848">
      <feGaussianBlur
         inkscape:collect="always"
         stdDeviation="0.82006695"
         id="feGaussianBlur3904" />
    </filter>
    <filter
       inkscape:collect="always"
       id="filter3906"
       x="-0.38537359"
       width="1.7707472"
       y="-0.21359873"
       height="1.4271975">
      <feGaussianBlur
         inkscape:collect="always"
         stdDeviation="0.82006695"
         id="feGaussianBlur3908" />
    </filter>
    <filter
       inkscape:collect="always"
       id="filter3910"
       x="-0.33298156"
       width="1.6659631"
       y="-1.6699424"
       height="4.3398848">
      <feGaussianBlur
         inkscape:collect="always"
         stdDeviation="0.82006695"
         id="feGaussianBlur3912" />
    </filter>
    <filter
       inkscape:collect="always"
       id="filter3914"
       x="-0.36018598"
       width="1.720372"
       y="-0.20562869"
       height="1.4112574">
      <feGaussianBlur
         inkscape:collect="always"
         stdDeviation="0.82006695"
         id="feGaussianBlur3916" />
    </filter>
    <filter
       inkscape:collect="always"
       id="filter3918"
       x="-0.33298156"
       width="1.6659631"
       y="-1.6699424"
       height="4.3398848">
      <feGaussianBlur
         inkscape:collect="always"
         stdDeviation="0.82006695"
         id="feGaussianBlur3920" />
    </filter>
    <filter
       inkscape:collect="always"
       id="filter3922"
       x="-0.36616942"
       width="1.7323389"
       y="-0.20953795"
       height="1.4190758">
      <feGaussianBlur
         inkscape:collect="always"
         stdDeviation="0.82006695"
         id="feGaussianBlur3924" />
    </filter>
    <filter
       inkscape:collect="always"
       id="filter3926"
       x="-0.33298156"
       width="1.6659631"
       y="-1.6699424"
       height="4.3398848">
      <feGaussianBlur
         inkscape:collect="always"
         stdDeviation="0.82006695"
         id="feGaussianBlur3928" />
    </filter>
    <filter
       inkscape:collect="always"
       id="filter3930"
       x="-0.34878778"
       width="1.6975756"
       y="-0.20186263"
       height="1.4037253">
      <feGaussianBlur
         inkscape:collect="always"
         stdDeviation="0.82006695"
         id="feGaussianBlur3932" />
    </filter>
    <filter
       inkscape:collect="always"
       id="filter3934"
       x="-0.33298156"
       width="1.6659631"
       y="-1.6699424"
       height="4.3398848">
      <feGaussianBlur
         inkscape:collect="always"
         stdDeviation="0.82006695"
         id="feGaussianBlur3936" />
    </filter>
    <filter
       inkscape:collect="always"
       id="filter3938"
       x="-0.32802677"
       width="1.6560535"
       y="-0.21568884"
       height="1.4313776">
      <feGaussianBlur
         inkscape:collect="always"
         stdDeviation="0.82006695"
         id="feGaussianBlur3940" />
    </filter>
    <filter
       inkscape:collect="always"
       id="filter3942"
       x="-0.33298156"
       width="1.6659631"
       y="-1.6699424"
       height="4.3398848">
      <feGaussianBlur
         inkscape:collect="always"
         stdDeviation="0.82006695"
         id="feGaussianBlur3944" />
    </filter>
    <filter
       inkscape:collect="always"
       id="filter3946"
       x="-0.32321677"
       width="1.6464336"
       y="-0.21568884"
       height="1.4313776">
      <feGaussianBlur
         inkscape:collect="always"
         stdDeviation="0.82006695"
         id="feGaussianBlur3948" />
    </filter>
    <filter
       inkscape:collect="always"
       id="filter3950"
       x="-0.33298156"
       width="1.6659631"
       y="-1.6699424"
       height="4.3398848">
      <feGaussianBlur
         inkscape:collect="always"
         stdDeviation="0.82006695"
         id="feGaussianBlur3952" />
    </filter>
    <filter
       inkscape:collect="always"
       id="filter3954"
       x="-0.3185463"
       width="1.6370926"
       y="-0.21359873"
       height="1.4271975">
      <feGaussianBlur
         inkscape:collect="always"
         stdDeviation="0.82006695"
         id="feGaussianBlur3956" />
    </filter>
    <filter
       inkscape:collect="always"
       id="filter3958"
       x="-0.33298156"
       width="1.6659631"
       y="-1.6699424"
       height="4.3398848">
      <feGaussianBlur
         inkscape:collect="always"
         stdDeviation="0.82006695"
         id="feGaussianBlur3960" />
    </filter>
    <filter
       inkscape:collect="always"
       id="filter3962"
       x="-0.28553614"
       width="1.5710723"
       y="-0.21568884"
       height="1.4313776">
      <feGaussianBlur
         inkscape:collect="always"
         stdDeviation="0.82006695"
         id="feGaussianBlur3964" />
    </filter>
    <filter
       inkscape:collect="always"
       id="filter3982"
       x="-0.0048889387"
       width="1.0097779"
       y="-0.26385465"
       height="1.5277092">
      <feGaussianBlur
         inkscape:collect="always"
         stdDeviation="1.0547249"
         id="feGaussianBlur3984" />
    </filter>
    <filter
       inkscape:collect="always"
       id="filter3996">
      <feGaussianBlur
         inkscape:collect="always"
         stdDeviation="0.8032234"
         id="feGaussianBlur3998" />
    </filter>
    <filter
       inkscape:collect="always"
       id="filter3517"
       x="-0.25713229"
       width="1.5142646"
       y="-0.087099633"
       height="1.1741993">
      <feGaussianBlur
         inkscape:collect="always"
         stdDeviation="0.33984317"
         id="feGaussianBlur3519" />
    </filter>
    <filter
       inkscape:collect="always"
       id="filter3329"
       x="-0.18025071"
       width="1.3605014"
       y="-1.1780664"
       height="3.3561328">
      <feGaussianBlur
         inkscape:collect="always"
         stdDeviation="0.49086099"
         id="feGaussianBlur3331" />
    </filter>
    <filter
       inkscape:collect="always"
       id="filter3333"
       x="-0.15131117"
       width="1.3026223"
       y="-0.1853139"
       height="1.3706278">
      <feGaussianBlur
         inkscape:collect="always"
         stdDeviation="0.49086099"
         id="feGaussianBlur3335" />
    </filter>
    <filter
       inkscape:collect="always"
       id="filter3337"
       x="-0.14412392"
       width="1.2882478"
       y="-0.18013415"
       height="1.3602683">
      <feGaussianBlur
         inkscape:collect="always"
         stdDeviation="0.49086099"
         id="feGaussianBlur3339" />
    </filter>
    <filter
       inkscape:collect="always"
       id="filter3341"
       x="-1.1780664"
       width="3.3561328"
       y="-0.23067047"
       height="1.4613409">
      <feGaussianBlur
         inkscape:collect="always"
         stdDeviation="0.49086099"
         id="feGaussianBlur3343" />
    </filter>
  </defs>
  <sodipodi:namedview
     id="base"
     pagecolor="#ffffff"
     bordercolor="#666666"
     borderopacity="1.0"
     gridtolerance="10000"
     guidetolerance="10"
     objecttolerance="10"
     inkscape:pageopacity="0.0"
     inkscape:pageshadow="2"
     inkscape:zoom="0.98994949"
     inkscape:cx="233.05018"
     inkscape:cy="176.49031"
     inkscape:document-units="px"
     inkscape:current-layer="layer2"
     showgrid="false"
     inkscape:window-width="1152"
     inkscape:window-height="838"
     inkscape:window-x="0"
     inkscape:window-y="0" />
  <metadata
     id="metadata7">
    <rdf:RDF>
      <cc:Work
         rdf:about="">
        <dc:format>image/svg+xml</dc:format>
        <dc:type
           rdf:resource="http://purl.org/dc/dcmitype/StillImage" />
      </cc:Work>
    </rdf:RDF>
  </metadata>
  <g
     inkscape:groupmode="layer"
     id="layer2"
     transform="translate(-45.788597,-496.6196)">
    <path
       style="fill:#606060;fill-opacity:1;fill-rule:evenodd;stroke:none;stroke-width:1px;stroke-linecap:butt;stroke-linejoin:miter;stroke-opacity:1"
       d="M 75.574315,977.86259 L 535.56828,979.20564 L 564.86002,979.29116 C 564.86002,979.29116 573.43146,977.86259 573.43146,973.57687 C 573.43146,969.29116 574.14573,959.29117 574.14573,959.29117 L 566.03832,959.7296 L 72.464255,956.66717 L 58.640665,955.63307 C 58.640665,955.63307 59.860025,973.57688 65.574315,975.71973 C 71.288595,977.86259 75.574315,977.14831 75.574315,977.86259 z"
       id="path2402"
       sodipodi:nodetypes="cccsccccsc" />
    <path
       style="fill:#dddddd;fill-opacity:1;fill-rule:evenodd;stroke:#b2b2b2;stroke-width:1px;stroke-linecap:butt;stroke-linejoin:miter;stroke-opacity:1"
       d="M 67.002885,957.14831 L 566.28859,960.00545 C 566.28859,960.00545 577.71717,959.29116 583.43146,955.71973 C 589.14574,952.14831 588.43146,942.86259 588.43146,942.86259 C 588.43146,942.86259 591.28859,907.14831 591.28859,902.14831 C 591.28859,897.14831 574.86002,839.29116 572.00288,827.86259 C 569.14574,816.43402 557.00288,757.1483 557.00288,757.1483 C 557.00288,757.1483 555.57431,749.29116 552.71717,748.57688 C 549.86002,747.86259 548.43146,748.57688 548.43146,748.57688 L 558.43146,797.86259 L 577.71717,880.00545 L 578.07431,881.34473 L 579.05004,882.28742 L 584.86002,897.14831 C 584.86002,897.14831 584.93925,904.12528 581.70701,906.43402 C 576.70701,910.00545 557.71717,910.71973 557.71717,910.71973 L 68.431455,907.86259 C 68.431455,907.86259 57.002885,906.43402 54.145745,903.57688 C 51.288595,900.71973 52.298745,895.51053 52.298745,895.51053 L 94.860025,745.00545 C 94.860025,745.00545 86.288605,747.86259 84.145745,752.1483 C 82.002885,756.43402 71.288595,811.43402 68.431455,820.00545 C 65.574315,828.57688 47.002885,893.57688 47.002885,893.57688 C 47.002885,893.57688 46.288597,900.00545 46.288597,903.57688 C 46.288597,907.14831 48.431455,946.43402 48.431455,946.43402 C 48.431455,946.43402 52.002885,953.57688 55.574315,955.00545 C 59.145745,956.43402 68.431455,957.14831 67.002885,957.14831 z"
       id="path2404"
       sodipodi:nodetypes="ccscsscsccccccsccsccsscscsc" />
    <path
       style="fill:#ececec;fill-opacity:1;fill-rule:evenodd;stroke:none;stroke-width:1px;stroke-linecap:butt;stroke-linejoin:miter;stroke-opacity:1;filter:url(#filter3336)"
       d="M 562.71717,958.57688 C 562.71717,958.57688 572.00288,957.86259 572.00288,951.43402 C 572.00288,945.00545 575.57431,922.14831 572.00288,918.57688 C 568.43146,915.00545 564.86002,912.86259 564.86002,912.86259 C 564.86002,912.86259 586.28859,903.57688 585.57431,907.86259 C 584.86002,912.14831 581.28859,914.29116 581.28859,920.00545 C 581.28859,925.71973 580.57431,948.57688 580.57431,948.57688 C 580.57431,948.57688 578.43146,952.86259 581.28859,953.57688 C 584.14574,954.29116 582.71717,955.71973 582.71717,955.71973 L 576.28859,957.86259 L 570.57431,958.57688 L 562.71717,958.57688 z"
       id="path2406" />
    <path
       style="fill:#ededed;fill-opacity:1;fill-rule:evenodd;stroke:#000000;stroke-width:1px;stroke-linecap:butt;stroke-linejoin:miter;stroke-opacity:1"
       d="M 75.574315,913.57688 L 560.57431,915.71973 L 557.71717,955.71973 L 77.002885,954.29116 L 75.574315,913.57688 z"
       id="path2408" />
    <path
       style="fill:#020202;fill-opacity:1;fill-rule:evenodd;stroke:#000000;stroke-width:1px;stroke-linecap:butt;stroke-linejoin:miter;stroke-opacity:1"
       d="M 100.57432,925.00545 L 541.28859,927.86259 C 541.28859,927.86259 548.43146,932.14831 548.43146,936.43402 C 548.43146,940.71973 540.57431,945.71973 540.57431,945.71973 L 98.431455,942.86259 C 98.431455,942.86259 89.145745,938.57688 89.860025,932.86259 C 90.574315,927.14831 101.2886,924.29116 100.57432,925.00545 z"
       id="path2410" />
    <path
       style="fill:#121212;fill-opacity:1;fill-rule:evenodd;stroke:none;stroke-width:1px;stroke-linecap:butt;stroke-linejoin:miter;stroke-opacity:1"
       d="M 71.497795,907.90591 L 557.85419,910.32545 L 573.61002,909.11259 C 573.61002,909.11259 581.28967,908.48718 583.43146,904.46973 C 584.17421,903.07651 585.22722,901.79095 585.2275,899.8245 C 585.22862,892.20247 577.89573,880.63045 577.89573,880.63045 C 577.89573,880.63045 578.20783,882.29016 577.30114,882.74322 C 575.50038,883.64304 573.664,884.53037 571.28859,885.00545 C 567.71717,885.71973 66.036055,879.91879 66.036055,879.91879 L 59.860025,880.00545 L 56.288605,877.68402 L 52.002885,896.43402 C 52.002885,896.43402 51.828665,903.29437 57.673845,905.51053 C 62.003235,907.15199 72.212085,908.6202 71.497795,907.90591 z"
       id="path2412"
       sodipodi:nodetypes="cccsscssccccsc" />
    <path
       style="fill:#2c2c2c;fill-opacity:1;fill-rule:evenodd;stroke:#252525;stroke-width:1px;stroke-linecap:butt;stroke-linejoin:miter;stroke-opacity:1"
       d="M 93.431455,743.57688 L 59.145745,868.57688 C 59.145745,868.57688 57.538605,871.96973 60.574315,873.57688 C 65.381975,876.12212 74.681455,875.18402 74.681455,875.18402 C 74.681455,875.18402 567.00288,879.29116 569.86002,878.57688 C 572.71717,877.86259 575.03859,876.96974 575.03859,876.96974 L 575.21717,868.75545 C 575.21717,868.75545 579.61685,882.27622 576.28859,883.75545 C 573.07431,885.18402 566.28859,885.00545 566.28859,885.00545 L 64.860025,880.71973 L 58.431455,879.29116 L 56.645745,876.79116 L 57.861935,870.85997 L 93.431455,743.57688 z"
       id="path2414"
       sodipodi:nodetypes="ccscsccscccccc" />
    <path
       style="fill:#d5d5d5;fill-opacity:1;fill-rule:evenodd;stroke:#d1d1d1;stroke-width:1px;stroke-linecap:butt;stroke-linejoin:miter;stroke-opacity:1;filter:url(#filter3748)"
       d="M 62.002885,879.82688 L 62.181455,874.29116 L 60.217165,873.93402 L 57.360025,874.82688 L 56.824315,876.25545 C 56.824315,876.25545 56.467165,877.86259 57.360025,878.21973 C 58.252885,878.57688 59.860025,879.11259 59.860025,879.11259 L 62.002885,879.82688 z"
       id="path2416" />
    <path
       style="fill:#d5d5d5;fill-opacity:1;fill-rule:evenodd;stroke:#dadada;stroke-width:1px;stroke-linecap:butt;stroke-linejoin:miter;stroke-opacity:1;filter:url(#filter3564)"
       d="M 571.82431,883.04116 C 571.82431,882.32688 570.57431,879.82688 572.18146,878.93402 C 573.78859,878.04116 575.03859,878.57688 575.03859,878.57688 C 575.03859,878.57688 578.07431,881.25545 577.36002,881.43402 C 576.64574,881.61259 576.46717,882.50545 574.68146,883.21973 C 572.89574,883.93402 572.36002,883.21973 571.82431,883.04116 z"
       id="path2418" />
    <path
       style="fill:none;fill-opacity:1;fill-rule:evenodd;stroke:#2aea00;stroke-width:1px;stroke-linecap:butt;stroke-linejoin:miter;stroke-opacity:1;filter:url(#filter3341)"
       d="M 194.42891,930.61513 L 194.68145,934.46973"
       id="path2420"
       sodipodi:nodetypes="cc" />
    <path
       style="fill:none;fill-opacity:1;fill-rule:evenodd;stroke:#2aea00;stroke-width:1px;stroke-linecap:butt;stroke-linejoin:miter;stroke-opacity:1;filter:url(#filter3337)"
       d="M 192.18145,932.32688 C 192.18145,932.32688 189.18906,937.68402 194.50288,937.86259 C 200.57352,938.06659 197.36003,932.50545 197.36003,932.50545"
       id="path2422"
       sodipodi:nodetypes="csc" />
    <path
       sodipodi:type="arc"
       style="fill:#ffffff;fill-opacity:1;fill-rule:nonzero;stroke:#444444;stroke-width:0.92299998;stroke-linecap:butt;stroke-linejoin:round;stroke-miterlimit:4;stroke-dasharray:none;stroke-opacity:1"
       id="path2424"
       sodipodi:cx="289.82144"
       sodipodi:cy="742.89789"
       sodipodi:rx="4.2857141"
       sodipodi:ry="4.2857141"
       d="M 294.10716,742.89789 A 4.2857141,4.2857141 0 1 1 285.53573,742.89789 A 4.2857141,4.2857141 0 1 1 294.10716,742.89789 z"
       transform="translate(-57.282828,191.92898)" />
    <path
       sodipodi:type="arc"
       style="fill:#101010;fill-opacity:1;fill-rule:nonzero;stroke:#000000;stroke-width:1.92626119;stroke-linecap:butt;stroke-linejoin:round;stroke-miterlimit:4;stroke-dasharray:none;stroke-opacity:1"
       id="path2439"
       sodipodi:cx="289.82144"
       sodipodi:cy="742.89789"
       sodipodi:rx="4.2857141"
       sodipodi:ry="4.2857141"
       d="M 294.10716,742.89789 A 4.2857141,4.2857141 0 1 1 285.53573,742.89789 A 4.2857141,4.2857141 0 1 1 294.10716,742.89789 z"
       transform="matrix(0.4791666,0,0,0.4791666,93.755115,578.94427)" />
    <path
       sodipodi:type="arc"
       style="fill:#ffffff;fill-opacity:1;fill-rule:nonzero;stroke:#7b7b7b;stroke-width:1.70648665;stroke-linecap:butt;stroke-linejoin:round;stroke-miterlimit:4;stroke-dasharray:none;stroke-opacity:1"
       id="path3211"
       sodipodi:cx="289.82144"
       sodipodi:cy="742.89789"
       sodipodi:rx="4.2857141"
       sodipodi:ry="4.2857141"
       d="M 294.10716,742.89789 A 4.2857141,4.2857141 0 1 1 285.53573,742.89789 A 4.2857141,4.2857141 0 1 1 294.10716,742.89789 z"
       transform="matrix(0.5109914,0,0,0.5109914,116.22806,556.99816)" />
    <path
       sodipodi:type="arc"
       style="fill:#ffffff;fill-opacity:1;fill-rule:nonzero;stroke:#7b7b7b;stroke-width:1.70648665;stroke-linecap:butt;stroke-linejoin:round;stroke-miterlimit:4;stroke-dasharray:none;stroke-opacity:1"
       id="path3213"
       sodipodi:cx="289.82144"
       sodipodi:cy="742.89789"
       sodipodi:rx="4.2857141"
       sodipodi:ry="4.2857141"
       d="M 294.10716,742.89789 A 4.2857141,4.2857141 0 1 1 285.53573,742.89789 A 4.2857141,4.2857141 0 1 1 294.10716,742.89789 z"
       transform="matrix(0.5109914,0,0,0.5109914,122.47805,556.99816)" />
    <path
       sodipodi:type="arc"
       style="fill:#ffffff;fill-opacity:1;fill-rule:nonzero;stroke:#7b7b7b;stroke-width:1.70648665;stroke-linecap:butt;stroke-linejoin:round;stroke-miterlimit:4;stroke-dasharray:none;stroke-opacity:1"
       id="path3215"
       sodipodi:cx="289.82144"
       sodipodi:cy="742.89789"
       sodipodi:rx="4.2857141"
       sodipodi:ry="4.2857141"
       d="M 294.10716,742.89789 A 4.2857141,4.2857141 0 1 1 285.53573,742.89789 A 4.2857141,4.2857141 0 1 1 294.10716,742.89789 z"
       transform="matrix(0.5109914,0,0,0.5109914,119.44234,552.71244)" />
    <path
       style="fill:none;fill-rule:evenodd;stroke:#606060;stroke-width:1px;stroke-linecap:butt;stroke-linejoin:miter;stroke-opacity:1"
       d="M 308.07431,934.29116 C 308.07431,934.29116 307.00288,935.71973 306.28859,936.61259 C 305.57431,937.50544 305.57431,939.11259 304.32431,938.57688 C 303.07431,938.04116 301.11002,936.07688 301.28859,934.64831 C 301.46717,933.21974 304.32431,931.07688 304.32431,931.07688 C 304.32431,931.07688 305.03859,932.1483 306.11002,932.86259 C 307.18145,933.57688 307.89574,934.11259 308.07431,934.29116 z"
       id="path3217"
       sodipodi:nodetypes="cssscsc" />
    <path
       style="fill:none;fill-rule:evenodd;stroke:#28cc03;stroke-width:1px;stroke-linecap:butt;stroke-linejoin:miter;stroke-opacity:1;filter:url(#filter3333)"
       d="M 336.28859,931.43402 L 340.57431,931.43402 L 341.82431,932.68402 L 341.82431,935.00545 L 340.93145,936.79116 L 336.46717,936.79116 L 335.03859,935.71973 L 335.03859,932.50545 L 336.28859,931.43402 z"
       id="path3221"
       sodipodi:nodetypes="ccccccccc" />
    <path
       style="fill:none;fill-rule:evenodd;stroke:#28cc03;stroke-width:1px;stroke-linecap:butt;stroke-linejoin:miter;stroke-opacity:1;filter:url(#filter3329)"
       d="M 335.75288,938.57688 L 341.28859,938.57688"
       id="path3223" />
    <path
       style="fill:none;fill-rule:evenodd;stroke:#4d4d4d;stroke-width:1px;stroke-linecap:butt;stroke-linejoin:miter;stroke-opacity:1"
       d="M 369.86002,931.43402 L 374.14574,931.43402 L 375.39574,932.68402 L 375.39574,935.00545 L 374.50288,936.79116 L 370.0386,936.79116 L 368.61002,935.71973 L 368.61002,932.50545 L 369.86002,931.43402 z"
       id="path3225"
       sodipodi:nodetypes="ccccccccc" />
    <path
       style="fill:none;fill-rule:evenodd;stroke:#4d4d4d;stroke-width:1px;stroke-linecap:butt;stroke-linejoin:miter;stroke-opacity:1"
       d="M 369.32431,938.57688 L 374.86002,938.57688"
       id="path3227" />
    <path
       style="fill:none;fill-rule:evenodd;stroke:#4d4d4d;stroke-width:1px;stroke-linecap:butt;stroke-linejoin:miter;stroke-opacity:1"
       d="M 407.00288,931.79116 L 411.2886,931.79116 L 412.5386,933.04116 L 412.5386,935.36259 L 411.64574,937.1483 L 407.18147,937.1483 L 405.75288,936.07687 L 405.75288,932.86259 L 407.00288,931.79116 z"
       id="path3229"
       sodipodi:nodetypes="ccccccccc" />
    <path
       style="fill:none;fill-rule:evenodd;stroke:#4d4d4d;stroke-width:1px;stroke-linecap:butt;stroke-linejoin:miter;stroke-opacity:1"
       d="M 406.46717,938.93402 L 412.00288,938.93402"
       id="path3231" />
    <path
       style="fill:none;fill-rule:evenodd;stroke:#4d4d4d;stroke-width:1px;stroke-linecap:butt;stroke-linejoin:miter;stroke-opacity:1"
       d="M 444.14574,931.96973 L 448.43145,931.96973 L 449.68145,933.21973 L 449.68145,935.54116 L 448.78859,937.32687 L 444.32431,937.32687 L 442.89574,936.25544 L 442.89574,933.04116 L 444.14574,931.96973 z"
       id="path3233"
       sodipodi:nodetypes="ccccccccc" />
    <path
       style="fill:none;fill-rule:evenodd;stroke:#4d4d4d;stroke-width:1px;stroke-linecap:butt;stroke-linejoin:miter;stroke-opacity:1"
       d="M 443.61002,939.11259 L 449.14574,939.11259"
       id="path3235" />
    <path
       style="font-size:12px;font-style:normal;font-variant:normal;font-weight:normal;font-stretch:normal;text-align:start;line-height:125%;writing-mode:lr-tb;text-anchor:start;fill:#000000;fill-opacity:1;stroke:#28cc03;stroke-width:1px;stroke-linecap:butt;stroke-linejoin:miter;stroke-opacity:1;font-family:Dominican;-inkscape-font-specification:Dominican;filter:url(#filter3517)"
       d="M 329.05831,937.86898 L 329.10629,932.30075 L 328.72213,932.54098 C 328.65816,932.59689 328.60226,932.62485 328.55441,932.62484 C 328.52242,932.62485 328.47243,932.59085 328.40444,932.52285 C 328.33646,932.45487 328.30245,932.38486 328.30245,932.31283 C 328.30245,932.22495 328.34841,932.12497 328.44034,932.0129 C 328.53225,931.90085 328.62618,931.78879 328.72213,931.67672 L 329.68234,930.33273 L 330.47445,930.78903 L 330.46236,938.5527 C 330.46236,938.64889 330.38631,938.69699 330.23421,938.69699 C 330.1783,938.69699 330.13437,938.69296 330.10238,938.6849 C 329.86239,938.62094 329.6224,938.56088 329.38241,938.50472 C 329.16634,938.40072 329.05831,938.18881 329.05831,937.86898 L 329.05831,937.86898 z"
       id="text3237" />
    <path
       style="font-size:12px;font-style:normal;font-variant:normal;font-weight:normal;font-stretch:normal;text-align:start;line-height:125%;writing-mode:lr-tb;text-anchor:start;fill:#000000;fill-opacity:1;stroke:#939393;stroke-width:1px;stroke-linecap:butt;stroke-linejoin:miter;stroke-opacity:1;font-family:Dominican;-inkscape-font-specification:Dominican"
       d="M 364.94248,932.84854 C 364.94246,933.5126 364.7065,934.32059 364.23458,935.27249 C 363.84249,936.05667 363.33443,936.86868 362.71041,937.70852 L 362.50643,937.97256 L 363.8984,937.94876 C 364.14644,937.94876 364.37044,937.97476 364.5704,938.02676 C 364.77034,938.07876 364.91036,938.16067 364.99044,938.27249 C 365.16646,938.51248 365.25447,938.70449 365.25448,938.84854 C 365.25447,938.98452 365.19448,939.06851 365.07449,939.10049 C 364.95449,939.13247 364.85042,939.14846 364.76229,939.14846 L 360.97054,939.34072 L 360.5743,937.93667 C 360.83846,937.62466 361.10653,937.31265 361.3785,937.00064 C 361.96248,936.20865 362.44246,935.46463 362.81844,934.76858 C 363.3304,933.83255 363.58638,933.12857 363.58639,932.65664 C 363.58638,932.55264 363.5784,932.46866 363.5624,932.40469 C 363.54641,932.34073 363.51046,932.30875 363.45455,932.30874 C 363.30245,932.30875 362.99044,932.50064 362.51852,932.88442 C 362.21456,933.13248 361.81051,933.50052 361.30636,933.98855 C 360.90646,934.38065 360.70248,934.58462 360.69442,934.60049 L 360.02242,933.65273 C 360.02242,933.58853 360.19845,933.3605 360.5505,932.96865 C 360.95846,932.51261 361.36642,932.1326 361.77438,931.82864 C 362.32638,931.42069 362.79439,931.21671 363.17843,931.2167 C 363.40255,931.21671 363.59053,931.27664 363.74239,931.39651 C 364.29439,931.80448 364.60237,932.04849 364.66634,932.12856 C 364.85042,932.35269 364.94246,932.59268 364.94248,932.84854 L 364.94248,932.84854 z"
       id="text3241" />
    <path
       style="font-size:12px;font-style:normal;font-variant:normal;font-weight:normal;font-stretch:normal;text-align:start;line-height:125%;writing-mode:lr-tb;text-anchor:start;fill:#000000;fill-opacity:1;stroke:#939393;stroke-width:1px;stroke-linecap:butt;stroke-linejoin:miter;stroke-opacity:1;font-family:Dominican;-inkscape-font-specification:Dominican"
       d="M 398.55154,939.8793 L 397.90371,938.83523 L 398.62368,938.71511 C 399.16762,938.61917 399.70754,938.33914 400.24343,937.87502 C 400.73952,937.44314 400.98757,937.09915 400.98757,936.84304 C 400.98757,936.69119 400.84755,936.55526 400.56753,936.43527 C 400.2875,936.31527 399.97951,936.25528 399.64358,936.25527 C 399.42751,936.25528 399.23348,936.28128 399.06149,936.33328 C 398.88949,936.38528 398.74355,936.47525 398.62368,936.60317 L 398.17947,936.27908 L 398.17947,935.23501 L 398.50356,935.079 C 399.04751,934.83902 399.59548,934.46304 400.14748,933.95107 C 400.69948,933.43912 400.97548,933.05521 400.97549,932.79934 C 400.97548,932.7432 400.95547,932.6951 400.91544,932.65505 C 400.81948,932.55911 400.65957,932.51114 400.43569,932.51113 C 400.10756,932.51114 399.69155,932.61112 399.18765,932.81106 C 398.7797,932.97122 398.5436,933.08328 398.47939,933.14724 L 397.97549,932.00723 C 398.06363,931.91129 398.32363,931.77127 398.75552,931.58718 C 399.29165,931.36307 399.75564,931.25101 400.14748,931.251 C 400.25955,931.25101 400.3716,931.26309 400.48367,931.28726 C 400.85965,931.37516 401.16762,931.52713 401.40762,931.74319 C 401.59169,931.90311 401.78371,932.15506 401.98367,932.49905 C 402.03151,932.57913 402.06149,932.6572 402.07357,932.73324 C 402.08565,932.8093 402.09169,932.88333 402.0917,932.95535 C 402.09169,933.25125 401.98366,933.5712 401.76761,933.91519 C 401.55154,934.25919 401.28347,934.56717 400.9634,934.83914 L 400.50747,935.21121 C 400.8915,935.21121 401.28951,935.43722 401.7015,935.88925 C 402.11348,936.34128 402.31948,936.8273 402.31948,937.34731 C 402.31948,937.65127 402.24947,937.91726 402.10947,938.14529 C 401.96944,938.37332 401.76748,938.6033 401.50356,938.83523 C 401.16762,939.13113 400.79567,939.37112 400.38772,939.5552 C 399.88357,939.78713 399.3915,939.9031 398.91152,939.9031 C 398.84756,939.9031 398.78158,939.89913 398.71359,939.8912 C 398.64559,939.88326 398.59157,939.8793 398.55154,939.8793 L 398.55154,939.8793 z"
       id="text3245" />
    <path
       style="font-size:12px;font-style:normal;font-variant:normal;font-weight:normal;font-stretch:normal;text-align:start;line-height:125%;writing-mode:lr-tb;text-anchor:start;fill:#000000;fill-opacity:1;stroke:#939393;stroke-width:1px;stroke-linecap:butt;stroke-linejoin:miter;stroke-opacity:1;font-family:Dominican;-inkscape-font-specification:Dominican"
       d="M 433.97515,936.58822 L 436.87884,931.5964 L 438.17486,932.11239 L 438.01885,936.03634 L 438.42718,936.13229 C 438.62712,936.1882 438.73503,936.22018 438.75091,936.22824 C 438.799,936.26022 438.83904,936.31222 438.87103,936.38424 C 438.93499,936.52829 438.98094,936.63431 439.0089,936.7023 C 439.03686,936.77029 439.05083,936.84823 439.05083,936.93612 C 439.05083,937.00033 439.03887,937.06442 439.01495,937.12838 L 437.92291,937.20016 L 437.93499,939.73214 C 437.93499,939.94015 437.86296,940.03219 437.71893,940.00826 C 437.31902,939.95236 437.08709,939.91232 437.02312,939.88815 C 436.78313,939.78414 436.66314,939.57223 436.66314,939.25241 L 436.66314,937.28439 L 434.71893,937.28439 L 433.97515,936.58822 z M 435.48687,936.08431 L 436.80706,936.10812 L 437.01104,933.13229 L 435.48687,936.08431 z"
       id="text3249" />
    <path
       style="font-size:12px;font-style:normal;font-variant:normal;font-weight:normal;font-stretch:normal;text-align:start;line-height:125%;writing-mode:lr-tb;text-anchor:start;fill:#979797;fill-opacity:1;stroke:none;stroke-width:1px;stroke-linecap:butt;stroke-linejoin:miter;stroke-opacity:1;font-family:Dominican;-inkscape-font-specification:Dominican"
       d="M 109.34409,932.3674 C 109.08016,933.58322 108.9001,934.43124 108.80392,934.91146 C 108.65206,935.67123 108.49617,936.52719 108.33628,937.47933 L 107.04026,936.98715 L 106.27194,932.81124 L 105.39597,937.73129 L 104.01609,937.28744 L 103.3082,929.55929 C 103.3082,929.47141 103.38021,929.42746 103.52426,929.42745 C 103.63608,929.43527 103.71604,929.43918 103.76413,929.43917 C 103.91622,929.43918 104.04623,929.46518 104.15414,929.51718 C 104.26206,929.56919 104.32004,929.65927 104.3281,929.78744 L 104.77194,935.69113 L 105.64792,929.97933 L 107.04026,930.03939 L 107.65219,935.5234 C 107.76425,934.39523 107.95627,933.16318 108.22824,931.82723 C 108.35617,931.17124 108.46811,930.65927 108.56405,930.29135 C 108.63607,930.00327 108.78011,929.49521 108.99618,928.76718 C 109.02011,928.7352 109.04806,928.69919 109.08005,928.65914 C 109.15206,928.58713 109.23213,928.55918 109.32028,928.57528 C 109.55221,928.61533 109.73819,928.69132 109.87821,928.80325 C 110.0182,928.91519 110.08821,929.06723 110.08822,929.25936 C 109.91219,929.97129 109.78413,930.48728 109.70407,930.80734 C 109.57613,931.32736 109.45614,931.84738 109.34409,932.3674 L 109.34409,932.3674 z M 111.18136,931.43136 L 111.18136,930.65133 C 111.18136,930.49924 111.22733,930.36521 111.31924,930.24923 C 111.41116,930.13327 111.52914,930.07529 111.67319,930.07528 C 111.80917,930.07529 111.9332,930.12729 112.04525,930.23129 C 112.15732,930.3353 112.21335,930.45932 112.21335,930.60336 L 112.21335,931.68331 C 112.21335,931.79538 112.16135,931.87741 112.05734,931.92941 C 111.95334,931.98141 111.82932,932.00742 111.68527,932.00741 C 111.54122,932.00742 111.42123,931.95139 111.32529,931.83932 C 111.22933,931.72726 111.18136,931.59128 111.18136,931.43136 L 111.18136,931.43136 z M 111.13339,937.22738 L 111.13339,932.83541 C 111.13339,932.64328 111.24533,932.54721 111.46921,932.54721 C 111.74117,932.54721 111.93515,932.58121 112.05112,932.64919 C 112.16708,932.71719 112.22507,932.81125 112.22507,932.93136 L 112.1174,937.67123 C 112.1174,937.76718 112.04538,937.81515 111.90134,937.81515 C 111.82126,937.81515 111.75118,937.80715 111.69112,937.79116 C 111.63107,937.77517 111.58505,937.76327 111.55307,937.75546 C 111.27329,937.66732 111.13339,937.4913 111.13339,937.22738 L 111.13339,937.22738 z M 113.68845,932.8713 L 113.79648,932.73947 L 114.0726,932.73947 C 114.13657,932.73947 114.21053,932.77743 114.29452,932.85336 C 114.37851,932.92929 114.44455,932.97531 114.49265,932.99142 C 114.60446,933.02341 114.69638,932.93741 114.76839,932.73342 C 114.84042,932.52945 114.92641,932.41342 115.0264,932.38534 C 115.12636,932.35727 115.19638,932.34323 115.23641,932.34323 C 115.38852,932.34323 115.52255,932.39725 115.63852,932.50527 C 115.75449,932.61331 115.81247,932.74326 115.81247,932.89511 L 115.80039,933.36312 C 115.80038,933.5953 115.77237,933.80539 115.71634,933.99337 C 115.6603,934.18136 115.57236,934.27536 115.45248,934.27535 C 115.26839,934.27536 115.14437,934.0953 115.08042,933.73519 C 115.04843,933.55917 114.9924,933.47116 114.91233,933.47116 C 114.84054,933.47116 114.78261,933.53116 114.73855,933.65115 C 114.69449,933.77115 114.67246,934.0112 114.67246,934.3713 C 114.67246,934.48337 114.67246,934.58139 114.67246,934.66537 C 114.67246,934.74936 114.67246,934.81527 114.67246,934.86312 L 114.67246,937.79135 C 114.58456,937.83138 114.48459,937.8514 114.37252,937.8514 C 114.30051,937.8514 114.2125,937.83938 114.10849,937.81533 C 114.00449,937.79128 113.90451,937.73324 113.80857,937.6412 C 113.71261,937.54916 113.66464,937.43124 113.66464,937.28744 L 113.68845,932.8713 z M 119.45774,933.78317 L 119.52951,935.22311 L 117.82552,935.49923 C 117.68173,935.53122 117.58579,935.56723 117.53769,935.60726 C 117.43368,935.68734 117.38168,935.7994 117.38169,935.94345 L 117.40548,936.49533 C 117.40548,936.6152 117.44351,936.72518 117.51955,936.82528 C 117.59561,936.92538 117.68563,936.9714 117.78964,936.96334 C 118.01376,936.93136 118.29379,936.75534 118.62973,936.43527 C 118.96567,936.1152 119.11764,935.91916 119.08567,935.84713 C 119.11764,935.83126 119.16965,935.82333 119.24167,935.82333 C 119.37765,935.82333 119.47763,935.86734 119.5416,935.95535 C 119.60556,936.04336 119.63754,936.13534 119.63755,936.23129 C 119.63754,936.27133 119.62557,936.32333 119.60165,936.38729 C 119.55356,936.57138 119.48556,936.73141 119.39767,936.8674 C 119.35763,936.93136 119.24556,937.07138 119.0615,937.28744 C 118.90964,937.46322 118.75571,937.59115 118.59969,937.67123 C 118.44369,937.75131 118.25765,937.79135 118.0416,937.79135 C 117.89755,937.79135 117.77956,937.77731 117.68766,937.74923 C 117.59573,937.72116 117.50168,937.6672 117.40548,937.58737 L 116.78182,937.0234 C 116.75765,937.00729 116.73361,936.97122 116.70969,936.91519 C 116.68576,936.85916 116.66574,936.81515 116.64963,936.78317 C 116.59372,936.63937 116.56576,936.48739 116.56576,936.32723 L 116.56576,935.3912 C 116.56576,934.78329 116.69974,934.1553 116.96768,933.50723 C 117.23562,932.85916 117.52158,932.53513 117.82552,932.53512 C 117.87363,932.53513 117.90964,932.53915 117.93357,932.54721 C 118.08566,932.59531 118.27969,932.63132 118.51566,932.65524 C 118.75162,932.67917 118.93563,932.76315 119.06771,932.90719 C 119.19979,933.05124 119.29782,933.18924 119.36178,933.32119 C 119.42575,933.45315 119.45773,933.60715 119.45774,933.78317 L 119.45774,933.78317 z M 118.58176,933.77145 C 118.58176,933.63547 118.55576,933.51547 118.50376,933.41146 C 118.45175,933.30746 118.36972,933.23935 118.25765,933.20712 C 118.13754,933.1832 118.0256,933.31125 117.92185,933.59127 C 117.84982,933.79123 117.80173,933.93124 117.77756,934.01132 C 117.71358,934.17929 117.66562,934.32327 117.63363,934.44326 C 117.60165,934.56326 117.58566,934.69125 117.58567,934.82723 L 118.58176,934.59945 L 118.58176,933.77145 z M 120.69589,937.04721 L 120.80356,929.73947 C 120.80356,929.64328 120.85361,929.5712 120.95371,929.52322 C 121.0538,929.47525 121.16379,929.46323 121.28366,929.48715 C 121.45163,929.51914 121.56564,929.57517 121.6257,929.65524 C 121.68576,929.73532 121.71579,929.85129 121.71579,930.00314 L 121.53562,937.61117 C 121.53561,937.6993 121.45969,937.74337 121.30783,937.74337 C 121.25168,937.74337 121.19162,937.73532 121.12766,937.7192 C 120.91965,937.62326 120.79568,937.5433 120.75576,937.47933 C 120.71585,937.41537 120.69589,937.27133 120.69589,937.04721 L 120.69589,937.04721 z M 125.71554,933.78317 L 125.78733,935.22311 L 124.08335,935.49923 C 123.93955,935.53122 123.84359,935.56723 123.7955,935.60726 C 123.6915,935.68734 123.6395,935.7994 123.6395,935.94345 L 123.6633,936.49533 C 123.6633,936.6152 123.70132,936.72518 123.77738,936.82528 C 123.85343,936.92538 123.94344,936.9714 124.04746,936.96334 C 124.27158,936.93136 124.5516,936.75534 124.88755,936.43527 C 125.22348,936.1152 125.37546,935.91916 125.34348,935.84713 C 125.37546,935.83126 125.42746,935.82333 125.49948,935.82333 C 125.63547,935.82333 125.73543,935.86734 125.79941,935.95535 C 125.86337,936.04336 125.89534,936.13534 125.89535,936.23129 C 125.89534,936.27133 125.88339,936.32333 125.85947,936.38729 C 125.81136,936.57138 125.74338,936.73141 125.65548,936.8674 C 125.61544,936.93136 125.50339,937.07138 125.31931,937.28744 C 125.16745,937.46322 125.01352,937.59115 124.85752,937.67123 C 124.7015,937.75131 124.51547,937.79135 124.29941,937.79135 C 124.15537,937.79135 124.03737,937.77731 123.94547,937.74923 C 123.85354,937.72116 123.75949,937.6672 123.6633,937.58737 L 123.03964,937.0234 C 123.01547,937.00729 122.99142,936.97122 122.9675,936.91519 C 122.94357,936.85916 122.92355,936.81515 122.90743,936.78317 C 122.85153,936.63937 122.82358,936.48739 122.82358,936.32723 L 122.82358,935.3912 C 122.82358,934.78329 122.95755,934.1553 123.22549,933.50723 C 123.49344,932.85916 123.77938,932.53513 124.08335,932.53512 C 124.13144,932.53513 124.16745,932.53915 124.19137,932.54721 C 124.34348,932.59531 124.53751,932.63132 124.77347,932.65524 C 125.00942,932.67917 125.19344,932.76315 125.32552,932.90719 C 125.45761,933.05124 125.55562,933.18924 125.6196,933.32119 C 125.68356,933.45315 125.71554,933.60715 125.71554,933.78317 L 125.71554,933.78317 z M 124.83956,933.77145 C 124.83956,933.63547 124.81357,933.51547 124.76157,933.41146 C 124.70955,933.30746 124.62752,933.23935 124.51547,933.20712 C 124.39535,933.1832 124.28341,933.31125 124.17965,933.59127 C 124.10764,933.79123 124.05954,933.93124 124.03537,934.01132 C 123.97141,934.17929 123.92343,934.32327 123.89145,934.44326 C 123.85947,934.56326 123.84348,934.69125 123.84348,934.82723 L 124.83956,934.59945 L 124.83956,933.77145 z M 126.83358,937.26327 C 126.73764,937.19931 126.68966,937.09933 126.68966,936.96334 C 126.68966,936.88327 126.71366,936.80722 126.76163,936.73519 C 126.8096,936.66317 126.86758,936.60916 126.93558,936.57315 C 127.00357,936.53714 127.06955,936.53524 127.13352,936.56747 C 127.34152,936.70346 127.49752,936.80343 127.60153,936.8674 C 127.80148,936.99533 127.94942,937.05929 128.04538,937.05929 C 128.14937,937.05929 128.2134,937.02127 128.23746,936.94522 C 128.2615,936.86917 128.27353,936.81918 128.27353,936.79525 C 128.27353,936.75521 128.27353,936.72726 128.27353,936.71139 C 128.27353,936.54342 128.18149,936.37936 127.99741,936.2192 C 127.82138,936.08322 127.64737,935.94522 127.47537,935.8052 C 127.30338,935.66519 127.17141,935.52719 127.0795,935.3912 C 126.98757,935.25522 126.92362,935.09921 126.88761,934.92318 C 126.85159,934.74716 126.83358,934.59518 126.83358,934.46725 C 126.83358,934.05929 126.94956,933.6893 127.18149,933.35726 C 127.41342,933.02524 127.70944,932.85922 128.06955,932.85922 C 128.17355,932.85922 128.23752,932.85922 128.26145,932.85922 C 128.3176,932.85922 128.35764,932.86728 128.38155,932.88339 L 128.95761,933.23129 C 129.08553,933.31137 129.17355,933.42343 129.22164,933.56747 C 129.24556,933.63144 129.2695,933.78732 129.29343,934.03512 C 129.29343,934.21921 129.28341,934.37527 129.2634,934.50332 C 129.24338,934.63138 129.20139,934.76742 129.13742,934.91146 L 128.5134,934.91146 C 128.48946,934.84726 128.4515,934.79318 128.39951,934.74923 C 128.3475,934.70529 128.32149,934.48337 128.32151,934.08346 C 128.32149,933.9714 128.32149,933.85531 128.32151,933.73519 C 128.29757,933.67123 128.26157,933.63925 128.21347,933.63925 C 128.13363,933.63925 128.03366,933.73526 127.91354,933.92727 C 127.79343,934.11929 127.72141,934.28732 127.69747,934.43136 C 127.67355,934.6152 127.71761,934.79123 127.82968,934.95944 C 127.90951,935.07931 128.05344,935.22323 128.26145,935.3912 C 128.46945,935.55917 128.68552,935.72714 128.90964,935.89511 C 129.16549,936.12728 129.29343,936.3674 129.29343,936.61544 C 129.29343,936.92745 129.15347,937.21145 128.87357,937.46743 C 128.59366,937.72341 128.32968,937.8514 128.08164,937.8514 C 127.89755,937.8514 127.72549,937.81539 127.56546,937.74337 C 127.40543,937.67135 127.16146,937.51132 126.83358,937.26327 L 126.83358,937.26327 z M 130.2789,937.26327 C 130.18295,937.19931 130.13497,937.09933 130.13497,936.96334 C 130.13497,936.88327 130.15896,936.80722 130.20694,936.73519 C 130.25492,936.66317 130.31289,936.60916 130.38089,936.57315 C 130.44888,936.53714 130.51486,936.53524 130.57882,936.56747 C 130.78683,936.70346 130.94284,936.80343 131.04685,936.8674 C 131.24679,936.99533 131.39475,937.05929 131.49069,937.05929 C 131.5947,937.05929 131.65872,937.02127 131.68277,936.94522 C 131.70682,936.86917 131.71884,936.81918 131.71884,936.79525 C 131.71884,936.75521 131.71884,936.72726 131.71884,936.71139 C 131.71884,936.54342 131.6268,936.37936 131.44271,936.2192 C 131.26668,936.08322 131.09268,935.94522 130.92068,935.8052 C 130.74868,935.66519 130.61673,935.52719 130.52481,935.3912 C 130.43288,935.25522 130.36893,935.09921 130.33292,934.92318 C 130.29691,934.74716 130.2789,934.59518 130.2789,934.46725 C 130.2789,934.05929 130.39487,933.6893 130.6268,933.35726 C 130.85873,933.02524 131.15475,932.85922 131.51486,932.85922 C 131.61886,932.85922 131.68283,932.85922 131.70676,932.85922 C 131.76291,932.85922 131.80294,932.86728 131.82688,932.88339 L 132.40293,933.23129 C 132.53084,933.31137 132.61886,933.42343 132.66696,933.56747 C 132.69089,933.63144 132.71481,933.78732 132.73873,934.03512 C 132.73873,934.21921 132.72872,934.37527 132.70871,934.50332 C 132.68868,934.63138 132.64669,934.76742 132.58274,934.91146 L 131.95871,934.91146 C 131.93478,934.84726 131.89682,934.79318 131.84482,934.74923 C 131.79282,934.70529 131.76682,934.48337 131.76682,934.08346 C 131.76682,933.9714 131.76682,933.85531 131.76682,933.73519 C 131.74289,933.67123 131.70687,933.63925 131.65878,933.63925 C 131.57895,933.63925 131.47897,933.73526 131.35886,933.92727 C 131.23873,934.11929 131.16672,934.28732 131.14279,934.43136 C 131.11886,934.6152 131.16293,934.79123 131.275,934.95944 C 131.35483,935.07931 131.49875,935.22323 131.70676,935.3912 C 131.91476,935.55917 132.13083,935.72714 132.35495,935.89511 C 132.6108,936.12728 132.73873,936.3674 132.73873,936.61544 C 132.73873,936.92745 132.59878,937.21145 132.31887,937.46743 C 132.03897,937.72341 131.77499,937.8514 131.52695,937.8514 C 131.34287,937.8514 131.17081,937.81539 131.01077,937.74337 C 130.85074,937.67135 130.60677,937.51132 130.2789,937.26327 L 130.2789,937.26327 z M 145.64951,931.63534 C 145.6014,932.07529 145.41745,932.48727 145.09762,932.8713 C 144.84152,933.17526 144.45345,933.50326 143.93344,933.85531 L 143.41745,934.20321 L 145.36167,937.13143 C 145.37752,937.21127 145.38546,937.2712 145.38547,937.31124 C 145.38546,937.51119 145.29745,937.6672 145.12143,937.77926 C 145.03354,937.82736 144.94955,937.8514 144.86947,937.8514 C 144.74959,937.8514 144.63961,937.82137 144.53951,937.76132 C 144.43941,937.70126 144.34945,937.6152 144.26962,937.50314 L 141.84567,934.22738 L 141.78562,937.58737 C 141.78561,937.70724 141.68955,937.76718 141.49741,937.76718 C 141.38558,937.76718 141.29757,937.75118 141.23336,937.7192 C 141.0815,937.67135 140.94956,937.62539 140.8375,937.58132 C 140.72543,937.53726 140.6694,937.41525 140.66941,937.2153 L 140.69358,930.0632 C 140.69357,929.91135 140.71554,929.7814 140.75949,929.67336 C 140.80344,929.56534 140.8895,929.48337 141.01766,929.42745 C 141.08164,929.40329 141.14963,929.39121 141.22164,929.3912 C 141.39767,929.39121 141.53769,929.45529 141.64169,929.58346 C 141.84969,929.47946 142.03769,929.41342 142.20566,929.38534 C 142.37363,929.35727 142.60556,929.34323 142.90145,929.34323 L 143.52548,929.34323 C 144.03744,929.34323 144.52144,929.56723 144.97751,930.01522 C 145.43356,930.46323 145.66159,930.95126 145.66159,931.47933 C 145.65353,931.55136 145.6495,931.60336 145.64951,931.63534 L 145.64951,931.63534 z M 141.86947,933.48324 C 142.29354,933.37924 142.61758,933.24124 142.84159,933.06924 C 143.06557,932.89725 143.24959,932.75522 143.39364,932.64315 C 143.70566,932.39535 143.95163,932.11942 144.13155,931.81533 C 144.31149,931.51126 144.40145,931.19919 144.40145,930.87911 C 144.40145,930.68723 144.30544,930.54129 144.11344,930.44131 C 143.92141,930.34134 143.68538,930.29135 143.40537,930.29135 C 143.07747,930.29135 142.76552,930.34336 142.46952,930.44735 C 142.17348,930.55136 141.99752,930.67929 141.94162,930.83114 L 141.86947,933.48324 z M 147.50216,937.62325 C 147.1423,937.47921 146.87833,937.25119 146.71024,936.93917 C 146.54215,936.62716 146.4581,936.25521 146.4581,935.82333 C 146.4581,935.71933 146.4581,935.63131 146.4581,935.55929 C 146.4581,935.48727 146.47409,935.36325 146.50608,935.18722 C 146.52219,934.89132 146.53817,934.65133 146.55405,934.46725 C 146.61826,933.83517 146.87436,933.17917 147.32236,932.49923 C 147.3702,932.41916 147.4421,932.37912 147.53806,932.37911 C 147.59421,932.37912 147.7103,932.41513 147.88631,932.48715 C 148.06234,932.55917 148.19833,932.59518 148.29427,932.59518 C 148.75034,932.59518 149.09432,932.85922 149.32627,933.38729 C 149.52621,933.84335 149.62618,934.42331 149.62618,935.12716 C 149.62618,935.84713 149.53414,936.43112 149.35007,936.87911 C 149.12618,937.4233 148.7822,937.75533 148.31808,937.87521 C 148.23825,937.89132 148.18625,937.89938 148.16208,937.89938 C 148.09811,937.89938 148.03817,937.88339 147.98227,937.8514 C 147.92636,937.81942 147.87033,937.78744 147.81418,937.75546 L 147.50216,937.62325 z M 148.03025,933.43527 C 147.91012,933.69919 147.79208,933.96518 147.67612,934.23324 C 147.56015,934.50131 147.50216,934.83127 147.50216,935.22311 C 147.50216,935.34323 147.49019,935.51931 147.46627,935.75137 C 147.44235,935.98343 147.43039,936.15145 147.43039,936.25546 C 147.43039,936.45541 147.46035,936.62539 147.5203,936.76541 C 147.58023,936.90542 147.69016,937.01937 147.85007,937.10726 C 147.97824,937.17929 148.11826,937.01132 148.27011,936.60336 C 148.38217,936.29135 148.47421,935.91134 148.54623,935.46334 C 148.57015,935.3193 148.58212,935.16732 148.58212,935.00741 C 148.58212,934.62338 148.53011,934.25137 148.42612,933.89138 C 148.3221,933.5314 148.22214,933.35141 148.12618,933.3514 C 148.08615,933.35141 148.05417,933.37936 148.03025,933.43527 L 148.03025,933.43527 z M 151.76157,937.77926 C 151.64145,937.77926 151.54147,937.75521 151.46164,937.70712 L 151.05331,937.45516 C 150.98154,937.41513 150.92362,937.36715 150.87955,937.31124 C 150.83548,937.25534 150.78146,937.16732 150.7175,937.04721 C 150.6135,936.84725 150.56149,936.64328 150.5615,936.43527 L 150.72959,933.02731 C 150.72959,932.94723 150.78159,932.9072 150.88558,932.90719 C 150.93344,932.9072 150.99741,932.91721 151.07748,932.93722 C 151.15756,932.95724 151.23959,932.97726 151.32358,932.99728 C 151.40756,933.0173 151.50949,933.07529 151.62937,933.17123 L 151.46164,935.79916 C 151.46164,936.23935 151.48557,936.56344 151.53341,936.77145 C 151.58956,936.84323 151.6456,936.91122 151.7015,936.97543 C 151.97348,936.78329 152.14945,936.61526 152.2294,936.47134 C 152.30936,936.32742 152.34932,936.17538 152.34933,936.01522 L 152.4094,932.67941 L 152.72141,932.64315 C 153.01755,932.64316 153.27353,932.74716 153.48935,932.95516 L 153.47763,937.83932 C 153.40561,937.8713 153.32149,937.88729 153.2253,937.88729 C 153.20138,937.88729 153.14742,937.87728 153.06345,937.85726 C 152.97946,937.83724 152.90347,937.80721 152.83548,937.76718 C 152.76748,937.72714 152.72946,937.6672 152.72141,937.58737 L 152.64963,937.08346 L 152.13363,937.63534 C 152.03744,937.73129 151.91342,937.77926 151.76157,937.77926 L 151.76157,937.77926 z M 155.04757,933.75936 L 154.85567,933.66342 L 154.66342,933.66342 L 154.48361,933.43527 L 154.45944,932.85922 L 155.07174,932.72738 L 155.13144,930.44735 C 155.2596,930.41538 155.38363,930.39939 155.50351,930.39938 C 155.57552,930.39939 155.66153,930.40738 155.7615,930.42336 C 155.86148,930.43936 155.99545,930.4874 156.16342,930.56747 L 156.13961,932.60726 L 156.6677,932.60726 L 156.83542,932.91928 L 156.8237,933.49533 L 156.0195,933.57919 L 156.0195,937.75546 C 155.93161,937.77938 155.85959,937.79135 155.80344,937.79135 C 155.74752,937.79135 155.68154,937.78134 155.60549,937.76132 C 155.52945,937.7413 155.45553,937.72323 155.38376,937.70712 C 155.10372,937.62728 154.96372,937.4714 154.96372,937.23947 L 155.04757,933.75936 z M 160.42649,933.78317 L 160.49826,935.22311 L 158.79427,935.49923 C 158.65048,935.53122 158.55454,935.56723 158.50644,935.60726 C 158.40243,935.68734 158.35043,935.7994 158.35044,935.94345 L 158.37423,936.49533 C 158.37423,936.6152 158.41226,936.72518 158.4883,936.82528 C 158.56436,936.92538 158.65438,936.9714 158.75839,936.96334 C 158.98251,936.93136 159.26254,936.75534 159.59848,936.43527 C 159.93442,936.1152 160.08639,935.91916 160.05442,935.84713 C 160.08639,935.83126 160.1384,935.82333 160.21042,935.82333 C 160.3464,935.82333 160.44638,935.86734 160.51035,935.95535 C 160.57431,936.04336 160.60629,936.13534 160.6063,936.23129 C 160.60629,936.27133 160.59432,936.32333 160.5704,936.38729 C 160.52231,936.57138 160.45431,936.73141 160.36642,936.8674 C 160.32638,936.93136 160.21431,937.07138 160.03025,937.28744 C 159.87839,937.46322 159.72446,937.59115 159.56844,937.67123 C 159.41244,937.75131 159.2264,937.79135 159.01035,937.79135 C 158.8663,937.79135 158.74831,937.77731 158.65641,937.74923 C 158.56448,937.72116 158.47043,937.6672 158.37423,937.58737 L 157.75057,937.0234 C 157.7264,937.00729 157.70236,936.97122 157.67844,936.91519 C 157.65451,936.85916 157.63449,936.81515 157.61838,936.78317 C 157.56247,936.63937 157.53451,936.48739 157.53451,936.32723 L 157.53451,935.3912 C 157.53451,934.78329 157.66849,934.1553 157.93643,933.50723 C 158.20437,932.85916 158.49033,932.53513 158.79427,932.53512 C 158.84238,932.53513 158.87839,932.53915 158.90232,932.54721 C 159.05441,932.59531 159.24844,932.63132 159.48441,932.65524 C 159.72037,932.67917 159.90438,932.76315 160.03646,932.90719 C 160.16854,933.05124 160.26657,933.18924 160.33053,933.32119 C 160.3945,933.45315 160.42648,933.60715 160.42649,933.78317 L 160.42649,933.78317 z M 159.55051,933.77145 C 159.55051,933.63547 159.52451,933.51547 159.47251,933.41146 C 159.4205,933.30746 159.33847,933.23935 159.2264,933.20712 C 159.10629,933.1832 158.99435,933.31125 158.8906,933.59127 C 158.81857,933.79123 158.77048,933.93124 158.74631,934.01132 C 158.68233,934.17929 158.63437,934.32327 158.60238,934.44326 C 158.5704,934.56326 158.55441,934.69125 158.55442,934.82723 L 159.55051,934.59945 L 159.55051,933.77145 z M 161.68845,932.8713 L 161.79648,932.73947 L 162.0726,932.73947 C 162.13657,932.73947 162.21053,932.77743 162.29452,932.85336 C 162.37851,932.92929 162.44455,932.97531 162.49265,932.99142 C 162.60446,933.02341 162.69638,932.93741 162.76839,932.73342 C 162.84042,932.52945 162.92641,932.41342 163.0264,932.38534 C 163.12636,932.35727 163.19638,932.34323 163.23641,932.34323 C 163.38852,932.34323 163.52255,932.39725 163.63852,932.50527 C 163.75449,932.61331 163.81247,932.74326 163.81247,932.89511 L 163.80039,933.36312 C 163.80038,933.5953 163.77237,933.80539 163.71634,933.99337 C 163.6603,934.18136 163.57236,934.27536 163.45248,934.27535 C 163.26839,934.27536 163.14437,934.0953 163.08042,933.73519 C 163.04843,933.55917 162.9924,933.47116 162.91233,933.47116 C 162.84054,933.47116 162.78261,933.53116 162.73855,933.65115 C 162.69449,933.77115 162.67246,934.0112 162.67246,934.3713 C 162.67246,934.48337 162.67246,934.58139 162.67246,934.66537 C 162.67246,934.74936 162.67246,934.81527 162.67246,934.86312 L 162.67246,937.79135 C 162.58456,937.83138 162.48459,937.8514 162.37252,937.8514 C 162.30051,937.8514 162.2125,937.83938 162.10849,937.81533 C 162.00449,937.79128 161.90451,937.73324 161.80857,937.6412 C 161.71261,937.54916 161.66464,937.43124 161.66464,937.28744 L 161.68845,932.8713 z"
       id="text3253" />
    <path
       style="fill:#ececec;fill-opacity:1;fill-rule:evenodd;stroke:none;stroke-width:1px;stroke-linecap:butt;stroke-linejoin:miter;stroke-opacity:1;filter:url(#filter3304)"
       d="M 62.895745,955.18402 C 62.360025,954.46973 57.538595,951.43402 57.181455,948.04116 C 56.824315,944.6483 57.895745,913.75545 57.895745,913.75545 C 57.895745,913.75545 60.217165,909.11259 62.181455,908.57688 C 64.145745,908.04116 65.217165,907.50545 65.217165,907.50545 L 53.610025,904.82688 L 50.931455,901.43402 L 51.467165,913.93402 L 52.360025,944.6483 C 52.360025,944.6483 51.645745,947.68402 50.395745,948.04116 C 49.145745,948.3983 53.074315,953.57688 53.967165,953.93402 C 54.860025,954.29116 62.895745,955.54116 62.895745,955.18402 z"
       id="path3282" />
    <path
       style="fill:none;fill-rule:evenodd;stroke:#fdfdfd;stroke-width:2;stroke-linecap:butt;stroke-linejoin:miter;stroke-miterlimit:4;stroke-dasharray:none;stroke-opacity:1;filter:url(#filter3368)"
       d="M 47.895745,901.79116 C 47.895745,901.79116 51.288595,907.68402 54.502885,908.04116 C 57.717165,908.3983 64.681455,909.6483 68.967165,909.6483 C 73.252885,909.6483 73.252885,909.6483 73.252885,909.6483"
       id="path3284" />
    <path
       style="fill:none;fill-rule:evenodd;stroke:#fdfdfd;stroke-width:1px;stroke-linecap:butt;stroke-linejoin:miter;stroke-opacity:1"
       d="M 76.467165,910.00545 L 264.32431,909.29116"
       id="path3286" />
    <path
       style="fill:#2c2c2c;fill-opacity:1;fill-rule:evenodd;stroke:none;stroke-width:1px;stroke-linecap:butt;stroke-linejoin:miter;stroke-opacity:1"
       d="M 59.598995,868.26188 L 91.671345,744.01311 C 91.671345,744.01311 93.439105,737.19458 100.76272,733.65905 C 108.08633,730.12352 119.45054,729.61844 119.45054,729.61844 C 119.45054,729.61844 522.5014,731.13367 523.51155,731.13367 C 524.5217,731.13367 538.91638,733.91159 542.19938,737.19458 C 545.48237,740.47758 548.51283,747.54865 548.51283,747.54865 L 575.02933,869.52457 C 575.02933,869.52457 576.03949,876.3431 573.76664,877.35325 C 571.4938,878.3634 564.92782,878.3634 564.92782,878.3634 L 65.407375,874.82786 C 65.407375,874.82786 60.609145,873.56518 59.851535,872.30249 C 59.093915,871.0398 59.851535,868.51442 59.598995,868.26188 z"
       id="path3752"
       sodipodi:nodetypes="ccscssccsccsc" />
    <path
       style="fill:none;fill-rule:evenodd;stroke:#868686;stroke-width:1.5;stroke-linecap:butt;stroke-linejoin:miter;stroke-miterlimit:4;stroke-dasharray:none;stroke-opacity:1;filter:url(#filter3982)"
       d="M 59.346455,869.77711 C 59.346455,869.77711 59.598995,872.30249 61.366765,873.0601 C 63.134535,873.81772 67.175145,873.81772 67.175145,873.81772 L 570.23111,877.85833 C 570.23111,877.85833 573.00902,878.11086 574.52425,876.3431 C 576.03949,874.57533 575.53441,870.02964 575.53441,870.02964"
       id="path3754" />
    <path
       style="fill:#000000;fill-opacity:1;fill-rule:evenodd;stroke:#000000;stroke-width:1px;stroke-linecap:butt;stroke-linejoin:miter;stroke-opacity:1;filter:url(#filter3962)"
       d="M 163.96716,740.00545 L 162.18145,748.13045 L 166.02075,748.13045 L 168.07432,740.18402 L 163.96716,740.00545 z"
       id="path3810" />
    <path
       style="fill:none;fill-rule:evenodd;stroke:#494949;stroke-width:1px;stroke-linecap:butt;stroke-linejoin:miter;stroke-opacity:1;filter:url(#filter3958)"
       d="M 168.69932,739.20188 C 168.25288,739.20188 163.7886,739.0233 163.7886,739.0233"
       id="path3812" />
    <path
       style="fill:#000000;fill-opacity:1;fill-rule:evenodd;stroke:#000000;stroke-width:1px;stroke-linecap:butt;stroke-linejoin:miter;stroke-opacity:1;filter:url(#filter3954)"
       d="M 189.36894,739.91617 L 188.29753,748.13046 L 192.13682,748.13046 L 193.4761,740.09474 L 189.36894,739.91617 z"
       id="path3814"
       sodipodi:nodetypes="ccccc" />
    <path
       style="fill:none;fill-rule:evenodd;stroke:#494949;stroke-width:1px;stroke-linecap:butt;stroke-linejoin:miter;stroke-opacity:1;filter:url(#filter3950)"
       d="M 193.92253,739.1126 C 193.4761,739.1126 189.01181,738.93402 189.01181,738.93402"
       id="path3816" />
    <path
       style="fill:#000000;fill-opacity:1;fill-rule:evenodd;stroke:#000000;stroke-width:1px;stroke-linecap:butt;stroke-linejoin:miter;stroke-opacity:1;filter:url(#filter3946)"
       d="M 215.44037,739.46974 L 214.45824,747.59474 L 218.29752,747.59474 L 219.54752,739.64831 L 215.44037,739.46974 z"
       id="path3818"
       sodipodi:nodetypes="ccccc" />
    <path
       style="fill:none;fill-rule:evenodd;stroke:#494949;stroke-width:1px;stroke-linecap:butt;stroke-linejoin:miter;stroke-opacity:1;filter:url(#filter3942)"
       d="M 220.17252,738.66617 C 219.7261,738.66617 215.26181,738.48759 215.26181,738.48759"
       id="path3820" />
    <path
       style="fill:#000000;fill-opacity:1;fill-rule:evenodd;stroke:#000000;stroke-width:1px;stroke-linecap:butt;stroke-linejoin:miter;stroke-opacity:1;filter:url(#filter3938)"
       d="M 241.06539,740.00545 L 240.17254,748.13045 L 244.01183,748.13045 L 245.17254,740.18402 L 241.06539,740.00545 z"
       id="path3822"
       sodipodi:nodetypes="ccccc" />
    <path
       style="fill:none;fill-rule:evenodd;stroke:#494949;stroke-width:1px;stroke-linecap:butt;stroke-linejoin:miter;stroke-opacity:1;filter:url(#filter3934)"
       d="M 245.79754,739.20188 C 245.3511,739.20188 240.88681,739.0233 240.88681,739.0233"
       id="path3824" />
    <path
       style="fill:#000000;fill-opacity:1;fill-rule:evenodd;stroke:#000000;stroke-width:1px;stroke-linecap:butt;stroke-linejoin:miter;stroke-opacity:1;filter:url(#filter3930)"
       d="M 266.33324,739.64831 L 265.79752,748.39831 L 269.63681,748.39831 L 270.44038,739.82688 L 266.33324,739.64831 z"
       id="path3826"
       sodipodi:nodetypes="ccccc" />
    <path
       style="fill:none;fill-rule:evenodd;stroke:#494949;stroke-width:1px;stroke-linecap:butt;stroke-linejoin:miter;stroke-opacity:1;filter:url(#filter3926)"
       d="M 271.06538,738.84474 C 270.61895,738.84474 266.15466,738.66616 266.15466,738.66616"
       id="path3828" />
    <path
       style="fill:#000000;fill-opacity:1;fill-rule:evenodd;stroke:#000000;stroke-width:1px;stroke-linecap:butt;stroke-linejoin:miter;stroke-opacity:1;filter:url(#filter3922)"
       d="M 291.95824,740.36259 L 291.69039,748.75545 L 295.52968,748.75545 L 296.06539,740.54116 L 291.95824,740.36259 z"
       id="path3830"
       sodipodi:nodetypes="ccccc" />
    <path
       style="fill:none;fill-rule:evenodd;stroke:#494949;stroke-width:1px;stroke-linecap:butt;stroke-linejoin:miter;stroke-opacity:1;filter:url(#filter3918)"
       d="M 296.69039,739.55902 C 296.24397,739.55902 291.77967,739.38044 291.77967,739.38044"
       id="path3832" />
    <path
       style="fill:#000000;fill-opacity:1;fill-rule:evenodd;stroke:#000000;stroke-width:1px;stroke-linecap:butt;stroke-linejoin:miter;stroke-opacity:1;filter:url(#filter3914)"
       d="M 318.11895,740.63045 L 317.76181,749.20188 L 321.6011,749.20188 L 322.2261,740.80902 L 318.11895,740.63045 z"
       id="path3834"
       sodipodi:nodetypes="ccccc" />
    <path
       style="fill:none;fill-rule:evenodd;stroke:#494949;stroke-width:1px;stroke-linecap:butt;stroke-linejoin:miter;stroke-opacity:1;filter:url(#filter3910)"
       d="M 322.8511,739.82688 C 322.40467,739.82688 317.94038,739.6483 317.94038,739.6483"
       id="path3836" />
    <path
       style="fill:#000000;fill-opacity:1;fill-rule:evenodd;stroke:#000000;stroke-width:1px;stroke-linecap:butt;stroke-linejoin:miter;stroke-opacity:1;filter:url(#filter3906)"
       d="M 343.56537,740.63045 L 343.65466,748.84474 L 347.49395,748.84474 L 347.67252,740.80902 L 343.56537,740.63045 z"
       id="path3838"
       sodipodi:nodetypes="ccccc" />
    <path
       style="fill:none;fill-rule:evenodd;stroke:#494949;stroke-width:1px;stroke-linecap:butt;stroke-linejoin:miter;stroke-opacity:1;filter:url(#filter3902)"
       d="M 348.29752,739.82688 C 347.85109,739.82688 343.3868,739.6483 343.3868,739.6483"
       id="path3840" />
    <path
       style="fill:#000000;fill-opacity:1;fill-rule:evenodd;stroke:#000000;stroke-width:1px;stroke-linecap:butt;stroke-linejoin:miter;stroke-opacity:1;filter:url(#filter3898)"
       d="M 369.81537,740.36259 L 369.81537,748.93402 L 373.65466,748.93402 L 373.92252,740.54116 L 369.81537,740.36259 z"
       id="path3842"
       sodipodi:nodetypes="ccccc" />
    <path
       style="fill:none;fill-rule:evenodd;stroke:#494949;stroke-width:1px;stroke-linecap:butt;stroke-linejoin:miter;stroke-opacity:1;filter:url(#filter3894)"
       d="M 374.54752,739.55902 C 374.10109,739.55902 369.6368,739.38044 369.6368,739.38044"
       id="path3844" />
    <path
       style="fill:#000000;fill-opacity:1;fill-rule:evenodd;stroke:#000000;stroke-width:1px;stroke-linecap:butt;stroke-linejoin:miter;stroke-opacity:1;filter:url(#filter3890)"
       d="M 394.27966,740.98759 L 394.99395,749.38045 L 398.83324,749.38045 L 398.38681,741.16616 L 394.27966,740.98759 z"
       id="path3846"
       sodipodi:nodetypes="ccccc" />
    <path
       style="fill:none;fill-rule:evenodd;stroke:#494949;stroke-width:1px;stroke-linecap:butt;stroke-linejoin:miter;stroke-opacity:1;filter:url(#filter3886)"
       d="M 399.01181,740.18402 C 398.56538,740.18402 394.10109,740.00544 394.10109,740.00544"
       id="path3848" />
    <path
       style="fill:#000000;fill-opacity:1;fill-rule:evenodd;stroke:#000000;stroke-width:1px;stroke-linecap:butt;stroke-linejoin:miter;stroke-opacity:1;filter:url(#filter3882)"
       d="M 420.61895,740.63045 L 421.24395,749.02331 L 425.08324,749.02331 L 424.7261,740.80902 L 420.61895,740.63045 z"
       id="path3850"
       sodipodi:nodetypes="ccccc" />
    <path
       style="fill:none;fill-rule:evenodd;stroke:#494949;stroke-width:1px;stroke-linecap:butt;stroke-linejoin:miter;stroke-opacity:1;filter:url(#filter3878)"
       d="M 425.3511,739.82688 C 424.90467,739.82688 420.44038,739.6483 420.44038,739.6483"
       id="path3852" />
    <path
       style="fill:#000000;fill-opacity:1;fill-rule:evenodd;stroke:#000000;stroke-width:1px;stroke-linecap:butt;stroke-linejoin:miter;stroke-opacity:1;filter:url(#filter3874)"
       d="M 446.15466,741.34473 L 447.13681,749.6483 L 450.9761,749.6483 L 450.26181,741.5233 L 446.15466,741.34473 z"
       id="path3854"
       sodipodi:nodetypes="ccccc" />
    <path
       style="fill:none;fill-rule:evenodd;stroke:#494949;stroke-width:1px;stroke-linecap:butt;stroke-linejoin:miter;stroke-opacity:1;filter:url(#filter3870)"
       d="M 450.88681,740.54116 C 450.44038,740.54116 445.97609,740.36258 445.97609,740.36258"
       id="path3856" />
    <path
       style="fill:#000000;fill-opacity:1;fill-rule:evenodd;stroke:#000000;stroke-width:1px;stroke-linecap:butt;stroke-linejoin:miter;stroke-opacity:1;filter:url(#filter3866)"
       d="M 472.1368,741.07688 L 473.20823,749.55902 L 477.04752,749.55902 L 476.24396,741.25545 L 472.1368,741.07688 z"
       id="path3858"
       sodipodi:nodetypes="ccccc" />
    <path
       style="fill:none;fill-rule:evenodd;stroke:#494949;stroke-width:1px;stroke-linecap:butt;stroke-linejoin:miter;stroke-opacity:1;filter:url(#filter3862)"
       d="M 476.86896,740.27331 C 476.42252,740.27331 471.95823,740.09473 471.95823,740.09473"
       id="path3860" />
    <path
       style="fill:#010101;fill-opacity:1;fill-rule:evenodd;stroke:#000000;stroke-width:1px;stroke-linecap:butt;stroke-linejoin:miter;stroke-opacity:1;filter:url(#filter3996)"
       d="M 457.00288,731.43402 L 458.43145,635.00545 L 457.71716,507.86259 C 457.71716,507.86259 460.10513,497.86259 471.28859,497.1483 C 478.45249,496.69074 482.71717,509.29116 482.71717,509.29116 L 482.71717,651.43402 L 484.14574,731.43402 L 457.00288,731.43402 z"
       id="path3986"
       sodipodi:nodetypes="cccscccc" />
  </g>
</svg>
