#define cursor_width 17
#define cursor_height 12
#define cursor_x_hot 8
#define cursor_y_hot 7
static char cursor_bits[] = {
   0x20, 0x00, 0x00, 0x90, 0x20, 0x00, 0x40, 0x40, 0x00, 0x0c, 0x40, 0x00,
   0x14, 0x8f, 0x00, 0x94, 0xb0, 0x00, 0x7c, 0x20, 0x01, 0x0c, 0x4c, 0x01,
   0x0a, 0x42, 0x01, 0x42, 0x82, 0x00, 0x3b, 0x87, 0x00, 0xff, 0x7f, 0x00};
