#define cursor_mask_width 17
#define cursor_mask_height 12
static char cursor_mask_bits[] = {
   0x20, 0x00, 0x00, 0x90, 0x20, 0x00, 0x40, 0x40, 0x00, 0x0c, 0x40, 0x00,
   0x1c, 0x8f, 0x00, 0x9c, 0xbf, 0x00, 0xfc, 0x3f, 0x01, 0xfc, 0x7f, 0x01,
   0xfe, 0x7f, 0x01, 0xfe, 0xff, 0x00, 0xff, 0xff, 0x00, 0xff, 0x7f, 0x00};
