#define down1_width 32
#define down1_height 32
static char down1_bits[] = {
   0x00, 0x80, 0x01, 0x00, 0x00, 0x40, 0x02, 0x00, 0x00, 0x40, 0x02, 0x00,
   0x00, 0x40, 0x02, 0x00, 0x00, 0x40, 0x02, 0x00, 0x00, 0x40, 0x02, 0x00,
   0x00, 0x78, 0x1e, 0x00, 0x00, 0x04, 0x20, 0x00, 0x00, 0x02, 0x40, 0x00,
   0x00, 0x01, 0x80, 0x00, 0x80, 0x00, 0x00, 0x01, 0x80, 0x10, 0x10, 0x02,
   0x80, 0x28, 0x28, 0x02, 0x40, 0x48, 0x24, 0x04, 0x40, 0x44, 0x44, 0x04,
   0x40, 0x84, 0x42, 0x04, 0x40, 0x82, 0x83, 0x04, 0x40, 0x02, 0x80, 0x04,
   0x60, 0x02, 0x80, 0x0c, 0xc0, 0x02, 0x80, 0x06, 0x20, 0x23, 0x88, 0x09,
   0xa0, 0x23, 0x88, 0x0b, 0xe0, 0x22, 0x88, 0x0e, 0x80, 0x04, 0x41, 0x02,
   0x00, 0x0f, 0xe0, 0x01, 0x00, 0x7c, 0x7c, 0x00, 0x00, 0xc0, 0x07, 0x00,
   0x00, 0x00, 0x00, 0x00, 0x00, 0x00, 0x00, 0x00, 0x00, 0x00, 0x00, 0x00,
   0x00, 0x00, 0x00, 0x00, 0x00, 0x00, 0x00, 0x00};
