#define down2_width 32
#define down2_height 32
static char down2_bits[] = {
   0x00, 0x8c, 0x61, 0x00, 0x00, 0x5a, 0xb2, 0x00, 0x00, 0x52, 0x92, 0x00,
   0x00, 0x52, 0x92, 0x00, 0x00, 0x61, 0x0a, 0x01, 0x00, 0x61, 0x06, 0x01,
   0x00, 0x01, 0x00, 0x01, 0x00, 0x01, 0x00, 0x01, 0x00, 0x01, 0x00, 0x01,
   0x00, 0x01, 0x00, 0x01, 0x00, 0x02, 0x80, 0x00, 0x00, 0x12, 0x90, 0x00,
   0x00, 0x29, 0x28, 0x01, 0x00, 0x49, 0x24, 0x01, 0x00, 0x45, 0x44, 0x01,
   0x00, 0x85, 0x42, 0x01, 0x00, 0x83, 0x83, 0x01, 0x00, 0x03, 0x80, 0x01,
   0x60, 0x03, 0x80, 0x0d, 0x80, 0x03, 0x80, 0x03, 0x00, 0x23, 0x88, 0x01,
   0x00, 0x23, 0x88, 0x01, 0x00, 0x22, 0x88, 0x00, 0x00, 0x06, 0xc1, 0x00,
   0x00, 0x0a, 0xa0, 0x00, 0x00, 0x72, 0x9c, 0x00, 0x00, 0xc2, 0x87, 0x00,
   0x00, 0x24, 0x48, 0x00, 0x00, 0x24, 0x48, 0x00, 0x00, 0x34, 0x58, 0x00,
   0x00, 0x18, 0x30, 0x00, 0x00, 0x00, 0x00, 0x00};
