#define dtogi1_width 32
#define dtogi1_height 32
static char dtogi1_bits[] = {
   0x00, 0x00, 0x00, 0x00, 0x00, 0xc0, 0x00, 0x00, 0x00, 0x20, 0x01, 0x00,
   0x00, 0x18, 0x02, 0x00, 0x00, 0x20, 0x04, 0x00, 0x00, 0x40, 0x04, 0x00,
   0x00, 0x78, 0x3c, 0x00, 0x00, 0x04, 0x40, 0x00, 0x00, 0x02, 0x80, 0x00,
   0x00, 0x01, 0x00, 0x01, 0x80, 0x00, 0x00, 0x02, 0x80, 0x10, 0x10, 0x02,
   0x80, 0x28, 0x28, 0x02, 0xc0, 0x48, 0x24, 0x06, 0x30, 0x45, 0x44, 0x19,
   0x08, 0x84, 0x42, 0x20, 0xf8, 0x83, 0x83, 0x3f, 0x00, 0x02, 0x80, 0x00,
   0x00, 0x02, 0x80, 0x00, 0x00, 0x02, 0x80, 0x00, 0x00, 0x22, 0x88, 0x00,
   0x00, 0x22, 0x88, 0x00, 0x00, 0x26, 0x88, 0x00, 0x00, 0x06, 0x41, 0x00,
   0x00, 0x0a, 0x60, 0x00, 0x00, 0x72, 0x5c, 0x00, 0x00, 0xd2, 0x57, 0x00,
   0x00, 0x52, 0x54, 0x00, 0x00, 0x5a, 0x54, 0x00, 0x00, 0x54, 0x54, 0x00,
   0x00, 0x54, 0x14, 0x00, 0x00, 0x00, 0x00, 0x00};
