#define dtogi2_width 32
#define dtogi2_height 32
static char dtogi2_bits[] = {
   0x00, 0x00, 0x00, 0x00, 0x00, 0x00, 0x0c, 0x00, 0x00, 0x00, 0x12, 0x00,
   0x00, 0x00, 0x11, 0x00, 0x00, 0x80, 0x08, 0x00, 0x00, 0x80, 0x04, 0x00,
   0x00, 0xf0, 0x3c, 0x00, 0x00, 0x08, 0x40, 0x00, 0x00, 0x04, 0x80, 0x00,
   0x00, 0x02, 0x00, 0x01, 0x00, 0x01, 0x00, 0x02, 0x80, 0x10, 0x10, 0x02,
   0x80, 0x28, 0x28, 0x02, 0xc0, 0x48, 0x24, 0x06, 0x30, 0x45, 0x44, 0x19,
   0x08, 0x84, 0x42, 0x20, 0xf8, 0x83, 0x83, 0x3f, 0x00, 0x02, 0x80, 0x00,
   0x00, 0x02, 0x80, 0x00, 0x00, 0x02, 0x80, 0x00, 0x00, 0x22, 0x88, 0x00,
   0x00, 0x22, 0x88, 0x00, 0x00, 0x22, 0xc8, 0x00, 0x00, 0x04, 0xc1, 0x00,
   0x00, 0x0c, 0xa0, 0x00, 0x00, 0x74, 0x9c, 0x00, 0x00, 0xd4, 0x97, 0x00,
   0x00, 0x54, 0x94, 0x00, 0x00, 0x54, 0xb4, 0x00, 0x00, 0x54, 0x54, 0x00,
   0x00, 0x50, 0x54, 0x00, 0x00, 0x00, 0x00, 0x00};
