#define dwleft1_width 32
#define dwleft1_height 32
static char dwleft1_bits[] = {
   0x00, 0x00, 0x00, 0x00, 0x00, 0x00, 0x00, 0x00, 0x00, 0x00, 0xe0, 0x00,
   0x00, 0x00, 0x1c, 0x07, 0x00, 0xc0, 0x07, 0x08, 0x00, 0x20, 0xf0, 0x07,
   0x00, 0x10, 0xc0, 0x01, 0x00, 0x08, 0x00, 0x03, 0x18, 0x0f, 0x00, 0x06,
   0x28, 0x0d, 0x00, 0x04, 0x48, 0x09, 0x10, 0x04, 0x88, 0x11, 0x08, 0x04,
   0x08, 0x20, 0x04, 0x04, 0x08, 0x40, 0x04, 0x04, 0x08, 0x40, 0x04, 0x02,
   0x24, 0x42, 0x04, 0x02, 0x24, 0x42, 0x04, 0x02, 0x27, 0xf2, 0x08, 0x02,
   0x04, 0x00, 0x08, 0x02, 0x24, 0x00, 0x08, 0x02, 0x04, 0x00, 0x11, 0x01,
   0x68, 0x20, 0x91, 0x00, 0xf0, 0x1f, 0x8a, 0x00, 0xc0, 0x1f, 0x4a, 0x00,
   0x00, 0x3f, 0x4c, 0x00, 0x00, 0xfe, 0x24, 0x00, 0x00, 0x8c, 0x37, 0x00,
   0x00, 0x00, 0x1c, 0x00, 0x00, 0x00, 0x00, 0x00, 0x00, 0x00, 0x00, 0x00,
   0x00, 0x00, 0x00, 0x00, 0x00, 0x00, 0x00, 0x00};
