#define dwright1_width 32
#define dwright1_height 32
static char dwright1_bits[] = {
   0x00, 0x00, 0x00, 0x00, 0x00, 0x00, 0x00, 0x00, 0x00, 0x07, 0x00, 0x00,
   0xe0, 0x38, 0x00, 0x00, 0x10, 0xe0, 0x03, 0x00, 0xe0, 0x0f, 0x04, 0x00,
   0x80, 0x03, 0x08, 0x00, 0xc0, 0x00, 0x10, 0x00, 0x60, 0x00, 0xf0, 0x18,
   0x20, 0x00, 0xb0, 0x14, 0x20, 0x08, 0x90, 0x12, 0x20, 0x10, 0x88, 0x11,
   0x20, 0x20, 0x04, 0x10, 0x20, 0x20, 0x02, 0x10, 0x40, 0x20, 0x02, 0x10,
   0x40, 0x20, 0x42, 0x24, 0x40, 0x20, 0x42, 0x24, 0x40, 0x10, 0x4f, 0xe4,
   0x40, 0x10, 0x00, 0x20, 0x40, 0x10, 0x00, 0x24, 0x80, 0x88, 0x00, 0x20,
   0x00, 0x89, 0x04, 0x16, 0x00, 0x51, 0xf8, 0x0f, 0x00, 0x52, 0xf8, 0x03,
   0x00, 0x32, 0xfc, 0x00, 0x00, 0x24, 0x7f, 0x00, 0x00, 0xec, 0x31, 0x00,
   0x00, 0x38, 0x00, 0x00, 0x00, 0x00, 0x00, 0x00, 0x00, 0x00, 0x00, 0x00,
   0x00, 0x00, 0x00, 0x00, 0x00, 0x00, 0x00, 0x00};
