#define dwright2_width 32
#define dwright2_height 32
static char dwright2_bits[] = {
   0x00, 0x00, 0x00, 0x00, 0x00, 0x00, 0x00, 0x00, 0x00, 0x00, 0x00, 0x00,
   0x00, 0xfc, 0x01, 0x00, 0x7c, 0x02, 0x07, 0x00, 0x82, 0x1c, 0x09, 0x00,
   0x1c, 0x91, 0x04, 0x00, 0x20, 0x4e, 0x06, 0x00, 0x20, 0x38, 0x09, 0x00,
   0x20, 0x00, 0x10, 0x00, 0x20, 0x00, 0xb0, 0x01, 0x20, 0x00, 0xe0, 0x61,
   0x20, 0x00, 0x30, 0x7b, 0x40, 0x00, 0x18, 0x4f, 0x80, 0x00, 0x8c, 0x47,
   0x00, 0x01, 0x06, 0x61, 0x00, 0x06, 0x02, 0x20, 0x00, 0x08, 0x01, 0x20,
   0x00, 0x10, 0x00, 0x20, 0x00, 0x10, 0x8e, 0xa8, 0x00, 0x20, 0x90, 0x68,
   0x00, 0x20, 0x81, 0x28, 0x00, 0x40, 0x02, 0x20, 0x00, 0x80, 0x0c, 0x34,
   0x00, 0x00, 0xf1, 0x18, 0x00, 0x00, 0xc2, 0x1f, 0x00, 0x00, 0x44, 0x3e,
   0x00, 0x00, 0x44, 0x3c, 0x00, 0x00, 0x48, 0x3c, 0x00, 0x00, 0x70, 0x18,
   0x00, 0x00, 0x00, 0x00, 0x00, 0x00, 0x00, 0x00};
