#define icon_width 32
#define icon_height 32
static char icon_bits[] = {
   0x00, 0x00, 0x00, 0x00, 0x80, 0x01, 0x00, 0x06, 0xc0, 0x01, 0x00, 0x07,
   0x40, 0x03, 0x80, 0x0f, 0x60, 0x06, 0x80, 0x1f, 0xa0, 0x05, 0xc0, 0x1d,
   0xb0, 0xea, 0xcf, 0x1f, 0x50, 0x3c, 0xf8, 0x3f, 0x58, 0x03, 0xc0, 0x3f,
   0xc8, 0x01, 0x00, 0x3f, 0x68, 0x00, 0x00, 0x3e, 0x38, 0x00, 0x00, 0x3c,
   0x08, 0x00, 0x00, 0x38, 0x08, 0x00, 0x00, 0x20, 0x8c, 0x0f, 0xf8, 0x20,
   0x44, 0x10, 0x04, 0x21, 0x24, 0x28, 0x0a, 0x22, 0x26, 0x20, 0x02, 0x22,
   0x42, 0x10, 0x04, 0x41, 0x82, 0x0f, 0xf8, 0x40, 0x02, 0x00, 0x00, 0x40,
   0x02, 0x80, 0x00, 0x40, 0x02, 0x00, 0x00, 0x40, 0x63, 0x00, 0x00, 0x80,
   0x91, 0x00, 0x00, 0xc7, 0x49, 0x00, 0x80, 0xc9, 0xa9, 0x20, 0x82, 0xe2,
   0xa1, 0xc0, 0x01, 0xa5, 0xa3, 0x00, 0x00, 0xa5, 0x05, 0x00, 0x00, 0x91,
   0x01, 0x00, 0x00, 0x80, 0x01, 0x00, 0x00, 0x80};
