#define kaki2_width 32
#define kaki2_height 32
static char kaki2_bits[] = {
   0x00, 0x00, 0x00, 0x00, 0x00, 0x00, 0x00, 0x00, 0x00, 0x00, 0x00, 0x00,
   0x00, 0x00, 0x00, 0x00, 0x00, 0x20, 0x00, 0x00, 0x00, 0x50, 0x00, 0x00,
   0x20, 0x90, 0x00, 0x00, 0x50, 0x10, 0x01, 0x00, 0x90, 0x08, 0x02, 0x00,
   0x10, 0x09, 0x04, 0x00, 0x10, 0x06, 0x08, 0x00, 0x10, 0x00, 0x08, 0x00,
   0x20, 0x00, 0x10, 0x00, 0x20, 0x80, 0x10, 0x00, 0x20, 0x60, 0x10, 0x00,
   0x20, 0x10, 0x08, 0x00, 0xe0, 0x81, 0xf9, 0x03, 0x20, 0x60, 0x18, 0x04,
   0xe0, 0xc5, 0x0f, 0x08, 0xc0, 0xe0, 0x00, 0x08, 0x00, 0x9f, 0x11, 0x08,
   0x00, 0x08, 0x2e, 0x08, 0x00, 0x0b, 0x20, 0x08, 0x80, 0x0c, 0x21, 0x08,
   0x40, 0x18, 0x31, 0x04, 0x40, 0x10, 0x11, 0x04, 0xc0, 0x11, 0x91, 0x7f,
   0x60, 0x90, 0xf3, 0x80, 0xe0, 0xff, 0xfe, 0x7f, 0x00, 0x00, 0x00, 0x00,
   0x00, 0x00, 0x00, 0x00, 0x00, 0x00, 0x00, 0x00};
