#define left2_width 32
#define left2_height 32
static char left2_bits[] = {
   0x00, 0x00, 0x00, 0x00, 0x00, 0x00, 0x00, 0x00, 0x00, 0x00, 0x00, 0x00,
   0x20, 0x00, 0x00, 0xe0, 0x60, 0x00, 0x00, 0x90, 0xa0, 0x00, 0x00, 0x88,
   0x20, 0x01, 0x00, 0x44, 0x20, 0x02, 0x00, 0x22, 0x30, 0x0c, 0x00, 0x11,
   0x08, 0x10, 0xc0, 0x08, 0x24, 0x30, 0x38, 0x08, 0x24, 0x20, 0x06, 0x08,
   0x24, 0x40, 0x01, 0x10, 0x02, 0xc0, 0x00, 0x10, 0xc2, 0x03, 0x00, 0x10,
   0x02, 0x00, 0x00, 0x10, 0x04, 0x00, 0x00, 0x10, 0x78, 0x00, 0x00, 0x20,
   0x80, 0x07, 0x08, 0x20, 0x80, 0x01, 0x30, 0xc0, 0xc0, 0x00, 0xc0, 0x81,
   0x60, 0x18, 0xf8, 0x9f, 0x30, 0xfc, 0x87, 0xbf, 0x18, 0x3f, 0x00, 0xf8,
   0xcc, 0x07, 0x00, 0x30, 0x38, 0x03, 0x00, 0x00, 0x00, 0x00, 0x00, 0x00,
   0x00, 0x00, 0x00, 0x00, 0x00, 0x00, 0x00, 0x00, 0x00, 0x00, 0x00, 0x00,
   0x00, 0x00, 0x00, 0x00, 0x00, 0x00, 0x00, 0x00};
