#define ltogi1_width 32
#define ltogi1_height 32
static char ltogi1_bits[] = {
   0xc0, 0x00, 0x00, 0x00, 0x40, 0x01, 0x00, 0x00, 0x40, 0x02, 0x00, 0x00,
   0x43, 0x04, 0x00, 0x00, 0x37, 0x18, 0x00, 0x00, 0x0f, 0x20, 0x00, 0x00,
   0x07, 0x40, 0x00, 0x00, 0x27, 0x40, 0x00, 0x00, 0x27, 0x40, 0x00, 0x00,
   0x2d, 0x40, 0x00, 0x00, 0x31, 0x40, 0x00, 0x00, 0xc1, 0xa0, 0x0f, 0x00,
   0x03, 0x00, 0x30, 0x00, 0x0d, 0x00, 0x40, 0x00, 0x38, 0xc0, 0x80, 0x00,
   0x70, 0x20, 0x00, 0x01, 0x40, 0x10, 0x00, 0x02, 0x40, 0x08, 0x00, 0x02,
   0x80, 0x09, 0x00, 0x04, 0x00, 0x0f, 0x00, 0x0c, 0x00, 0x0c, 0x00, 0x10,
   0x00, 0x1c, 0x00, 0x20, 0x00, 0x38, 0x03, 0x46, 0x00, 0xfe, 0x01, 0x8d,
   0x00, 0x8f, 0xe0, 0x70, 0x00, 0x0f, 0x10, 0x00, 0x00, 0xfe, 0x1f, 0x00,
   0x00, 0x00, 0x00, 0x00, 0x00, 0x00, 0x00, 0x00, 0x00, 0x00, 0x00, 0x00,
   0x00, 0x00, 0x00, 0x00, 0x00, 0x00, 0x00, 0x00};
