#define ltogi2_width 32
#define ltogi2_height 32
static char ltogi2_bits[] = {
   0xc0, 0x00, 0x00, 0x00, 0x40, 0x01, 0x00, 0x00, 0x40, 0x02, 0x00, 0x00,
   0x40, 0x04, 0x00, 0x00, 0x41, 0x18, 0x00, 0x00, 0x31, 0x20, 0x00, 0x00,
   0x09, 0x40, 0x00, 0x00, 0x25, 0x40, 0x00, 0x00, 0x25, 0x40, 0x00, 0x00,
   0x23, 0x40, 0x00, 0x00, 0x83, 0x41, 0x00, 0x00, 0x65, 0xa0, 0x0f, 0x00,
   0x05, 0x00, 0x30, 0x00, 0xe9, 0x01, 0x40, 0x00, 0x31, 0xc0, 0x80, 0x00,
   0x0f, 0x20, 0x00, 0x01, 0x01, 0x10, 0x00, 0xc2, 0x7e, 0x08, 0x00, 0xa2,
   0xfe, 0x09, 0x00, 0x94, 0x0c, 0x0f, 0x00, 0x8c, 0x00, 0x0c, 0x00, 0x40,
   0x00, 0x1c, 0x00, 0x20, 0x00, 0x38, 0x03, 0x1e, 0x00, 0xfe, 0x01, 0x01,
   0x00, 0x8f, 0xe0, 0x00, 0x00, 0x0f, 0x10, 0x00, 0x00, 0xfe, 0x1f, 0x00,
   0x00, 0x00, 0x00, 0x00, 0x00, 0x00, 0x00, 0x00, 0x00, 0x00, 0x00, 0x00,
   0x00, 0x00, 0x00, 0x00, 0x00, 0x00, 0x00, 0x00};
