#define mati3_width 32
#define mati3_height 32
static char mati3_bits[] = {
   0x00, 0x00, 0x00, 0x00, 0x00, 0x00, 0x00, 0x00, 0x00, 0x00, 0x00, 0x00,
   0x00, 0x10, 0x10, 0x00, 0x00, 0x28, 0x28, 0x00, 0x00, 0x48, 0x24, 0x00,
   0x00, 0x44, 0x44, 0x00, 0x00, 0x84, 0x42, 0x00, 0x00, 0x82, 0x83, 0x00,
   0x00, 0x3a, 0xb8, 0x00, 0x00, 0x42, 0x85, 0x00, 0x00, 0x92, 0x91, 0x00,
   0x00, 0x4e, 0xe2, 0x00, 0x00, 0x42, 0x82, 0x00, 0x00, 0x42, 0x82, 0x00,
   0x00, 0x44, 0x42, 0x00, 0x00, 0x88, 0x21, 0x00, 0x00, 0x70, 0x1c, 0x00,
   0x00, 0x40, 0x04, 0x00, 0x00, 0x20, 0x08, 0x00, 0x00, 0x10, 0x10, 0x00,
   0x00, 0x08, 0x20, 0x00, 0x00, 0x0b, 0xa0, 0x01, 0x80, 0x0c, 0x61, 0x02,
   0x40, 0x18, 0x31, 0x04, 0x40, 0x10, 0x11, 0x04, 0xc0, 0x11, 0x11, 0x7f,
   0x60, 0x90, 0x13, 0x8c, 0xe0, 0xff, 0xfe, 0x7f, 0x00, 0x00, 0x00, 0x00,
   0x00, 0x00, 0x00, 0x00, 0x00, 0x00, 0x00, 0x00};
