#define right1_width 32
#define right1_height 32
static char right1_bits[] = {
   0x00, 0x00, 0x00, 0x00, 0x00, 0x00, 0x00, 0x00, 0x00, 0x00, 0x00, 0x00,
   0x00, 0x70, 0x00, 0x00, 0x00, 0x8c, 0x01, 0x00, 0x00, 0x03, 0x06, 0x00,
   0x80, 0x00, 0x08, 0x00, 0x80, 0x00, 0x10, 0x00, 0x40, 0x00, 0x20, 0x30,
   0x20, 0x00, 0x20, 0x28, 0x10, 0x00, 0x40, 0x26, 0x48, 0x80, 0xc0, 0x11,
   0xc4, 0x00, 0x21, 0x10, 0xa2, 0x00, 0x01, 0x10, 0x92, 0x00, 0x02, 0x20,
   0x49, 0x00, 0x02, 0x48, 0x25, 0x00, 0x02, 0x48, 0x43, 0x00, 0xe1, 0x48,
   0x80, 0x00, 0x91, 0xc3, 0x80, 0xc0, 0x02, 0x80, 0x80, 0x79, 0x01, 0x40,
   0x80, 0x89, 0xc0, 0x20, 0xc0, 0x73, 0x70, 0x1f, 0xc0, 0x13, 0x3c, 0x00,
   0xc0, 0xf4, 0x1f, 0x00, 0x00, 0x1c, 0x0f, 0x00, 0x00, 0x18, 0x07, 0x00,
   0x00, 0x00, 0x00, 0x00, 0x00, 0x00, 0x00, 0x00, 0x00, 0x00, 0x00, 0x00,
   0x00, 0x00, 0x00, 0x00, 0x00, 0x00, 0x00, 0x00};
