#define right2_width 32
#define right2_height 32
static char right2_bits[] = {
   0x00, 0x00, 0x00, 0x00, 0x00, 0x00, 0x00, 0x00, 0x00, 0x00, 0x00, 0x00,
   0x07, 0x00, 0x00, 0x04, 0x09, 0x00, 0x00, 0x06, 0x19, 0x00, 0x00, 0x05,
   0x22, 0x00, 0x80, 0x04, 0x44, 0x00, 0x40, 0x04, 0x88, 0x00, 0x30, 0x0c,
   0x10, 0x03, 0x08, 0x10, 0x10, 0x1c, 0x0c, 0x24, 0x10, 0x60, 0x04, 0x24,
   0x08, 0x80, 0x02, 0x24, 0x08, 0x00, 0x03, 0x40, 0x08, 0x00, 0xc0, 0x43,
   0x08, 0x00, 0x00, 0x40, 0x08, 0x00, 0x00, 0x20, 0x04, 0x00, 0x00, 0x1e,
   0x04, 0x10, 0x80, 0x01, 0x03, 0x0c, 0x80, 0x01, 0x81, 0x03, 0x00, 0x03,
   0xf9, 0x0f, 0x18, 0x06, 0xfd, 0xf9, 0x3f, 0x0c, 0x1f, 0x00, 0xfc, 0x18,
   0x0c, 0x00, 0xe0, 0x33, 0x00, 0x00, 0xc0, 0x1c, 0x00, 0x00, 0x00, 0x00,
   0x00, 0x00, 0x00, 0x00, 0x00, 0x00, 0x00, 0x00, 0x00, 0x00, 0x00, 0x00,
   0x00, 0x00, 0x00, 0x00, 0x00, 0x00, 0x00, 0x00};
