#define rtogi2_width 32
#define rtogi2_height 32
static char rtogi2_bits[] = {
   0x00, 0x00, 0x00, 0x03, 0x00, 0x00, 0x80, 0x02, 0x00, 0x00, 0x40, 0x02,
   0x00, 0x00, 0x20, 0x02, 0x00, 0x00, 0x18, 0x82, 0x00, 0x00, 0x04, 0x8c,
   0x00, 0x00, 0x02, 0x90, 0x00, 0x00, 0x02, 0xa4, 0x00, 0x00, 0x02, 0xa4,
   0x00, 0x00, 0x02, 0xc4, 0x00, 0x00, 0x82, 0xc1, 0x00, 0xf0, 0x05, 0xa6,
   0x00, 0x0c, 0x00, 0xa0, 0x00, 0x02, 0x80, 0x97, 0x00, 0x01, 0x03, 0x8c,
   0x80, 0x00, 0x04, 0xf0, 0x43, 0x00, 0x08, 0x80, 0x45, 0x00, 0x10, 0x7e,
   0x29, 0x00, 0x90, 0x7f, 0x31, 0x00, 0xf0, 0x30, 0x02, 0x00, 0x30, 0x00,
   0x04, 0x00, 0x38, 0x00, 0x78, 0xc0, 0x1c, 0x00, 0x80, 0x80, 0x7f, 0x00,
   0x00, 0x07, 0xf1, 0x00, 0x00, 0x08, 0xf0, 0x00, 0x00, 0xf8, 0x7f, 0x00,
   0x00, 0x00, 0x00, 0x00, 0x00, 0x00, 0x00, 0x00, 0x00, 0x00, 0x00, 0x00,
   0x00, 0x00, 0x00, 0x00, 0x00, 0x00, 0x00, 0x00};
