#define rtogi1_width 32
#define rtogi1_height 32
static char rtogi1_bits[] = {
   0x00, 0x00, 0x00, 0x03, 0x00, 0x00, 0x80, 0x02, 0x00, 0x00, 0x40, 0x02,
   0x00, 0x00, 0x20, 0xc2, 0x00, 0x00, 0x18, 0xec, 0x00, 0x00, 0x04, 0xf0,
   0x00, 0x00, 0x02, 0xe0, 0x00, 0x00, 0x02, 0xe4, 0x00, 0x00, 0x02, 0xe4,
   0x00, 0x00, 0x02, 0xb4, 0x00, 0x00, 0x02, 0x8c, 0x00, 0xf0, 0x05, 0x83,
   0x00, 0x0c, 0x00, 0xc0, 0x00, 0x02, 0x00, 0xb0, 0x00, 0x01, 0x03, 0x1c,
   0x80, 0x00, 0x04, 0x0e, 0x40, 0x00, 0x08, 0x02, 0x40, 0x00, 0x10, 0x02,
   0x20, 0x00, 0x90, 0x01, 0x30, 0x00, 0xf0, 0x00, 0x08, 0x00, 0x30, 0x00,
   0x04, 0x00, 0x38, 0x00, 0x62, 0xc0, 0x1c, 0x00, 0xb1, 0x80, 0x7f, 0x00,
   0x0e, 0x07, 0xf1, 0x00, 0x00, 0x08, 0xf0, 0x00, 0x00, 0xf8, 0x7f, 0x00,
   0x00, 0x00, 0x00, 0x00, 0x00, 0x00, 0x00, 0x00, 0x00, 0x00, 0x00, 0x00,
   0x00, 0x00, 0x00, 0x00, 0x00, 0x00, 0x00, 0x00};
