#define up1_width 32
#define up1_height 32
static char up1_bits[] = {
   0x00, 0xc0, 0x03, 0x00, 0x00, 0x3e, 0x7c, 0x00, 0x00, 0x08, 0x10, 0x00,
   0x00, 0x26, 0x64, 0x00, 0x00, 0x22, 0x44, 0x00, 0x00, 0x22, 0x44, 0x00,
   0x00, 0x01, 0x80, 0x00, 0x00, 0x1f, 0xf8, 0x00, 0x00, 0x01, 0x80, 0x00,
   0x00, 0x22, 0x42, 0x00, 0x00, 0x1e, 0x7c, 0x00, 0x00, 0x06, 0x60, 0x00,
   0x80, 0x3f, 0xfc, 0x01, 0xc0, 0x07, 0xe0, 0x02, 0x40, 0x02, 0x40, 0x02,
   0x40, 0x02, 0x40, 0x02, 0x40, 0x01, 0x80, 0x02, 0x40, 0x00, 0x00, 0x02,
   0x80, 0x00, 0x00, 0x01, 0x80, 0x00, 0x00, 0x01, 0x80, 0x00, 0x00, 0x01,
   0x80, 0x00, 0x00, 0x01, 0x00, 0x01, 0x80, 0x00, 0x00, 0x06, 0x60, 0x00,
   0x00, 0x78, 0x1e, 0x00, 0x00, 0x40, 0x02, 0x00, 0x00, 0x40, 0x02, 0x00,
   0x00, 0x40, 0x02, 0x00, 0x00, 0x40, 0x02, 0x00, 0x00, 0x80, 0x01, 0x00,
   0x00, 0x00, 0x00, 0x00, 0x00, 0x00, 0x00, 0x00};
