#define up2_width 32
#define up2_height 32
static char up2_bits[] = {
   0x00, 0xc0, 0x03, 0x00, 0x80, 0x3f, 0xfc, 0x01, 0x40, 0x0b, 0xd0, 0x02,
   0x40, 0x26, 0x64, 0x02, 0x40, 0x22, 0x44, 0x02, 0x40, 0x22, 0x44, 0x02,
   0x40, 0x01, 0x80, 0x02, 0x40, 0x1f, 0xf8, 0x02, 0x40, 0x01, 0x80, 0x02,
   0x40, 0x22, 0x42, 0x02, 0x80, 0x1e, 0x7c, 0x01, 0x80, 0x04, 0x20, 0x01,
   0x80, 0x38, 0x1c, 0x01, 0x80, 0x00, 0x00, 0x01, 0x00, 0x01, 0x80, 0x00,
   0x00, 0x0d, 0xb0, 0x00, 0x00, 0x83, 0xc1, 0x00, 0x00, 0x41, 0x82, 0x00,
   0x80, 0x40, 0x02, 0x01, 0x80, 0x40, 0x02, 0x01, 0x80, 0x40, 0x02, 0x01,
   0x80, 0x40, 0x02, 0x01, 0x80, 0x40, 0x02, 0x01, 0x80, 0x00, 0x00, 0x01,
   0x80, 0xc0, 0x03, 0x01, 0x00, 0x41, 0x82, 0x00, 0x00, 0x21, 0x84, 0x00,
   0x00, 0x11, 0x88, 0x00, 0x00, 0x09, 0x90, 0x00, 0x00, 0x06, 0x60, 0x00,
   0x00, 0x00, 0x00, 0x00, 0x00, 0x00, 0x00, 0x00};
