#define upleft2_width 32
#define upleft2_height 32
static char upleft2_bits[] = {
   0x00, 0x00, 0x00, 0x00, 0x00, 0x00, 0x00, 0x00, 0x00, 0xff, 0x00, 0x00,
   0x80, 0xb0, 0x01, 0x00, 0x40, 0x07, 0x3e, 0x00, 0x60, 0xc0, 0x20, 0x00,
   0x58, 0xb8, 0x10, 0x00, 0x40, 0x88, 0x10, 0x00, 0x5e, 0x80, 0x08, 0x00,
   0xf2, 0x80, 0x08, 0x00, 0xc6, 0x00, 0x14, 0x00, 0x8c, 0x03, 0x24, 0x00,
   0x18, 0x00, 0x42, 0x0e, 0x30, 0x50, 0x81, 0x09, 0x40, 0x00, 0x00, 0x09,
   0x80, 0x01, 0x80, 0x04, 0x00, 0x02, 0x80, 0x0c, 0x00, 0x04, 0x40, 0x0a,
   0x00, 0x08, 0x00, 0x32, 0x00, 0x10, 0x00, 0x40, 0x00, 0x10, 0x20, 0x40,
   0x00, 0x10, 0x40, 0x40, 0x00, 0x10, 0x80, 0x40, 0x00, 0x20, 0x80, 0x87,
   0x00, 0x20, 0x80, 0x88, 0x00, 0x40, 0x80, 0x90, 0x00, 0x80, 0x8f, 0x90,
   0x00, 0x00, 0x90, 0xa0, 0x00, 0x00, 0x90, 0xc0, 0x00, 0x00, 0x90, 0x00,
   0x00, 0x00, 0x90, 0x00, 0x00, 0x00, 0x60, 0x00};
