#define upleft1_width 32
#define upleft1_height 32
static char upleft1_bits[] = {
   0x00, 0x00, 0x07, 0x00, 0x80, 0xff, 0x04, 0x00, 0x40, 0x78, 0x04, 0x00,
   0xe0, 0x25, 0x04, 0x00, 0x36, 0x22, 0x04, 0x00, 0x18, 0x21, 0x04, 0x00,
   0x10, 0x20, 0x04, 0x00, 0x10, 0x00, 0x04, 0x00, 0x10, 0x00, 0x3e, 0x00,
   0x20, 0x00, 0xc1, 0x01, 0x20, 0x00, 0x00, 0x02, 0xc0, 0x00, 0x00, 0x04,
   0x00, 0x01, 0x00, 0x08, 0x00, 0x01, 0x00, 0x08, 0x00, 0x01, 0x00, 0x10,
   0x00, 0x01, 0x00, 0x20, 0x00, 0xc3, 0x00, 0x20, 0x00, 0x22, 0x00, 0x20,
   0x00, 0x32, 0x00, 0x20, 0x00, 0x22, 0x00, 0x30, 0x00, 0x24, 0x00, 0x30,
   0x00, 0x64, 0x00, 0x20, 0x00, 0xd8, 0xc0, 0x64, 0x00, 0xd0, 0xc1, 0x4f,
   0x00, 0xf0, 0xc3, 0x9b, 0x00, 0x70, 0xf0, 0x93, 0x00, 0x10, 0x1e, 0x60,
   0x00, 0xf0, 0x03, 0x00, 0x00, 0x00, 0x00, 0x00, 0x00, 0x00, 0x00, 0x00,
   0x00, 0x00, 0x00, 0x00, 0x00, 0x00, 0x00, 0x00};
