#define upright1_width 32
#define upright1_height 32
static char upright1_bits[] = {
   0x00, 0xe0, 0x00, 0x00, 0x00, 0x20, 0xff, 0x01, 0x00, 0x20, 0x1e, 0x02,
   0x00, 0x20, 0xa4, 0x07, 0x00, 0x20, 0x44, 0x6c, 0x00, 0x20, 0x84, 0x18,
   0x00, 0x20, 0x04, 0x08, 0x00, 0x20, 0x00, 0x08, 0x00, 0x7c, 0x00, 0x08,
   0x80, 0x83, 0x00, 0x04, 0x40, 0x00, 0x00, 0x04, 0x20, 0x00, 0x00, 0x03,
   0x10, 0x00, 0x80, 0x00, 0x10, 0x00, 0x80, 0x00, 0x08, 0x00, 0x80, 0x00,
   0x04, 0x00, 0x80, 0x00, 0x04, 0x00, 0xc3, 0x00, 0x04, 0x00, 0x44, 0x00,
   0x04, 0x00, 0x4c, 0x00, 0x0c, 0x00, 0x44, 0x00, 0x0c, 0x00, 0x24, 0x00,
   0x04, 0x00, 0x26, 0x00, 0x26, 0x03, 0x1b, 0x00, 0xf2, 0x83, 0x0b, 0x00,
   0xd9, 0xc3, 0x0f, 0x00, 0xc9, 0x0f, 0x0e, 0x00, 0x06, 0x78, 0x08, 0x00,
   0x00, 0xc0, 0x0f, 0x00, 0x00, 0x00, 0x00, 0x00, 0x00, 0x00, 0x00, 0x00,
   0x00, 0x00, 0x00, 0x00, 0x00, 0x00, 0x00, 0x00};
