#define upright2_width 32
#define upright2_height 32
static char upright2_bits[] = {
   0x00, 0x00, 0x00, 0x00, 0x00, 0x00, 0x00, 0x00, 0x00, 0x00, 0xff, 0x00,
   0x00, 0x80, 0x0d, 0x01, 0x00, 0x7c, 0xe0, 0x02, 0x00, 0x04, 0x03, 0x06,
   0x00, 0x08, 0x1d, 0x1a, 0x00, 0x08, 0x11, 0x02, 0x00, 0x10, 0x01, 0x7a,
   0x00, 0x10, 0x01, 0x4f, 0x00, 0x28, 0x00, 0x63, 0x00, 0x24, 0xc0, 0x31,
   0x70, 0x42, 0x00, 0x18, 0x90, 0x81, 0x0a, 0x0c, 0x90, 0x00, 0x00, 0x02,
   0x20, 0x01, 0x80, 0x01, 0x30, 0x01, 0x40, 0x00, 0x50, 0x02, 0x20, 0x00,
   0x4c, 0x00, 0x10, 0x00, 0x02, 0x00, 0x08, 0x00, 0x02, 0x04, 0x08, 0x00,
   0x02, 0x02, 0x08, 0x00, 0x02, 0x01, 0x08, 0x00, 0xe1, 0x01, 0x04, 0x00,
   0x11, 0x01, 0x04, 0x00, 0x09, 0x01, 0x02, 0x00, 0x09, 0xf1, 0x01, 0x00,
   0x05, 0x09, 0x00, 0x00, 0x03, 0x09, 0x00, 0x00, 0x00, 0x09, 0x00, 0x00,
   0x00, 0x09, 0x00, 0x00, 0x00, 0x06, 0x00, 0x00};
