#define utogi2_width 32
#define utogi2_height 32
static char utogi2_bits[] = {
   0x00, 0x26, 0x2a, 0x00, 0x00, 0x29, 0x2a, 0x00, 0x00, 0xe9, 0xeb, 0x00,
   0x00, 0x3d, 0x3c, 0x00, 0x00, 0x09, 0x30, 0x00, 0x00, 0x25, 0x44, 0x00,
   0x00, 0x23, 0x44, 0x00, 0x00, 0x23, 0x44, 0x00, 0x00, 0x01, 0x80, 0x00,
   0x80, 0x1f, 0xf8, 0x01, 0x80, 0x00, 0x80, 0x00, 0x00, 0x27, 0x62, 0x00,
   0x00, 0x1d, 0x5c, 0x00, 0x00, 0x03, 0xc0, 0x00, 0x00, 0x1e, 0x78, 0x00,
   0x00, 0x02, 0x40, 0x00, 0x00, 0x01, 0x80, 0x00, 0x80, 0x00, 0x00, 0x01,
   0x80, 0x00, 0x00, 0x01, 0x80, 0x00, 0x00, 0x01, 0xb0, 0x00, 0x00, 0x0d,
   0xe8, 0x01, 0x80, 0x13, 0x08, 0x03, 0xc0, 0x10, 0x10, 0x00, 0x00, 0x08,
   0xe0, 0x78, 0x1e, 0x07, 0x00, 0x47, 0xe2, 0x00, 0x00, 0x40, 0x04, 0x00,
   0x00, 0x80, 0x08, 0x00, 0x00, 0x00, 0x09, 0x00, 0x00, 0x00, 0x06, 0x00,
   0x00, 0x00, 0x00, 0x00, 0x00, 0x00, 0x00, 0x00};
