#define utogi1_width 32
#define utogi1_height 32
static char utogi1_bits[] = {
   0x00, 0x2a, 0x32, 0x00, 0x00, 0x2a, 0x4a, 0x00, 0x80, 0xeb, 0x4b, 0x00,
   0x00, 0x3e, 0xfc, 0x00, 0x00, 0x0a, 0x90, 0x00, 0x00, 0x26, 0xa4, 0x00,
   0x00, 0x23, 0xc4, 0x00, 0x00, 0x23, 0xc4, 0x00, 0x00, 0x01, 0x80, 0x00,
   0x80, 0x1f, 0xf8, 0x01, 0x80, 0x01, 0x80, 0x00, 0x00, 0x27, 0x62, 0x00,
   0x00, 0x1d, 0x5c, 0x00, 0x00, 0x03, 0xc0, 0x00, 0x00, 0x1e, 0x78, 0x00,
   0x00, 0x02, 0x40, 0x00, 0x00, 0x01, 0x80, 0x00, 0x80, 0x00, 0x00, 0x01,
   0x80, 0x00, 0x00, 0x01, 0x80, 0x00, 0x00, 0x01, 0xb0, 0x00, 0x00, 0x0d,
   0xe8, 0x01, 0x80, 0x13, 0x08, 0x03, 0xc0, 0x10, 0x10, 0x00, 0x00, 0x08,
   0xe0, 0x78, 0x1e, 0x07, 0x00, 0x47, 0xe2, 0x00, 0x00, 0x20, 0x02, 0x00,
   0x00, 0x10, 0x01, 0x00, 0x00, 0x90, 0x00, 0x00, 0x00, 0x60, 0x00, 0x00,
   0x00, 0x00, 0x00, 0x00, 0x00, 0x00, 0x00, 0x00};
