/* XPM */
static char * menu_cursor_mask_xpm[] = {
"16 16 3 1",
" 	c None",
".	c #FFFFFF",
"+	c #000000",
"      ..........",
"   .  .++++++++.",
"...+. .+......+.",
".++++..+.++++.+.",
"...+. .+......+.",
"   .  .+.++.+.+.",
"      .+......+.",
"      .+.+.++.+.",
"      .+......+.",
"      .+.++++.+.",
"      .+......+.",
"      .+.++.+.+.",
"      .+......+.",
"      .++++++++.",
"      ..........",
"                "};
