/* XPM */
static char *netsurf___x__[] = {
/* columns rows colors chars-per-pixel */
"16 16 189 2",
"   c #02530B521130",
".  c #02C50E711619",
"X  c #02AF106B198E",
"o  c #02D913641E8A",
"O  c #04D913E91D9D",
"+  c #042B14C01F86",
"@  c #124A1BC61F1D",
"#  c #097F17941FC4",
"$  c #03CE193E2759",
"%  c #04451CED2D68",
"&  c #0BDC1D8727E6",
"*  c #10D2247A2F43",
"=  c #069C27663D09",
"-  c #180C2AED33E3",
";  c #1AEC2D37353A",
":  c #16F12D9C3927",
">  c #20AD32C039B7",
",  c #0A2A2E04451D",
"<  c #0C1A306A47D4",
"1  c #1D6E39A1482F",
"2  c #060A341B5355",
"3  c #0B773D945E4D",
"4  c #20B93C4949C5",
"5  c #07B03F0A6460",
"6  c #2332407A4E57",
"7  c #253040AD4CF8",
"8  c #33854FAB5A6E",
"9  c #15494CF97003",
"0  c #19F855EA7B34",
"q  c #1E7F57237923",
"w  c #21344D986676",
"e  c #422B60856A1E",
"r  c #09DA58208D29",
"t  c #11AC562C82BA",
"y  c #0A6A5CB99496",
"u  c #18A265959712",
"i  c #17B8662E9805",
"p  c #11A66358990E",
"a  c #224A65BB8E98",
"s  c #342C75079947",
"d  c #3487766A9B6F",
"f  c #35B478C99F4B",
"g  c #0BFA6509A06D",
"h  c #0F9175B8BA3A",
"j  c #1AAA7C1DBB21",
"k  c #289374DBA2C1",
"l  c #200E76DFADCA",
"z  c #269D7B1FAF00",
"x  c #32E57D4FA875",
"c  c #299F805AB558",
"v  c #2DF28A1CC027",
"b  c #345A83F3B216",
"n  c #3151843FB58D",
"m  c #59C882138E75",
"M  c #5F5E8AAC9842",
"N  c #51998AF6A4C9",
"B  c #5F5A96AEACF5",
"V  c #43048E07B597",
"C  c #65129940AC1C",
"Z  c #6C1AA2A1B60E",
"A  c #7A87AEC9BD67",
"S  c #125084AAD039",
"D  c #163388A1D450",
"F  c #1BF88E3BD899",
"G  c #17BD8EB6DCB2",
"H  c #220A83D0C214",
"J  c #29678B9EC6ED",
"K  c #3F59A336DDC8",
"L  c #198792ECE247",
"P  c #11B295CDED75",
"I  c #132A98BFF1CB",
"U  c #25099D91EB08",
"Y  c #29299E0AE8BB",
"T  c #1412A137FE21",
"R  c #191EA60AFFFF",
"E  c #1C73A663FFFF",
"W  c #2E68A1C2E7B3",
"Q  c #2C05A14AEAC1",
"!  c #2E32A597F03F",
"~  c #39BBA7F4E929",
"^  c #23A0A4D1F872",
"/  c #25C6A4E4F6A5",
"(  c #2965A4CCF3B1",
")  c #236CA4BAF891",
"_  c #23A1A6A2FA96",
"`  c #2018A8FDFFFF",
"'  c #25F5AB89FFFF",
"]  c #2B0BACCDFECB",
"[  c #2AEBAD69FFF4",
"{  c #2E7EAC78FC88",
"}  c #37FCADAFF4EB",
"|  c #3B7FAF4EF4E9",
" . c #303DAB56F8E3",
".. c #3354B0E8FFFF",
"X. c #3607B294FFCE",
"o. c #3978B4A2FFF7",
"O. c #414EA3E7DD4D",
"+. c #5643A8B7D325",
"@. c #52B4AADCD9F0",
"#. c #60F0B145D82C",
"$. c #6F40B9C2DA92",
"%. c #71EFBCB5DD40",
"&. c #482FB26FEEA5",
"*. c #5E59B526E061",
"=. c #413CB50EFA06",
"-. c #40FAB7C7FF64",
";. c #411FB840FF4A",
":. c #43C4B9CAFFFA",
">. c #4AB5BB61FFFF",
",. c #4A0ABCF3FFFF",
"<. c #4BB1BD9AFFB4",
"1. c #4D02BE43FFE0",
"2. c #542DBA39F2D5",
"3. c #5682BD17F583",
"4. c #6545BFABECE0",
"5. c #7AD1C155DCC5",
"6. c #512AC23DFFFF",
"7. c #5584C279FF9A",
"8. c #5642C44BFFFF",
"9. c #57E0C1FCF97C",
"0. c #5C81C618FFB3",
"q. c #5F65C55DFFFF",
"w. c #5FA0C7BFFFCB",
"e. c #6BD0C37FEDBC",
"r. c #6FB7C6C0EF7B",
"t. c #7055C5DCEDC7",
"y. c #7A3ECB76EEA8",
"u. c #63C4C2A1F626",
"i. c #64A9C5C0F7C3",
"p. c #6B3AC4CBF902",
"a. c #621EC925FFE9",
"s. c #6557C9F1FE6D",
"d. c #67BACC2FFFFE",
"f. c #66B4CD66FFFF",
"g. c #69E9CD27FFFC",
"h. c #6E23CD02FFBA",
"j. c #6E50CFA0FFFF",
"k. c #7093CC80FFBB",
"l. c #6E47D0E6FFFF",
"z. c #7269D1B2FFFF",
"x. c #73B7D323FFFF",
"c. c #7383D389FFFF",
"v. c #7F08D0B1FFA4",
"b. c #7A4CD5C8FFFF",
"n. c #7C1BD6A7FFFF",
"m. c #7CBAD75AFFFF",
"M. c #8CB9CF6EE5B6",
"N. c #9678D359E3DC",
"B. c #8911D5A7F360",
"V. c #829DD7A7FFFF",
"C. c #8092DA47FFFF",
"Z. c #814DDA85FFFF",
"A. c #839BDA7BFFFF",
"S. c #85D6DB65FFFF",
"D. c #86DFDAB4FFFD",
"F. c #8EE1DDADFC14",
"G. c #8CC8DC55FFFE",
"H. c #894DDD3BFFFE",
"J. c #89CCDDD9FFFF",
"K. c #8AFCDE12FFFC",
"L. c #8D41DF48FFF9",
"P. c #8D5FE05DFFFF",
"I. c #8FB7E05EFFEA",
"U. c #9808DD11F202",
"Y. c #A445E007FF52",
"T. c #96ADE3E2FFB6",
"R. c #9705E548FFFF",
"E. c #9DB5E153FFFD",
"W. c #9914E507FFB9",
"Q. c #9A08E660FFF3",
"!. c #9A40E858FFFF",
"~. c #A7C7E568F44C",
"^. c #A7C5E6F4F48B",
"/. c #A3A6EB6AFFFB",
"(. c #A652EC53FFFA",
"). c #A408ED75FFFF",
"_. c #B2C9E411FFBB",
"`. c #B047E69AFFFB",
"'. c #B8E2E8BFFFF5",
"]. c #D6CBF231FFFF",
"[. c #DE35F506FFFC",
"{. c #E029F512FFFF",
"}. c #E57AF80BFFFE",
"|. c #E6C5F71DFFE9",
" X c #E735F794FFF7",
".X c #E895F7DEFFEE",
"XX c #E9B0F91EFFFE",
"oX c gray100",
"OX c None",
/* pixels */
"OXOXOXOXOXOX; 7 6 : OXOXOXOXOXOX",
"OXOXOXOX> C 5.y.r.*.V w OXOXOXOX",
"OXOX@ e M ).R.J.m.l.V.u.f & OXOX",
"OXOXm ^.~.(.W.K.D.`.[.].Y.k OXOX",
"OX8 U.A N./.T.H.G.}.oXoX{.p.9 OX",
"OXB !.Z M.Q.I.A.E.XXoXoX|.q.H O ",
"- %.P.B.F.L.S.n.z.'. X.X_.>.U , ",
"4 t.C.N $.Z.b.z.g.h.k.v.-...^ 3 ",
"1 4.c.#.e.x.j.d.w.7.<.;.X.[ F = ",
"* @.f.i.+.s.a.0.7.1.:.o.{ _ p . ",
"OXd 9.3.s 2.8.6.,.=.} ! u G h X ",
"OX# b &.x O.K n | z l / L I 5 OX",
"OXOXq ~ v a c J  .( ) E T y OXOX",
"OXOXOX0 W Q Y ] ' ` R P r o OXOX",
"OXOXOXOX< i j t D S g 2 OXOXOXOX",
"OXOXOXOXOXOX+   % $ OXOXOXOXOXOX"
};
