<?xml version="1.0" encoding="UTF-8" standalone="no"?>
<!-- Created with Inkscape (http://www.inkscape.org/) -->
<svg xmlns:svg="http://www.w3.org/2000/svg" xmlns="http://www.w3.org/2000/svg" xmlns:dc="http://purl.org/dc/elements/1.1/" xmlns:cc="http://web.resource.org/cc/" xmlns:rdf="http://www.w3.org/1999/02/22-rdf-syntax-ns#" version="1.1" width="720" height="720" id="svg2">
  <defs id="defs4">
    <linearGradient id="linearGradient3785">
      <stop id="stop3787" style="stop-color:#000000;stop-opacity:1" offset="0"/>
      <stop id="stop3789" style="stop-color:#000000;stop-opacity:0" offset="1"/>
    </linearGradient>
    <linearGradient id="linearGradient3785-5">
      <stop id="stop3787-6" style="stop-color:#000000;stop-opacity:1" offset="0"/>
      <stop id="stop3789-6" style="stop-color:#000000;stop-opacity:0" offset="1"/>
    </linearGradient>
  </defs>
  <g transform="translate(0,-332.36218)" id="layer1">
    <g id="g2945">
      <path d="m 0,332.36218 360,360 -300,-359.9999999999999 -60,0 z" id="path4119" style="fill:#ff0000;stroke:none"/>
      <path d="m 60,332.3621800000001 300,359.9999999999998 -240,-359.9999999999998 -60,0 z" id="path4121" style="fill:#ff8000;stroke:none"/>
      <path d="m 120,332.3621800000001 240,359.9999999999998 -180,-359.9999999999998 -60,0 z" id="path4123" style="fill:#ffff00;stroke:none"/>
      <path d="m 180,332.3621800000003 180,359.9999999999996 -120,-359.9999999999996 -60,0 z" id="path4125" style="fill:#80ff00;stroke:none"/>
      <path d="m 240,332.3621800000003 120,359.9999999999996 -60,-359.9999999999996 -60,0 z" id="path4127" style="fill:#00ff00;stroke:none"/>
      <path d="m 300,332.3621800000001 60,359.9999999999998 0,-359.9999999999998 -60,0 z" id="path4129" style="fill:#00ff80;stroke:none"/>
      <path d="m 720,332.3621800000003 -360,359.9999999999996 300,-359.9999999999996 60,0 z" id="path4131" style="fill:#ff0080;stroke:none"/>
      <path d="m 660,332.3621800000003 -300,359.9999999999996 240,-359.9999999999996 60,0 z" id="path4133" style="fill:#ff00ff;stroke:none"/>
      <path d="m 600,332.3621800000003 -240,359.9999999999996 180,-359.9999999999996 60,0 z" id="path4135" style="fill:#8000ff;stroke:none"/>
      <path d="m 540,332.3621800000005 -180,359.9999999999994 120,-359.9999999999994 60,0 z" id="path4137" style="fill:#0000ff;stroke:none"/>
      <path d="m 480,332.3621800000005 -120,359.9999999999994 60,-359.9999999999994 60,0 z" id="path4139" style="fill:#0080ff;stroke:none"/>
      <path d="m 420,332.3621800000003 -60,359.9999999999996 0,-359.9999999999996 60,0 z" id="path4141" style="fill:#00ffff;stroke:none"/>
      <path d="m 720,332.3621800000001 -360,359.9999999999998 360,-299.9999999999998 0,-60 z" id="path4207" style="fill:#ff0000;stroke:none"/>
      <path d="M 720,392.3621800000001 360.0000000000002,692.3621799999999 720,452.3621800000001 l 0,-60 z" id="path4209" style="fill:#ff8000;stroke:none"/>
      <path d="M 720,452.3621800000001 360.0000000000002,692.3621799999999 720,512.3621799999999 720,452.3621800000001 z" id="path4211" style="fill:#ffff00;stroke:none"/>
      <path d="m 719.9999999999995,512.3621799999998 -359.9999999999993,180 359.9999999999993,-120 0,-60 z" id="path4213" style="fill:#80ff00;stroke:none"/>
      <path d="m 719.9999999999995,572.3621799999998 -359.9999999999993,120 359.9999999999993,-60 0,-60 z" id="path4215" style="fill:#00ff00;stroke:none"/>
      <path d="m 720,632.3621799999998 -359.9999999999998,60 359.9999999999998,0 0,-60 z" id="path4217" style="fill:#00ff80;stroke:none"/>
      <path d="m 719.9999999999995,1052.36218 -359.9999999999993,-360.0000000000002 359.9999999999993,300 0,60.0000000000002 z" id="path4219" style="fill:#ff0080;stroke:none"/>
      <path d="m 719.9999999999995,992.3621799999998 -359.9999999999993,-300 359.9999999999993,240 0,60 z" id="path4221" style="fill:#ff00ff;stroke:none"/>
      <path d="m 719.9999999999995,932.3621799999998 -359.9999999999993,-240 359.9999999999993,180 0,60 z" id="path4223" style="fill:#8000ff;stroke:none"/>
      <path d="m 719.9999999999995,872.3621799999998 -359.9999999999993,-180 359.9999999999993,120 0,60 z" id="path4225" style="fill:#0000ff;stroke:none"/>
      <path d="m 719.9999999999995,812.3621799999998 -359.9999999999993,-120 359.9999999999993,60 0,60 z" id="path4227" style="fill:#0080ff;stroke:none"/>
      <path d="m 719.9999999999995,752.3621799999998 -359.9999999999993,-60 359.9999999999993,0 0,60 z" id="path4229" style="fill:#00ffff;stroke:none"/>
      <path d="m 720,1052.362180000001 -360,-360.0000000000002 300,360.0000000000002 60,0 z" id="path4233" style="fill:#ff0000;stroke:none"/>
      <path d="m 660,1052.362180000001 -300,-359.9999999999998 240,359.9999999999998 60,0 z" id="path4235" style="fill:#ff8000;stroke:none"/>
      <path d="m 600,1052.362180000001 -240,-359.9999999999998 180,359.9999999999998 60,0 z" id="path4237" style="fill:#ffff00;stroke:none"/>
      <path d="m 540,1052.362180000001 -180,-359.9999999999998 120,359.9999999999998 60,0 z" id="path4239" style="fill:#80ff00;stroke:none"/>
      <path d="m 480,1052.362180000001 -120,-359.9999999999998 60,359.9999999999998 60,0 z" id="path4241" style="fill:#00ff00;stroke:none"/>
      <path d="m 420,1052.362180000001 -60,-359.9999999999998 0,359.9999999999998 60,0 z" id="path4243" style="fill:#00ff80;stroke:none"/>
      <path d="M 0,1052.362180000001 360,692.3621800000012 60,1052.362180000001 l -60,0 z" id="path4245" style="fill:#ff0080;stroke:none"/>
      <path d="m 60,1052.362180000001 300,-359.9999999999998 -240,359.9999999999998 -60,0 z" id="path4247" style="fill:#ff00ff;stroke:none"/>
      <path d="m 120,1052.362180000001 240,-359.9999999999998 -180,359.9999999999998 -60,0 z" id="path4249" style="fill:#8000ff;stroke:none"/>
      <path d="M 180,1052.36218 360,692.3621800000012 240,1052.36218 l -60,0 z" id="path4251" style="fill:#0000ff;stroke:none"/>
      <path d="M 240,1052.36218 360,692.3621800000012 300,1052.36218 l -60,0 z" id="path4253" style="fill:#0080ff;stroke:none"/>
      <path d="m 300,1052.362180000001 60,-359.9999999999998 0,359.9999999999998 -60,0 z" id="path4255" style="fill:#00ffff;stroke:none"/>
      <path d="M -4.547473508864642e-13,1052.36218 359.9999999999996,692.3621799999999 l -360.000000000000056843418860808,300 0,60.0000000000002 z" id="path4259" style="fill:#ff0000;stroke:none"/>
      <path d="m -3.979039320256561e-13,992.3621799999998 359.9999999999997726263245567679,-300 -359.9999999999997726263245567679,240 0,60 z" id="path4261" style="fill:#ff8000;stroke:none"/>
      <path d="m -3.979039320256561e-13,932.3621799999998 359.9999999999997726263245567679,-240 -359.9999999999997726263245567679,180 0,60 z" id="path4263" style="fill:#ffff00;stroke:none"/>
      <path d="m -1.70530256582424e-13,872.3621799999998 359.9999999999995452526491135358,-180 -359.9999999999996020960679743438,120 0,60 z" id="path4265" style="fill:#80ff00;stroke:none"/>
      <path d="m -1.70530256582424e-13,812.3621799999998 359.9999999999995452526491135358,-120 -359.9999999999996020960679743438,60 0,60 z" id="path4267" style="fill:#00ff00;stroke:none"/>
      <path d="m -3.979039320256561e-13,752.3621799999998 359.9999999999997726263245567679,-60 -359.9999999999997726263245567679,0 0,60 z" id="path4269" style="fill:#00ff80;stroke:none"/>
      <path d="M -1.70530256582424e-13,332.3621800000001 359.9999999999994,692.3621799999999 -2.273736754432321e-13,392.3621800000001 l 0,-60 z" id="path4271" style="fill:#ff0080;stroke:none"/>
      <path d="M -1.70530256582424e-13,392.3621800000001 359.9999999999994,692.3621799999999 -2.273736754432321e-13,452.3621800000001 l 0,-60 z" id="path4273" style="fill:#ff00ff;stroke:none"/>
      <path d="M -1.70530256582424e-13,452.3621800000001 359.9999999999994,692.3621799999999 l -359.9999999999996020960679743438,-180 0,-59.9999999999998 z" id="path4275" style="fill:#8000ff;stroke:none"/>
      <path d="m 0,512.3621799999998 359.9999999999994,180 -359.9999999999994,-120 0,-60 z" id="path4277" style="fill:#0000ff;stroke:none"/>
      <path d="m 0,572.3621799999998 359.9999999999994,120 -359.9999999999994,-60 0,-60 z" id="path4279" style="fill:#0080ff;stroke:none"/>
      <path d="m -1.70530256582424e-13,632.3621799999998 359.9999999999995452526491135358,60 -359.9999999999996020960679743438,0 0,-60 z" id="path4281" style="fill:#00ffff;stroke:none"/>
    </g>
    <g transform="matrix(-0.8749999999999994,0,0,0.8749999999999996,674.9999999999987,86.54527249999931)" id="g2995">
      <path d="m 0,332.36218 360,360 -300,-359.9999999999995 -60,0 z" id="path2997" style="fill:#ff0000;stroke:none"/>
      <path d="m 60,332.3621800000001 300,359.9999999999998 -240,-359.9999999999998 -60,0 z" id="path2999" style="fill:#ff8000;stroke:none"/>
      <path d="m 120,332.3621800000001 240,359.9999999999998 -180,-359.9999999999998 -60,0 z" id="path3001" style="fill:#ffff00;stroke:none"/>
      <path d="m 180,332.3621800000003 180,359.9999999999996 -120,-359.9999999999996 -60,0 z" id="path3003" style="fill:#80ff00;stroke:none"/>
      <path d="m 240,332.3621800000003 120,359.9999999999996 -60,-359.9999999999996 -60,0 z" id="path3005" style="fill:#00ff00;stroke:none"/>
      <path d="m 300,332.3621800000001 60,359.9999999999998 0,-359.9999999999998 -60,0 z" id="path3007" style="fill:#00ff80;stroke:none"/>
      <path d="m 720,332.3621800000003 -360,359.9999999999996 300,-359.9999999999996 60,0 z" id="path3009" style="fill:#ff0080;stroke:none"/>
      <path d="m 660,332.3621800000003 -300,359.9999999999996 240,-359.9999999999996 60,0 z" id="path3011" style="fill:#ff00ff;stroke:none"/>
      <path d="m 600,332.3621800000003 -240,359.9999999999996 180,-359.9999999999996 60,0 z" id="path3013" style="fill:#8000ff;stroke:none"/>
      <path d="m 540,332.3621800000005 -180,359.9999999999994 120,-359.9999999999994 60,0 z" id="path3015" style="fill:#0000ff;stroke:none"/>
      <path d="m 480,332.3621800000005 -120,359.9999999999994 60,-359.9999999999994 60,0 z" id="path3017" style="fill:#0080ff;stroke:none"/>
      <path d="m 420,332.3621800000003 -60,359.9999999999996 0,-359.9999999999996 60,0 z" id="path3019" style="fill:#00ffff;stroke:none"/>
      <path d="m 720,332.3621800000001 -360,359.9999999999998 360,-299.9999999999998 0,-60 z" id="path3021" style="fill:#ff0000;stroke:none"/>
      <path d="M 720,392.3621800000001 360.0000000000002,692.3621799999998 720,452.3621800000001 l 0,-60 z" id="path3023" style="fill:#ff8000;stroke:none"/>
      <path d="M 720,452.3621800000001 360.0000000000002,692.3621799999998 720,512.3621799999998 720,452.3621800000001 z" id="path3025" style="fill:#ffff00;stroke:none"/>
      <path d="m 719.9999999999995,512.3621799999998 -359.9999999999993,180 359.9999999999993,-120 0,-60 z" id="path3027" style="fill:#80ff00;stroke:none"/>
      <path d="m 719.9999999999995,572.3621799999998 -359.9999999999993,120 359.9999999999993,-60 0,-60 z" id="path3029" style="fill:#00ff00;stroke:none"/>
      <path d="m 720,632.3621799999998 -359.9999999999998,60 359.9999999999998,0 0,-60 z" id="path3031" style="fill:#00ff80;stroke:none"/>
      <path d="m 719.9999999999995,1052.36218 -359.9999999999993,-360.0000000000002 359.9999999999993,300 0,60.0000000000002 z" id="path3033" style="fill:#ff0080;stroke:none"/>
      <path d="m 719.9999999999995,992.3621799999998 -359.9999999999993,-300 359.9999999999993,240 0,60 z" id="path3035" style="fill:#ff00ff;stroke:none"/>
      <path d="m 719.9999999999995,932.3621799999998 -359.9999999999993,-240 359.9999999999993,180 0,60 z" id="path3037" style="fill:#8000ff;stroke:none"/>
      <path d="m 719.9999999999995,872.3621799999998 -359.9999999999993,-180 359.9999999999993,120 0,60 z" id="path3039" style="fill:#0000ff;stroke:none"/>
      <path d="m 719.9999999999995,812.3621799999998 -359.9999999999993,-120 359.9999999999993,60 0,60 z" id="path3041" style="fill:#0080ff;stroke:none"/>
      <path d="m 719.9999999999995,752.3621799999998 -359.9999999999993,-60 359.9999999999993,0 0,60 z" id="path3043" style="fill:#00ffff;stroke:none"/>
      <path d="m 720,1052.362180000001 -360,-360.0000000000003 300,360.0000000000003 60,0 z" id="path3045" style="fill:#ff0000;stroke:none"/>
      <path d="m 660,1052.362180000001 -300,-359.9999999999998 240,359.9999999999998 60,0 z" id="path3047" style="fill:#ff8000;stroke:none"/>
      <path d="m 600,1052.362180000001 -240,-359.9999999999998 180,359.9999999999998 60,0 z" id="path3049" style="fill:#ffff00;stroke:none"/>
      <path d="m 540,1052.362180000001 -180,-359.9999999999998 120,359.9999999999998 60,0 z" id="path3051" style="fill:#80ff00;stroke:none"/>
      <path d="m 480,1052.362180000001 -120,-359.9999999999998 60,359.9999999999998 60,0 z" id="path3053" style="fill:#00ff00;stroke:none"/>
      <path d="m 420,1052.362180000001 -60,-359.9999999999998 0,359.9999999999998 60,0 z" id="path3055" style="fill:#00ff80;stroke:none"/>
      <path d="M 0,1052.362180000001 360,692.3621800000012 60,1052.362180000001 l -60,0 z" id="path3057" style="fill:#ff0080;stroke:none"/>
      <path d="m 60,1052.362180000001 300,-359.9999999999998 -240,359.9999999999998 -60,0 z" id="path3059" style="fill:#ff00ff;stroke:none"/>
      <path d="m 120,1052.362180000001 240,-359.9999999999998 -180,359.9999999999998 -60,0 z" id="path3061" style="fill:#8000ff;stroke:none"/>
      <path d="M 180,1052.36218 360,692.3621800000012 240,1052.36218 l -60,0 z" id="path3063" style="fill:#0000ff;stroke:none"/>
      <path d="M 240,1052.36218 360,692.3621800000012 300,1052.36218 l -60,0 z" id="path3065" style="fill:#0080ff;stroke:none"/>
      <path d="m 300,1052.362180000001 60,-359.9999999999998 0,359.9999999999998 -60,0 z" id="path3067" style="fill:#00ffff;stroke:none"/>
      <path d="M -4.547473508864642e-13,1052.36218 359.9999999999996,692.3621799999998 l -360.000000000000056843418860808,300 0,60.0000000000002 z" id="path3069" style="fill:#ff0000;stroke:none"/>
      <path d="m -3.979039320256561e-13,992.3621799999998 359.9999999999997726263245567679,-300 -359.9999999999997726263245567679,240 0,60 z" id="path3071" style="fill:#ff8000;stroke:none"/>
      <path d="m -3.979039320256561e-13,932.3621799999998 359.9999999999997726263245567679,-240 -359.9999999999997726263245567679,180 0,60 z" id="path3073" style="fill:#ffff00;stroke:none"/>
      <path d="m -1.70530256582424e-13,872.3621799999998 359.9999999999995452526491135358,-180 -359.9999999999996020960679743438,120 0,60 z" id="path3075" style="fill:#80ff00;stroke:none"/>
      <path d="m -1.70530256582424e-13,812.3621799999998 359.9999999999995452526491135358,-120 -359.9999999999996020960679743438,60 0,60 z" id="path3077" style="fill:#00ff00;stroke:none"/>
      <path d="m -3.979039320256561e-13,752.3621799999998 359.9999999999997726263245567679,-60 -359.9999999999997726263245567679,0 0,60 z" id="path3079" style="fill:#00ff80;stroke:none"/>
      <path d="M -1.70530256582424e-13,332.3621800000001 359.9999999999994,692.3621799999998 -2.273736754432321e-13,392.3621800000001 l 0,-60 z" id="path3081" style="fill:#ff0080;stroke:none"/>
      <path d="M -1.70530256582424e-13,392.3621800000001 359.9999999999994,692.3621799999998 -2.273736754432321e-13,452.3621800000001 l 0,-60 z" id="path3083" style="fill:#ff00ff;stroke:none"/>
      <path d="M -1.70530256582424e-13,452.3621800000001 359.9999999999994,692.3621799999998 l -359.9999999999996020960679743438,-180 0,-59.9999999999998 z" id="path3085" style="fill:#8000ff;stroke:none"/>
      <path d="m 0,512.3621799999998 359.9999999999994,180 -359.9999999999994,-120 0,-60 z" id="path3087" style="fill:#0000ff;stroke:none"/>
      <path d="m 0,572.3621799999998 359.9999999999994,120 -359.9999999999994,-60 0,-60 z" id="path3089" style="fill:#0080ff;stroke:none"/>
      <path d="m -1.70530256582424e-13,632.3621799999998 359.9999999999995452526491135358,60 -359.9999999999996020960679743438,0 0,-60 z" id="path3091" style="fill:#00ffff;stroke:none"/>
    </g>
    <g transform="matrix(-0.7499999999999994,0,0,-0.7499999999999998,629.9999999999996,1211.633815000002)" id="g3093">
      <path d="m 0,332.36218 360,360 -300,-359.9999999999992 -60,0 z" id="path3095" style="fill:#ff0000;stroke:none"/>
      <path d="m 60,332.3621800000001 300,359.9999999999998 -240,-359.9999999999998 -60,0 z" id="path3097" style="fill:#ff8000;stroke:none"/>
      <path d="m 120,332.3621800000001 240,359.9999999999998 -180,-359.9999999999998 -60,0 z" id="path3099" style="fill:#ffff00;stroke:none"/>
      <path d="m 180,332.3621800000003 180,359.9999999999996 -120,-359.9999999999996 -60,0 z" id="path3101" style="fill:#80ff00;stroke:none"/>
      <path d="m 240,332.3621800000003 120,359.9999999999996 -60,-359.9999999999996 -60,0 z" id="path3103" style="fill:#00ff00;stroke:none"/>
      <path d="m 300,332.3621800000001 60,359.9999999999998 0,-359.9999999999998 -60,0 z" id="path3105" style="fill:#00ff80;stroke:none"/>
      <path d="m 720,332.3621800000003 -360,359.9999999999996 300,-359.9999999999996 60,0 z" id="path3107" style="fill:#ff0080;stroke:none"/>
      <path d="m 660,332.3621800000003 -300,359.9999999999996 240,-359.9999999999996 60,0 z" id="path3109" style="fill:#ff00ff;stroke:none"/>
      <path d="m 600,332.3621800000003 -240,359.9999999999996 180,-359.9999999999996 60,0 z" id="path3111" style="fill:#8000ff;stroke:none"/>
      <path d="m 540,332.3621800000005 -180,359.9999999999994 120,-359.9999999999994 60,0 z" id="path3113" style="fill:#0000ff;stroke:none"/>
      <path d="m 480,332.3621800000005 -120,359.9999999999994 60,-359.9999999999994 60,0 z" id="path3115" style="fill:#0080ff;stroke:none"/>
      <path d="m 420,332.3621800000003 -60,359.9999999999996 0,-359.9999999999996 60,0 z" id="path3117" style="fill:#00ffff;stroke:none"/>
      <path d="m 720,332.3621800000001 -360,359.9999999999998 360,-299.9999999999998 0,-60 z" id="path3119" style="fill:#ff0000;stroke:none"/>
      <path d="M 720,392.3621800000001 360.0000000000002,692.3621799999998 720,452.3621800000001 l 0,-60 z" id="path3121" style="fill:#ff8000;stroke:none"/>
      <path d="M 720,452.3621800000001 360.0000000000002,692.3621799999998 720,512.3621799999998 720,452.3621800000001 z" id="path3123" style="fill:#ffff00;stroke:none"/>
      <path d="m 719.9999999999995,512.3621799999998 -359.9999999999993,180 359.9999999999993,-120 0,-60 z" id="path3125" style="fill:#80ff00;stroke:none"/>
      <path d="m 719.9999999999995,572.3621799999998 -359.9999999999993,120 359.9999999999993,-60 0,-60 z" id="path3127" style="fill:#00ff00;stroke:none"/>
      <path d="m 720,632.3621799999998 -359.9999999999998,60 359.9999999999998,0 0,-60 z" id="path3129" style="fill:#00ff80;stroke:none"/>
      <path d="m 719.9999999999995,1052.36218 -359.9999999999993,-360.0000000000002 359.9999999999993,300 0,60.0000000000002 z" id="path3131" style="fill:#ff0080;stroke:none"/>
      <path d="m 719.9999999999995,992.3621799999998 -359.9999999999993,-300 359.9999999999993,240 0,60 z" id="path3133" style="fill:#ff00ff;stroke:none"/>
      <path d="m 719.9999999999995,932.3621799999998 -359.9999999999993,-240 359.9999999999993,180 0,60 z" id="path3135" style="fill:#8000ff;stroke:none"/>
      <path d="m 719.9999999999995,872.3621799999998 -359.9999999999993,-180 359.9999999999993,120 0,60 z" id="path3137" style="fill:#0000ff;stroke:none"/>
      <path d="m 719.9999999999995,812.3621799999998 -359.9999999999993,-120 359.9999999999993,60 0,60 z" id="path3139" style="fill:#0080ff;stroke:none"/>
      <path d="m 719.9999999999995,752.3621799999998 -359.9999999999993,-60 359.9999999999993,0 0,60 z" id="path3141" style="fill:#00ffff;stroke:none"/>
      <path d="m 720,1052.362180000001 -360,-360.0000000000003 300,360.0000000000003 60,0 z" id="path3143" style="fill:#ff0000;stroke:none"/>
      <path d="m 660,1052.362180000001 -300,-359.9999999999998 240,359.9999999999998 60,0 z" id="path3145" style="fill:#ff8000;stroke:none"/>
      <path d="m 600,1052.362180000001 -240,-359.9999999999998 180,359.9999999999998 60,0 z" id="path3147" style="fill:#ffff00;stroke:none"/>
      <path d="m 540,1052.362180000001 -180,-359.9999999999998 120,359.9999999999998 60,0 z" id="path3149" style="fill:#80ff00;stroke:none"/>
      <path d="m 480,1052.362180000001 -120,-359.9999999999998 60,359.9999999999998 60,0 z" id="path3151" style="fill:#00ff00;stroke:none"/>
      <path d="m 420,1052.362180000001 -60,-359.9999999999998 0,359.9999999999998 60,0 z" id="path3153" style="fill:#00ff80;stroke:none"/>
      <path d="M 0,1052.362180000001 360,692.3621800000012 60,1052.362180000001 l -60,0 z" id="path3155" style="fill:#ff0080;stroke:none"/>
      <path d="m 60,1052.362180000001 300,-359.9999999999998 -240,359.9999999999998 -60,0 z" id="path3157" style="fill:#ff00ff;stroke:none"/>
      <path d="m 120,1052.362180000001 240,-359.9999999999998 -180,359.9999999999998 -60,0 z" id="path3159" style="fill:#8000ff;stroke:none"/>
      <path d="M 180,1052.36218 360,692.3621800000012 240,1052.36218 l -60,0 z" id="path3161" style="fill:#0000ff;stroke:none"/>
      <path d="M 240,1052.36218 360,692.3621800000012 300,1052.36218 l -60,0 z" id="path3163" style="fill:#0080ff;stroke:none"/>
      <path d="m 300,1052.362180000001 60,-359.9999999999998 0,359.9999999999998 -60,0 z" id="path3165" style="fill:#00ffff;stroke:none"/>
      <path d="M -4.547473508864642e-13,1052.36218 359.9999999999996,692.3621799999998 l -360.000000000000056843418860808,300 0,60.0000000000002 z" id="path3167" style="fill:#ff0000;stroke:none"/>
      <path d="m -3.979039320256561e-13,992.3621799999998 359.9999999999997726263245567679,-300 -359.9999999999997726263245567679,240 0,60 z" id="path3169" style="fill:#ff8000;stroke:none"/>
      <path d="m -3.979039320256561e-13,932.3621799999998 359.9999999999997726263245567679,-240 -359.9999999999997726263245567679,180 0,60 z" id="path3171" style="fill:#ffff00;stroke:none"/>
      <path d="m -1.70530256582424e-13,872.3621799999998 359.9999999999995452526491135358,-180 -359.9999999999996020960679743438,120 0,60 z" id="path3173" style="fill:#80ff00;stroke:none"/>
      <path d="m -1.70530256582424e-13,812.3621799999998 359.9999999999995452526491135358,-120 -359.9999999999996020960679743438,60 0,60 z" id="path3175" style="fill:#00ff00;stroke:none"/>
      <path d="m -3.979039320256561e-13,752.3621799999998 359.9999999999997726263245567679,-60 -359.9999999999997726263245567679,0 0,60 z" id="path3177" style="fill:#00ff80;stroke:none"/>
      <path d="M -1.70530256582424e-13,332.3621800000001 359.9999999999994,692.3621799999998 -2.273736754432321e-13,392.3621800000001 l 0,-60 z" id="path3179" style="fill:#ff0080;stroke:none"/>
      <path d="M -1.70530256582424e-13,392.3621800000001 359.9999999999994,692.3621799999998 -2.273736754432321e-13,452.3621800000001 l 0,-60 z" id="path3181" style="fill:#ff00ff;stroke:none"/>
      <path d="M -1.70530256582424e-13,452.3621800000001 359.9999999999994,692.3621799999998 l -359.9999999999996020960679743438,-180 0,-59.9999999999998 z" id="path3183" style="fill:#8000ff;stroke:none"/>
      <path d="m 0,512.3621799999998 359.9999999999994,180 -359.9999999999994,-120 0,-60 z" id="path3185" style="fill:#0000ff;stroke:none"/>
      <path d="m 0,572.3621799999998 359.9999999999994,120 -359.9999999999994,-60 0,-60 z" id="path3187" style="fill:#0080ff;stroke:none"/>
      <path d="m -1.70530256582424e-13,632.3621799999998 359.9999999999995452526491135358,60 -359.9999999999996020960679743438,0 0,-60 z" id="path3189" style="fill:#00ffff;stroke:none"/>
    </g>
    <g transform="matrix(0.6249999999999994,0,0,-0.625,135,1125.088542500003)" id="g3191">
      <path d="m 0,332.36218 360,360 -300,-359.9999999999987 -60,0 z" id="path3193" style="fill:#ff0000;stroke:none"/>
      <path d="m 60,332.3621800000001 300,359.9999999999998 -240,-359.9999999999998 -60,0 z" id="path3195" style="fill:#ff8000;stroke:none"/>
      <path d="m 120,332.3621800000001 240,359.9999999999998 -180,-359.9999999999998 -60,0 z" id="path3197" style="fill:#ffff00;stroke:none"/>
      <path d="m 180,332.3621800000003 180,359.9999999999996 -120,-359.9999999999996 -60,0 z" id="path3199" style="fill:#80ff00;stroke:none"/>
      <path d="m 240,332.3621800000003 120,359.9999999999996 -60,-359.9999999999996 -60,0 z" id="path3201" style="fill:#00ff00;stroke:none"/>
      <path d="m 300,332.3621800000001 60,359.9999999999998 0,-359.9999999999998 -60,0 z" id="path3203" style="fill:#00ff80;stroke:none"/>
      <path d="m 720,332.3621800000003 -360,359.9999999999996 300,-359.9999999999996 60,0 z" id="path3205" style="fill:#ff0080;stroke:none"/>
      <path d="m 660,332.3621800000003 -300,359.9999999999996 240,-359.9999999999996 60,0 z" id="path3207" style="fill:#ff00ff;stroke:none"/>
      <path d="m 600,332.3621800000003 -240,359.9999999999996 180,-359.9999999999996 60,0 z" id="path3209" style="fill:#8000ff;stroke:none"/>
      <path d="m 540,332.3621800000005 -180,359.9999999999994 120,-359.9999999999994 60,0 z" id="path3211" style="fill:#0000ff;stroke:none"/>
      <path d="m 480,332.3621800000005 -120,359.9999999999994 60,-359.9999999999994 60,0 z" id="path3213" style="fill:#0080ff;stroke:none"/>
      <path d="m 420,332.3621800000003 -60,359.9999999999996 0,-359.9999999999996 60,0 z" id="path3215" style="fill:#00ffff;stroke:none"/>
      <path d="m 720,332.3621800000001 -360,359.9999999999998 360,-299.9999999999998 0,-60 z" id="path3217" style="fill:#ff0000;stroke:none"/>
      <path d="M 720,392.3621800000001 360.0000000000002,692.3621799999998 720,452.3621800000001 l 0,-60 z" id="path3219" style="fill:#ff8000;stroke:none"/>
      <path d="M 720,452.3621800000001 360.0000000000002,692.3621799999998 720,512.3621799999998 720,452.3621800000001 z" id="path3221" style="fill:#ffff00;stroke:none"/>
      <path d="m 719.9999999999995,512.3621799999998 -359.9999999999993,180 359.9999999999993,-120 0,-60 z" id="path3223" style="fill:#80ff00;stroke:none"/>
      <path d="m 719.9999999999995,572.3621799999998 -359.9999999999993,120 359.9999999999993,-60 0,-60 z" id="path3225" style="fill:#00ff00;stroke:none"/>
      <path d="m 720,632.3621799999998 -359.9999999999998,60 359.9999999999998,0 0,-60 z" id="path3227" style="fill:#00ff80;stroke:none"/>
      <path d="m 719.9999999999995,1052.36218 -359.9999999999993,-360.0000000000002 359.9999999999993,300 0,60.0000000000002 z" id="path3229" style="fill:#ff0080;stroke:none"/>
      <path d="m 719.9999999999995,992.3621799999998 -359.9999999999993,-300 359.9999999999993,240 0,60 z" id="path3231" style="fill:#ff00ff;stroke:none"/>
      <path d="m 719.9999999999995,932.3621799999998 -359.9999999999993,-240 359.9999999999993,180 0,60 z" id="path3233" style="fill:#8000ff;stroke:none"/>
      <path d="m 719.9999999999995,872.3621799999998 -359.9999999999993,-180 359.9999999999993,120 0,60 z" id="path3235" style="fill:#0000ff;stroke:none"/>
      <path d="m 719.9999999999995,812.3621799999998 -359.9999999999993,-120 359.9999999999993,60 0,60 z" id="path3237" style="fill:#0080ff;stroke:none"/>
      <path d="m 719.9999999999995,752.3621799999998 -359.9999999999993,-60 359.9999999999993,0 0,60 z" id="path3239" style="fill:#00ffff;stroke:none"/>
      <path d="m 720,1052.362180000001 -360,-360.0000000000003 300,360.0000000000003 60,0 z" id="path3241" style="fill:#ff0000;stroke:none"/>
      <path d="m 660,1052.362180000001 -300,-359.9999999999998 240,359.9999999999998 60,0 z" id="path3243" style="fill:#ff8000;stroke:none"/>
      <path d="m 600,1052.362180000001 -240,-359.9999999999998 180,359.9999999999998 60,0 z" id="path3245" style="fill:#ffff00;stroke:none"/>
      <path d="m 540,1052.362180000001 -180,-359.9999999999998 120,359.9999999999998 60,0 z" id="path3247" style="fill:#80ff00;stroke:none"/>
      <path d="m 480,1052.362180000001 -120,-359.9999999999998 60,359.9999999999998 60,0 z" id="path3249" style="fill:#00ff00;stroke:none"/>
      <path d="m 420,1052.362180000001 -60,-359.9999999999998 0,359.9999999999998 60,0 z" id="path3251" style="fill:#00ff80;stroke:none"/>
      <path d="M 0,1052.362180000001 360,692.3621800000012 60,1052.362180000001 l -60,0 z" id="path3253" style="fill:#ff0080;stroke:none"/>
      <path d="m 60,1052.362180000001 300,-359.9999999999998 -240,359.9999999999998 -60,0 z" id="path3255" style="fill:#ff00ff;stroke:none"/>
      <path d="m 120,1052.362180000001 240,-359.9999999999998 -180,359.9999999999998 -60,0 z" id="path3257" style="fill:#8000ff;stroke:none"/>
      <path d="M 180,1052.36218 360,692.3621800000012 240,1052.36218 l -60,0 z" id="path3259" style="fill:#0000ff;stroke:none"/>
      <path d="M 240,1052.36218 360,692.3621800000012 300,1052.36218 l -60,0 z" id="path3261" style="fill:#0080ff;stroke:none"/>
      <path d="m 300,1052.362180000001 60,-359.9999999999998 0,359.9999999999998 -60,0 z" id="path3263" style="fill:#00ffff;stroke:none"/>
      <path d="M -4.547473508864642e-13,1052.36218 359.9999999999996,692.3621799999998 l -360.000000000000056843418860808,300 0,60.0000000000002 z" id="path3265" style="fill:#ff0000;stroke:none"/>
      <path d="m -3.979039320256561e-13,992.3621799999998 359.9999999999997726263245567679,-300 -359.9999999999997726263245567679,240 0,60 z" id="path3267" style="fill:#ff8000;stroke:none"/>
      <path d="m -3.979039320256561e-13,932.3621799999998 359.9999999999997726263245567679,-240 -359.9999999999997726263245567679,180 0,60 z" id="path3269" style="fill:#ffff00;stroke:none"/>
      <path d="m -1.70530256582424e-13,872.3621799999998 359.9999999999995452526491135358,-180 -359.9999999999996020960679743438,120 0,60 z" id="path3271" style="fill:#80ff00;stroke:none"/>
      <path d="m -1.70530256582424e-13,812.3621799999998 359.9999999999995452526491135358,-120 -359.9999999999996020960679743438,60 0,60 z" id="path3273" style="fill:#00ff00;stroke:none"/>
      <path d="m -3.979039320256561e-13,752.3621799999998 359.9999999999997726263245567679,-60 -359.9999999999997726263245567679,0 0,60 z" id="path3275" style="fill:#00ff80;stroke:none"/>
      <path d="M -1.70530256582424e-13,332.3621800000001 359.9999999999994,692.3621799999998 -2.273736754432321e-13,392.3621800000001 l 0,-60 z" id="path3277" style="fill:#ff0080;stroke:none"/>
      <path d="M -1.70530256582424e-13,392.3621800000001 359.9999999999994,692.3621799999998 -2.273736754432321e-13,452.3621800000001 l 0,-60 z" id="path3279" style="fill:#ff00ff;stroke:none"/>
      <path d="M -1.70530256582424e-13,452.3621800000001 359.9999999999994,692.3621799999998 l -359.9999999999996020960679743438,-180 0,-59.9999999999998 z" id="path3281" style="fill:#8000ff;stroke:none"/>
      <path d="m 0,512.3621799999998 359.9999999999994,180 -359.9999999999994,-120 0,-60 z" id="path3283" style="fill:#0000ff;stroke:none"/>
      <path d="m 0,572.3621799999998 359.9999999999994,120 -359.9999999999994,-60 0,-60 z" id="path3285" style="fill:#0080ff;stroke:none"/>
      <path d="m -1.70530256582424e-13,632.3621799999998 359.9999999999995452526491135358,60 -359.9999999999996020960679743438,0 0,-60 z" id="path3287" style="fill:#00ffff;stroke:none"/>
    </g>
    <g transform="matrix(0.4999999999999998,0,0,0.5,179.9999999999987,346.1810899999989)" id="g3289">
      <path d="m 0,332.36218 360,360 -300,-359.9999999999983 -60,0 z" id="path3291" style="fill:#ff0000;stroke:none"/>
      <path d="m 60,332.3621800000001 300,359.9999999999998 -240,-359.9999999999998 -60,0 z" id="path3293" style="fill:#ff8000;stroke:none"/>
      <path d="m 120,332.3621800000001 240,359.9999999999998 -180,-359.9999999999998 -60,0 z" id="path3295" style="fill:#ffff00;stroke:none"/>
      <path d="m 180,332.3621800000003 180,359.9999999999996 -120,-359.9999999999996 -60,0 z" id="path3297" style="fill:#80ff00;stroke:none"/>
      <path d="m 240,332.3621800000003 120,359.9999999999996 -60,-359.9999999999996 -60,0 z" id="path3299" style="fill:#00ff00;stroke:none"/>
      <path d="m 300,332.3621800000001 60,359.9999999999998 0,-359.9999999999998 -60,0 z" id="path3301" style="fill:#00ff80;stroke:none"/>
      <path d="m 720,332.3621800000003 -360,359.9999999999996 300,-359.9999999999996 60,0 z" id="path3303" style="fill:#ff0080;stroke:none"/>
      <path d="m 660,332.3621800000003 -300,359.9999999999996 240,-359.9999999999996 60,0 z" id="path3305" style="fill:#ff00ff;stroke:none"/>
      <path d="m 600,332.3621800000003 -240,359.9999999999996 180,-359.9999999999996 60,0 z" id="path3307" style="fill:#8000ff;stroke:none"/>
      <path d="m 540,332.3621800000005 -180,359.9999999999994 120,-359.9999999999994 60,0 z" id="path3309" style="fill:#0000ff;stroke:none"/>
      <path d="m 480,332.3621800000005 -120,359.9999999999994 60,-359.9999999999994 60,0 z" id="path3311" style="fill:#0080ff;stroke:none"/>
      <path d="m 420,332.3621800000003 -60,359.9999999999996 0,-359.9999999999996 60,0 z" id="path3313" style="fill:#00ffff;stroke:none"/>
      <path d="m 720,332.3621800000001 -360,359.9999999999998 360,-299.9999999999998 0,-60 z" id="path3315" style="fill:#ff0000;stroke:none"/>
      <path d="M 720,392.3621800000001 360.0000000000002,692.3621799999998 720,452.3621800000001 l 0,-60 z" id="path3317" style="fill:#ff8000;stroke:none"/>
      <path d="M 720,452.3621800000001 360.0000000000002,692.3621799999998 720,512.3621799999998 720,452.3621800000001 z" id="path3319" style="fill:#ffff00;stroke:none"/>
      <path d="m 719.9999999999995,512.3621799999998 -359.9999999999993,180 359.9999999999993,-120 0,-60 z" id="path3321" style="fill:#80ff00;stroke:none"/>
      <path d="m 719.9999999999995,572.3621799999998 -359.9999999999993,120 359.9999999999993,-60 0,-60 z" id="path3323" style="fill:#00ff00;stroke:none"/>
      <path d="m 720,632.3621799999998 -359.9999999999998,60 359.9999999999998,0 0,-60 z" id="path3325" style="fill:#00ff80;stroke:none"/>
      <path d="m 719.9999999999995,1052.36218 -359.9999999999993,-360.0000000000002 359.9999999999993,300 0,60.0000000000002 z" id="path3327" style="fill:#ff0080;stroke:none"/>
      <path d="m 719.9999999999995,992.3621799999998 -359.9999999999993,-300 359.9999999999993,240 0,60 z" id="path3329" style="fill:#ff00ff;stroke:none"/>
      <path d="m 719.9999999999995,932.3621799999998 -359.9999999999993,-240 359.9999999999993,180 0,60 z" id="path3331" style="fill:#8000ff;stroke:none"/>
      <path d="m 719.9999999999995,872.3621799999998 -359.9999999999993,-180 359.9999999999993,120 0,60 z" id="path3333" style="fill:#0000ff;stroke:none"/>
      <path d="m 719.9999999999995,812.3621799999998 -359.9999999999993,-120 359.9999999999993,60 0,60 z" id="path3335" style="fill:#0080ff;stroke:none"/>
      <path d="m 719.9999999999995,752.3621799999998 -359.9999999999993,-60 359.9999999999993,0 0,60 z" id="path3337" style="fill:#00ffff;stroke:none"/>
      <path d="m 720,1052.362180000001 -360,-360.0000000000003 300,360.0000000000003 60,0 z" id="path3339" style="fill:#ff0000;stroke:none"/>
      <path d="m 660,1052.362180000001 -300,-359.9999999999998 240,359.9999999999998 60,0 z" id="path3341" style="fill:#ff8000;stroke:none"/>
      <path d="m 600,1052.362180000001 -240,-359.9999999999998 180,359.9999999999998 60,0 z" id="path3343" style="fill:#ffff00;stroke:none"/>
      <path d="m 540,1052.362180000001 -180,-359.9999999999998 120,359.9999999999998 60,0 z" id="path3345" style="fill:#80ff00;stroke:none"/>
      <path d="m 480,1052.362180000001 -120,-359.9999999999998 60,359.9999999999998 60,0 z" id="path3347" style="fill:#00ff00;stroke:none"/>
      <path d="m 420,1052.362180000001 -60,-359.9999999999998 0,359.9999999999998 60,0 z" id="path3349" style="fill:#00ff80;stroke:none"/>
      <path d="M 0,1052.362180000001 360,692.3621800000012 60,1052.362180000001 l -60,0 z" id="path3351" style="fill:#ff0080;stroke:none"/>
      <path d="m 60,1052.362180000001 300,-359.9999999999998 -240,359.9999999999998 -60,0 z" id="path3353" style="fill:#ff00ff;stroke:none"/>
      <path d="m 120,1052.362180000001 240,-359.9999999999998 -180,359.9999999999998 -60,0 z" id="path3355" style="fill:#8000ff;stroke:none"/>
      <path d="M 180,1052.36218 360,692.3621800000012 240,1052.36218 l -60,0 z" id="path3357" style="fill:#0000ff;stroke:none"/>
      <path d="M 240,1052.36218 360,692.3621800000012 300,1052.36218 l -60,0 z" id="path3359" style="fill:#0080ff;stroke:none"/>
      <path d="m 300,1052.362180000001 60,-359.9999999999998 0,359.9999999999998 -60,0 z" id="path3361" style="fill:#00ffff;stroke:none"/>
      <path d="M -4.547473508864642e-13,1052.36218 359.9999999999996,692.3621799999998 l -360.000000000000056843418860808,300 0,60.0000000000002 z" id="path3363" style="fill:#ff0000;stroke:none"/>
      <path d="m -3.979039320256561e-13,992.3621799999998 359.9999999999997726263245567679,-300 -359.9999999999997726263245567679,240 0,60 z" id="path3365" style="fill:#ff8000;stroke:none"/>
      <path d="m -3.979039320256561e-13,932.3621799999998 359.9999999999997726263245567679,-240 -359.9999999999997726263245567679,180 0,60 z" id="path3367" style="fill:#ffff00;stroke:none"/>
      <path d="m -1.70530256582424e-13,872.3621799999998 359.9999999999995452526491135358,-180 -359.9999999999996020960679743438,120 0,60 z" id="path3369" style="fill:#80ff00;stroke:none"/>
      <path d="m -1.70530256582424e-13,812.3621799999998 359.9999999999995452526491135358,-120 -359.9999999999996020960679743438,60 0,60 z" id="path3371" style="fill:#00ff00;stroke:none"/>
      <path d="m -3.979039320256561e-13,752.3621799999998 359.9999999999997726263245567679,-60 -359.9999999999997726263245567679,0 0,60 z" id="path3373" style="fill:#00ff80;stroke:none"/>
      <path d="M -1.70530256582424e-13,332.3621800000001 359.9999999999994,692.3621799999998 -2.273736754432321e-13,392.3621800000001 l 0,-60 z" id="path3375" style="fill:#ff0080;stroke:none"/>
      <path d="M -1.70530256582424e-13,392.3621800000001 359.9999999999994,692.3621799999998 -2.273736754432321e-13,452.3621800000001 l 0,-60 z" id="path3377" style="fill:#ff00ff;stroke:none"/>
      <path d="M -1.70530256582424e-13,452.3621800000001 359.9999999999994,692.3621799999998 l -359.9999999999996020960679743438,-180 0,-59.9999999999998 z" id="path3379" style="fill:#8000ff;stroke:none"/>
      <path d="m 0,512.3621799999998 359.9999999999994,180 -359.9999999999994,-120 0,-60 z" id="path3381" style="fill:#0000ff;stroke:none"/>
      <path d="m 0,572.3621799999998 359.9999999999994,120 -359.9999999999994,-60 0,-60 z" id="path3383" style="fill:#0080ff;stroke:none"/>
      <path d="m -1.70530256582424e-13,632.3621799999998 359.9999999999995452526491135358,60 -359.9999999999996020960679743438,0 0,-60 z" id="path3385" style="fill:#00ffff;stroke:none"/>
    </g>
    <g transform="matrix(0.3749999999999998,0,0,-0.375,224.9999999999998,951.9979974999987)" id="g3387">
      <path d="m 0,332.36218 360,360 -300,-359.9999999999978 -60,0 z" id="path3389" style="fill:#ff0000;stroke:none"/>
      <path d="m 60,332.3621800000001 300,359.9999999999998 -240,-359.9999999999998 -60,0 z" id="path3391" style="fill:#ff8000;stroke:none"/>
      <path d="m 120,332.3621800000001 240,359.9999999999998 -180,-359.9999999999998 -60,0 z" id="path3393" style="fill:#ffff00;stroke:none"/>
      <path d="m 180,332.3621800000003 180,359.9999999999996 -120,-359.9999999999996 -60,0 z" id="path3395" style="fill:#80ff00;stroke:none"/>
      <path d="m 240,332.3621800000003 120,359.9999999999996 -60,-359.9999999999996 -60,0 z" id="path3397" style="fill:#00ff00;stroke:none"/>
      <path d="m 300,332.3621800000001 60,359.9999999999998 0,-359.9999999999998 -60,0 z" id="path3399" style="fill:#00ff80;stroke:none"/>
      <path d="m 720,332.3621800000003 -360,359.9999999999996 300,-359.9999999999996 60,0 z" id="path3401" style="fill:#ff0080;stroke:none"/>
      <path d="m 660,332.3621800000003 -300,359.9999999999996 240,-359.9999999999996 60,0 z" id="path3403" style="fill:#ff00ff;stroke:none"/>
      <path d="m 600,332.3621800000003 -240,359.9999999999996 180,-359.9999999999996 60,0 z" id="path3405" style="fill:#8000ff;stroke:none"/>
      <path d="m 540,332.3621800000005 -180,359.9999999999994 120,-359.9999999999994 60,0 z" id="path3407" style="fill:#0000ff;stroke:none"/>
      <path d="m 480,332.3621800000005 -120,359.9999999999994 60,-359.9999999999994 60,0 z" id="path3409" style="fill:#0080ff;stroke:none"/>
      <path d="m 420,332.3621800000003 -60,359.9999999999996 0,-359.9999999999996 60,0 z" id="path3411" style="fill:#00ffff;stroke:none"/>
      <path d="m 720,332.3621800000001 -360,359.9999999999998 360,-299.9999999999998 0,-60 z" id="path3413" style="fill:#ff0000;stroke:none"/>
      <path d="M 720,392.3621800000001 360.0000000000002,692.3621799999998 720,452.3621800000001 l 0,-60 z" id="path3415" style="fill:#ff8000;stroke:none"/>
      <path d="M 720,452.3621800000001 360.0000000000002,692.3621799999998 720,512.3621799999998 720,452.3621800000001 z" id="path3417" style="fill:#ffff00;stroke:none"/>
      <path d="m 719.9999999999995,512.3621799999998 -359.9999999999993,180 359.9999999999993,-120 0,-60 z" id="path3419" style="fill:#80ff00;stroke:none"/>
      <path d="m 719.9999999999995,572.3621799999998 -359.9999999999993,120 359.9999999999993,-60 0,-60 z" id="path3421" style="fill:#00ff00;stroke:none"/>
      <path d="m 720,632.3621799999998 -359.9999999999998,60 359.9999999999998,0 0,-60 z" id="path3423" style="fill:#00ff80;stroke:none"/>
      <path d="m 719.9999999999995,1052.36218 -359.9999999999993,-360.0000000000002 359.9999999999993,300 0,60.0000000000002 z" id="path3425" style="fill:#ff0080;stroke:none"/>
      <path d="m 719.9999999999995,992.3621799999998 -359.9999999999993,-300 359.9999999999993,240 0,60 z" id="path3427" style="fill:#ff00ff;stroke:none"/>
      <path d="m 719.9999999999995,932.3621799999998 -359.9999999999993,-240 359.9999999999993,180 0,60 z" id="path3429" style="fill:#8000ff;stroke:none"/>
      <path d="m 719.9999999999995,872.3621799999998 -359.9999999999993,-180 359.9999999999993,120 0,60 z" id="path3431" style="fill:#0000ff;stroke:none"/>
      <path d="m 719.9999999999995,812.3621799999998 -359.9999999999993,-120 359.9999999999993,60 0,60 z" id="path3433" style="fill:#0080ff;stroke:none"/>
      <path d="m 719.9999999999995,752.3621799999998 -359.9999999999993,-60 359.9999999999993,0 0,60 z" id="path3435" style="fill:#00ffff;stroke:none"/>
      <path d="m 720,1052.362180000001 -360,-360.0000000000003 300,360.0000000000003 60,0 z" id="path3437" style="fill:#ff0000;stroke:none"/>
      <path d="m 660,1052.362180000001 -300,-359.9999999999998 240,359.9999999999998 60,0 z" id="path3439" style="fill:#ff8000;stroke:none"/>
      <path d="m 600,1052.362180000001 -240,-359.9999999999998 180,359.9999999999998 60,0 z" id="path3441" style="fill:#ffff00;stroke:none"/>
      <path d="m 540,1052.362180000001 -180,-359.9999999999998 120,359.9999999999998 60,0 z" id="path3443" style="fill:#80ff00;stroke:none"/>
      <path d="m 480,1052.362180000001 -120,-359.9999999999998 60,359.9999999999998 60,0 z" id="path3445" style="fill:#00ff00;stroke:none"/>
      <path d="m 420,1052.362180000001 -60,-359.9999999999998 0,359.9999999999998 60,0 z" id="path3447" style="fill:#00ff80;stroke:none"/>
      <path d="M 0,1052.362180000001 360,692.3621800000012 60,1052.362180000001 l -60,0 z" id="path3449" style="fill:#ff0080;stroke:none"/>
      <path d="m 60,1052.362180000001 300,-359.9999999999998 -240,359.9999999999998 -60,0 z" id="path3451" style="fill:#ff00ff;stroke:none"/>
      <path d="m 120,1052.362180000001 240,-359.9999999999998 -180,359.9999999999998 -60,0 z" id="path3453" style="fill:#8000ff;stroke:none"/>
      <path d="M 180,1052.36218 360,692.3621800000012 240,1052.36218 l -60,0 z" id="path3455" style="fill:#0000ff;stroke:none"/>
      <path d="M 240,1052.36218 360,692.3621800000012 300,1052.36218 l -60,0 z" id="path3457" style="fill:#0080ff;stroke:none"/>
      <path d="m 300,1052.362180000001 60,-359.9999999999998 0,359.9999999999998 -60,0 z" id="path3459" style="fill:#00ffff;stroke:none"/>
      <path d="M -4.547473508864642e-13,1052.36218 359.9999999999996,692.3621799999998 l -360.000000000000056843418860808,300 0,60.0000000000002 z" id="path3461" style="fill:#ff0000;stroke:none"/>
      <path d="m -3.979039320256561e-13,992.3621799999998 359.9999999999997726263245567679,-300 -359.9999999999997726263245567679,240 0,60 z" id="path3463" style="fill:#ff8000;stroke:none"/>
      <path d="m -3.979039320256561e-13,932.3621799999998 359.9999999999997726263245567679,-240 -359.9999999999997726263245567679,180 0,60 z" id="path3465" style="fill:#ffff00;stroke:none"/>
      <path d="m -1.70530256582424e-13,872.3621799999998 359.9999999999995452526491135358,-180 -359.9999999999996020960679743438,120 0,60 z" id="path3467" style="fill:#80ff00;stroke:none"/>
      <path d="m -1.70530256582424e-13,812.3621799999998 359.9999999999995452526491135358,-120 -359.9999999999996020960679743438,60 0,60 z" id="path3469" style="fill:#00ff00;stroke:none"/>
      <path d="m -3.979039320256561e-13,752.3621799999998 359.9999999999997726263245567679,-60 -359.9999999999997726263245567679,0 0,60 z" id="path3471" style="fill:#00ff80;stroke:none"/>
      <path d="M -1.70530256582424e-13,332.3621800000001 359.9999999999994,692.3621799999998 -2.273736754432321e-13,392.3621800000001 l 0,-60 z" id="path3473" style="fill:#ff0080;stroke:none"/>
      <path d="M -1.70530256582424e-13,392.3621800000001 359.9999999999994,692.3621799999998 -2.273736754432321e-13,452.3621800000001 l 0,-60 z" id="path3475" style="fill:#ff00ff;stroke:none"/>
      <path d="M -1.70530256582424e-13,452.3621800000001 359.9999999999994,692.3621799999998 l -359.9999999999996020960679743438,-180 0,-59.9999999999998 z" id="path3477" style="fill:#8000ff;stroke:none"/>
      <path d="m 0,512.3621799999998 359.9999999999994,180 -359.9999999999994,-120 0,-60 z" id="path3479" style="fill:#0000ff;stroke:none"/>
      <path d="m 0,572.3621799999998 359.9999999999994,120 -359.9999999999994,-60 0,-60 z" id="path3481" style="fill:#0080ff;stroke:none"/>
      <path d="m -1.70530256582424e-13,632.3621799999998 359.9999999999995452526491135358,60 -359.9999999999996020960679743438,0 0,-60 z" id="path3483" style="fill:#00ffff;stroke:none"/>
    </g>
    <g transform="matrix(0.2499999999999999,0,0,0.25,270.0000000000001,519.2716350000032)" id="g3485">
      <path d="m 0,332.36218 360,360 -300,-359.9999999999974 -60,0 z" id="path3487" style="fill:#ff0000;stroke:none"/>
      <path d="m 60,332.3621800000001 300,359.9999999999998 -240,-359.9999999999998 -60,0 z" id="path3489" style="fill:#ff8000;stroke:none"/>
      <path d="m 120,332.3621800000001 240,359.9999999999998 -180,-359.9999999999998 -60,0 z" id="path3491" style="fill:#ffff00;stroke:none"/>
      <path d="m 180,332.3621800000003 180,359.9999999999996 -120,-359.9999999999996 -60,0 z" id="path3493" style="fill:#80ff00;stroke:none"/>
      <path d="m 240,332.3621800000003 120,359.9999999999996 -60,-359.9999999999996 -60,0 z" id="path3495" style="fill:#00ff00;stroke:none"/>
      <path d="m 300,332.3621800000001 60,359.9999999999998 0,-359.9999999999998 -60,0 z" id="path3497" style="fill:#00ff80;stroke:none"/>
      <path d="m 720,332.3621800000003 -360,359.9999999999996 300,-359.9999999999996 60,0 z" id="path3499" style="fill:#ff0080;stroke:none"/>
      <path d="m 660,332.3621800000003 -300,359.9999999999996 240,-359.9999999999996 60,0 z" id="path3501" style="fill:#ff00ff;stroke:none"/>
      <path d="m 600,332.3621800000003 -240,359.9999999999996 180,-359.9999999999996 60,0 z" id="path3503" style="fill:#8000ff;stroke:none"/>
      <path d="m 540,332.3621800000005 -180,359.9999999999994 120,-359.9999999999994 60,0 z" id="path3505" style="fill:#0000ff;stroke:none"/>
      <path d="m 480,332.3621800000005 -120,359.9999999999994 60,-359.9999999999994 60,0 z" id="path3507" style="fill:#0080ff;stroke:none"/>
      <path d="m 420,332.3621800000003 -60,359.9999999999996 0,-359.9999999999996 60,0 z" id="path3509" style="fill:#00ffff;stroke:none"/>
      <path d="m 720,332.3621800000001 -360,359.9999999999998 360,-299.9999999999998 0,-60 z" id="path3511" style="fill:#ff0000;stroke:none"/>
      <path d="M 720,392.3621800000001 360.0000000000002,692.3621799999998 720,452.3621800000001 l 0,-60 z" id="path3513" style="fill:#ff8000;stroke:none"/>
      <path d="M 720,452.3621800000001 360.0000000000002,692.3621799999998 720,512.3621799999998 720,452.3621800000001 z" id="path3515" style="fill:#ffff00;stroke:none"/>
      <path d="m 719.9999999999995,512.3621799999998 -359.9999999999993,180 359.9999999999993,-120 0,-60 z" id="path3517" style="fill:#80ff00;stroke:none"/>
      <path d="m 719.9999999999995,572.3621799999998 -359.9999999999993,120 359.9999999999993,-60 0,-60 z" id="path3519" style="fill:#00ff00;stroke:none"/>
      <path d="m 720,632.3621799999998 -359.9999999999998,60 359.9999999999998,0 0,-60 z" id="path3521" style="fill:#00ff80;stroke:none"/>
      <path d="m 719.9999999999995,1052.36218 -359.9999999999993,-360.0000000000002 359.9999999999993,300 0,60.0000000000002 z" id="path3523" style="fill:#ff0080;stroke:none"/>
      <path d="m 719.9999999999995,992.3621799999998 -359.9999999999993,-300 359.9999999999993,240 0,60 z" id="path3525" style="fill:#ff00ff;stroke:none"/>
      <path d="m 719.9999999999995,932.3621799999998 -359.9999999999993,-240 359.9999999999993,180 0,60 z" id="path3527" style="fill:#8000ff;stroke:none"/>
      <path d="m 719.9999999999995,872.3621799999998 -359.9999999999993,-180 359.9999999999993,120 0,60 z" id="path3529" style="fill:#0000ff;stroke:none"/>
      <path d="m 719.9999999999995,812.3621799999998 -359.9999999999993,-120 359.9999999999993,60 0,60 z" id="path3531" style="fill:#0080ff;stroke:none"/>
      <path d="m 719.9999999999995,752.3621799999998 -359.9999999999993,-60 359.9999999999993,0 0,60 z" id="path3533" style="fill:#00ffff;stroke:none"/>
      <path d="m 720,1052.362180000001 -360,-360.0000000000003 300,360.0000000000003 60,0 z" id="path3535" style="fill:#ff0000;stroke:none"/>
      <path d="m 660,1052.362180000001 -300,-359.9999999999998 240,359.9999999999998 60,0 z" id="path3537" style="fill:#ff8000;stroke:none"/>
      <path d="m 600,1052.362180000001 -240,-359.9999999999998 180,359.9999999999998 60,0 z" id="path3539" style="fill:#ffff00;stroke:none"/>
      <path d="m 540,1052.362180000001 -180,-359.9999999999998 120,359.9999999999998 60,0 z" id="path3541" style="fill:#80ff00;stroke:none"/>
      <path d="m 480,1052.362180000001 -120,-359.9999999999998 60,359.9999999999998 60,0 z" id="path3543" style="fill:#00ff00;stroke:none"/>
      <path d="m 420,1052.362180000001 -60,-359.9999999999998 0,359.9999999999998 60,0 z" id="path3545" style="fill:#00ff80;stroke:none"/>
      <path d="M 0,1052.362180000001 360,692.3621800000012 60,1052.362180000001 l -60,0 z" id="path3547" style="fill:#ff0080;stroke:none"/>
      <path d="m 60,1052.362180000001 300,-359.9999999999998 -240,359.9999999999998 -60,0 z" id="path3549" style="fill:#ff00ff;stroke:none"/>
      <path d="m 120,1052.362180000001 240,-359.9999999999998 -180,359.9999999999998 -60,0 z" id="path3551" style="fill:#8000ff;stroke:none"/>
      <path d="M 180,1052.36218 360,692.3621800000012 240,1052.36218 l -60,0 z" id="path3553" style="fill:#0000ff;stroke:none"/>
      <path d="M 240,1052.36218 360,692.3621800000012 300,1052.36218 l -60,0 z" id="path3555" style="fill:#0080ff;stroke:none"/>
      <path d="m 300,1052.362180000001 60,-359.9999999999998 0,359.9999999999998 -60,0 z" id="path3557" style="fill:#00ffff;stroke:none"/>
      <path d="M -4.547473508864642e-13,1052.36218 359.9999999999996,692.3621799999998 l -360.000000000000056843418860808,300 0,60.0000000000002 z" id="path3559" style="fill:#ff0000;stroke:none"/>
      <path d="m -3.979039320256561e-13,992.3621799999998 359.9999999999997726263245567679,-300 -359.9999999999997726263245567679,240 0,60 z" id="path3561" style="fill:#ff8000;stroke:none"/>
      <path d="m -3.979039320256561e-13,932.3621799999998 359.9999999999997726263245567679,-240 -359.9999999999997726263245567679,180 0,60 z" id="path3563" style="fill:#ffff00;stroke:none"/>
      <path d="m -1.70530256582424e-13,872.3621799999998 359.9999999999995452526491135358,-180 -359.9999999999996020960679743438,120 0,60 z" id="path3565" style="fill:#80ff00;stroke:none"/>
      <path d="m -1.70530256582424e-13,812.3621799999998 359.9999999999995452526491135358,-120 -359.9999999999996020960679743438,60 0,60 z" id="path3567" style="fill:#00ff00;stroke:none"/>
      <path d="m -3.979039320256561e-13,752.3621799999998 359.9999999999997726263245567679,-60 -359.9999999999997726263245567679,0 0,60 z" id="path3569" style="fill:#00ff80;stroke:none"/>
      <path d="M -1.70530256582424e-13,332.3621800000001 359.9999999999994,692.3621799999998 -2.273736754432321e-13,392.3621800000001 l 0,-60 z" id="path3571" style="fill:#ff0080;stroke:none"/>
      <path d="M -1.70530256582424e-13,392.3621800000001 359.9999999999994,692.3621799999998 -2.273736754432321e-13,452.3621800000001 l 0,-60 z" id="path3573" style="fill:#ff00ff;stroke:none"/>
      <path d="M -1.70530256582424e-13,452.3621800000001 359.9999999999994,692.3621799999998 l -359.9999999999996020960679743438,-180 0,-59.9999999999998 z" id="path3575" style="fill:#8000ff;stroke:none"/>
      <path d="m 0,512.3621799999998 359.9999999999994,180 -359.9999999999994,-120 0,-60 z" id="path3577" style="fill:#0000ff;stroke:none"/>
      <path d="m 0,572.3621799999998 359.9999999999994,120 -359.9999999999994,-60 0,-60 z" id="path3579" style="fill:#0080ff;stroke:none"/>
      <path d="m -1.70530256582424e-13,632.3621799999998 359.9999999999995452526491135358,60 -359.9999999999996020960679743438,0 0,-60 z" id="path3581" style="fill:#00ffff;stroke:none"/>
    </g>
    <g transform="matrix(0.1249999999999999,0,0,-0.125,314.9999999999997,778.9074524999981)" id="g3583">
      <path d="m 0,332.36218 360,360 -300,-359.999999999997 -60,0 z" id="path3585" style="fill:#ff0000;stroke:none"/>
      <path d="m 60,332.3621800000001 300,359.9999999999998 -240,-359.9999999999998 -60,0 z" id="path3587" style="fill:#ff8000;stroke:none"/>
      <path d="m 120,332.3621800000001 240,359.9999999999998 -180,-359.9999999999998 -60,0 z" id="path3589" style="fill:#ffff00;stroke:none"/>
      <path d="m 180,332.3621800000003 180,359.9999999999996 -120,-359.9999999999996 -60,0 z" id="path3591" style="fill:#80ff00;stroke:none"/>
      <path d="m 240,332.3621800000003 120,359.9999999999996 -60,-359.9999999999996 -60,0 z" id="path3593" style="fill:#00ff00;stroke:none"/>
      <path d="m 300,332.3621800000001 60,359.9999999999998 0,-359.9999999999998 -60,0 z" id="path3595" style="fill:#00ff80;stroke:none"/>
      <path d="m 720,332.3621800000003 -360,359.9999999999996 300,-359.9999999999996 60,0 z" id="path3597" style="fill:#ff0080;stroke:none"/>
      <path d="m 660,332.3621800000003 -300,359.9999999999996 240,-359.9999999999996 60,0 z" id="path3599" style="fill:#ff00ff;stroke:none"/>
      <path d="m 600,332.3621800000003 -240,359.9999999999996 180,-359.9999999999996 60,0 z" id="path3601" style="fill:#8000ff;stroke:none"/>
      <path d="m 540,332.3621800000005 -180,359.9999999999994 120,-359.9999999999994 60,0 z" id="path3603" style="fill:#0000ff;stroke:none"/>
      <path d="m 480,332.3621800000005 -120,359.9999999999994 60,-359.9999999999994 60,0 z" id="path3605" style="fill:#0080ff;stroke:none"/>
      <path d="m 420,332.3621800000003 -60,359.9999999999996 0,-359.9999999999996 60,0 z" id="path3607" style="fill:#00ffff;stroke:none"/>
      <path d="m 720,332.3621800000001 -360,359.9999999999998 360,-299.9999999999998 0,-60 z" id="path3609" style="fill:#ff0000;stroke:none"/>
      <path d="M 720,392.3621800000001 360.0000000000002,692.3621799999998 720,452.3621800000001 l 0,-60 z" id="path3611" style="fill:#ff8000;stroke:none"/>
      <path d="M 720,452.3621800000001 360.0000000000002,692.3621799999998 720,512.3621799999998 720,452.3621800000001 z" id="path3613" style="fill:#ffff00;stroke:none"/>
      <path d="m 719.9999999999995,512.3621799999998 -359.9999999999993,180 359.9999999999993,-120 0,-60 z" id="path3615" style="fill:#80ff00;stroke:none"/>
      <path d="m 719.9999999999995,572.3621799999998 -359.9999999999993,120 359.9999999999993,-60 0,-60 z" id="path3617" style="fill:#00ff00;stroke:none"/>
      <path d="m 720,632.3621799999998 -359.9999999999998,60 359.9999999999998,0 0,-60 z" id="path3619" style="fill:#00ff80;stroke:none"/>
      <path d="m 719.9999999999995,1052.36218 -359.9999999999993,-360.0000000000002 359.9999999999993,300 0,60.0000000000002 z" id="path3621" style="fill:#ff0080;stroke:none"/>
      <path d="m 719.9999999999995,992.3621799999998 -359.9999999999993,-300 359.9999999999993,240 0,60 z" id="path3623" style="fill:#ff00ff;stroke:none"/>
      <path d="m 719.9999999999995,932.3621799999998 -359.9999999999993,-240 359.9999999999993,180 0,60 z" id="path3625" style="fill:#8000ff;stroke:none"/>
      <path d="m 719.9999999999995,872.3621799999998 -359.9999999999993,-180 359.9999999999993,120 0,60 z" id="path3627" style="fill:#0000ff;stroke:none"/>
      <path d="m 719.9999999999995,812.3621799999998 -359.9999999999993,-120 359.9999999999993,60 0,60 z" id="path3629" style="fill:#0080ff;stroke:none"/>
      <path d="m 719.9999999999995,752.3621799999998 -359.9999999999993,-60 359.9999999999993,0 0,60 z" id="path3631" style="fill:#00ffff;stroke:none"/>
      <path d="m 720,1052.362180000001 -360,-360.0000000000003 300,360.0000000000003 60,0 z" id="path3633" style="fill:#ff0000;stroke:none"/>
      <path d="m 660,1052.362180000001 -300,-359.9999999999998 240,359.9999999999998 60,0 z" id="path3635" style="fill:#ff8000;stroke:none"/>
      <path d="m 600,1052.362180000001 -240,-359.9999999999998 180,359.9999999999998 60,0 z" id="path3637" style="fill:#ffff00;stroke:none"/>
      <path d="m 540,1052.362180000001 -180,-359.9999999999998 120,359.9999999999998 60,0 z" id="path3639" style="fill:#80ff00;stroke:none"/>
      <path d="m 480,1052.362180000001 -120,-359.9999999999998 60,359.9999999999998 60,0 z" id="path3641" style="fill:#00ff00;stroke:none"/>
      <path d="m 420,1052.362180000001 -60,-359.9999999999998 0,359.9999999999998 60,0 z" id="path3643" style="fill:#00ff80;stroke:none"/>
      <path d="M 0,1052.362180000001 360,692.3621800000012 60,1052.362180000001 l -60,0 z" id="path3645" style="fill:#ff0080;stroke:none"/>
      <path d="m 60,1052.362180000001 300,-359.9999999999998 -240,359.9999999999998 -60,0 z" id="path3647" style="fill:#ff00ff;stroke:none"/>
      <path d="m 120,1052.362180000001 240,-359.9999999999998 -180,359.9999999999998 -60,0 z" id="path3649" style="fill:#8000ff;stroke:none"/>
      <path d="M 180,1052.36218 360,692.3621800000012 240,1052.36218 l -60,0 z" id="path3651" style="fill:#0000ff;stroke:none"/>
      <path d="M 240,1052.36218 360,692.3621800000012 300,1052.36218 l -60,0 z" id="path3653" style="fill:#0080ff;stroke:none"/>
      <path d="m 300,1052.362180000001 60,-359.9999999999998 0,359.9999999999998 -60,0 z" id="path3655" style="fill:#00ffff;stroke:none"/>
      <path d="M -4.547473508864642e-13,1052.36218 359.9999999999996,692.3621799999998 l -360.000000000000056843418860808,300 0,60.0000000000002 z" id="path3657" style="fill:#ff0000;stroke:none"/>
      <path d="m -3.979039320256561e-13,992.3621799999998 359.9999999999997726263245567679,-300 -359.9999999999997726263245567679,240 0,60 z" id="path3659" style="fill:#ff8000;stroke:none"/>
      <path d="m -3.979039320256561e-13,932.3621799999998 359.9999999999997726263245567679,-240 -359.9999999999997726263245567679,180 0,60 z" id="path3661" style="fill:#ffff00;stroke:none"/>
      <path d="m -1.70530256582424e-13,872.3621799999998 359.9999999999995452526491135358,-180 -359.9999999999996020960679743438,120 0,60 z" id="path3663" style="fill:#80ff00;stroke:none"/>
      <path d="m -1.70530256582424e-13,812.3621799999998 359.9999999999995452526491135358,-120 -359.9999999999996020960679743438,60 0,60 z" id="path3665" style="fill:#00ff00;stroke:none"/>
      <path d="m -3.979039320256561e-13,752.3621799999998 359.9999999999997726263245567679,-60 -359.9999999999997726263245567679,0 0,60 z" id="path3667" style="fill:#00ff80;stroke:none"/>
      <path d="M -1.70530256582424e-13,332.3621800000001 359.9999999999994,692.3621799999998 -2.273736754432321e-13,392.3621800000001 l 0,-60 z" id="path3669" style="fill:#ff0080;stroke:none"/>
      <path d="M -1.70530256582424e-13,392.3621800000001 359.9999999999994,692.3621799999998 -2.273736754432321e-13,452.3621800000001 l 0,-60 z" id="path3671" style="fill:#ff00ff;stroke:none"/>
      <path d="M -1.70530256582424e-13,452.3621800000001 359.9999999999994,692.3621799999998 l -359.9999999999996020960679743438,-180 0,-59.9999999999998 z" id="path3673" style="fill:#8000ff;stroke:none"/>
      <path d="m 0,512.3621799999998 359.9999999999994,180 -359.9999999999994,-120 0,-60 z" id="path3675" style="fill:#0000ff;stroke:none"/>
      <path d="m 0,572.3621799999998 359.9999999999994,120 -359.9999999999994,-60 0,-60 z" id="path3677" style="fill:#0080ff;stroke:none"/>
      <path d="m -1.70530256582424e-13,632.3621799999998 359.9999999999995452526491135358,60 -359.9999999999996020960679743438,0 0,-60 z" id="path3679" style="fill:#00ffff;stroke:none"/>
    </g>
  </g>
  <metadata>
    <rdf:RDF>
      <cc:Work>
        <dc:format>image/svg+xml</dc:format>
        <dc:type rdf:resource="http://purl.org/dc/dcmitype/StillImage"/>
        <cc:license rdf:resource="http://creativecommons.org/licenses/publicdomain/"/>
        <dc:publisher>
          <cc:Agent rdf:about="http://openclipart.org/">
            <dc:title>Open Clip Art Library</dc:title>
          </cc:Agent>
        </dc:publisher>
        <dc:title>12 color rainbow square tunnel</dc:title>
        <dc:date>2011-06-26T04:05:44</dc:date>
        <dc:description>12 color rainbow square tunnel</dc:description>
        <dc:source>http://openclipart.org/detail/147295/12-color-rainbow-square-tunnel-by-10binary</dc:source>
        <dc:creator>
          <cc:Agent>
            <dc:title>10binary</dc:title>
          </cc:Agent>
        </dc:creator>
        <dc:subject>
          <rdf:Bag>
            <rdf:li>12</rdf:li>
            <rdf:li>clip art</rdf:li>
            <rdf:li>clipart</rdf:li>
            <rdf:li>color</rdf:li>
            <rdf:li>rainbow</rdf:li>
            <rdf:li>square</rdf:li>
            <rdf:li>tunnel</rdf:li>
          </rdf:Bag>
        </dc:subject>
      </cc:Work>
      <cc:License rdf:about="http://creativecommons.org/licenses/publicdomain/">
        <cc:permits rdf:resource="http://creativecommons.org/ns#Reproduction"/>
        <cc:permits rdf:resource="http://creativecommons.org/ns#Distribution"/>
        <cc:permits rdf:resource="http://creativecommons.org/ns#DerivativeWorks"/>
      </cc:License>
    </rdf:RDF>
  </metadata>
</svg>