<?xml version="1.0" encoding="UTF-8" standalone="no"?>
<!-- Created with Inkscape (http://www.inkscape.org/) -->
<svg xmlns:dc="http://purl.org/dc/elements/1.1/" xmlns:cc="http://creativecommons.org/ns#" xmlns:rdf="http://www.w3.org/1999/02/22-rdf-syntax-ns#" xmlns:svg="http://www.w3.org/2000/svg" xmlns="http://www.w3.org/2000/svg" version="1.0" width="340" height="340" id="svg2">
  <metadata id="metadata28">
    <rdf:RDF>
      <cc:Work rdf:about="">
        <dc:format>image/svg+xml</dc:format>
        <dc:type rdf:resource="http://purl.org/dc/dcmitype/StillImage"/>
        <dc:title/>
      </cc:Work>
    </rdf:RDF>
  </metadata>
  <defs id="defs4"/>
  <g id="layer1">
    <g transform="translate(340.00005,0)" id="g3590">
      <g transform="matrix(7.0833333,0,0,7.0833333,-3456.6667,-708.33333)" id="g3546" style="stroke:none">
        <path d="m 464,100 c -2.15005,0 -4.23547,0.2814 -6.21875,0.8125 l 2.0625,7.75 C 461.17314,108.20426 462.55793,108 464,108 c 1.44207,0 2.82686,0.20426 4.15625,0.5625 l 2.0625,-7.75 C 468.23547,100.2814 466.15005,100 464,100 z" id="path3548" style="color:#000000;fill:#fefe33;fill-opacity:1;fill-rule:nonzero;stroke:none;stroke-width:0.14117649;marker:none;visibility:visible;display:inline;overflow:visible;enable-background:accumulate"/>
        <path d="m 464,148 c 2.15005,0 4.23547,-0.2814 6.21875,-0.8125 l -2.0625,-7.75 C 466.82686,139.79574 465.44207,140 464,140 c -1.44207,0 -2.82686,-0.20426 -4.15625,-0.5625 l -2.0625,7.75 C 459.76453,147.7186 461.84995,148 464,148 z" id="path3550" style="color:#000000;fill:#800080;fill-opacity:1;fill-rule:nonzero;stroke:none;stroke-width:0.14117649;marker:none;visibility:visible;display:inline;overflow:visible;enable-background:accumulate"/>
        <path d="m 488,124 c 0,-2.15005 -0.2814,-4.23547 -0.8125,-6.21875 l -7.75,2.0625 C 479.79574,121.17314 480,122.55793 480,124 c 0,1.44207 -0.20426,2.82686 -0.5625,4.15625 l 7.75,2.0625 C 487.7186,128.23547 488,126.15005 488,124 z" id="path3552" style="color:#000000;fill:#ff5d00;fill-opacity:1;fill-rule:nonzero;stroke:none;stroke-width:0.14117648;marker:none;visibility:visible;display:inline;overflow:visible;enable-background:accumulate"/>
        <path d="m 440,124 c 0,2.15005 0.2814,4.23547 0.8125,6.21875 l 7.75,-2.0625 C 448.20426,126.82686 448,125.44207 448,124 c 0,-1.44207 0.20426,-2.82686 0.5625,-4.15625 l -7.75,-2.0625 C 440.2814,119.76453 440,121.84995 440,124 z" id="path3554" style="color:#000000;fill:#158466;fill-opacity:1;fill-rule:nonzero;stroke:none;stroke-width:0.14117648;marker:none;visibility:visible;display:inline;overflow:visible;enable-background:accumulate"/>
        <path d="m 476,103.21539 c -1.862,-1.07502 -3.80872,-1.87403 -5.79184,-2.40573 l -2.08883,7.74294 c 1.33041,0.35446 2.6318,0.86996 3.88066,1.591 1.24888,0.72103 2.34602,1.59032 3.31818,2.56526 l 5.66118,-5.68044 C 479.52733,105.57682 477.862,104.29041 476,103.21539 z" id="path3556" style="color:#000000;fill:#ffc00b;fill-opacity:1;fill-rule:nonzero;stroke:none;stroke-width:0.14117648;marker:none;visibility:visible;display:inline;overflow:visible;enable-background:accumulate"/>
        <path d="m 452,144.78461 c 1.862,1.07502 3.80872,1.87404 5.79184,2.40573 l 2.08883,-7.74294 c -1.33041,-0.35446 -2.6318,-0.86996 -3.88066,-1.591 -1.24888,-0.72103 -2.34602,-1.59032 -3.31818,-2.56526 l -5.66118,5.68044 c 1.45202,1.4516 3.11735,2.73801 4.97935,3.81303 z" id="path3558" style="color:#000000;fill:#55308d;fill-opacity:1;fill-rule:nonzero;stroke:none;stroke-width:0.14117648;marker:none;visibility:visible;display:inline;overflow:visible;enable-background:accumulate"/>
        <path d="m 484.78461,136 c 1.07502,-1.862 1.87404,-3.80872 2.40573,-5.79184 l -7.74294,-2.08883 c -0.35446,1.33041 -0.86996,2.6318 -1.591,3.88066 -0.72103,1.24888 -1.59032,2.34602 -2.56526,3.31818 l 5.68044,5.66118 c 1.4516,-1.45202 2.73801,-3.11735 3.81303,-4.97935 z" id="path3560" style="color:#000000;fill:#fe2712;fill-opacity:1;fill-rule:nonzero;stroke:none;stroke-width:0.14117649;marker:none;visibility:visible;display:inline;overflow:visible;enable-background:accumulate"/>
        <path d="m 443.21539,112 c -1.07502,1.862 -1.87404,3.80872 -2.40573,5.79184 l 7.74294,2.08883 c 0.35446,-1.33041 0.86996,-2.6318 1.591,-3.88066 0.72103,-1.24888 1.59032,-2.34602 2.56526,-3.31818 l -5.68044,-5.66118 c -1.4516,1.45202 -2.73801,3.11735 -3.81303,4.97935 z" id="path3562" style="color:#000000;fill:#00a934;fill-opacity:1;fill-rule:nonzero;stroke:none;stroke-width:0.14117649;marker:none;visibility:visible;display:inline;overflow:visible;enable-background:accumulate"/>
        <path d="m 452,103.21539 c -1.862,1.07502 -3.52733,2.36143 -4.97935,3.81303 l 5.66118,5.68044 c 0.97216,-0.97494 2.0693,-1.84423 3.31818,-2.56526 1.24886,-0.72104 2.55025,-1.23654 3.88066,-1.591 l -2.08883,-7.74294 c -1.98312,0.5317 -3.92984,1.33071 -5.79184,2.40573 z" id="path3564" style="color:#000000;fill:#80d41a;fill-opacity:1;fill-rule:nonzero;stroke:none;stroke-width:0.14117648;marker:none;visibility:visible;display:inline;overflow:visible;enable-background:accumulate"/>
        <path d="m 476,144.78461 c 1.862,-1.07502 3.52733,-2.36143 4.97935,-3.81303 l -5.66118,-5.68044 c -0.97216,0.97494 -2.0693,1.84423 -3.31818,2.56526 -1.24886,0.72104 -2.55025,1.23654 -3.88066,1.591 l 2.08883,7.74294 c 1.98312,-0.53169 3.92984,-1.33071 5.79184,-2.40573 z" id="path3566" style="color:#000000;fill:#c4037d;fill-opacity:1;fill-rule:nonzero;stroke:none;stroke-width:0.14117648;marker:none;visibility:visible;display:inline;overflow:visible;enable-background:accumulate"/>
        <path d="m 484.78461,112 c -1.07502,-1.862 -2.36143,-3.52733 -3.81303,-4.97935 l -5.68044,5.66118 c 0.97494,0.97216 1.84423,2.0693 2.56526,3.31818 0.72104,1.24886 1.23654,2.55025 1.591,3.88066 l 7.74294,-2.08883 C 486.65865,115.80872 485.85963,113.862 484.78461,112 z" id="path3568" style="color:#000000;fill:#ff8001;fill-opacity:1;fill-rule:nonzero;stroke:none;stroke-width:0.14117649;marker:none;visibility:visible;display:inline;overflow:visible;enable-background:accumulate"/>
        <path d="m 443.21539,136 c 1.07502,1.862 2.36143,3.52733 3.81303,4.97935 l 5.68044,-5.66118 c -0.97494,-0.97216 -1.84423,-2.0693 -2.56526,-3.31818 -0.72104,-1.24886 -1.23654,-2.55025 -1.591,-3.88066 l -7.74294,2.08883 c 0.53169,1.98312 1.33071,3.92984 2.40573,5.79184 z" id="path3570" style="color:#000000;fill:#0247fe;fill-opacity:1;fill-rule:nonzero;stroke:none;stroke-width:0.14117649;marker:none;visibility:visible;display:inline;overflow:visible;enable-background:accumulate"/>
      </g>
      <g transform="matrix(7.0833333,0,0,7.0833333,-3456.6667,-708.33333)" id="g3572" style="stroke:none">
        <path d="m 450.1436,131.99999 27.7128,0 L 464,140 450.1436,131.99999 z" id="path3574" style="color:#000000;fill:#800080;fill-opacity:1;fill-rule:nonzero;stroke:none;stroke-width:0.14117648;marker:none;visibility:visible;display:inline;overflow:visible;enable-background:accumulate"/>
        <path d="M 464,124 457.0718,120 464,108 470.9282,120 464,124 z" id="path3576" style="color:#000000;fill:#fefe33;fill-opacity:1;fill-rule:nonzero;stroke:none;stroke-width:0.14117648;marker:none;visibility:visible;display:inline;overflow:visible;enable-background:accumulate"/>
        <path d="m 464,108.00001 -13.8564,23.99998 0,-15.99998 13.8564,-8 z" id="path3578" style="color:#000000;fill:#00a934;fill-opacity:1;fill-rule:nonzero;stroke:none;stroke-width:0.14117648;marker:none;visibility:visible;display:inline;overflow:visible;enable-background:accumulate"/>
        <path d="m 464,124 6.9282,-4 6.9282,11.99999 -13.8564,0 L 464,124 z" id="path3580" style="color:#000000;fill:#fe2712;fill-opacity:1;fill-rule:nonzero;stroke:none;stroke-width:0.14117648;marker:none;visibility:visible;display:inline;overflow:visible;enable-background:accumulate"/>
        <path d="M 477.85639,131.99999 464,108.00001 l 13.8564,8 -1e-5,15.99998 z" id="path3582" style="color:#000000;fill:#ff8001;fill-opacity:1;fill-rule:nonzero;stroke:none;stroke-width:0.14117648;marker:none;visibility:visible;display:inline;overflow:visible;enable-background:accumulate"/>
        <path d="m 464,124 0,7.99999 -13.8564,0 L 457.0718,120 464,124 z" id="path3584" style="color:#000000;fill:#0247fe;fill-opacity:1;fill-rule:nonzero;stroke:none;stroke-width:0.14117648;marker:none;visibility:visible;display:inline;overflow:visible;enable-background:accumulate"/>
      </g>
    </g>
  </g>
</svg>