<?xml version="1.0" encoding="UTF-8"?>
<svg xmlns="http://www.w3.org/2000/svg" xmlns:xlink="http://www.w3.org/1999/xlink" width="283.464567pt" height="283.464567pt" viewBox="0 0 283.464567 283.464567" version="1.1">
<g style="stroke:rgb(0%,0%,0%);stroke-opacity:1;stroke-miterlimit:10;stroke-linecap:butt;stroke-linejoin:miter;fill:none;fill-rule:nonzero;fill-opacity:1;stroke-width:30;" transform="matrix(0.035,0,0,0.035,0,0)">
<path style="fill:rgb(82%,0%,0%);" d="M 2174 2967 l 5 -11 l 4 -10 l 6 -11 l 6 -12 l 7 -12 l 8 -13 l 9 -12 l 8 -13 l 9 -12 l 10 -13 l 8 -9 l 8 -10 l 8 -11 l 10 -11 l 9 -12 l 10 -12 l 10 -13 l 10 -14 l 10 -13 l 9 -13 l 9 -12 l 8 -13 l 7 -12 l 7 -12 l 5 -12 l 6 -12 l 5 -13 l 5 -13 l 4 -14 l 5 -14 l 4 -15 l 3 -15 l 4 -15 l 4 -15 l 3 -15 l 3 -15 l 3 -15 l 4 -14 l 3 -15 l 4 -16 l 5 -17 l 4 -17 l 5 -18 l 4 -18 l 5 -18 l 4 -18 l 5 -18 l 4 -16 l 3 -16 l 3 -15 l 3 -13 l 2 -13 l 2 -16 l 2 -16 l 0 -44 l -2 -13 l -1 -12 l -2 -12 l -2 -11 l -2 -10 l -2 -9 l -2 -9 l -2 -10 l -2 -11 l -2 -12 l -3 -12 l -2 -13 l -3 -14 l -2 -13 l -3 -14 l -3 -15 l -2 -15 l -3 -13 l -3 -15 l -3 -15 l -2 -16 l -4 -18 l -6 -36 l -3 -18 l -3 -18 l -2 -18 l -3 -17 l -2 -16 l -2 -15 l -1 -14 l -2 -16 l -1 -15 l -1 -16 l -1 -15 l 0 -16 l 1 -15 l 1 -15 l 2 -28 l 2 -13 l 3 -13 l 3 -13 l 3 -12 l 3 -14 l 4 -13 l 4 -15 l 5 -14 l 5 -14 l 4 -14 l 5 -13 l 4 -12 l 4 -11 l 4 -10 l 3 -9 l 3 -9 l 6 -16 l 4 -9 l 4 -8 l 6 -9 l 6 -10 l 7 -10 l 9 -11 l 10 -13 l 8 -9 l 8 -10 l 9 -11 l 10 -12 l 12 -13 l 12 -15 l 13 -14 l 14 -16 l 14 -16 l 15 -16 l 15 -15 l 14 -16 l 15 -15 l 14 -15 l 54 -54 l 14 -12 l 13 -13 l 14 -12 l 15 -13 l 15 -13 l 15 -13 l 15 -13 l 15 -13 l 15 -12 l 15 -13 l 15 -11 l 15 -11 l 14 -11 l 13 -10 l 13 -10 l 14 -9 l 14 -11 l 16 -10 l 15 -11 l 16 -10 l 16 -11 l 16 -10 l 17 -11 l 16 -10 l 17 -10 l 15 -9 l 16 -9 l 15 -9 l 14 -8 l 13 -7 l 13 -7 l 12 -6 l 15 -9 l 16 -7 l 15 -8 l 16 -7 l 15 -6 l 15 -6 l 14 -5 l 14 -4 l 12 -3 l 12 -2 l 11 -1 l 10 0 l 9 1 l 9 1 l 10 3 l 8 3 l 9 4 l 7 4 l 7 5 l 5 6 l 5 6 l 3 5 l 2 12 l -1 6 l -2 7 l -5 8 l -6 8 l -7 9 l -8 9 l -10 9 l -9 9 l -10 8 l -9 10 l -9 7 l -8 9 l -9 9 l -10 10 l -10 10 l -10 11 l -10 11 l -10 11 l -10 11 l -9 11 l -9 10 l -9 11 l -9 10 l -9 11 l -9 12 l -9 12 l -10 12 l -9 12 l -9 12 l -9 12 l -8 11 l -8 10 l -7 10 l -6 9 l -8 11 l -7 10 l -7 10 l -6 10 l -7 10 l -5 10 l -5 9 l -5 9 l -3 8 l -3 8 l -4 10 l -3 11 l -2 11 l -2 13 l -1 12 l -1 12 l -1 12 l 0 23 l 1 13 l 0 13 l 2 14 l 1 13 l 2 13 l 2 11 l 3 11 l 3 9 l 4 10 l 4 8 l 5 9 l 6 7 l 6 6 l 7 5 l 7 4 l 7 2 l 9 2 l 10 1 l 11 -1 l 12 -2 l 13 -2 l 13 -4 l 14 -5 l 10 -4 l 10 -4 l 12 -5 l 12 -5 l 13 -6 l 14 -6 l 15 -7 l 14 -6 l 15 -6 l 15 -6 l 14 -6 l 15 -5 l 12 -5 l 13 -5 l 14 -4 l 15 -5 l 15 -4 l 16 -5 l 17 -4 l 16 -4 l 17 -4 l 17 -3 l 16 -4 l 16 -3 l 16 -2 l 15 -2 l 16 -3 l 16 -2 l 17 -1 l 17 -2 l 19 -2 l 57 -3 l 20 0 l 19 -1 l 19 0 l 18 1 l 18 0 l 17 1 l 15 0 l 16 1 l 17 1 l 17 2 l 18 1 l 18 3 l 20 2 l 20 3 l 20 3 l 63 12 l 42 10 l 21 6 l 21 6 l 36 10 l 19 6 l 19 6 l 42 14 l 21 7 l 22 8 l 22 9 l 22 8 l 44 18 l 21 8 l 21 9 l 19 9 l 19 8 l 18 9 l 17 8 l 16 8 l 15 8 l 20 11 l 20 12 l 18 12 l 18 12 l 17 12 l 17 12 l 15 13 l 14 12 l 13 11 l 12 11 l 11 10 l 9 10 l 9 9 l 8 8 l 10 11 l 10 11 l 10 10 l 10 9 l 10 9 l 9 8 l 10 7 l 9 5 l 9 4 l 10 4 l 8 2 l 9 1 l 11 1 l 11 0 l 12 -1 l 13 -2 l 14 -2 l 14 -3 l 15 -4 l 15 -4 l 15 -5 l 15 -6 l 14 -5 l 15 -6 l 15 -7 l 16 -7 l 17 -8 l 17 -9 l 16 -8 l 17 -9 l 16 -9 l 15 -9 l 14 -8 l 12 -8 l 11 -8 l 10 -7 l 10 -8 l 9 -8 l 8 -9 l 6 -8 l 6 -9 l 8 -20 l 2 -11 l 2 -11 l 1 -11 l 1 -12 l 0 -12 l 1 -12 l 0 -13 l -1 -14 l 0 -15 l -1 -17 l -1 -17 l -1 -18 l -2 -18 l -2 -19 l -6 -36 l -4 -17 l -4 -17 l -4 -16 l -5 -16 l -6 -16 l -7 -17 l -7 -16 l -7 -17 l -8 -17 l -9 -16 l -8 -17 l -9 -15 l -8 -14 l -7 -14 l -8 -12 l -6 -12 l -6 -10 l -8 -14 l -7 -14 l -7 -12 l -5 -12 l -5 -12 l -3 -10 l -2 -9 l -1 -9 l 1 -7 l 1 -6 l 3 -6 l 4 -5 l 6 -6 l 6 -5 l 8 -4 l 9 -4 l 9 -3 l 10 -3 l 10 -1 l 10 -1 l 11 -1 l 11 0 l 13 1 l 13 2 l 14 3 l 14 4 l 14 4 l 13 5 l 14 6 l 12 6 l 9 5 l 10 5 l 9 7 l 11 7 l 10 8 l 11 9 l 12 9 l 12 11 l 12 11 l 12 12 l 12 12 l 12 12 l 12 14 l 12 14 l 10 11 l 10 12 l 11 13 l 11 13 l 12 15 l 12 15 l 12 16 l 13 16 l 12 17 l 13 17 l 12 17 l 12 17 l 11 17 l 11 16 l 10 16 l 9 15 l 10 15 l 8 15 l 9 16 l 9 16 l 8 16 l 8 17 l 8 17 l 7 17 l 7 18 l 7 17 l 6 17 l 6 17 l 6 17 l 5 16 l 4 16 l 5 15 l 4 14 l 3 15 l 4 14 l 3 15 l 4 15 l 3 15 l 3 16 l 4 17 l 2 17 l 3 17 l 2 17 l 2 17 l 2 16 l 1 17 l 1 15 l 0 31 l -1 15 l -1 15 l -1 15 l -2 15 l -2 16 l -3 17 l -4 18 l -4 17 l -5 19 l -6 18 l -6 18 l -7 19 l -7 18 l -8 18 l -16 34 l -9 18 l -9 15 l -9 16 l -10 17 l -10 17 l -11 18 l -12 18 l -13 19 l -14 18 l -13 19 l -15 19 l -14 19 l -15 18 l -14 18 l -15 17 l -14 16 l -15 16 l -14 15 l -14 15 l -14 14 l -15 14 l -15 13 l -15 14 l -16 14 l -17 14 l -16 14 l -17 13 l -17 13 l -16 13 l -16 13 l -16 11 l -15 12 l -15 10 l -14 10 l -13 9 l -12 9 l -12 9 l -17 12 l -17 11 l -16 12 l -15 10 l -15 11 l -14 9 l -13 9 l -11 8 l -10 6 l -8 6 l -7 4 l -5 3 l -4 2 l -6 4 l -2 1 l -1 2 l -1 1 l -1 3 l 0 6 l 1 5 l 0 5 l 1 6 l 1 8 l 0 9 l 1 9 l 0 67 l -1 18 l 0 18 l -1 20 l -2 19 l -1 20 l -2 19 l -1 20 l -2 19 l -3 18 l -2 19 l -3 18 l -3 19 l -3 19 l -4 19 l -4 20 l -5 20 l -5 20 l -6 21 l -5 20 l -6 20 l -7 19 l -6 19 l -6 18 l -7 17 l -7 16 l -6 16 l -8 16 l -7 15 l -8 16 l -9 16 l -9 17 l -10 16 l -10 17 l -11 17 l -11 17 l -11 16 l -12 16 l -11 15 l -12 15 l -12 15 l -12 14 l -11 14 l -13 14 l -13 14 l -13 14 l -14 15 l -15 15 l -14 15 l -16 15 l -15 16 l -15 15 l -14 15 l -40 40 l -11 12 l -11 11 l -9 11 l -12 13 l -11 13 l -11 13 l -9 13 l -9 13 l -8 12 l -7 12 l -6 11 l -5 11 l -8 20 l -3 9 l -4 11 l -3 11 l -2 12 l -3 12 l -2 13 l -2 13 l -1 12 l 0 46 l 1 12 l 2 12 l 2 13 l 3 13 l 3 14 l 3 13 l 4 12 l 4 11 l 5 12 l 5 11 l 5 11 l 7 12 l 6 13 l 8 13 l 7 12 l 7 13 l 7 12 l 7 11 l 6 11 l 6 12 l 6 11 l 6 13 l 6 13 l 6 14 l 6 14 l 5 14 l 5 14 l 5 14 l 4 14 l 3 10 l 3 11 l 3 11 l 3 12 l 2 13 l 3 13 l 3 15 l 3 14 l 2 16 l 2 15 l 2 16 l 2 15 l 2 16 l 2 17 l 1 14 l 1 16 l 1 16 l 1 17 l 1 18 l 1 18 l 1 19 l 0 19 l 1 19 l 0 37 l 1 17 l 0 16 l -1 16 l 0 29 l -1 17 l 0 17 l -1 17 l -2 16 l -1 16 l -2 16 l -2 15 l -3 13 l -2 13 l -3 12 l -3 11 l -2 11 l -4 12 l -5 13 l -4 13 l -5 13 l -5 14 l -5 13 l -5 13 l -4 12 l -3 12 l -3 11 l -2 9 l -1 9 l -1 10 l -1 11 l 0 12 l 1 12 l 2 13 l 2 14 l 2 15 l 4 15 l 4 16 l 4 17 l 4 13 l 4 15 l 5 15 l 5 17 l 6 18 l 7 19 l 7 19 l 7 21 l 8 21 l 8 20 l 9 21 l 8 21 l 9 19 l 9 20 l 9 19 l 9 18 l 8 16 l 8 17 l 9 16 l 9 17 l 10 18 l 11 17 l 11 18 l 11 17 l 11 18 l 12 17 l 13 17 l 12 17 l 12 16 l 12 15 l 13 15 l 12 14 l 12 14 l 12 13 l 26 26 l 14 13 l 14 12 l 15 13 l 15 14 l 16 13 l 17 13 l 17 13 l 17 12 l 18 13 l 17 12 l 17 11 l 17 11 l 17 10 l 17 11 l 16 9 l 16 10 l 17 9 l 17 9 l 17 9 l 18 9 l 19 10 l 19 9 l 20 9 l 21 10 l 21 9 l 42 18 l 21 8 l 21 8 l 20 8 l 20 7 l 40 14 l 19 6 l 36 12 l 19 5 l 19 6 l 20 5 l 21 6 l 21 5 l 22 6 l 22 6 l 23 5 l 22 6 l 46 10 l 22 6 l 23 5 l 21 4 l 22 5 l 21 5 l 21 4 l 21 5 l 21 4 l 21 5 l 22 4 l 22 5 l 23 5 l 23 5 l 24 5 l 25 5 l 24 5 l 24 5 l 25 5 l 24 5 l 46 10 l 22 5 l 21 5 l 20 4 l 20 5 l 19 4 l 18 4 l 22 5 l 21 5 l 22 6 l 22 5 l 21 5 l 22 6 l 21 5 l 21 6 l 20 5 l 19 6 l 19 5 l 17 5 l 17 5 l 15 5 l 15 5 l 14 4 l 32 10 l 15 6 l 16 5 l 16 6 l 16 6 l 16 7 l 15 6 l 15 6 l 15 7 l 13 6 l 13 7 l 13 6 l 12 7 l 12 6 l 12 8 l 13 7 l 12 8 l 13 9 l 13 9 l 13 9 l 12 10 l 12 10 l 11 9 l 10 10 l 10 9 l 9 9 l 8 9 l 9 11 l 8 11 l 8 12 l 8 12 l 7 13 l 7 13 l 6 13 l 5 13 l 5 13 l 3 11 l 4 12 l 3 11 l 2 13 l 2 13 l 2 14 l 1 15 l -1 14 l -1 15 l -3 14 l -4 14 l -5 13 l -6 12 l -6 11 l -7 10 l -8 12 l -9 11 l -10 12 l -11 12 l -12 11 l -12 11 l -11 10 l -12 10 l -11 9 l -11 8 l -9 7 l -10 7 l -10 6 l -11 7 l -11 6 l -13 6 l -13 7 l -13 6 l -15 5 l -15 6 l -15 5 l -16 5 l -17 5 l -17 5 l -16 4 l -18 5 l -18 4 l -20 5 l -20 4 l -22 5 l -22 4 l -22 5 l -21 4 l -22 5 l -20 4 l -19 3 l -18 4 l -16 3 l -15 3 l -13 2 l -16 3 l -14 3 l -12 2 l -10 3 l -9 2 l -8 2 l -5 3 l -4 2 l -3 3 l -2 3 l 0 6 l 1 8 l 2 11 l 3 12 l 3 12 l 2 11 l 0 9 l -2 4 l -2 3 l -3 4 l -6 2 l -7 2 l -9 2 l -11 2 l -14 1 l -15 0 l -17 1 l -10 0 l -12 1 l -41 0 l -17 1 l -36 0 l -20 1 l -20 0 l -21 1 l -43 0 l -22 1 l -22 0 l -23 1 l -22 0 l -22 1 l -21 1 l -22 0 l -22 1 l -23 1 l -24 0 l -24 1 l -26 1 l -25 1 l -27 1 l -78 3 l -50 2 l -46 2 l -22 1 l -21 1 l -20 1 l -19 1 l -46 2 l -22 2 l -21 1 l -22 1 l -21 1 l -20 2 l -19 1 l -18 1 l -18 1 l -16 1 l -14 0 l -13 1 l -12 0 l -11 1 l -37 0 l -11 -1 l -10 -1 l -9 -1 l -7 -2 l -4 -2 l -4 -2 l -1 -2 l -1 -3 l 0 -2 l 2 -3 l 3 -4 l 5 -4 l 7 -6 l 9 -6 l 12 -8 l 15 -9 l 17 -11 l 20 -12 l 23 -13 l 26 -14 l 15 -9 l 17 -9 l 18 -10 l 19 -11 l 20 -11 l 22 -12 l 23 -12 l 23 -13 l 25 -14 l 25 -13 l 26 -15 l 25 -14 l 26 -14 l 25 -14 l 25 -13 l 25 -14 l 23 -13 l 23 -12 l 21 -12 l 21 -11 l 19 -11 l 19 -10 l 24 -14 l 24 -13 l 22 -13 l 21 -12 l 21 -12 l 20 -12 l 19 -11 l 17 -10 l 17 -10 l 15 -9 l 14 -9 l 13 -8 l 11 -7 l 11 -7 l 9 -6 l 9 -5 l 12 -9 l 12 -8 l 12 -8 l 10 -8 l 10 -6 l 10 -6 l 8 -4 l 7 -3 l 6 -2 l 11 0 l 5 1 l 5 3 l 5 4 l 5 4 l 15 18 l 4 6 l 5 7 l 5 8 l 6 9 l 6 10 l 6 10 l 6 10 l 6 11 l 5 9 l 5 10 l 4 9 l 4 10 l 5 10 l 4 10 l 4 10 l 4 9 l 4 8 l 3 8 l 3 6 l 4 6 l 4 5 l 5 5 l 6 5 l 7 5 l 7 3 l 9 3 l 9 2 l 11 1 l 20 0 l 12 -1 l 14 -1 l 14 -2 l 15 -2 l 16 -2 l 16 -3 l 15 -3 l 15 -4 l 14 -3 l 13 -3 l 14 -4 l 13 -4 l 13 -4 l 14 -4 l 14 -5 l 13 -5 l 14 -5 l 12 -5 l 13 -5 l 11 -5 l 11 -5 l 11 -5 l 12 -7 l 12 -6 l 13 -8 l 12 -7 l 12 -8 l 12 -9 l 10 -8 l 9 -8 l 7 -7 l 6 -7 l 4 -6 l 3 -6 l 3 -7 l 2 -7 l 1 -6 l 0 -8 l -1 -7 l -2 -7 l -2 -7 l -3 -7 l -4 -7 l -10 -14 l -6 -8 l -7 -8 l -9 -8 l -9 -9 l -10 -9 l -11 -9 l -12 -8 l -11 -9 l -12 -8 l -13 -7 l -12 -7 l -20 -10 l -11 -5 l -11 -5 l -13 -6 l -14 -5 l -15 -5 l -16 -5 l -16 -5 l -36 -10 l -19 -4 l -19 -5 l -20 -4 l -20 -4 l -21 -4 l -18 -3 l -19 -3 l -20 -4 l -21 -3 l -23 -3 l -23 -4 l -24 -3 l -25 -4 l -26 -4 l -27 -3 l -27 -4 l -26 -4 l -27 -3 l -26 -4 l -26 -3 l -25 -4 l -24 -3 l -24 -4 l -23 -3 l -22 -3 l -23 -4 l -22 -3 l -44 -8 l -23 -3 l -23 -4 l -23 -4 l -23 -4 l -23 -5 l -22 -4 l -23 -4 l -22 -4 l -21 -4 l -21 -5 l -20 -4 l -19 -4 l -18 -3 l -17 -4 l -17 -4 l -17 -3 l -20 -5 l -21 -5 l -20 -4 l -20 -5 l -21 -5 l -21 -6 l -42 -10 l -21 -6 l -20 -5 l -19 -5 l -19 -6 l -18 -5 l -17 -5 l -17 -4 l -32 -10 l -17 -5 l -16 -5 l -17 -6 l -18 -5 l -17 -6 l -18 -6 l -17 -6 l -18 -6 l -17 -6 l -16 -5 l -16 -6 l -15 -5 l -14 -5 l -14 -5 l -13 -5 l -14 -5 l -15 -6 l -14 -5 l -15 -6 l -15 -6 l -15 -6 l -14 -6 l -15 -6 l -13 -6 l -14 -6 l -12 -6 l -12 -6 l -11 -6 l -11 -6 l -13 -8 l -13 -7 l -13 -8 l -26 -18 l -14 -9 l -13 -9 l -13 -9 l -12 -9 l -12 -8 l -11 -8 l -11 -7 l -10 -8 l -11 -7 l -11 -8 l -11 -8 l -12 -8 l -11 -8 l -12 -9 l -11 -8 l -10 -8 l -11 -8 l -9 -8 l -10 -8 l -11 -10 l -11 -10 l -12 -11 l -12 -11 l -11 -12 l -12 -10 l -11 -10 l -10 -8 l -9 -7 l -8 -5 l -7 -4 l -6 -3 l -8 -1 l -9 -1 l -10 2 l -12 2 l -15 4 l -17 5 l -19 7 l -21 9 l -24 9 l -27 11 l -15 6 l -16 7 l -17 7 l -19 7 l -19 7 l -21 8 l -22 8 l -24 8 l -24 8 l -26 8 l -26 8 l -27 8 l -27 7 l -28 7 l -28 6 l -29 5 l -28 5 l -28 4 l -27 4 l -27 2 l -27 2 l -53 0 l -26 -1 l -26 -3 l -26 -3 l -26 -4 l -26 -6 l -27 -6 l -27 -7 l -27 -8 l -27 -9 l -28 -10 l -27 -10 l -27 -11 l -52 -22 l -25 -12 l -24 -12 l -23 -11 l -21 -12 l -21 -11 l -20 -11 l -18 -11 l -17 -10 l -15 -9 l -15 -9 l -13 -9 l -21 -13 l -19 -13 l -16 -11 l -15 -11 l -13 -10 l -11 -10 l -9 -9 l -9 -8 l -7 -8 l -6 -8 l -5 -8 l -5 -7 l -10 -16 l -5 -9 l -6 -10 l -7 -11 l -7 -12 l -8 -12 l -8 -13 l -9 -14 l -9 -14 l -8 -14 l -8 -14 l -8 -13 l -8 -13 l -7 -12 l -6 -11 l -8 -14 l -7 -13 l -6 -13 l -7 -14 l -6 -14 l -5 -13 l -6 -14 l -4 -13 l -4 -12 l -4 -12 l -3 -12 l -2 -11 l -2 -11 l -2 -12 l -2 -12 l -1 -13 l -1 -13 l -1 -13 l -1 -13 l 0 -37 l 1 -11 l 0 -10 l 1 -13 l 2 -13 l 1 -12 l 2 -14 l 2 -13 l 3 -13 l 3 -12 l 3 -11 l 3 -11 l 3 -10 l 5 -13 l 5 -12 l 5 -13 l 6 -13 l 6 -12 l 5 -11 l 5 -9 l 4 -8 l 4 -10 l 4 -9 l 2 -7 l 1 -8 l 1 -6 l -1 -5 l -2 -5 l -3 -6 l -5 -7 l -5 -7 l -7 -7 l -7 -8 l -7 -7 l -7 -8 l -8 -9 l -9 -9 l -8 -10 l -7 -10 l -7 -10 l -6 -9 l -4 -10 l -4 -10 l -3 -11 l -3 -11 l -1 -10 l -1 -10 l 0 -9 l 1 -8 l 0 -7 l 2 -7 l 1 -7 l 1 -6 l 0 -6 l -1 -5 l -2 -4 l -3 -2 l -6 -3 l -10 -3 l -11 -1 l -13 -2 l -12 -1 l -11 -1 l -9 -2 l -9 -2 l -9 -3 l -14 -8 l -5 -4 l -5 -5 l -6 -6 l -5 -6 l -6 -6 l -6 -6 l -7 -4 l -4 -3 l -4 -3 l -6 -4 l -7 -5 l -8 -7 l -10 -9 l -11 -11 l -13 -14 l -14 -16 l -15 -20 l -10 -12 l -10 -14 l -11 -15 l -12 -16 l -12 -17 l -12 -19 l -13 -20 l -13 -20 l -12 -20 l -13 -21 l -11 -21 l -11 -21 l -10 -19 l -9 -19 l -8 -18 l -6 -17 l -5 -16 l -4 -15 l -2 -13 l -1 -12 l 0 -12 l 1 -11 l 2 -11 l 3 -10 l 4 -10 l 5 -9 l 6 -9 l 7 -9 l 8 -8 l 8 -7 l 9 -7 l 10 -6 l 10 -5 l 10 -6 l 11 -4 l 10 -4 l 11 -4 l 11 -4 l 15 -4 l 15 -4 l 15 -3 l 17 -3 l 17 -3 l 36 -6 l 19 -2 l 19 -2 l 19 -1 l 19 -2 l 18 -1 l 17 0 l 17 -1 l 32 0 l 17 1 l 18 0 l 54 3 l 19 2 l 18 2 l 17 1 l 17 2 l 16 2 l 15 2 l 14 2 l 13 2 l 13 2 l 32 4 l 15 3 l 16 1 l 15 2 l 27 0 l 11 -1 l 11 -2 l 9 -3 l 9 -4 l 9 -5 l 9 -7 l 9 -7 l 8 -9 l 7 -9 l 7 -10 l 6 -9 l 5 -10 l 5 -9 l 3 -10 l 4 -10 l 3 -10 l 2 -11 l 2 -11 l 1 -11 l 0 -31 l -1 -9 l -2 -12 l -4 -12 l -4 -12 l -5 -12 l -6 -12 l -7 -10 l -7 -10 l -15 -15 l -10 -6 l -10 -6 l -11 -6 l -12 -6 l -12 -5 l -11 -5 l -10 -5 l -9 -4 l -9 -4 l -10 -5 l -10 -5 l -10 -5 l -10 -6 l -10 -6 l -10 -7 l -10 -6 l -9 -6 l -9 -7 l -10 -8 l -10 -8 l -12 -9 l -11 -9 l -12 -9 l -12 -9 l -12 -9 l -11 -9 l -12 -8 l -10 -7 l -10 -6 l -11 -7 l -11 -7 l -12 -8 l -12 -7 l -12 -7 l -12 -7 l -12 -7 l -10 -6 l -10 -7 l -10 -5 l -11 -8 l -11 -7 l -12 -7 l -11 -7 l -12 -8 l -12 -7 l -12 -7 l -11 -6 l -11 -5 l -11 -5 l -9 -4 l -10 -4 l -11 -4 l -11 -4 l -12 -4 l -12 -4 l -12 -4 l -13 -5 l -12 -4 l -12 -5 l -12 -4 l -11 -5 l -12 -5 l -12 -6 l -12 -7 l -13 -7 l -13 -8 l -14 -8 l -13 -9 l -13 -9 l -13 -10 l -12 -9 l -11 -9 l -10 -10 l -11 -10 l -10 -10 l -10 -11 l -11 -12 l -10 -12 l -10 -12 l -10 -13 l -9 -12 l -9 -11 l -8 -11 l -7 -10 l -6 -9 l -8 -11 l -7 -11 l -7 -11 l -7 -11 l -7 -12 l -6 -11 l -5 -11 l -6 -11 l -4 -10 l -4 -11 l -4 -11 l -4 -12 l -4 -13 l -4 -13 l -6 -28 l -3 -14 l -3 -12 l -1 -12 l -2 -11 l -1 -11 l -1 -11 l -1 -10 l 0 -34 l 1 -10 l 1 -11 l 2 -9 l 1 -10 l 2 -10 l 2 -11 l 3 -12 l 3 -12 l 3 -12 l 4 -13 l 4 -12 l 4 -12 l 4 -11 Z" />
<path style="fill:rgb(0%,69%,0%);" d="M 2420 6449 l 12 -1 l 12 0 l 13 -1 l 14 -1 l 13 0 l 14 -1 l 50 0 l 12 -1 l 109 0 l 10 -1 l 21 0 l 11 -1 l 11 -1 l 11 -1 l 10 -1 l 9 -2 l 9 -2 l 9 -2 l 10 -4 l 10 -5 l 11 -5 l 11 -6 l 10 -6 l 11 -6 l 10 -5 l 11 -5 l 10 -5 l 11 -4 l 12 -5 l 13 -5 l 13 -4 l 12 -4 l 11 -4 l 11 -4 l 10 -4 l 10 -4 l 10 -4 l 10 -5 l 10 -4 l 9 -5 l 7 -4 l 8 -3 l 8 -5 l 8 -6 l 8 -6 l 6 -6 l 5 -8 l 4 -7 l 1 -7 l 1 -8 l 0 -19 l -1 -10 l -2 -9 l -2 -9 l -2 -8 l -3 -8 l -3 -9 l -3 -8 l -4 -9 l -4 -8 l -4 -9 l -4 -8 l -3 -8 l -4 -9 l -4 -10 l -4 -10 l -4 -11 l -3 -12 l -4 -10 l -3 -11 l -2 -9 l -4 -12 l -3 -13 l -2 -12 l -1 -11 l 0 -9 l 1 -6 l 1 -3 l 1 -2 l 3 -2 l 2 -2 l 4 0 l 3 -1 l 8 2 l 5 1 l 4 2 l 8 3 l 8 5 l 10 6 l 10 6 l 8 7 l 8 6 l 7 7 l 8 6 l 7 7 l 8 6 l 7 5 l 8 3 l 8 1 l 10 0 l 11 -1 l 11 -1 l 11 -2 l 11 -1 l 8 -1 l 9 -1 l 36 0 l 8 1 l 17 0 l 10 1 l 11 1 l 10 2 l 16 4 l 7 3 l 8 4 l 7 6 l 8 6 l 7 6 l 6 7 l 7 6 l 7 8 l 8 8 l 8 7 l 9 5 l 8 4 l 9 2 l 20 0 l 10 -2 l 9 -1 l 9 -1 l 8 -1 l 8 -1 l 9 1 l 7 2 l 7 2 l 5 4 l 5 5 l 4 6 l 5 8 l 4 9 l 3 9 l 3 9 l 2 7 l 4 16 l 2 9 l 2 8 l 2 9 l 1 7 l 1 8 l 1 9 l 1 9 l 2 8 l 1 6 l 2 3 l 2 0 l 2 -3 l 3 -6 l 4 -9 l 4 -11 l 4 -12 l 4 -11 l 3 -9 l 4 -9 l 3 -10 l 8 -20 l 4 -10 l 4 -9 l 4 -8 l 8 -18 l 5 -9 l 5 -8 l 5 -9 l 6 -8 l 5 -6 l 6 -6 l 5 -6 l 7 -5 l 7 -5 l 8 -5 l 9 -4 l 16 -6 l 8 -2 l 7 -2 l 9 -2 l 9 -1 l 18 -2 l 18 0 l 8 1 l 7 0 l 8 1 l 9 2 l 8 2 l 9 2 l 8 3 l 8 2 l 8 4 l 7 3 l 8 4 l 8 5 l 9 5 l 9 5 l 8 6 l 8 5 l 8 5 l 7 5 l 8 6 l 8 6 l 8 6 l 7 6 l 7 6 l 12 12 l 6 7 l 6 7 l 5 6 l 4 5 l 3 4 l 3 1 l 2 -2 l 2 -5 l 2 -7 l 3 -7 l 3 -7 l 3 -4 l 3 -3 l 4 -3 l 5 -3 l 6 -2 l 6 -2 l 7 -2 l 7 -1 l 8 -1 l 8 -1 l 10 0 l 11 -1 l 22 0 l 10 -1 l 21 0 l 11 -1 l 11 -1 l 12 -1 l 12 -1 l 11 -1 l 11 -2 l 20 -4 l 10 -3 l 11 -3 l 11 -3 l 11 -4 l 10 -3 l 10 -3 l 9 -3 l 8 -3 l 8 -3 l 9 -3 l 9 -4 l 9 -3 l 9 -3 l 8 -4 l 8 -3 l 8 -4 l 9 -3 l 9 -4 l 9 -3 l 9 -2 l 9 0 l 8 1 l 7 3 l 7 4 l 6 7 l 7 9 l 7 11 l 7 12 l 6 13 l 6 12 l 6 13 l 5 10 l 5 11 l 5 12 l 6 12 l 6 13 l 6 13 l 6 13 l 6 12 l 5 12 l 6 12 l 4 10 l 5 10 l 4 11 l 5 12 l 6 11 l 5 13 l 5 12 l 5 12 l 4 12 l 5 11 l 4 11 l 4 11 l 4 11 l 4 11 l 4 12 l 4 12 l 4 12 l 4 13 l 4 12 l 3 12 l 4 12 l 3 11 l 4 10 l 3 11 l 4 11 l 4 12 l 4 13 l 4 12 l 4 12 l 4 12 l 4 11 l 4 10 l 3 9 l 3 9 l 2 7 l 2 8 l 2 7 l 1 7 l 0 8 l -1 8 l -2 7 l -4 8 l -4 7 l -6 8 l -6 6 l -6 6 l -8 7 l -8 8 l -11 8 l -12 8 l -13 10 l -15 9 l -16 10 l -18 10 l -18 10 l -19 11 l -21 10 l -21 11 l -14 6 l -16 8 l -16 7 l -17 7 l -18 8 l -19 8 l -20 9 l -21 8 l -21 9 l -23 9 l -23 9 l -23 9 l -24 8 l -23 9 l -24 8 l -23 8 l -24 8 l -23 7 l -44 14 l -23 7 l -21 6 l -22 6 l -23 6 l -22 6 l -24 5 l -23 6 l -25 5 l -25 5 l -25 5 l -26 5 l -54 10 l -27 4 l -26 4 l -27 4 l -27 3 l -26 4 l -26 3 l -26 2 l -25 3 l -25 2 l -24 2 l -25 2 l -23 2 l -23 1 l -72 3 l -25 1 l -52 2 l -54 0 l -27 1 l -26 0 l -27 -1 l -53 0 l -50 -2 l -24 0 l -23 -1 l -22 -1 l -22 -2 l -21 -1 l -20 -1 l -19 -2 l -26 -2 l -25 -3 l -24 -3 l -25 -3 l -24 -3 l -24 -4 l -24 -5 l -24 -5 l -23 -5 l -22 -5 l -42 -12 l -19 -7 l -36 -14 l -16 -7 l -15 -7 l -15 -8 l -14 -8 l -14 -9 l -15 -9 l -14 -10 l -14 -11 l -14 -11 l -14 -12 l -14 -13 l -14 -13 l -14 -13 l -14 -14 l -13 -14 l -13 -13 l -12 -14 l -12 -14 l -12 -13 l -12 -14 l -11 -13 l -13 -16 l -13 -16 l -13 -17 l -14 -17 l -13 -17 l -13 -18 l -13 -18 l -12 -18 l -20 -34 l -8 -16 l -7 -15 l -4 -14 l -4 -13 l -1 -11 l 1 -11 l 2 -11 l 5 -10 l 7 -9 l 10 -9 l 11 -8 l 13 -7 l 15 -6 l 16 -6 l 16 -5 l 16 -4 l 16 -3 l 15 -3 l 15 -2 l 14 -2 l 15 -3 l 15 -2 l 15 -2 l 28 -4 l 14 -1 l 13 -2 l 12 -1 l 12 -1 l 11 -1 l 10 -1 Z" />
<path style="fill:rgb(100%,84%,0%);" d="M 2452 4170 l -1 0 l -3 -3 l -9 -7 l -15 -11 l -19 -14 l -21 -17 l -22 -16 l -21 -16 l -19 -15 l -17 -12 l -15 -12 l -13 -10 l -12 -9 l -11 -8 l -12 -10 l -12 -10 l -12 -9 l -12 -10 l -11 -9 l -11 -9 l -10 -9 l -10 -8 l -9 -7 l -8 -7 l -7 -6 l -6 -6 l -9 -8 l -8 -7 l -7 -8 l -7 -6 l -5 -7 l -5 -5 l -3 -5 l -2 -5 l -1 -6 l 0 -5 l 2 -6 l 2 -6 l 4 -6 l 3 -6 l 4 -5 l 10 -14 l 5 -8 l 5 -9 l 4 -8 l 3 -6 l 6 -16 l 2 -8 l 3 -9 l 2 -8 l 2 -8 l 2 -7 l 1 -9 l 2 -9 l 1 -10 l 1 -11 l 1 -10 l 0 -38 l -1 -11 l 0 -11 l -1 -10 l -1 -11 l -1 -9 l -1 -10 l -2 -9 l -2 -11 l -3 -10 l -2 -11 l -3 -10 l -3 -10 l -3 -10 l -3 -9 l -3 -10 l -4 -11 l -5 -12 l -5 -11 l -5 -11 l -6 -10 l -7 -10 l -5 -8 l -7 -8 l -7 -8 l -24 -24 l -8 -7 l -8 -6 l -7 -5 l -7 -5 l -8 -5 l -16 -8 l -6 -3 l -6 -4 l -3 -4 l -1 -3 l 0 -5 l 3 -5 l 4 -6 l 5 -8 l 6 -8 l 5 -8 l 4 -9 l 1 -8 l -1 -7 l -3 -7 l -7 -7 l -10 -7 l -11 -7 l -13 -7 l -13 -6 l -13 -5 l -12 -5 l -11 -4 l -11 -5 l -10 -4 l -11 -4 l -10 -4 l -10 -5 l -9 -3 l -8 -4 l -8 -4 l -9 -4 l -9 -5 l -10 -5 l -10 -6 l -10 -5 l -10 -5 l -10 -4 l -8 -4 l -9 -4 l -9 -5 l -11 -4 l -10 -5 l -11 -5 l -11 -4 l -11 -5 l -10 -5 l -10 -4 l -12 -6 l -13 -6 l -13 -6 l -13 -5 l -11 -5 l -8 -2 l -7 -1 l -4 1 l -1 3 l 0 5 l 3 7 l 5 9 l 6 9 l 6 10 l 7 10 l 7 9 l 6 8 l 7 9 l 7 9 l 7 9 l 6 9 l 7 9 l 6 9 l 6 9 l 5 9 l 6 10 l 6 11 l 6 12 l 12 22 l 5 10 l 5 10 l 5 9 l 4 9 l 5 9 l 5 10 l 5 10 l 4 11 l 8 20 l 4 12 l 4 12 l 4 13 l 4 13 l 5 12 l 5 11 l 4 8 l 5 6 l 4 3 l 4 1 l 10 0 l 5 -2 l 6 -3 l 10 -8 l 5 -4 l 5 -4 l 9 -7 l 9 -7 l 9 -6 l 10 -5 l 9 -3 l 9 0 l 6 1 l 6 3 l 7 5 l 7 5 l 14 14 l 7 7 l 6 8 l 7 7 l 7 9 l 7 9 l 7 9 l 7 10 l 7 9 l 5 9 l 5 9 l 8 18 l 4 10 l 3 10 l 2 10 l 2 10 l 2 8 l 1 8 l 2 9 l 1 9 l 0 28 l -1 8 l -4 18 l -3 10 l -4 9 l -4 9 l -5 8 l -6 6 l -7 7 l -8 7 l -16 12 l -6 5 l -7 5 l -6 5 l -7 4 l -6 4 l -7 2 l -6 1 l -6 -2 l -7 -3 l -8 -4 l -8 -5 l -8 -6 l -7 -6 l -6 -5 l -7 -6 l -8 -6 l -7 -6 l -7 -6 l -6 -5 l -7 -5 l -7 -5 l -7 -6 l -16 -12 l -7 -5 l -5 -4 l -6 -5 l -7 -5 l -7 -6 l -7 -6 l -8 -5 l -7 -5 l -7 -5 l -7 -6 l -7 -5 l -8 -6 l -7 -7 l -6 -6 l -5 -7 l -3 -7 l -1 -7 l 0 -7 l 2 -8 l 4 -8 l 5 -9 l 5 -9 l 5 -8 l 5 -7 l 4 -6 l 2 -4 l 1 -3 l 2 -4 l 0 -7 l -1 -2 l -1 -2 l -4 -2 l -2 -2 l -2 -1 l -3 -1 l -4 -1 l -3 -1 l -4 -1 l -5 -1 l -8 -1 l -10 -1 l -11 -2 l -14 -2 l -15 -2 l -16 -3 l -18 -4 l -18 -5 l -19 -5 l -18 -6 l -19 -7 l -19 -8 l -17 -8 l -18 -9 l -18 -9 l -19 -11 l -19 -10 l -19 -11 l -19 -11 l -18 -10 l -16 -9 l -15 -7 l -13 -7 l -11 -4 l -9 -3 l -7 -1 l -6 1 l -3 3 l -2 5 l 0 7 l 2 9 l 3 10 l 4 12 l 5 12 l 7 14 l 6 13 l 7 14 l 7 14 l 8 13 l 7 14 l 7 15 l 8 15 l 8 15 l 8 16 l 8 15 l 8 16 l 7 15 l 7 14 l 6 14 l 5 12 l 5 11 l 4 11 l 6 14 l 4 15 l 4 14 l 4 13 l 3 12 l 2 10 l 3 9 l 4 14 l 2 5 l 3 6 l 6 8 l 3 3 l 6 2 l 5 0 l 5 -2 l 6 -4 l 7 -4 l 7 -6 l 7 -7 l 6 -5 l 13 -13 l 7 -6 l 8 -6 l 14 -8 l 7 -1 l 6 -1 l 14 4 l 8 5 l 8 5 l 8 6 l 8 6 l 16 14 l 9 7 l 10 8 l 11 9 l 10 9 l 10 8 l 9 8 l 9 7 l 8 6 l 8 7 l 7 8 l 8 7 l 7 8 l 7 8 l 5 7 l 6 8 l 4 8 l 4 9 l 4 9 l 3 11 l 2 10 l 1 9 l 0 9 l -2 8 l -3 8 l -5 7 l -6 8 l -9 8 l -11 7 l -12 7 l -13 7 l -15 7 l -9 4 l -10 4 l -11 4 l -12 4 l -13 4 l -13 4 l -15 4 l -15 3 l -16 3 l -16 2 l -15 1 l -16 1 l -32 0 l -16 -1 l -17 -2 l -17 -3 l -18 -4 l -19 -4 l -18 -4 l -18 -5 l -18 -6 l -16 -5 l -15 -6 l -13 -6 l -12 -5 l -9 -5 l -8 -5 l -5 -4 l -4 -3 l -3 -4 l -3 -3 l -2 -3 l -1 -4 l -1 -3 l 0 -6 l 1 -4 l 2 -3 l 1 -3 l 3 -3 l 2 -3 l 3 -2 l 3 -3 l 3 -2 l 3 -3 l 6 -4 l 8 -5 l 8 -6 l 8 -5 l 8 -6 l 7 -6 l 7 -6 l 5 -6 l 4 -5 l 2 -4 l 1 -5 l 1 -4 l 0 -10 l -2 -5 l -6 -10 l -5 -5 l -5 -4 l -7 -4 l -8 -4 l -9 -3 l -10 -4 l -12 -4 l -14 -4 l -15 -5 l -16 -5 l -18 -5 l -17 -6 l -18 -6 l -18 -7 l -17 -8 l -18 -8 l -30 -16 l -16 -10 l -16 -10 l -17 -10 l -16 -11 l -17 -11 l -15 -10 l -16 -10 l -14 -9 l -12 -8 l -12 -7 l -10 -6 l -9 -4 l -5 -2 l -12 -3 l -10 0 l -2 1 l -3 1 l -2 1 l -4 4 l -1 3 l -2 6 l 0 3 l -1 4 l 0 4 l 1 4 l 0 5 l 1 4 l 2 10 l 2 5 l 1 5 l 2 6 l 4 10 l 4 11 l 5 13 l 7 13 l 7 15 l 8 15 l 8 16 l 10 17 l 9 16 l 10 17 l 11 16 l 10 16 l 11 16 l 10 16 l 10 13 l 10 14 l 11 14 l 11 15 l 12 14 l 13 15 l 12 15 l 14 15 l 13 15 l 13 14 l 13 13 l 13 12 l 13 12 l 12 10 l 12 10 l 12 9 l 13 10 l 13 9 l 14 8 l 15 8 l 14 8 l 16 7 l 15 6 l 15 6 l 16 5 l 15 4 l 14 4 l 15 4 l 14 3 l 14 3 l 13 2 l 15 2 l 15 3 l 15 2 l 16 2 l 17 1 l 32 2 l 16 1 l 31 0 l 14 -1 l 13 -1 l 13 -1 l 14 -2 l 15 -3 l 14 -3 l 15 -4 l 15 -5 l 14 -5 l 14 -5 l 14 -6 l 13 -6 l 12 -5 l 12 -6 l 11 -5 l 13 -6 l 13 -7 l 13 -7 l 14 -7 l 13 -7 l 13 -7 l 11 -7 l 11 -6 l 9 -5 l 7 -5 l 7 -4 l 7 -5 l 6 -4 l 6 -3 l 6 -3 l 6 -1 l 5 -1 l 6 0 l 6 1 l 14 6 l 9 5 l 9 7 l 11 7 l 12 9 l 12 9 l 12 10 l 12 10 l 12 11 l 12 10 l 10 9 l 11 9 l 11 10 l 11 10 l 12 10 l 12 11 l 12 10 l 12 11 l 11 10 l 11 9 l 10 9 l 10 8 l 10 8 l 10 8 l 10 9 l 12 9 l 13 10 l 14 10 l 15 12 l 13 10 l 12 9 l 7 5 l 3 3 l 1 0" />
<path d="M 2876 5202 l 1 1 l 3 4 l 7 10 l 10 14 l 11 15 l 11 13 l 9 12 l 8 10 l 7 8 l 6 7 l 8 8 l 8 8 l 9 8 l 9 7 l 10 7 l 9 7 l 9 6 l 9 5 l 9 6 l 10 6 l 11 6 l 12 7 l 11 6 l 11 6 l 10 4 l 10 5 l 9 3 l 9 4 l 10 3 l 9 3 l 10 2 l 8 2 l 9 2 l 7 2 l 8 2 l 8 2 l 8 1 l 9 2 l 9 2 l 9 2 l 8 1 l 8 1 l 8 1 l 9 1 l 9 1 l 9 1 l 17 0 l 8 1 l 15 0 l 8 -1 l 10 0 l 10 -1 l 6 -1 l 1 0" />
<path d="M 3161 5427 l 1 0 l 4 3 l 10 6 l 16 10 l 19 11 l 20 12 l 18 11 l 17 9 l 14 8 l 13 7 l 10 5 l 11 5 l 22 10 l 11 4 l 12 4 l 11 3 l 11 3 l 11 2 l 10 3 l 10 1 l 10 2 l 10 2 l 10 2 l 12 1 l 12 2 l 12 1 l 13 2 l 12 0 l 11 1 l 22 0 l 10 -1 l 10 -1 l 10 -2 l 11 -2 l 11 -2 l 22 -6 l 10 -3 l 10 -3 l 10 -3 l 10 -3 l 11 -3 l 11 -3 l 11 -4 l 12 -3 l 12 -4 l 12 -3 l 12 -4 l 10 -3 l 11 -3 l 10 -4 l 11 -3 l 11 -4 l 12 -3 l 12 -4 l 12 -4 l 13 -3 l 12 -3 l 11 -3 l 12 -2 l 11 -3 l 13 -2 l 13 -2 l 14 -2 l 15 -2 l 15 -2 l 14 -2 l 14 -1 l 13 -2 l 12 -1 l 13 -1 l 12 -2 l 14 -2 l 14 -2 l 14 -2 l 14 -2 l 14 -3 l 14 -4 l 14 -3 l 13 -4 l 22 -8 l 13 -4 l 13 -5 l 13 -6 l 14 -5 l 13 -6 l 13 -6 l 13 -6 l 13 -5 l 11 -6 l 12 -5 l 13 -6 l 13 -6 l 14 -6 l 14 -6 l 14 -6 l 14 -6 l 13 -6 l 12 -5 l 12 -5 l 11 -5 l 11 -5 l 12 -4 l 11 -5 l 12 -5 l 12 -6 l 11 -5 l 11 -5 l 10 -5 l 9 -5 l 8 -4 l 10 -7 l 10 -7 l 9 -7 l 10 -8 l 9 -9 l 9 -9 l 8 -9 l 7 -9 l 6 -8 l 6 -9 l 7 -10 l 8 -12 l 9 -15 l 10 -15 l 8 -14 l 7 -10 l 3 -4 l 0 -1" />
<path style="fill:rgb(82%,0%,0%);" d="M 2640 4897 l 3 5 l 4 5 l 5 5 l 4 5 l 5 4 l 5 4 l 12 6 l 7 3 l 7 2 l 7 2 l 7 1 l 7 1 l 16 2 l 7 1 l 7 1 l 7 0 l 6 1 l 7 1 l 7 1 l 6 0 l 5 1 l 5 -1 l 6 0 l 6 -1 l 7 -1 l 8 -2 l 8 -1 l 7 -2 l 8 -1 l 8 -2 l 10 -2 l 10 -2 l 9 -3 l 8 -2 l 8 -3 l 10 -4 l 9 -5 l 10 -5 l 16 -12 l 6 -5 l 6 -5 l 6 -6 l 6 -7 l 6 -6 l 5 -7 l 5 -7 l 6 -7 l 6 -8 l 6 -9 l 7 -10 l 6 -9 l 7 -8 l 6 -9 l 6 -9 l 7 -9 l 7 -8 l 6 -8 l 11 -11 l 4 -6 l 5 -5 l 4 -4 l 3 -5 l 3 -4 l 2 -5 l 1 -7 l 0 -14 l -2 -12 l -2 -7 l -2 -8 l -2 -7 l -3 -6 l -2 -5 l -2 -6 l -3 -6 l -3 -5 l -2 -6 l -6 -10 l -4 -6 l -3 -6 l -4 -6 l -8 -12 l -1 -2 l -2 -2 l -2 -2 l -4 -4 l -3 -1 l -4 -1 l -5 0 l -5 1 l -12 4 l -8 3 l -8 4 l -9 5 l -10 7 l -11 7 l -11 7 l -11 8 l -13 10 l -14 10 l -15 11 l -15 12 l -16 13 l -17 14 l -17 13 l -16 14 l -17 14 l -16 13 l -15 13 l -14 12 l -13 12 l -12 11 l -11 10 l -10 9 l -13 12 l -11 11 l -17 19 l -5 8 l -5 7 l -2 5 l -2 5 l 0 7 l 1 3 Z7" />
<path d="M 2891 5190 l 2 1 l 9 3 l 13 4 l 13 5 l 10 3 l 9 3 l 8 3 l 9 3 l 10 3 l 9 3 l 9 3 l 9 2 l 8 2 l 9 2 l 10 1 l 9 1 l 9 2 l 8 1 l 8 0 l 8 1 l 8 1 l 8 0 l 8 1 l 7 0 l 7 1 l 68 0 l 4 -1 l 4 0 l 1 -1 l 1 0 l 0 -1 l 1 0 l 0 -1" />
<path style="fill:rgb(100%,100%,100%);" d="M 2468 6609 l -6 -7 l -6 -7 l -8 -7 l -8 -7 l -8 -8 l -9 -7 l -8 -7 l -7 -6 l -8 -6 l -9 -7 l -9 -6 l -9 -7 l -10 -6 l -10 -6 l -9 -5 l -9 -4 l -10 -5 l -11 -4 l -11 -3 l -13 -4 l -12 -3 l -13 -3 l -12 -2 l -11 -2 l -10 -1 l -10 -1 l -10 -2 l -11 0 l -11 -1 l -12 -1 l -23 0 l -11 -1 l -10 1 l -23 0 l -13 1 l -13 0 l -14 1 l -13 1 l -14 2 l -13 1 l -13 2 l -12 2 l -10 1 l -11 2 l -11 2 l -11 2 l -12 2 l -13 3 l -12 3 l -13 3 l -26 6 l -12 3 l -13 4 l -11 2 l -12 4 l -13 3 l -13 3 l -28 8 l -15 5 l -15 4 l -15 5 l -14 4 l -15 5 l -14 5 l -13 4 l -13 5 l -15 6 l -16 6 l -16 6 l -16 6 l -16 7 l -17 8 l -15 7 l -15 7 l -14 6 l -12 6 l -11 6 l -10 6 l -14 8 l -12 8 l -11 8 l -11 9 l -8 8 l -7 7 l -6 7 l -5 6 l -6 8 l -5 9 l -4 10 l -3 10 l -2 10 l -1 10 l 0 16 l 1 10 l 2 10 l 2 10 l 2 11 l 2 9 l 3 10 l 6 18 l 4 10 l 5 10 l 5 10 l 6 10 l 5 9 l 7 8 l 6 7 l 8 8 l 9 8 l 10 8 l 10 7 l 11 7 l 11 6 l 11 6 l 9 4 l 10 5 l 10 4 l 12 4 l 12 4 l 12 4 l 12 4 l 12 3 l 12 3 l 12 3 l 12 2 l 13 2 l 13 2 l 15 2 l 15 1 l 16 2 l 15 1 l 15 1 l 14 1 l 15 1 l 11 0 l 13 1 l 13 0 l 13 1 l 28 0 l 14 1 l 27 0 l 12 1 l 12 0 l 11 1 l 26 0 l 14 1 l 13 0 l 14 1 l 14 0 l 12 1 l 12 0 l 12 1 l 32 0 l 11 1 l 101 0 l 9 -1 l 10 -1 l 10 -1 l 11 -2 l 22 -8 l 11 -5 l 11 -7 l 11 -7 l 11 -9 l 11 -10 l 11 -11 l 9 -12 l 10 -13 l 10 -14 l 10 -15 l 10 -17 l 11 -18 l 10 -19 l 10 -19 l 10 -19 l 10 -19 l 9 -18 l 8 -18 l 7 -16 l 6 -16 l 6 -14 l 5 -12 l 5 -16 l 4 -14 l 3 -13 l 2 -11 l 0 -20 l -1 -8 l -2 -7 l -2 -6 l -3 -5 l -3 -4 Z" />
<path d="M 4102 4658 l -2 1 l -8 6 l -12 8 l -12 8 l -9 5 l -8 4 l -7 3 l -8 3 l -18 4 l -9 1 l -8 1 l -7 1 l -8 0 l -8 1 l -9 0 l -9 1 l -16 0 l -8 1 l -29 0 l -10 -1 l -9 -1 l -8 -1 l -9 -2 l -10 -2 l -22 -6 l -10 -3 l -10 -4 l -8 -3 l -9 -3 l -9 -4 l -10 -4 l -10 -4 l -9 -5 l -9 -5 l -9 -4 l -9 -6 l -9 -6 l -9 -6 l -10 -7 l -10 -7 l -9 -7 l -8 -6 l -8 -6 l -7 -6 l -8 -6 l -8 -6 l -8 -6 l -8 -6 l -8 -6 l -8 -5 l -8 -5 l -8 -5 l -9 -5 l -9 -6 l -10 -5 l -11 -6 l -10 -5 l -10 -4 l -9 -5 l -10 -4 l -10 -5 l -11 -4 l -12 -4 l -12 -5 l -12 -4 l -12 -3 l -11 -3 l -10 -3 l -10 -2 l -11 -2 l -11 -2 l -12 -2 l -12 -2 l -12 -2 l -11 -1 l -11 -2 l -10 -1 l -10 -1 l -11 0 l -11 -1 l -11 -1 l -44 0 l -10 1 l -9 0 l -12 2 l -13 1 l -12 2 l -13 3 l -12 3 l -11 2 l -10 3 l -9 3 l -8 3 l -7 4 l -8 4 l -8 4 l -7 5 l -8 4 l -8 5 l -8 6 l -7 4 l -8 5 l -10 6 l -11 7 l -14 8 l -15 9 l -14 9 l -10 6 l -4 3 l -1 0" />
<path d="M 2940 2986 l -1 -1 l -7 -4 l -12 -8 l -15 -10 l -14 -9 l -12 -7 l -10 -6 l -10 -4 l -10 -4 l -10 -3 l -12 -3 l -11 -3 l -12 -2 l -12 -2 l -11 -1 l -11 -1 l -10 0 l -12 -1 l -12 1 l -12 0 l -12 1 l -12 2 l -11 2 l -10 2 l -10 3 l -10 4 l -11 4 l -11 5 l -10 5 l -10 6 l -9 5 l -7 6 l -8 6 l -7 7 l -7 7 l -7 8 l -6 8 l -6 9 l -4 8 l -4 8 l -4 9 l -3 9 l -3 11 l -2 10 l -2 11 l -2 11 l -1 10 l -1 10 l 0 40 l 2 11 l 1 10 l 3 9 l 2 9 l 4 9 l 4 9 l 5 10 l 5 10 l 7 9 l 6 9 l 6 8 l 7 7 l 6 7 l 7 6 l 8 7 l 9 6 l 8 7 l 8 5 l 8 5 l 8 5 l 8 4 l 8 4 l 9 4 l 10 4 l 10 4 l 9 3 l 10 3 l 9 2 l 9 2 l 10 2 l 10 1 l 12 2 l 11 1 l 10 1 l 11 0 l 9 1 l 19 0 l 10 1 l 10 0 l 10 -1 l 19 0 l 9 -1 l 9 -1 l 9 0 l 9 -2 l 10 -1 l 18 -2 l 9 -2 l 7 -1 l 10 -2 l 9 -1 l 10 -2 l 9 -2 l 8 -1 l 8 0 l 7 -1 l 7 0 l 14 2 l 7 2 l 7 3 l 14 7 l 9 4 l 9 4 l 9 4 l 9 2 l 10 2 l 10 1 l 12 -1 l 11 0 l 10 -1 l 9 -2 l 8 -1 l 8 -2 l 7 -3 l 6 -3 l 5 -4 l 4 -5 l 3 -6 l 3 -8 l 2 -9 l 1 -10 l 0 -20 l -1 -10 l -1 -11 l -3 -11 l -3 -11 l -3 -10 l -4 -8 l -4 -7 l -6 -7 l -8 -8 l -9 -8 l -6 -5 l -1 -1" />
<path style="fill:rgb(100%,100%,100%);" d="M 3309 2031 l 9 -14 l 10 -13 l 10 -12 l 11 -13 l 11 -12 l 11 -12 l 11 -12 l 12 -11 l 11 -10 l 12 -9 l 11 -9 l 12 -9 l 12 -9 l 14 -8 l 14 -9 l 15 -8 l 16 -8 l 17 -8 l 16 -6 l 17 -5 l 16 -4 l 15 -2 l 15 0 l 14 1 l 11 2 l 12 4 l 12 4 l 12 6 l 11 8 l 12 8 l 11 10 l 11 11 l 10 11 l 10 11 l 8 12 l 8 12 l 7 12 l 6 12 l 5 13 l 5 13 l 5 13 l 4 15 l 4 15 l 3 16 l 3 17 l 4 34 l 2 18 l 1 17 l 0 17 l 1 17 l 0 48 l -1 17 l 0 17 l -1 19 l -2 38 l -2 20 l -1 20 l -2 20 l -3 20 l -4 38 l -3 19 l -6 36 l -4 17 l -3 18 l -4 18 l -5 19 l -5 19 l -5 20 l -5 19 l -6 20 l -6 19 l -7 19 l -6 19 l -7 17 l -6 17 l -7 16 l -6 15 l -7 15 l -8 17 l -8 16 l -8 16 l -10 16 l -10 16 l -10 16 l -11 16 l -11 15 l -12 15 l -11 13 l -12 13 l -12 11 l -11 11 l -12 10 l -12 10 l -13 9 l -14 9 l -14 8 l -15 8 l -16 8 l -16 7 l -17 6 l -17 5 l -16 4 l -16 3 l -15 2 l -15 1 l -15 1 l -15 -1 l -15 -1 l -15 -3 l -16 -3 l -16 -5 l -16 -6 l -16 -6 l -15 -8 l -15 -8 l -14 -9 l -13 -9 l -12 -10 l -11 -11 l -10 -10 l -9 -12 l -9 -12 l -8 -13 l -8 -15 l -8 -15 l -7 -16 l -6 -16 l -6 -17 l -5 -16 l -4 -17 l -4 -15 l -3 -16 l -3 -14 l -2 -14 l -2 -14 l -1 -14 l -1 -15 l -1 -14 l 0 -31 l 1 -16 l 1 -16 l 2 -16 l 2 -16 l 3 -16 l 4 -15 l 3 -15 l 4 -16 l 4 -14 l 5 -14 l 5 -15 l 5 -16 l 7 -16 l 6 -18 l 7 -17 l 8 -18 l 7 -19 l 8 -18 l 8 -17 l 8 -18 l 8 -17 l 8 -16 l 8 -16 l 8 -15 l 8 -15 l 8 -16 l 8 -15 l 8 -16 l 9 -16 l 9 -16 l 10 -16 l 9 -16 l 9 -16 l 10 -15 l 9 -14 l 8 -14 l 9 -12 l 8 -12 l 7 -12 Z" />
<path style="stroke-width:45;" d="M 2498 3459 l 19 0 l 15 1 l 13 1 l 10 0 l 8 1 l 8 2 l 8 3 l 8 4 l 8 5 l 8 5 l 7 7 l 7 7 l 12 12 l 7 7 l 7 8 l 8 8 l 7 8 l 7 8 l 14 14 l 7 8 l 7 8 l 8 8 l 7 8 l 8 7 l 7 7 l 7 7 l 7 7 l 7 7 l 8 7 l 9 8 l 8 7 l 8 8 l 8 7 l 7 8 l 32 32 l 9 9 l 8 9 l 9 8 l 9 7 l 7 6 l 8 6 l 9 7 l 9 6 l 10 7 l 9 6 l 10 6 l 10 6 l 9 6 l 10 5 l 9 5 l 10 6 l 10 5 l 11 6 l 11 6 l 11 5 l 12 5 l 11 5 l 10 4 l 11 4 l 10 4 l 11 3 l 12 3 l 12 3 l 13 3 l 13 3 l 14 2 l 13 2 l 12 2 l 13 2 l 10 1 l 12 1 l 11 1 l 13 0 l 13 1 l 13 0 l 13 1 l 37 0 l 11 -1 l 11 0 l 13 -1 l 13 -1 l 13 -2 l 14 -1 l 14 -3 l 14 -2 l 13 -3 l 13 -3 l 12 -4 l 12 -3 l 12 -5 l 12 -4 l 13 -5 l 13 -6 l 14 -6 l 13 -6 l 13 -7 l 12 -5 l 12 -6 l 11 -5 l 11 -6 l 11 -5 l 11 -6 l 12 -5 l 12 -6 l 11 -6 l 12 -6 l 11 -6 l 11 -6 l 11 -6 l 11 -6 l 12 -7 l 12 -7 l 12 -7 l 12 -8 l 13 -8 l 11 -8 l 10 -7 l 10 -6 l 8 -7 l 9 -7 l 9 -8 l 8 -8 l 8 -7 l 7 -6 l 8 -6 l 7 -5 l 7 -4 l 7 -3 l 8 -2 l 10 -3 l 10 -1 l 9 -1 l 10 -1 l 8 -1 l 17 0 l 9 -1 l 29 0" />
<path style="fill:rgb(100%,100%,100%);" d="M 2870 2736 l 6 -9 l 6 -8 l 6 -9 l 7 -9 l 6 -11 l 6 -11 l 6 -12 l 6 -13 l 6 -14 l 6 -15 l 4 -13 l 5 -13 l 5 -14 l 5 -16 l 6 -17 l 6 -18 l 5 -19 l 12 -38 l 6 -18 l 6 -19 l 10 -34 l 5 -16 l 5 -16 l 5 -15 l 5 -16 l 10 -32 l 5 -16 l 5 -16 l 5 -15 l 5 -15 l 5 -14 l 5 -13 l 4 -12 l 8 -22 l 5 -13 l 5 -12 l 5 -12 l 4 -12 l 5 -12 l 5 -13 l 5 -12 l 5 -11 l 5 -11 l 4 -10 l 4 -10 l 4 -9 l 4 -12 l 5 -11 l 4 -12 l 5 -13 l 5 -12 l 4 -12 l 4 -11 l 4 -11 l 6 -18 l 3 -10 l 3 -10 l 3 -10 l 2 -20 l -1 -10 l -1 -10 l -3 -10 l -3 -8 l -3 -7 l -4 -8 l -5 -9 l -6 -8 l -6 -8 l -8 -8 l -8 -7 l -8 -6 l -9 -5 l -9 -3 l -9 -2 l -10 -2 l -11 0 l -11 2 l -13 2 l -13 3 l -13 4 l -13 5 l -13 6 l -12 5 l -11 6 l -11 5 l -9 6 l -11 7 l -11 7 l -10 7 l -10 8 l -10 9 l -10 10 l -10 10 l -10 11 l -10 11 l -10 13 l -8 9 l -8 10 l -9 12 l -9 12 l -10 13 l -11 15 l -11 14 l -10 16 l -11 15 l -11 16 l -10 15 l -10 15 l -9 15 l -9 15 l -9 15 l -9 15 l -9 16 l -9 16 l -9 16 l -9 17 l -8 17 l -8 16 l -8 16 l -7 14 l -7 14 l -6 13 l -6 12 l -5 11 l -6 12 l -5 12 l -5 11 l -4 11 l -5 12 l -4 12 l -4 11 l -3 12 l -3 13 l -3 12 l -3 13 l -2 14 l -2 12 l -2 14 l -2 14 l -1 16 l -2 17 l -1 18 l -1 17 l -1 18 l -1 18 l 0 17 l 1 16 l 0 15 l 1 14 l 2 14 l 3 17 l 4 16 l 5 15 l 6 14 l 6 14 l 7 12 l 7 11 l 7 9 l 7 8 l 7 7 l 8 7 l 8 7 l 9 7 l 9 5 l 10 5 l 9 4 l 10 3 l 9 2 l 10 2 l 24 0 l 13 -1 l 14 -3 l 13 -3 l 12 -6 l 11 -6 l 9 -6 l 10 -7 l 9 -9 l 10 -9 l 9 -10 l 9 -11 l 9 -10 l 8 -10 l 7 -10 Z" />
<path d="M 3489 1649 l 1 0 l 4 -3 l 10 -6 l 16 -8 l 19 -10 l 20 -11 l 19 -10 l 18 -8 l 16 -7 l 14 -5 l 13 -4 l 13 -4 l 13 -2 l 13 -2 l 14 -1 l 29 0 l 15 1 l 30 4 l 14 3 l 13 4 l 12 4 l 12 4 l 12 5 l 11 6 l 12 6 l 11 7 l 12 9 l 11 9 l 11 10 l 10 10 l 10 11 l 8 11 l 8 12 l 7 12 l 6 11 l 6 12 l 5 14 l 5 15 l 6 17 l 6 20 l 6 22 l 6 23 l 6 22 l 6 21 l 4 15 l 2 9 l 1 4 l 0 1" />
<path d="M 3278 1680 l 0 -1 l -1 -5 l -3 -10 l -4 -14 l -5 -16 l -5 -14 l -4 -13 l -10 -18 l -5 -6 l -7 -7 l -7 -5 l -8 -5 l -10 -5 l -10 -4 l -11 -4 l -11 -3 l -12 -2 l -11 -2 l -11 -1 l -11 -1 l -12 -1 l -13 0 l -14 1 l -14 1 l -15 2 l -14 3 l -13 4 l -13 4 l -13 5 l -20 12 l -11 7 l -11 8 l -12 9 l -12 10 l -12 11 l -13 11 l -12 12 l -12 11 l -11 12 l -12 12 l -9 10 l -10 9 l -10 11 l -10 11 l -11 11 l -11 12 l -11 13 l -12 13 l -11 14 l -12 13 l -11 14 l -11 14 l -10 13 l -10 13 l -10 13 l -9 14 l -9 13 l -9 14 l -9 14 l -9 15 l -9 16 l -9 16 l -9 16 l -9 17 l -9 17 l -8 16 l -8 16 l -7 16 l -7 15 l -6 15 l -6 14 l -6 13 l -6 15 l -6 16 l -6 15 l -5 16 l -12 32 l -5 16 l -5 15 l -5 16 l -5 14 l -4 14 l -5 13 l -4 12 l -4 12 l -5 13 l -4 14 l -6 14 l -5 14 l -5 14 l -6 15 l -6 14 l -5 14 l -6 14 l -5 13 l -5 13 l -5 13 l -4 13 l -5 14 l -6 15 l -6 17 l -7 19 l -7 22 l -8 23 l -7 22 l -6 17 l -4 12 l -2 5 l 0 1" />
<path style="fill:rgb(100%,84%,0%);" d="M 4036 5613 l 12 8 l 12 8 l 11 8 l 12 7 l 12 8 l 11 7 l 11 7 l 11 7 l 10 6 l 9 6 l 10 6 l 8 5 l 22 14 l 11 7 l 12 7 l 11 8 l 12 7 l 12 8 l 10 7 l 10 6 l 10 7 l 9 6 l 10 6 l 10 6 l 10 7 l 9 6 l 10 7 l 9 5 l 8 6 l 7 4 l 6 4 l 10 7 l 9 5 l 9 5 l 8 4 l 7 3 l 6 2 l 7 1 l 14 0 l 7 -1 l 6 -2 l 5 -2 l 6 -2 l 5 -4 l 5 -3 l 4 -3 l 8 -8 l 3 -5 l 4 -5 l 4 -5 l 3 -5 l 8 -10 l 5 -6 l 3 -5 l 3 -5 l 4 -6 l 3 -7 l 2 -7 l 2 -7 l 1 -6 l 0 -13 l -1 -7 l -1 -8 l -1 -6 l -1 -6 l -2 -5 l -3 -5 l -3 -6 l -4 -5 l -9 -9 l -5 -4 l -5 -5 l -7 -5 l -7 -5 l -7 -5 l -7 -5 l -7 -5 l -8 -5 l -9 -6 l -20 -12 l -9 -6 l -8 -5 l -9 -5 l -9 -6 l -11 -7 l -10 -7 l -10 -6 l -10 -7 l -9 -6 l -10 -6 l -9 -6 l -10 -7 l -11 -6 l -9 -6 l -9 -6 l -8 -5 l -8 -4 l -6 -4 l -7 -4 l -7 -4 l -7 -4 l -14 -8 l -7 -4 l -7 -5 l -8 -6 l -9 -6 l -9 -6 l -10 -8 l -9 -7 l -9 -6 l -7 -5 l -6 -5 l -5 -3 l -4 -3 l -3 -2 l -4 -1 l -14 0 l -6 1 l -7 1 l -8 1 l -9 2 l -10 1 l -12 2 l -12 2 l -13 2 l -12 1 l -12 2 l -12 2 l -12 2 l -12 2 l -12 1 l -13 2 l -12 3 l -12 2 l -10 2 l -10 1 l -8 2 l -7 2 l -3 1 l -2 0 l -6 3 l -2 0 l -1 1 l -2 1 l -2 2 l 0 2 l -1 1 l 0 4 l 4 8 l 2 2 l 4 4 l 2 3 l 3 2 l 6 6 l 7 6 l 10 7 l 10 9 l 12 9 l 13 10 l 15 10 l 14 11 l 15 10 l 14 10 l 14 10 l 13 9 Z" />
<path style="fill:rgb(82%,0%,0%);" d="M 2303 4762 l 6 8 l 7 7 l 7 7 l 7 8 l 7 7 l 7 6 l 6 6 l 6 5 l 8 7 l 8 7 l 9 7 l 9 6 l 9 5 l 9 4 l 7 2 l 8 3 l 9 2 l 9 2 l 10 2 l 10 1 l 10 2 l 9 1 l 9 0 l 11 1 l 10 1 l 44 0 l 9 -1 l 9 -1 l 10 -1 l 10 -1 l 10 -2 l 11 -2 l 20 -4 l 9 -2 l 9 -2 l 10 -3 l 11 -2 l 10 -3 l 11 -3 l 10 -3 l 9 -3 l 8 -3 l 8 -2 l 8 -4 l 8 -3 l 7 -4 l 8 -4 l 7 -4 l 7 -5 l 12 -10 l 7 -6 l 7 -7 l 8 -7 l 8 -8 l 8 -9 l 7 -8 l 8 -8 l 6 -7 l 14 -14 l 7 -8 l 8 -9 l 7 -8 l 8 -8 l 7 -8 l 6 -8 l 7 -7 l 7 -9 l 16 -18 l 8 -10 l 8 -9 l 6 -9 l 7 -8 l 5 -7 l 5 -8 l 5 -7 l 4 -8 l 5 -8 l 3 -8 l 3 -7 l 3 -7 l 1 -7 l 2 -7 l 0 -8 l 1 -8 l 0 -17 l -1 -9 l 0 -8 l -2 -16 l -1 -9 l -2 -9 l -2 -9 l -2 -10 l -3 -9 l -3 -8 l -4 -7 l -5 -8 l -5 -7 l -6 -7 l -7 -8 l -7 -6 l -8 -7 l -7 -6 l -6 -5 l -7 -5 l -7 -4 l -8 -5 l -8 -5 l -8 -4 l -7 -4 l -8 -4 l -7 -3 l -7 -4 l -16 -6 l -9 -3 l -9 -2 l -8 -3 l -8 -2 l -16 -2 l -8 -1 l -9 -1 l -26 0 l -8 1 l -8 1 l -10 1 l -10 2 l -10 2 l -11 4 l -9 3 l -8 4 l -4 3 l -5 3 l -6 5 l -7 6 l -9 7 l -10 9 l -12 11 l -14 13 l -16 14 l -18 17 l -11 10 l -12 11 l -14 12 l -14 13 l -15 14 l -16 15 l -16 15 l -17 16 l -17 16 l -17 16 l -16 17 l -16 15 l -14 15 l -14 15 l -13 13 l -11 13 l -11 12 l -9 11 l -8 12 l -8 10 l -6 11 l -5 9 l -4 10 l -3 8 l -1 8 l -1 8 l 0 7 l 1 6 l 2 6 l 2 5 l 3 4 l 3 5 l 3 4 Z" />
<path style="fill:rgb(100%,100%,100%);" d="M 2288 6848 l 4 -11 l 6 -10 l 7 -12 l 8 -11 l 9 -11 l 10 -10 l 10 -10 l 9 -9 l 9 -7 l 9 -7 l 9 -7 l 8 -5 l 9 -6 l 8 -6 l 10 -5 l 9 -5 l 8 -5 l 9 -4 l 9 -4 l 8 -4 l 9 -5 l 9 -5 l 10 -5 l 11 -5 l 11 -5 l 12 -6 l 11 -5 l 11 -5 l 10 -5 l 10 -4 l 10 -4 l 10 -4 l 11 -4 l 11 -4 l 12 -4 l 12 -3 l 11 -4 l 11 -3 l 11 -3 l 11 -2 l 11 -3 l 11 -3 l 13 -2 l 13 -3 l 13 -2 l 13 -3 l 13 -2 l 13 -2 l 12 -2 l 12 -1 l 11 -2 l 12 -1 l 12 -2 l 13 -1 l 13 -1 l 13 -1 l 12 0 l 12 -1 l 22 0 l 11 -1 l 11 1 l 24 0 l 12 1 l 13 1 l 12 1 l 11 1 l 12 1 l 11 2 l 10 1 l 12 2 l 12 2 l 12 3 l 13 2 l 12 3 l 12 3 l 12 2 l 10 3 l 10 3 l 12 4 l 12 3 l 12 5 l 13 4 l 12 5 l 11 5 l 10 5 l 10 6 l 10 5 l 10 6 l 10 7 l 11 8 l 11 8 l 10 8 l 9 8 l 9 9 l 7 6 l 7 7 l 7 8 l 7 8 l 7 8 l 7 9 l 7 8 l 6 9 l 5 8 l 5 8 l 6 9 l 5 11 l 5 12 l 5 12 l 5 12 l 4 12 l 3 12 l 4 11 l 2 9 l 4 20 l 2 11 l 2 11 l 2 10 l 1 11 l 2 9 l 1 10 l 1 8 l 0 15 l -1 5 l -1 6 l -2 5 l -2 5 l -4 6 l -10 10 l -7 6 l -8 5 l -9 5 l -11 4 l -11 5 l -13 5 l -12 4 l -13 4 l -14 4 l -32 8 l -19 4 l -20 4 l -21 3 l -22 4 l -23 3 l -25 3 l -24 3 l -52 4 l -25 1 l -26 0 l -26 1 l -78 -3 l -24 -2 l -50 -6 l -26 -3 l -26 -4 l -27 -4 l -27 -5 l -56 -12 l -28 -6 l -28 -6 l -27 -7 l -26 -7 l -25 -7 l -25 -7 l -23 -7 l -22 -7 l -20 -7 l -19 -7 l -18 -7 l -16 -6 l -15 -7 l -17 -7 l -15 -8 l -14 -8 l -13 -8 l -11 -8 l -10 -8 l -9 -8 l -7 -8 l -6 -8 l -5 -8 l -3 -8 l -3 -8 l -1 -7 l -1 -7 l 0 -7 l 1 -6 l 2 -7 Z" />
<path style="fill:rgb(82%,0%,0%);" d="M 2232 4239 l -8 3 l -8 5 l -9 4 l -9 5 l -8 5 l -7 6 l -7 5 l -7 6 l -7 8 l -8 8 l -7 9 l -7 10 l -5 7 l -5 9 l -5 9 l -6 11 l -5 10 l -4 10 l -4 10 l -2 8 l -3 9 l -2 9 l -1 9 l -2 18 l 0 17 l -1 9 l 0 47 l 1 9 l 0 9 l 2 9 l 1 8 l 3 8 l 3 9 l 4 9 l 5 9 l 5 8 l 6 8 l 6 8 l 7 7 l 9 8 l 9 8 l 10 8 l 10 8 l 10 7 l 10 6 l 8 5 l 9 5 l 9 4 l 9 3 l 9 3 l 10 3 l 10 2 l 9 1 l 10 2 l 10 1 l 11 1 l 12 2 l 26 2 l 13 1 l 11 0 l 11 1 l 11 1 l 46 0 l 12 -2 l 10 -1 l 11 -2 l 18 -6 l 9 -3 l 10 -4 l 10 -5 l 11 -5 l 9 -5 l 10 -5 l 8 -6 l 9 -5 l 10 -7 l 20 -16 l 10 -9 l 9 -9 l 8 -9 l 6 -8 l 6 -8 l 5 -8 l 4 -7 l 4 -8 l 3 -9 l 3 -8 l 2 -7 l 1 -7 l 2 -7 l 1 -8 l 2 -10 l 1 -10 l 0 -22 l -1 -11 l -2 -9 l -2 -10 l -2 -11 l -3 -11 l -3 -12 l -4 -11 l -4 -10 l -3 -9 l -4 -9 l -5 -8 l -5 -9 l -6 -8 l -6 -8 l -7 -7 l -6 -7 l -7 -6 l -7 -5 l -6 -5 l -8 -5 l -9 -5 l -10 -5 l -11 -5 l -12 -5 l -12 -5 l -13 -4 l -13 -5 l -12 -3 l -13 -4 l -14 -3 l -15 -3 l -16 -4 l -16 -3 l -16 -3 l -16 -2 l -28 -4 l -12 -1 l -11 -1 l -15 -1 l -13 0 l -12 1 l -11 2 l -10 2 l -8 3 l -7 3 Z" />
<path style="fill:rgb(82%,0%,0%);" d="M 2246 4048 l 1 -8 l 1 -10 l 3 -10 l 3 -11 l 5 -10 l 4 -10 l 5 -6 l 4 -7 l 6 -7 l 6 -6 l 7 -6 l 7 -6 l 6 -5 l 7 -5 l 6 -4 l 7 -5 l 7 -4 l 8 -4 l 7 -4 l 8 -4 l 8 -3 l 7 -2 l 8 -3 l 8 -2 l 9 -3 l 10 -2 l 9 -2 l 10 -1 l 8 -2 l 9 0 l 16 -2 l 9 0 l 9 -1 l 25 0 l 8 -1 l 20 0 l 11 -1 l 38 0 l 9 1 l 9 1 l 10 2 l 8 2 l 8 2 l 8 2 l 9 4 l 9 4 l 9 4 l 10 6 l 9 6 l 7 4 l 7 6 l 9 6 l 8 7 l 8 7 l 8 7 l 6 7 l 6 6 l 5 6 l 5 7 l 4 8 l 4 7 l 3 8 l 3 8 l 4 14 l 2 7 l 2 8 l 2 9 l 1 9 l 2 10 l 1 9 l 1 10 l 0 10 l 1 10 l 0 10 l -1 12 l -1 12 l -1 12 l -2 12 l -3 11 l -3 9 l -8 18 l -6 9 l -7 8 l -8 8 l -8 7 l -8 7 l -9 5 l -7 4 l -8 4 l -9 4 l -10 3 l -10 4 l -10 3 l -11 3 l -10 2 l -11 2 l -10 2 l -10 1 l -11 1 l -12 1 l -13 1 l -13 1 l -13 1 l -48 0 l -11 -1 l -11 0 l -12 -1 l -11 -1 l -12 -2 l -12 -2 l -11 -2 l -10 -2 l -10 -3 l -9 -3 l -10 -5 l -11 -5 l -11 -6 l -10 -8 l -10 -8 l -9 -8 l -8 -8 l -8 -8 l -7 -8 l -7 -9 l -6 -10 l -7 -10 l -6 -10 l -5 -10 l -4 -9 l -3 -8 l -4 -10 l -3 -10 l -2 -10 l -1 -9 l -1 -8 l -1 -7 l -1 -6 l -2 -14 Z" />
<path d="M 1481 6669 l 1 1 l 5 3 l 12 7 l 17 10 l 18 10 l 17 10 l 16 9 l 13 7 l 13 6 l 12 5 l 10 4 l 22 8 l 12 3 l 12 4 l 13 3 l 13 3 l 13 3 l 13 2 l 12 3 l 12 1 l 12 2 l 13 2 l 12 1 l 14 2 l 14 1 l 15 1 l 16 1 l 15 1 l 16 1 l 15 0 l 15 1 l 93 0 l 15 -1 l 30 0 l 15 -1 l 15 0 l 30 -2 l 15 0 l 14 -1 l 17 0 l 18 -1 l 38 -2 l 19 0 l 19 -1 l 18 -1 l 17 -1 l 15 0 l 13 -1 l 11 0 l 9 -1 l 16 0 l 1 -1 l 3 0 l -1 1 l -7 0" />
<path d="M 3533 6267 l 0 1 l 1 7 l 1 14 l 1 16 l 1 15 l 1 11 l 0 18 l -2 10 l -1 9 l -3 9 l -3 8 l -4 7 l -3 6 l -5 6 l -5 6 l -6 7 l -6 6 l -7 5 l -7 5 l -6 3 l -6 4 l -8 3 l -8 4 l -10 3 l -9 3 l -10 3 l -10 3 l -9 2 l -10 2 l -10 3 l -13 3 l -13 3 l -14 4 l -15 4 l -16 5 l -15 4 l -17 6 l -12 4 l -14 5 l -15 5 l -17 7 l -19 7 l -22 8 l -24 10 l -25 10 l -25 9 l -23 9 l -16 7 l -11 4 l -4 2 l -1 0" />
<path d="M 3983 6181 l 0 5 l 1 10 l 2 15 l 1 19 l 2 20 l 2 18 l 1 16 l 1 15 l 1 12 l 1 11 l 1 11 l 1 12 l 0 12 l 1 12 l 0 44 l -1 10 l 0 8 l -1 8 l -2 9 l -3 9 l -3 8 l -4 9 l -5 7 l -5 7 l -6 6 l -6 5 l -7 4 l -8 4 l -10 4 l -10 5 l -12 4 l -12 3 l -11 4 l -12 4 l -11 2 l -10 4 l -12 3 l -13 4 l -13 3 l -14 4 l -14 4 l -14 3 l -13 3 l -13 3 l -11 2 l -12 3 l -12 2 l -14 2 l -14 3 l -15 3 l -15 4 l -15 3 l -16 4 l -15 5 l -16 4 l -16 5 l -12 5 l -13 4 l -14 5 l -15 6 l -17 7 l -18 8 l -21 9 l -23 10 l -23 10 l -23 11 l -22 9 l -18 8 l -13 6 l -7 3 l -4 2" />
<path style="fill:rgb(100%,100%,100%);" d="M 2263 6883 l -3 7 l -4 18 l -2 8 l 0 9 l -1 8 l 0 9 l -1 9 l 0 21 l 1 10 l 0 9 l 1 9 l 0 9 l 2 9 l 1 9 l 2 9 l 3 8 l 2 5 l 3 6 l 4 7 l 6 7 l 7 7 l 8 8 l 9 7 l 11 8 l 8 5 l 10 5 l 10 6 l 12 7 l 12 6 l 14 7 l 14 7 l 14 6 l 14 7 l 13 5 l 13 6 l 13 5 l 13 4 l 13 4 l 13 5 l 14 4 l 15 4 l 15 3 l 16 4 l 32 6 l 16 3 l 17 2 l 16 2 l 15 2 l 15 1 l 17 2 l 17 2 l 18 1 l 20 2 l 19 1 l 20 2 l 38 2 l 19 2 l 34 2 l 16 1 l 16 0 l 16 1 l 16 1 l 16 1 l 17 1 l 17 1 l 17 0 l 18 1 l 17 1 l 17 1 l 17 0 l 17 1 l 16 1 l 17 1 l 14 0 l 16 1 l 15 0 l 17 1 l 18 1 l 18 0 l 18 1 l 19 0 l 18 1 l 19 0 l 18 1 l 97 0 l 17 -1 l 17 0 l 17 -1 l 17 -1 l 18 -1 l 18 -1 l 18 -2 l 18 -1 l 18 -2 l 17 -1 l 17 -2 l 17 -2 l 17 -2 l 30 -4 l 16 -2 l 17 -2 l 18 -2 l 18 -2 l 19 -3 l 19 -2 l 18 -3 l 18 -3 l 18 -2 l 17 -3 l 17 -2 l 15 -3 l 15 -2 l 14 -2 l 15 -3 l 15 -3 l 15 -3 l 15 -3 l 15 -3 l 15 -3 l 14 -3 l 14 -3 l 14 -4 l 14 -3 l 12 -4 l 13 -3 l 11 -4 l 12 -3 l 12 -4 l 12 -3 l 12 -5 l 13 -4 l 14 -5 l 28 -10 l 15 -5 l 14 -6 l 15 -5 l 14 -6 l 14 -5 l 13 -6 l 14 -5 l 13 -6 l 14 -5 l 15 -7 l 15 -6 l 15 -7 l 16 -6 l 16 -7 l 16 -7 l 16 -7 l 14 -6 l 15 -7 l 13 -6 l 13 -5 l 12 -5 l 13 -6 l 13 -6 l 13 -6 l 13 -6 l 13 -6 l 12 -5 l 11 -5 l 11 -5 l 9 -5 l 9 -4 l 8 -3 l 7 -3 l 12 -6 l 10 -6 l 10 -5 l 8 -5 l 6 -5 l 5 -5 l 4 -5 l 5 -7 l 4 -7 l 3 -7 l 3 -7 l 2 -7 l 1 -6 l 1 -7 l 0 -7 l 1 -7 l -1 -7 l 0 -6 l -1 -6 l 0 -7 l -2 -14 l 0 -7 l -1 -6 l 0 -7 l -1 -7 l 0 -8 l -1 -9 l 0 -8 l -1 -9 l -1 -5 l 0 -6 l -2 -6 l -2 -5 l -2 -6 l -3 -5 l -8 -6 l -5 -2 l -13 0 l -8 2 l -10 4 l -11 4 l -12 6 l -14 6 l -14 7 l -14 8 l -14 7 l -14 8 l -13 6 l -13 7 l -14 7 l -15 7 l -16 7 l -16 8 l -16 7 l -15 8 l -16 6 l -14 7 l -14 6 l -12 5 l -13 5 l -13 5 l -13 5 l -13 5 l -13 5 l -14 5 l -13 4 l -14 4 l -12 5 l -13 4 l -12 3 l -12 4 l -11 3 l -11 3 l -12 4 l -12 3 l -13 4 l -14 4 l -14 4 l -15 3 l -15 4 l -15 4 l -14 3 l -15 4 l -14 3 l -15 4 l -15 3 l -16 3 l -16 3 l -17 4 l -18 3 l -19 4 l -19 3 l -19 4 l -19 3 l -19 3 l -17 2 l -17 3 l -17 2 l -15 3 l -16 1 l -32 4 l -16 2 l -16 2 l -17 1 l -17 2 l -17 1 l -16 1 l -16 1 l -16 1 l -14 1 l -15 1 l -14 1 l -14 1 l -15 1 l -15 0 l -16 1 l -17 1 l -18 1 l -18 0 l -38 2 l -19 1 l -19 0 l -19 1 l -19 0 l -19 1 l -16 0 l -16 1 l -17 0 l -18 1 l -19 0 l -19 1 l -20 0 l -20 1 l -63 0 l -20 1 l -112 0 l -19 -1 l -19 0 l -19 -1 l -20 0 l -20 -1 l -19 -1 l -20 -1 l -19 -1 l -19 -1 l -18 -1 l -17 -2 l -17 -1 l -15 -1 l -14 -2 l -14 -1 l -12 -1 l -17 -3 l -16 -2 l -15 -2 l -15 -2 l -15 -3 l -15 -3 l -14 -3 l -13 -3 l -12 -3 l -11 -2 l -10 -3 l -10 -3 l -11 -3 l -12 -4 l -12 -4 l -11 -4 l -12 -4 l -11 -4 l -20 -8 l -8 -4 l -7 -4 l -9 -5 l -9 -5 l -8 -6 l -8 -5 l -8 -6 l -7 -5 l -6 -5 l -5 -5 l -8 -6 l -8 -6 l -8 -6 l -8 -5 l -7 -5 l -5 -4 l -4 -3 l -4 -3 l -4 -2 l -3 -2 l -4 -1 l -3 0 l -3 1 l -3 2 l -5 4 l -5 6 l -6 8 l -5 9 Z" />
<path style="fill:rgb(100%,100%,100%);stroke-width:15;" d="M 4281 6302 l 7 -6 l 9 -5 l 8 -4 l 9 -4 l 8 -2 l 8 -1 l 7 -1 l 7 0 l 8 1 l 7 2 l 7 2 l 7 3 l 7 3 l 7 4 l 7 6 l 14 12 l 6 7 l 6 7 l 6 8 l 6 9 l 5 10 l 4 10 l 3 10 l 1 7 l 1 8 l 1 9 l 0 10 l -1 10 l -2 18 l -1 9 l -2 8 l -2 9 l -3 9 l -3 9 l -3 10 l -8 16 l -4 8 l -5 6 l -5 7 l -7 7 l -6 7 l -8 6 l -7 5 l -7 3 l -7 4 l -9 2 l -11 2 l -10 0 l -11 -1 l -10 -2 l -9 -2 l -9 -3 l -9 -4 l -9 -5 l -8 -4 l -8 -5 l -6 -5 l -7 -5 l -5 -5 l -6 -5 l -5 -6 l -4 -6 l -3 -5 l -3 -7 l -3 -6 l -2 -8 l -1 -8 l -1 -8 l 0 -8 l -1 -8 l 1 -9 l 0 -9 l 1 -10 l 2 -9 l 1 -7 l 2 -8 l 1 -8 l 6 -16 l 4 -9 l 4 -7 l 4 -7 l 4 -6 l 5 -8 l 6 -7 l 6 -7 l 6 -7 l 6 -6 Z" />
<g style="stroke:rgb(0%,100%,100%);">
<path d="M 3248 6546 l 6 0 l 11 1 l 15 1 l 16 2 l 16 2 l 14 1 l 12 2 l 11 2 l 10 3 l 10 2 l 11 4 l 12 4 l 14 6 l 16 6 l 16 7 l 15 7 l 11 4 l 5 3 l 1 0" />
<path d="M 3095 6246 l 14 0 l 14 1 l 18 1 l 18 0 l 18 1 l 16 2 l 14 1 l 13 1 l 12 2 l 12 2 l 12 3 l 13 3 l 14 3 l 16 5 l 18 5 l 20 6 l 21 7 l 20 6 l 16 6 l 11 3 l 4 2 l 1 0" />
<path d="M 3599 6276 l 1 0 l 5 1 l 11 1 l 17 1 l 21 2 l 22 2 l 21 2 l 20 2 l 17 2 l 15 2 l 14 2 l 14 2 l 14 2 l 14 3 l 16 2 l 17 4 l 20 3 l 21 5 l 23 4 l 22 5 l 18 3 l 11 3 l 5 1 l 1 0" />
<path d="M 3440 6504 l 45 0 l 15 1 l 13 0 l 12 1 l 10 1 l 10 1 l 10 2 l 10 2 l 12 3 l 13 3 l 16 5 l 16 5 l 15 4 l 10 3 l 5 2 l 1 0" />
<path d="M 3560 6402 l 1 0 l 5 1 l 12 1 l 19 1 l 23 2 l 24 2 l 22 2 l 20 2 l 18 2 l 16 2 l 14 2 l 13 2 l 13 2 l 14 2 l 13 3 l 32 6 l 19 5 l 19 4 l 18 4 l 15 4 l 9 2 l 4 1 l 1 0" />
<path d="M 2861 6429 l 2 0 l 3 1 l 6 1 l 9 1 l 6 1 l 7 1 l 8 1 l 10 2 l 11 2 l 12 3 l 12 2 l 12 3 l 12 3 l 12 4 l 10 3 l 11 3 l 12 4 l 13 5 l 15 5 l 16 6 l 18 7 l 17 6 l 14 6 l 8 3 l 4 2 l 1 0" />
<path d="M 2594 6492 l 6 0 l 11 1 l 17 0 l 21 1 l 22 1 l 21 2 l 20 1 l 17 1 l 16 2 l 14 1 l 15 2 l 12 2 l 13 2 l 14 3 l 15 3 l 17 3 l 19 4 l 20 5 l 22 5 l 21 5 l 18 4 l 14 3 l 9 2 l 3 1 l 1 0" />
<path d="M 3023 6360 l 1 0 l 4 1 l 9 1 l 15 3 l 18 3 l 19 3 l 18 3 l 16 3 l 15 3 l 13 3 l 12 2 l 12 3 l 12 3 l 26 8 l 15 4 l 18 6 l 19 6 l 20 6 l 19 7 l 16 5 l 10 3 l 4 2 l 1 0" />
</g>
</g>
<g style="stroke:rgb(0%,0%,0%);stroke-opacity:1;stroke-miterlimit:10;stroke-linecap:butt;stroke-linejoin:miter;fill-rule:nonzero;fill-opacity:1;stroke-width:7.5;">
<path style="fill:rgb(0%,0%,0%);" d="M 126 31 C 94 159 12 248 -58 231 C -127 214 -158 96 -126 -32 C -94 -159 -12 -248 58 -231 C 127 -214 158 -96 126 31" transform="matrix(0.035,0,0,0.035,96.18,89.005)"/>
<path style="fill:rgb(0%,0%,0%);" d="M 174 43 C 136 193 28 295 -68 271 C -163 247 -211 106 -174 -43 C -136 -193 -28 -295 67 -271 C 163 -247 211 -106 174 43" transform="matrix(0.035,0,0,0.035,115.185,93.205)"/>
<path style="fill:rgb(100%,100%,100%);" d="M 54 10 C 30 147 -79 128 -54 -10 C -30 -147 79 -128 54 10" transform="matrix(0.035,0,0,0.035,114.1,91.105)"/>
<path style="fill:rgb(100%,100%,100%);" d="M 54 10 C 30 147 -79 128 -54 -10 C -30 -147 79 -128 54 10" transform="matrix(0.035,0,0,0.035,95.83,87.325)"/>
</g>
</svg>
